<svg width="1418" height="1250" viewBox="0 0 1418 1250" fill="none" xmlns="http://www.w3.org/2000/svg">
<g clip-path="url(#clip0_91_3)">
<path d="M1407.58 497.379C1400.46 447.177 1343.13 449.664 1343.13 449.664V406.25C1336.21 362.769 1297.9 355.78 1297.9 355.78L1242.53 356.317C1238.16 356.384 1234.66 352.89 1234.66 348.521V224.664L1005.5 6.58594L407.923 11.1558L183.933 226.411V345.766C183.933 350.672 179.968 354.637 175.062 354.637H132.522C124.861 354.637 117.2 355.712 110.009 358.266C90.52 365.188 80.2378 377.621 74.9287 387.433C71.2997 394.22 69.6868 401.882 69.5524 409.476L69.0819 444.019C12.0931 452.419 8.19531 496.169 8.19531 496.169V648.79C20.2248 692.339 70.8292 694.019 70.8292 694.019V735.484C70.8292 740.659 72.1061 745.901 74.9287 750.269C92.9393 778.159 121.635 778.226 121.904 778.226H175.734C180.237 778.226 183.933 781.855 183.933 786.425V886.089L562.761 1243.41H859.264L1233.45 886.089V786.828C1233.45 783.065 1239.77 776.546 1243.67 776.546L1293.06 776.949C1298.04 777.016 1303.08 776.411 1307.71 774.597C1328.68 766.263 1338.16 744.825 1341.72 734.073C1342.93 730.376 1343.47 726.478 1343.4 722.581L1343.2 685.551C1379.49 684.476 1398.84 660.954 1406.3 646.237C1408.65 641.532 1409.8 636.357 1409.73 631.048L1407.58 497.379ZM73.1142 657.661C73.1142 660.753 70.6276 663.306 67.469 663.306H53.4235C53.4235 663.306 42.1332 661.626 34.6064 645.027C33.9344 643.75 33.6655 642.271 33.6655 640.86V499.126C33.6655 499.126 31.5822 485.417 50.5337 474.059C52.4154 472.984 54.5659 472.446 56.6492 472.446H65.5873C69.754 472.446 73.1142 475.806 73.1142 479.973V657.661ZM182.253 747.648C182.253 751.949 178.691 755.578 174.256 755.578H122.576C119.149 755.578 115.721 754.704 112.697 752.823C106.38 749.059 96.5683 741.667 97.5091 731.788V406.855C97.5091 406.855 98.114 386.559 122.979 384.207H176.877C179.834 384.207 182.253 386.626 182.253 389.583V568.616V747.648ZM439.845 33.8037H978.82V56.3843L892.933 300.739H529.764L439.845 55.8467V33.8037ZM426.942 1061.02H400.8L214.108 886.358V719.892H241.863L426.942 862.634V1061.02ZM845.017 1216.53H577.008L528.554 1162.77L584.871 1085.01C599.925 1083.94 830.165 1084.61 830.165 1084.61L888.766 1164.05L845.017 1216.53ZM1207.92 880.04L1016.39 1061.02H993.067V862.634L1182.78 719.892H1207.92V880.04ZM1207.92 670.833L964.908 856.519V1110.08L926.602 1148.86H906.777L838.364 1056.65L581.981 1056.05L517.533 1141.33H490.315L453.756 1104.77V857.124L214.108 677.823V454.469V231.116L395.155 57.0564H414.308L515.181 329.704C542.6 329.771 567.331 340.86 585.341 358.871C603.352 376.814 614.508 401.613 614.575 428.965L616.39 895.565C616.39 909.745 627.881 921.169 641.994 921.169L641.524 327.554L669.682 329.167C685.139 329.301 697.639 341.935 697.572 357.46L696.564 908.938C696.564 915.39 701.873 920.565 708.257 920.43L713.499 920.296C718.943 920.161 723.244 915.726 723.244 910.35V357.997C723.244 342.271 736.079 329.57 751.738 329.771L777.141 328.696L777.746 920.632C785.138 920.632 791.791 917.608 796.63 912.769C801.469 907.93 804.426 901.277 804.426 893.884L803.082 435.887C802.88 377.016 850.259 329.032 909.129 328.562L1004.36 57.0564H1025.12L1207.92 231.116V670.833ZM1308.45 743.952C1304.62 749.664 1298.04 752.688 1291.25 752.688H1243C1238.43 752.688 1234.66 748.925 1234.66 744.355V392.137C1234.66 387.769 1238.23 384.207 1242.59 384.207H1289.17C1289.17 384.207 1308.66 382.191 1313.56 402.755V725.403C1313.56 725.403 1314.57 734.879 1308.45 743.952ZM1387.22 637.231C1383.79 651.142 1367.53 663.306 1367.53 663.306H1348.04C1345.28 663.306 1343.2 661.156 1343.2 658.535C1343.53 632.527 1343.2 508.804 1343.6 482.527C1343.74 479.771 1345.69 477.688 1348.37 477.688H1365.17C1386.68 482.325 1387.22 500.874 1387.22 500.874V637.231Z" fill="#663333"/>
<path d="M182.253 747.648C182.253 751.949 178.691 755.578 174.256 755.578H122.576C119.149 755.578 115.721 754.704 112.697 752.823C106.38 749.059 96.5683 741.667 97.5091 731.788V406.855C97.5091 406.855 98.114 386.559 122.979 384.207H176.877C179.834 384.207 182.253 386.626 182.253 389.583V568.616V747.648Z" fill="#F0EAE0"/>
<path d="M1308.45 743.952C1304.62 749.664 1298.04 752.688 1291.25 752.688H1243C1238.43 752.688 1234.66 748.925 1234.66 744.355V392.137C1234.66 387.769 1238.23 384.207 1242.59 384.207H1289.17C1289.17 384.207 1308.66 382.191 1313.56 402.755V725.403C1313.56 725.403 1314.57 734.879 1308.45 743.952Z" fill="#F0EAE0"/>
<path d="M1207.92 670.833L964.908 856.519V1110.08L926.602 1148.86H906.777L838.364 1056.65L581.981 1056.05L517.533 1141.33H490.315L453.756 1104.77V857.124L214.108 677.823V454.469V231.116L395.155 57.0564H414.308L515.181 329.704C542.6 329.771 567.331 340.86 585.341 358.871C603.352 376.814 614.508 401.613 614.575 428.965L616.39 895.565C616.39 909.745 627.881 921.169 641.994 921.169L641.524 327.554L669.682 329.167C685.139 329.301 697.639 341.935 697.572 357.46L696.564 908.938C696.564 915.39 701.873 920.565 708.257 920.43L713.499 920.296C718.943 920.161 723.244 915.726 723.244 910.35V357.997C723.244 342.271 736.079 329.57 751.738 329.771L777.141 328.696L777.746 920.632C785.138 920.632 791.791 917.608 796.63 912.769C801.469 907.93 804.426 901.277 804.426 893.884L803.082 435.887C802.88 377.016 850.259 329.032 909.129 328.562L1004.36 57.0564H1025.12L1207.92 231.116V670.833Z" fill="#F0EAE0"/>
<path d="M1407.58 497.379C1400.46 447.177 1343.13 449.664 1343.13 449.664V406.25C1336.21 362.769 1297.9 355.78 1297.9 355.78L1242.53 356.317C1238.16 356.384 1234.66 352.89 1234.66 348.521V224.664L1005.5 6.58594L407.923 11.1558L183.933 226.411V345.766C183.933 350.672 179.968 354.637 175.062 354.637H132.522C124.861 354.637 117.2 355.712 110.009 358.266C90.52 365.188 80.2378 377.621 74.9287 387.433C71.2997 394.22 69.6868 401.882 69.5524 409.476L69.0819 444.019C12.0931 452.419 8.19531 496.169 8.19531 496.169V648.79C20.2248 692.339 70.8292 694.019 70.8292 694.019V735.484C70.8292 740.659 72.1061 745.901 74.9287 750.269C92.9393 778.159 121.635 778.226 121.904 778.226H175.734C180.237 778.226 183.933 781.855 183.933 786.425V886.089L562.761 1243.41H859.264L1233.45 886.089V786.828C1233.45 783.065 1239.77 776.546 1243.67 776.546L1293.06 776.949C1298.04 777.016 1303.08 776.411 1307.71 774.597C1328.68 766.263 1338.16 744.825 1341.72 734.073C1342.93 730.376 1343.47 726.478 1343.4 722.581L1343.2 685.551C1379.49 684.476 1398.84 660.954 1406.3 646.237C1408.65 641.532 1409.8 636.357 1409.73 631.048L1407.58 497.379ZM73.1142 657.661C73.1142 660.753 70.6276 663.306 67.469 663.306H53.4235C53.4235 663.306 42.1332 661.626 34.6064 645.027C33.9344 643.75 33.6655 642.271 33.6655 640.86V499.126C33.6655 499.126 31.5822 485.417 50.5337 474.059C52.4154 472.984 54.5659 472.446 56.6492 472.446H65.5873C69.754 472.446 73.1142 475.806 73.1142 479.973V657.661ZM182.253 747.648C182.253 751.949 178.691 755.578 174.256 755.578H122.576C119.149 755.578 115.721 754.704 112.697 752.823C106.38 749.059 96.5683 741.667 97.5091 731.788V406.855C97.5091 406.855 98.114 386.559 122.979 384.207H176.877C179.834 384.207 182.253 386.626 182.253 389.583V568.616V747.648ZM439.845 33.8037H978.82V56.3843L892.933 300.739H529.764L439.845 55.8467V33.8037ZM426.942 1061.02H400.8L214.108 886.358V719.892H241.863L426.942 862.634V1061.02ZM845.017 1216.53H577.008L528.554 1162.77L584.871 1085.01C599.925 1083.94 830.165 1084.61 830.165 1084.61L888.766 1164.05L845.017 1216.53ZM1207.92 880.04L1016.39 1061.02H993.067V862.634L1182.78 719.892H1207.92V880.04ZM1207.92 670.833L964.908 856.519V1110.08L926.602 1148.86H906.777L838.364 1056.65L581.981 1056.05L517.533 1141.33H490.315L453.756 1104.77V857.124L214.108 677.823V454.469V231.116L395.155 57.0564H414.308L515.181 329.704C542.6 329.771 567.331 340.86 585.341 358.871C603.352 376.814 614.508 401.613 614.575 428.965L616.39 895.565C616.39 909.745 627.881 921.169 641.994 921.169L641.524 327.554L669.682 329.167C685.139 329.301 697.639 341.935 697.572 357.46L696.564 908.938C696.564 915.39 701.873 920.565 708.257 920.43L713.499 920.296C718.943 920.161 723.244 915.726 723.244 910.35V357.997C723.244 342.271 736.079 329.57 751.738 329.771L777.141 328.696L777.746 920.632C785.138 920.632 791.791 917.608 796.63 912.769C801.469 907.93 804.426 901.277 804.426 893.884L803.082 435.887C802.88 377.016 850.259 329.032 909.129 328.562L1004.36 57.0564H1025.12L1207.92 231.116V670.833ZM1308.45 743.952C1304.62 749.664 1298.04 752.688 1291.25 752.688H1243C1238.43 752.688 1234.66 748.925 1234.66 744.355V392.137C1234.66 387.769 1238.23 384.207 1242.59 384.207H1289.17C1289.17 384.207 1308.66 382.191 1313.56 402.755V725.403C1313.56 725.403 1314.57 734.879 1308.45 743.952ZM1387.22 637.231C1383.79 651.142 1367.53 663.306 1367.53 663.306H1348.04C1345.28 663.306 1343.2 661.156 1343.2 658.535C1343.53 632.527 1343.2 508.804 1343.6 482.527C1343.74 479.771 1345.69 477.688 1348.37 477.688H1365.17C1386.68 482.325 1387.22 500.874 1387.22 500.874V637.231Z" stroke="#713A23"/>
<path d="M182.253 747.648C182.253 751.949 178.691 755.578 174.256 755.578H122.576C119.149 755.578 115.721 754.704 112.697 752.823C106.38 749.059 96.5683 741.667 97.5091 731.788V406.855C97.5091 406.855 98.114 386.559 122.979 384.207H176.877C179.834 384.207 182.253 386.626 182.253 389.583V568.616V747.648Z" stroke="#713A23"/>
<path d="M1308.45 743.952C1304.62 749.664 1298.04 752.688 1291.25 752.688H1243C1238.43 752.688 1234.66 748.925 1234.66 744.355V392.137C1234.66 387.769 1238.23 384.207 1242.59 384.207H1289.17C1289.17 384.207 1308.66 382.191 1313.56 402.755V725.403C1313.56 725.403 1314.57 734.879 1308.45 743.952Z" stroke="#713A23"/>
<path d="M1207.92 670.833L964.908 856.519V1110.08L926.602 1148.86H906.777L838.364 1056.65L581.981 1056.05L517.533 1141.33H490.315L453.756 1104.77V857.124L214.108 677.823V454.469V231.116L395.155 57.0564H414.308L515.181 329.704C542.6 329.771 567.331 340.86 585.341 358.871C603.352 376.814 614.508 401.613 614.575 428.965L616.39 895.565C616.39 909.745 627.881 921.169 641.994 921.169L641.524 327.554L669.682 329.167C685.139 329.301 697.639 341.935 697.572 357.46L696.564 908.938C696.564 915.39 701.873 920.565 708.257 920.43L713.499 920.296C718.943 920.161 723.244 915.726 723.244 910.35V357.997C723.244 342.271 736.079 329.57 751.738 329.771L777.141 328.696L777.746 920.632C785.138 920.632 791.791 917.608 796.63 912.769C801.469 907.93 804.426 901.277 804.426 893.884L803.082 435.887C802.88 377.016 850.259 329.032 909.129 328.562L1004.36 57.0564H1025.12L1207.92 231.116V670.833Z" stroke="#713A23"/>
<path d="M73.1179 478.972V656.66C73.1179 659.752 70.6313 662.306 67.4727 662.306H53.4271C53.4271 662.306 42.1369 660.625 34.6101 644.026C33.9381 642.749 33.6692 641.271 33.6692 639.859V498.125C33.6692 498.125 31.5859 484.416 50.5374 473.058C52.4191 471.983 54.5696 471.445 56.6529 471.445H65.591C69.7577 471.445 73.1179 474.805 73.1179 478.972Z" fill="#45B39D" stroke="#713A23" stroke-miterlimit="10"/>
<path d="M426.944 862.636V1061.02H400.801L214.109 886.36V719.895H241.865L426.944 862.636Z" fill="#45B39D" stroke="#713A23" stroke-miterlimit="10"/>
<path d="M888.771 1164.05L845.021 1216.53H577.013L528.559 1162.77L584.875 1085.01C599.929 1083.94 830.169 1084.61 830.169 1084.61L888.771 1164.05Z" fill="#45B39D" stroke="#713A23" stroke-miterlimit="10"/>
<path d="M1207.92 719.895V880.042L1016.39 1061.02H993.07V862.636L1182.79 719.895H1207.92Z" fill="#45B39D" stroke="#713A23" stroke-miterlimit="10"/>
<path d="M1387.22 500.873V637.23C1383.79 651.142 1367.53 663.306 1367.53 663.306H1348.04C1345.28 663.306 1343.2 661.155 1343.2 658.534C1343.54 632.526 1343.2 508.803 1343.6 482.526C1343.74 479.771 1345.69 477.688 1348.37 477.688H1365.17C1386.68 482.325 1387.22 500.873 1387.22 500.873Z" fill="#45B39D" stroke="#713A23" stroke-miterlimit="10"/>
<path d="M978.822 33.8047V56.3853L892.936 300.74H529.766L439.848 55.8477V33.8047H978.822Z" fill="#45B39D" stroke="#663333" stroke-miterlimit="10"/>
<path d="M982.79 488.102C926.473 488.102 880.707 533.733 880.707 590.185C880.707 646.637 926.473 692.335 982.79 692.335C1039.11 692.335 1085.01 646.569 1085.01 590.185C1085.01 533.801 1039.24 488.102 982.79 488.102ZM982.79 661.556C942.602 661.556 910.075 628.895 910.075 588.774C910.075 548.653 942.602 515.924 982.79 515.924C1022.98 515.924 1055.71 548.518 1055.71 588.774C1055.71 629.029 1023.11 661.556 982.79 661.556Z" stroke="#713A23" stroke-miterlimit="10"/>
<path d="M435.75 488.102C379.367 488.102 333.668 533.733 333.668 590.185C333.668 646.637 379.367 692.335 435.75 692.335C492.134 692.335 537.9 646.569 537.9 590.185C537.9 533.801 492.134 488.102 435.75 488.102ZM433.734 661.556C393.479 661.556 360.953 628.895 360.953 588.774C360.953 548.653 393.479 515.924 433.734 515.924C473.989 515.924 506.516 548.518 506.516 588.774C506.516 629.029 473.922 661.556 433.734 661.556Z" fill="#663333"/>
<path d="M506.513 588.779C506.513 628.9 473.919 661.561 433.731 661.561C393.543 661.561 360.949 628.9 360.949 588.779C360.949 548.658 393.476 515.93 433.731 515.93C473.986 515.93 506.513 548.524 506.513 588.779Z" fill="#45B39D" stroke="#713A23" stroke-miterlimit="10"/>
<path d="M982.79 488.102C926.473 488.102 880.707 533.733 880.707 590.185C880.707 646.637 926.473 692.335 982.79 692.335C1039.11 692.335 1085.01 646.569 1085.01 590.185C1085.01 533.801 1039.24 488.102 982.79 488.102ZM982.79 661.556C942.602 661.556 910.075 628.895 910.075 588.774C910.075 548.653 942.602 515.924 982.79 515.924C1022.98 515.924 1055.71 548.518 1055.71 588.774C1055.71 629.029 1023.11 661.556 982.79 661.556Z" fill="#663333"/>
<path d="M1055.7 588.779C1055.7 628.9 1023.11 661.561 982.789 661.561C942.466 661.561 910.074 628.9 910.074 588.779C910.074 548.658 942.601 515.93 982.789 515.93C1022.98 515.93 1055.7 548.524 1055.7 588.779Z" fill="#45B39D" stroke="#713A23" stroke-miterlimit="10"/>
</g>
<defs>
<clipPath id="clip0_91_3">
<rect width="1418" height="1250" fill="white"/>
</clipPath>
</defs>
</svg>
