<svg width="144" height="200" viewBox="0 0 144 200" fill="none" xmlns="http://www.w3.org/2000/svg">
<path d="M143 1V199H1V1H143Z" fill="#98282A" stroke="#0D0D0D" stroke-width="2"/>
<g clip-path="url(#clip0_1_566)">
<path d="M137.023 87.5546C136.354 82.8559 130.978 83.0886 130.978 83.0886V79.025C130.328 74.9552 126.736 74.3009 126.736 74.3009L121.542 74.3512C121.132 74.3575 120.804 74.0306 120.804 73.6217V62.0286L99.3098 41.6165L43.2607 42.0442L22.2517 62.1921V73.3636C22.2517 73.8228 21.8798 74.194 21.4197 74.194H17.4297C16.7111 74.194 15.9925 74.2947 15.3181 74.5336C13.4901 75.1816 12.5257 76.3454 12.0277 77.2638C11.6874 77.8991 11.5361 78.6161 11.5235 79.327L11.4794 82.5602C6.13415 83.3465 5.76855 87.4415 5.76855 87.4415V101.727C6.89685 105.803 11.6432 105.96 11.6432 105.96V109.841C11.6432 110.326 11.763 110.816 12.0277 111.225C13.717 113.836 16.4086 113.842 16.4338 113.842H21.4827C21.905 113.842 22.2517 114.182 22.2517 114.609V123.938L57.7834 157.384H85.5937L120.691 123.938V114.647C120.691 114.295 121.283 113.685 121.649 113.685L126.282 113.722C126.748 113.729 127.221 113.672 127.656 113.502C129.622 112.722 130.511 110.716 130.845 109.709C130.959 109.363 131.009 108.998 131.003 108.634L130.984 105.168C134.388 105.067 136.203 102.865 136.903 101.488C137.123 101.047 137.231 100.563 137.224 100.066L137.023 87.5546ZM11.8576 102.557C11.8576 102.847 11.6243 103.085 11.3281 103.085H10.0107C10.0107 103.085 8.95173 102.928 8.24576 101.375C8.18272 101.255 8.15752 101.117 8.15752 100.984V87.7183C8.15752 87.7183 7.9621 86.4349 9.73965 85.372C9.91613 85.2714 10.1178 85.221 10.3132 85.221H11.1516C11.5424 85.221 11.8576 85.5355 11.8576 85.9254V102.557ZM22.0942 110.98C22.0942 111.382 21.7601 111.722 21.3441 111.722H16.4968C16.1753 111.722 15.8539 111.64 15.5702 111.464C14.9777 111.112 14.0574 110.42 14.1457 109.495V79.0816C14.1457 79.0816 14.2024 77.182 16.5346 76.9618H21.5899C21.8672 76.9618 22.0942 77.1883 22.0942 77.4651V110.98ZM46.2548 44.164H96.8074V46.2776L88.7516 69.1493H54.6886L46.2548 46.2273V44.164ZM45.0445 140.312H42.5926L25.082 123.963V108.382H27.6852L45.0445 121.742V140.312ZM84.2574 154.867H59.1199L54.5751 149.835L59.8574 142.557C61.2692 142.457 82.8645 142.519 82.8645 142.519L88.3609 149.955L84.2574 154.867ZM118.295 123.372L100.331 140.312H98.1437V121.742L115.938 108.382H118.295V123.372ZM118.295 103.79L95.5026 121.17V144.904L91.9096 148.533H90.0502L83.6334 139.903L59.5862 139.846L53.5414 147.829H50.9885L47.5595 144.407V121.227L25.082 104.444V62.6323L42.0631 46.3405H43.8595L53.3209 71.8603C55.8926 71.8667 58.2122 72.9045 59.9015 74.5904C61.5908 76.2699 62.6371 78.591 62.6434 81.1512L62.8135 124.825C62.8135 126.152 63.8915 127.221 65.2151 127.221L65.1711 71.659L67.8121 71.8099C69.2619 71.8226 70.4343 73.0051 70.428 74.4581L70.3335 126.077C70.3335 126.681 70.8314 127.165 71.4302 127.152L71.9219 127.14C72.4324 127.127 72.8358 126.712 72.8358 126.209V74.5085C72.8358 73.0367 74.0398 71.8478 75.5085 71.8667L77.8911 71.766L77.9477 127.171C78.6413 127.171 79.2652 126.888 79.7191 126.435C80.1729 125.982 80.4503 125.36 80.4503 124.667L80.3243 81.799C80.3053 76.2886 84.7491 71.7975 90.2708 71.7534L99.2025 46.3405H101.15L118.295 62.6323V103.79ZM127.725 110.634C127.366 111.169 126.748 111.452 126.111 111.452H121.586C121.157 111.452 120.804 111.099 120.804 110.672V77.704C120.804 77.2952 121.138 76.9618 121.548 76.9618H125.916C125.916 76.9618 127.744 76.773 128.204 78.6979V108.898C128.204 108.898 128.299 109.785 127.725 110.634ZM135.113 100.645C134.791 101.947 133.266 103.085 133.266 103.085H131.438C131.179 103.085 130.984 102.884 130.984 102.639C131.015 100.205 130.984 88.624 131.022 86.1646C131.034 85.9067 131.217 85.7116 131.469 85.7116H133.045C135.062 86.1457 135.113 87.8817 135.113 87.8817V100.645Z" fill="#663333"/>
<path fill-rule="evenodd" clip-rule="evenodd" d="M95.5027 121.17L118.295 103.79V62.6324L101.15 46.3406H99.2026L90.2708 71.7535C84.7492 71.7975 80.3054 76.2887 80.3243 81.7991L80.4503 124.668C80.4503 125.36 80.1729 125.982 79.7191 126.435C79.2653 126.888 78.6413 127.171 77.9478 127.171L77.8911 71.7661L75.5085 71.8668C74.0398 71.8479 72.8358 73.0368 72.8358 74.5086V126.209C72.8358 126.712 72.4324 127.127 71.9219 127.14L71.4302 127.152C70.8315 127.165 70.3335 126.681 70.3335 126.077L70.428 74.4582C70.4343 73.0052 69.2619 71.8227 67.8122 71.81L65.1711 71.659L65.2151 127.222C63.8915 127.222 62.8136 126.152 62.8136 124.825L62.6434 81.1513C62.6371 78.5911 61.5908 76.27 59.9015 74.5905C58.2123 72.9045 55.8926 71.8668 53.3209 71.8603L43.8595 46.3406H42.0632L25.082 62.6324V104.444L47.5596 121.227V144.407L50.9885 147.829H53.5415L59.5862 139.846L83.6335 139.903L90.0502 148.533H91.9097L95.5027 144.904V121.17Z" fill="#F5EFE6"/>
<path fill-rule="evenodd" clip-rule="evenodd" d="M133.266 103.086C133.266 103.086 134.792 101.947 135.113 100.645V87.8818C135.113 87.8818 135.062 86.1457 133.045 85.7117H131.47C131.217 85.7117 131.035 85.9067 131.022 86.1646C131.002 87.4511 131.001 91.2334 131.001 94.8968C131 98.2367 130.999 101.478 130.984 102.639C130.984 102.884 131.18 103.086 131.438 103.086H133.266Z" fill="#F5EFE6"/>
<path fill-rule="evenodd" clip-rule="evenodd" d="M11.3283 103.085C11.6245 103.085 11.8578 102.846 11.8578 102.557V85.9253C11.8578 85.5354 11.5426 85.2209 11.1518 85.2209H10.3134C10.118 85.2209 9.91633 85.2713 9.73985 85.3719C7.9623 86.4348 8.15772 87.7182 8.15772 87.7182V100.984C8.15772 101.117 8.18292 101.255 8.24596 101.374C8.95193 102.928 10.0109 103.085 10.0109 103.085H11.3283Z" fill="#F5EFE6"/>
<path d="M130.984 102.639C130.984 102.884 131.179 103.085 131.438 103.085H133.266C133.266 103.085 134.791 101.947 135.113 100.645V87.8817C135.113 87.8817 135.062 86.1457 133.045 85.7116H131.469C131.217 85.7116 131.034 85.9067 131.022 86.1646M130.984 102.639C131.015 100.205 130.984 88.624 131.022 86.1646M130.984 102.639C130.999 101.478 131 98.2367 131 94.8968C131.001 91.2334 131.002 87.451 131.022 86.1646M137.023 87.5546C136.354 82.8559 130.978 83.0886 130.978 83.0886V79.025C130.328 74.9552 126.736 74.3009 126.736 74.3009L121.542 74.3512C121.132 74.3575 120.804 74.0306 120.804 73.6217V62.0286L99.3098 41.6165L43.2607 42.0442L22.2517 62.1921V73.3636C22.2517 73.8228 21.8798 74.194 21.4197 74.194H17.4297C16.7111 74.194 15.9925 74.2947 15.3181 74.5336C13.4901 75.1816 12.5257 76.3454 12.0277 77.2638C11.6874 77.8991 11.5361 78.6161 11.5235 79.327L11.4794 82.5602C6.13415 83.3465 5.76855 87.4415 5.76855 87.4415V101.727C6.89685 105.803 11.6432 105.96 11.6432 105.96V109.841C11.6432 110.326 11.763 110.816 12.0277 111.225C13.717 113.836 16.4086 113.842 16.4338 113.842H21.4827C21.905 113.842 22.2517 114.182 22.2517 114.609V123.938L57.7834 157.384H85.5937L120.691 123.938V114.647C120.691 114.295 121.283 113.685 121.649 113.685L126.282 113.722C126.748 113.729 127.221 113.672 127.656 113.502C129.622 112.722 130.511 110.716 130.845 109.709C130.959 109.363 131.009 108.998 131.003 108.634L130.984 105.168C134.388 105.067 136.203 102.865 136.903 101.488C137.123 101.047 137.231 100.563 137.224 100.066L137.023 87.5546ZM11.8576 102.557C11.8576 102.847 11.6243 103.085 11.3281 103.085H10.0107C10.0107 103.085 8.95173 102.928 8.24576 101.375C8.18272 101.255 8.15752 101.117 8.15752 100.984V87.7183C8.15752 87.7183 7.9621 86.4349 9.73965 85.372C9.91613 85.2714 10.1178 85.221 10.3132 85.221H11.1516C11.5424 85.221 11.8576 85.5355 11.8576 85.9254V102.557ZM22.0942 110.98C22.0942 111.382 21.7601 111.722 21.3441 111.722H16.4968C16.1753 111.722 15.8539 111.64 15.5702 111.464C14.9777 111.112 14.0574 110.42 14.1457 109.495V79.0816C14.1457 79.0816 14.2024 77.182 16.5346 76.9618H21.5899C21.8672 76.9618 22.0942 77.1883 22.0942 77.4651V110.98ZM46.2548 44.164H96.8074V46.2776L88.7516 69.1493H54.6886L46.2548 46.2273V44.164ZM45.0445 140.312H42.5926L25.082 123.963V108.382H27.6852L45.0445 121.742V140.312ZM84.2574 154.867H59.1199L54.5751 149.835L59.8574 142.557C61.2692 142.457 82.8645 142.519 82.8645 142.519L88.3609 149.955L84.2574 154.867ZM118.295 123.372L100.331 140.312H98.1437V121.742L115.938 108.382H118.295V123.372ZM118.295 103.79L95.5026 121.17V144.904L91.9096 148.533H90.0502L83.6334 139.903L59.5862 139.846L53.5414 147.829H50.9885L47.5595 144.407V121.227L25.082 104.444V62.6323L42.0631 46.3405H43.8595L53.3209 71.8603C55.8926 71.8667 58.2122 72.9045 59.9015 74.5904C61.5908 76.2699 62.6371 78.591 62.6434 81.1512L62.8135 124.825C62.8135 126.152 63.8915 127.221 65.2151 127.221L65.1711 71.659L67.8121 71.8099C69.2619 71.8226 70.4343 73.0051 70.428 74.4581L70.3335 126.077C70.3335 126.681 70.8314 127.165 71.4302 127.152L71.9219 127.14C72.4324 127.127 72.8358 126.712 72.8358 126.209V74.5085C72.8358 73.0367 74.0398 71.8478 75.5085 71.8667L77.8911 71.766L77.9477 127.171C78.6413 127.171 79.2652 126.888 79.7191 126.435C80.1729 125.982 80.4503 125.36 80.4503 124.667L80.3243 81.799C80.3053 76.2886 84.7491 71.7975 90.2708 71.7534L99.2025 46.3405H101.15L118.295 62.6323V103.79ZM127.725 110.634C127.366 111.169 126.748 111.452 126.111 111.452H121.586C121.157 111.452 120.804 111.099 120.804 110.672V77.704C120.804 77.2952 121.138 76.9618 121.548 76.9618H125.916C125.916 76.9618 127.744 76.773 128.204 78.6979V108.898C128.204 108.898 128.299 109.785 127.725 110.634Z" stroke="#713A23" stroke-miterlimit="10"/>
<path d="M22.095 77.4652V110.98C22.095 111.383 21.7609 111.722 21.3449 111.722H16.4977C16.1762 111.722 15.8547 111.64 15.5711 111.464C14.9786 111.112 14.0583 110.42 14.1465 109.495V79.0817C14.1465 79.0817 14.2033 77.1821 16.5355 76.9619H21.5907C21.8681 76.9619 22.095 77.1884 22.095 77.4652Z" fill="#663333" stroke="#F5EFE6" stroke-miterlimit="10"/>
<path d="M127.726 110.634C127.366 111.169 126.749 111.452 126.112 111.452H121.586C121.158 111.452 120.805 111.099 120.805 110.672V77.7041C120.805 77.2952 121.139 76.9619 121.548 76.9619H125.917C125.917 76.9619 127.745 76.773 128.205 78.6979V108.898C128.205 108.898 128.299 109.785 127.726 110.634Z" fill="#663333" stroke="#F5EFE6" stroke-miterlimit="10"/>
<path d="M45.0445 121.742V140.312H42.5926L25.082 123.963V108.382H27.6852L45.0445 121.742Z" fill="#663333" stroke="#F5EFE6" stroke-miterlimit="10"/>
<path d="M88.3611 149.955L84.2576 154.867H59.12L54.5752 149.835L59.8575 142.557C61.2693 142.457 82.8646 142.519 82.8646 142.519L88.3611 149.955Z" fill="#663333" stroke="#F5EFE6" stroke-miterlimit="10"/>
<path d="M118.296 108.382V123.372L100.332 140.312H98.1445V121.742L115.939 108.382H118.296Z" fill="#663333" stroke="#F5EFE6" stroke-miterlimit="10"/>
<path d="M96.8076 44.1641V46.2776L88.7518 69.1493H54.6887L46.2549 46.2273V44.1641H96.8076Z" fill="#663333" stroke="#F5EFE6" stroke-miterlimit="10"/>
<path d="M97.1792 86.6865C91.8971 86.6865 87.6045 90.9577 87.6045 96.2416C87.6045 101.526 91.8971 105.803 97.1792 105.803C102.461 105.803 106.767 101.519 106.767 96.2416C106.767 90.9639 102.474 86.6865 97.1792 86.6865ZM97.1792 102.922C93.4099 102.922 90.359 99.8647 90.359 96.1095C90.359 92.3541 93.4099 89.2908 97.1792 89.2908C100.949 89.2908 104.018 92.3416 104.018 96.1095C104.018 99.8774 100.961 102.922 97.1792 102.922Z" stroke="#713A23" stroke-miterlimit="10"/>
<path d="M97.1792 86.6865C91.8971 86.6865 87.6045 90.9577 87.6045 96.2416C87.6045 101.526 91.8971 105.803 97.1792 105.803C102.461 105.803 106.767 101.519 106.767 96.2416C106.767 90.9639 102.474 86.6865 97.1792 86.6865ZM97.1792 102.922C93.4099 102.922 90.359 99.8647 90.359 96.1095C90.359 92.3541 93.4099 89.2908 97.1792 89.2908C100.949 89.2908 104.018 92.3416 104.018 96.1095C104.018 99.8774 100.961 102.922 97.1792 102.922Z" stroke="#713A23" stroke-miterlimit="10"/>
<path d="M45.8706 86.6865C40.5821 86.6865 36.2959 90.9577 36.2959 96.2416C36.2959 101.526 40.5821 105.803 45.8706 105.803C51.1592 105.803 55.4516 101.519 55.4516 96.2416C55.4516 90.9639 51.1592 86.6865 45.8706 86.6865ZM45.6815 102.922C41.9058 102.922 38.8549 99.8647 38.8549 96.1095C38.8549 92.3541 41.9058 89.2908 45.6815 89.2908C49.4572 89.2908 52.5079 92.3416 52.5079 96.1095C52.5079 99.8774 49.4509 102.922 45.6815 102.922Z" fill="#663333" stroke="#713A23" stroke-miterlimit="10"/>
<path d="M52.5085 96.1095C52.5085 99.8647 49.4515 102.922 45.6821 102.922C41.9126 102.922 38.8555 99.8647 38.8555 96.1095C38.8555 92.3541 41.9064 89.2908 45.6821 89.2908C49.4578 89.2908 52.5085 92.3416 52.5085 96.1095Z" fill="#663333" stroke="#F5EFE6" stroke-miterlimit="10"/>
<path d="M97.1792 86.6865C91.8971 86.6865 87.6045 90.9577 87.6045 96.2416C87.6045 101.526 91.8971 105.803 97.1792 105.803C102.461 105.803 106.767 101.519 106.767 96.2416C106.767 90.9639 102.474 86.6865 97.1792 86.6865ZM97.1792 102.922C93.4099 102.922 90.359 99.8647 90.359 96.1095C90.359 92.3541 93.4099 89.2908 97.1792 89.2908C100.949 89.2908 104.018 92.3416 104.018 96.1095C104.018 99.8774 100.961 102.922 97.1792 102.922Z" fill="#663333" stroke="#713A23" stroke-miterlimit="10"/>
<path d="M104.019 96.1095C104.019 99.8647 100.961 102.922 97.1795 102.922C93.3976 102.922 90.3594 99.8647 90.3594 96.1095C90.3594 92.3541 93.4103 89.2908 97.1795 89.2908C100.949 89.2908 104.019 92.3416 104.019 96.1095Z" fill="#663333" stroke="#F5EFE6" stroke-miterlimit="10"/>
</g>
<defs>
<clipPath id="clip0_1_566">
<rect width="133" height="117" fill="white" transform="translate(5 41)"/>
</clipPath>
</defs>
</svg>
