<svg width="1044" height="57" viewBox="0 0 1044 57" fill="none" xmlns="http://www.w3.org/2000/svg">
<path d="M12.75 12.75V2.25H33.75V12.75H12.75ZM12.75 44.25H2.25V12.75H12.75V44.25ZM33.75 23.25V12.75H44.25V23.25H33.75ZM44.25 44.25H33.75V33.75H44.25V44.25ZM33.75 44.25V54.75H12.75V44.25H33.75ZM65.25 54.75H54.75V2.25H86.25V12.75H65.25V23.25H86.25V33.75H65.25V54.75ZM96.75 23.25H86.25V12.75H96.75V23.25ZM96.75 54.75H86.25V33.75H96.75V54.75ZM117.75 12.75V2.25H138.75V12.75H117.75ZM117.75 54.75H107.25V12.75H117.75V23.25H138.75V12.75H149.25V54.75H138.75V33.75H117.75V54.75ZM170.25 54.75H159.75V2.25H201.75V12.75H170.25V23.25H191.25V33.75H170.25V54.75ZM233.25 54.75H222.75V12.75H212.25V2.25H243.75V12.75H233.25V54.75ZM264.75 54.75H254.25V2.25H264.75V54.75ZM285.75 54.75H275.25V2.25H285.75V12.75H296.25V23.25H285.75V54.75ZM317.25 54.75H306.75V33.75H296.25V23.25H306.75V2.25H317.25V54.75ZM338.25 12.75V2.25H369.75V12.75H338.25ZM338.25 54.75V44.25H327.75V12.75H338.25V44.25H359.25V33.75H348.75V23.25H369.75V54.75H338.25ZM411.75 23.25H401.25V2.25H411.75V23.25ZM422.25 23.25V2.25H432.75V23.25H422.25ZM422.25 54.75H411.75V23.25H422.25V54.75ZM453.75 12.75V2.25H474.75V12.75H453.75ZM453.75 44.25H443.25V12.75H453.75V44.25ZM485.25 44.25H474.75V12.75H485.25V44.25ZM474.75 44.25V54.75H453.75V44.25H474.75ZM506.25 44.25H495.75V2.25H506.25V44.25ZM537.75 44.25H527.25V2.25H537.75V44.25ZM527.25 44.25V54.75H506.25V44.25H527.25ZM558.75 54.75H548.25V2.25H579.75V12.75H558.75V23.25H579.75V33.75H558.75V54.75ZM590.25 23.25H579.75V12.75H590.25V23.25ZM590.25 54.75H579.75V33.75H590.25V54.75ZM642.75 54.75H632.25V12.75H621.75V2.25H653.25V12.75H642.75V54.75ZM674.25 12.75V2.25H695.25V12.75H674.25ZM674.25 44.25H663.75V12.75H674.25V44.25ZM705.75 44.25H695.25V12.75H705.75V44.25ZM695.25 44.25V54.75H674.25V44.25H695.25ZM726.75 54.75H716.25V2.25H726.75V12.75H737.25V23.25H726.75V54.75ZM768.75 54.75H758.25V23.25H747.75V12.75H758.25V2.25H768.75V54.75ZM737.25 33.75V23.25H747.75V33.75H737.25ZM789.75 12.75V2.25H810.75V12.75H789.75ZM789.75 44.25H779.25V12.75H789.75V44.25ZM821.25 44.25H810.75V12.75H821.25V44.25ZM810.75 44.25V54.75H789.75V44.25H810.75ZM842.25 54.75H831.75V2.25H863.25V12.75H842.25V23.25H863.25V33.75H842.25V54.75ZM873.75 23.25H863.25V12.75H873.75V23.25ZM873.75 54.75H863.25V33.75H873.75V54.75ZM894.75 54.75H884.25V2.25H915.75V12.75H894.75V23.25H915.75V33.75H894.75V54.75ZM926.25 23.25H915.75V12.75H926.25V23.25ZM926.25 54.75H915.75V33.75H926.25V54.75ZM947.25 12.75V2.25H968.25V12.75H947.25ZM947.25 44.25H936.75V12.75H947.25V44.25ZM978.75 44.25H968.25V12.75H978.75V44.25ZM968.25 44.25V54.75H947.25V44.25H968.25ZM999.75 33.75H989.25V2.25H999.75V33.75ZM1010.25 33.75V2.25H1020.75V33.75H1010.25ZM1031.25 33.75V2.25H1041.75V33.75H1031.25ZM1010.25 54.75H999.75V33.75H1010.25V54.75ZM1031.25 54.75H1020.75V33.75H1031.25V54.75Z" fill="#F1EBDD"/>
<path d="M12.75 12.75H10.5C10.5 13.9926 11.5074 15 12.75 15V12.75ZM12.75 2.25V0C11.5074 0 10.5 1.00736 10.5 2.25H12.75ZM33.75 2.25H36C36 1.00736 34.9926 0 33.75 0V2.25ZM33.75 12.75V15C34.9926 15 36 13.9926 36 12.75H33.75ZM12.75 44.25V46.5C13.9926 46.5 15 45.4926 15 44.25H12.75ZM2.25 44.25H0C0 45.4926 1.00736 46.5 2.25 46.5L2.25 44.25ZM2.25 12.75V10.5C1.00736 10.5 0 11.5074 0 12.75H2.25ZM12.75 12.75H15C15 11.5074 13.9926 10.5 12.75 10.5V12.75ZM33.75 23.25H31.5C31.5 24.4926 32.5074 25.5 33.75 25.5V23.25ZM33.75 12.75V10.5C32.5074 10.5 31.5 11.5074 31.5 12.75H33.75ZM44.25 12.75H46.5C46.5 11.5074 45.4926 10.5 44.25 10.5V12.75ZM44.25 23.25V25.5C45.4926 25.5 46.5 24.4926 46.5 23.25H44.25ZM44.25 44.25V46.5C45.4926 46.5 46.5 45.4926 46.5 44.25H44.25ZM33.75 44.25H31.5C31.5 45.4926 32.5074 46.5 33.75 46.5V44.25ZM33.75 33.75V31.5C32.5074 31.5 31.5 32.5074 31.5 33.75H33.75ZM44.25 33.75H46.5C46.5 32.5074 45.4926 31.5 44.25 31.5V33.75ZM33.75 44.25H36C36 43.0074 34.9926 42 33.75 42V44.25ZM33.75 54.75V57C34.9926 57 36 55.9926 36 54.75H33.75ZM12.75 54.75H10.5C10.5 55.9926 11.5074 57 12.75 57V54.75ZM12.75 44.25V42C11.5074 42 10.5 43.0074 10.5 44.25H12.75ZM12.75 12.75H15V2.25H12.75H10.5V12.75H12.75ZM12.75 2.25V4.5H33.75V2.25V0H12.75V2.25ZM33.75 2.25H31.5V12.75H33.75H36V2.25H33.75ZM33.75 12.75V10.5H12.75V12.75V15H33.75V12.75ZM12.75 44.25V42H2.25V44.25V46.5H12.75V44.25ZM2.25 44.25H4.5V12.75H2.25H0V44.25H2.25ZM2.25 12.75V15H12.75V12.75V10.5H2.25V12.75ZM12.75 12.75H10.5V44.25H12.75H15V12.75H12.75ZM33.75 23.25H36V12.75H33.75H31.5V23.25H33.75ZM33.75 12.75V15H44.25V12.75V10.5H33.75V12.75ZM44.25 12.75H42V23.25H44.25H46.5V12.75H44.25ZM44.25 23.25V21H33.75V23.25V25.5H44.25V23.25ZM44.25 44.25V42H33.75V44.25V46.5H44.25V44.25ZM33.75 44.25H36V33.75H33.75H31.5V44.25H33.75ZM33.75 33.75V36H44.25V33.75V31.5H33.75V33.75ZM44.25 33.75H42V44.25H44.25H46.5V33.75H44.25ZM33.75 44.25H31.5V54.75H33.75H36V44.25H33.75ZM33.75 54.75V52.5H12.75V54.75V57H33.75V54.75ZM12.75 54.75H15V44.25H12.75H10.5V54.75H12.75ZM12.75 44.25V46.5H33.75V44.25V42H12.75V44.25ZM65.25 54.75V57C66.4926 57 67.5 55.9926 67.5 54.75H65.25ZM54.75 54.75H52.5C52.5 55.9926 53.5074 57 54.75 57V54.75ZM54.75 2.25V0C53.5074 0 52.5 1.00736 52.5 2.25H54.75ZM86.25 2.25H88.5C88.5 1.00736 87.4926 0 86.25 0V2.25ZM86.25 12.75V15C87.4926 15 88.5 13.9926 88.5 12.75H86.25ZM65.25 12.75V10.5C64.0074 10.5 63 11.5074 63 12.75H65.25ZM65.25 23.25H63C63 24.4926 64.0074 25.5 65.25 25.5V23.25ZM86.25 23.25H88.5C88.5 22.0074 87.4926 21 86.25 21V23.25ZM86.25 33.75V36C87.4926 36 88.5 34.9926 88.5 33.75H86.25ZM65.25 33.75V31.5C64.0074 31.5 63 32.5074 63 33.75H65.25ZM96.75 23.25V25.5C97.9926 25.5 99 24.4926 99 23.25H96.75ZM86.25 23.25H84C84 24.4926 85.0074 25.5 86.25 25.5V23.25ZM86.25 12.75V10.5C85.0074 10.5 84 11.5074 84 12.75H86.25ZM96.75 12.75H99C99 11.5074 97.9926 10.5 96.75 10.5V12.75ZM96.75 54.75V57C97.9926 57 99 55.9926 99 54.75H96.75ZM86.25 54.75H84C84 55.9926 85.0074 57 86.25 57V54.75ZM86.25 33.75V31.5C85.0074 31.5 84 32.5074 84 33.75H86.25ZM96.75 33.75H99C99 32.5074 97.9926 31.5 96.75 31.5V33.75ZM65.25 54.75V52.5H54.75V54.75V57H65.25V54.75ZM54.75 54.75H57V2.25H54.75H52.5V54.75H54.75ZM54.75 2.25V4.5H86.25V2.25V0H54.75V2.25ZM86.25 2.25H84V12.75H86.25H88.5V2.25H86.25ZM86.25 12.75V10.5H65.25V12.75V15H86.25V12.75ZM65.25 12.75H63V23.25H65.25H67.5V12.75H65.25ZM65.25 23.25V25.5H86.25V23.25V21H65.25V23.25ZM86.25 23.25H84V33.75H86.25H88.5V23.25H86.25ZM86.25 33.75V31.5H65.25V33.75V36H86.25V33.75ZM65.25 33.75H63V54.75H65.25H67.5V33.75H65.25ZM96.75 23.25V21H86.25V23.25V25.5H96.75V23.25ZM86.25 23.25H88.5V12.75H86.25H84V23.25H86.25ZM86.25 12.75V15H96.75V12.75V10.5H86.25V12.75ZM96.75 12.75H94.5V23.25H96.75H99V12.75H96.75ZM96.75 54.75V52.5H86.25V54.75V57H96.75V54.75ZM86.25 54.75H88.5V33.75H86.25H84V54.75H86.25ZM86.25 33.75V36H96.75V33.75V31.5H86.25V33.75ZM96.75 33.75H94.5V54.75H96.75H99V33.75H96.75ZM117.75 12.75H115.5C115.5 13.9926 116.507 15 117.75 15V12.75ZM117.75 2.25V0C116.507 0 115.5 1.00736 115.5 2.25H117.75ZM138.75 2.25H141C141 1.00736 139.993 0 138.75 0V2.25ZM138.75 12.75V15C139.993 15 141 13.9926 141 12.75H138.75ZM117.75 54.75V57C118.993 57 120 55.9926 120 54.75H117.75ZM107.25 54.75H105C105 55.9926 106.007 57 107.25 57V54.75ZM107.25 12.75V10.5C106.007 10.5 105 11.5074 105 12.75H107.25ZM117.75 12.75H120C120 11.5074 118.993 10.5 117.75 10.5V12.75ZM117.75 23.25H115.5C115.5 24.4926 116.507 25.5 117.75 25.5V23.25ZM138.75 23.25V25.5C139.993 25.5 141 24.4926 141 23.25H138.75ZM138.75 12.75V10.5C137.507 10.5 136.5 11.5074 136.5 12.75H138.75ZM149.25 12.75H151.5C151.5 11.5074 150.493 10.5 149.25 10.5V12.75ZM149.25 54.75V57C150.493 57 151.5 55.9926 151.5 54.75H149.25ZM138.75 54.75H136.5C136.5 55.9926 137.507 57 138.75 57V54.75ZM138.75 33.75H141C141 32.5074 139.993 31.5 138.75 31.5V33.75ZM117.75 33.75V31.5C116.507 31.5 115.5 32.5074 115.5 33.75H117.75ZM117.75 12.75H120V2.25H117.75H115.5V12.75H117.75ZM117.75 2.25V4.5H138.75V2.25V0H117.75V2.25ZM138.75 2.25H136.5V12.75H138.75H141V2.25H138.75ZM138.75 12.75V10.5H117.75V12.75V15H138.75V12.75ZM117.75 54.75V52.5H107.25V54.75V57H117.75V54.75ZM107.25 54.75H109.5V12.75H107.25H105V54.75H107.25ZM107.25 12.75V15H117.75V12.75V10.5H107.25V12.75ZM117.75 12.75H115.5V23.25H117.75H120V12.75H117.75ZM117.75 23.25V25.5H138.75V23.25V21H117.75V23.25ZM138.75 23.25H141V12.75H138.75H136.5V23.25H138.75ZM138.75 12.75V15H149.25V12.75V10.5H138.75V12.75ZM149.25 12.75H147V54.75H149.25H151.5V12.75H149.25ZM149.25 54.75V52.5H138.75V54.75V57H149.25V54.75ZM138.75 54.75H141V33.75H138.75H136.5V54.75H138.75ZM138.75 33.75V31.5H117.75V33.75V36H138.75V33.75ZM117.75 33.75H115.5V54.75H117.75H120V33.75H117.75ZM170.25 54.75V57C171.493 57 172.5 55.9926 172.5 54.75H170.25ZM159.75 54.75H157.5C157.5 55.9926 158.507 57 159.75 57V54.75ZM159.75 2.25V0C158.507 0 157.5 1.00736 157.5 2.25H159.75ZM201.75 2.25H204C204 1.00736 202.993 0 201.75 0V2.25ZM201.75 12.75V15C202.993 15 204 13.9926 204 12.75H201.75ZM170.25 12.75V10.5C169.007 10.5 168 11.5074 168 12.75H170.25ZM170.25 23.25H168C168 24.4926 169.007 25.5 170.25 25.5V23.25ZM191.25 23.25H193.5C193.5 22.0074 192.493 21 191.25 21V23.25ZM191.25 33.75V36C192.493 36 193.5 34.9926 193.5 33.75H191.25ZM170.25 33.75V31.5C169.007 31.5 168 32.5074 168 33.75H170.25ZM170.25 54.75V52.5H159.75V54.75V57H170.25V54.75ZM159.75 54.75H162V2.25H159.75H157.5V54.75H159.75ZM159.75 2.25V4.5H201.75V2.25V0H159.75V2.25ZM201.75 2.25H199.5V12.75H201.75H204V2.25H201.75ZM201.75 12.75V10.5H170.25V12.75V15H201.75V12.75ZM170.25 12.75H168V23.25H170.25H172.5V12.75H170.25ZM170.25 23.25V25.5H191.25V23.25V21H170.25V23.25ZM191.25 23.25H189V33.75H191.25H193.5V23.25H191.25ZM191.25 33.75V31.5H170.25V33.75V36H191.25V33.75ZM170.25 33.75H168V54.75H170.25H172.5V33.75H170.25ZM233.25 54.75V57C234.493 57 235.5 55.9926 235.5 54.75H233.25ZM222.75 54.75H220.5C220.5 55.9926 221.507 57 222.75 57V54.75ZM222.75 12.75H225C225 11.5074 223.993 10.5 222.75 10.5V12.75ZM212.25 12.75H210C210 13.9926 211.007 15 212.25 15V12.75ZM212.25 2.25V0C211.007 0 210 1.00736 210 2.25H212.25ZM243.75 2.25H246C246 1.00736 244.993 0 243.75 0V2.25ZM243.75 12.75V15C244.993 15 246 13.9926 246 12.75H243.75ZM233.25 12.75V10.5C232.007 10.5 231 11.5074 231 12.75H233.25ZM233.25 54.75V52.5H222.75V54.75V57H233.25V54.75ZM222.75 54.75H225V12.75H222.75H220.5V54.75H222.75ZM222.75 12.75V10.5H212.25V12.75V15H222.75V12.75ZM212.25 12.75H214.5V2.25H212.25H210V12.75H212.25ZM212.25 2.25V4.5H243.75V2.25V0H212.25V2.25ZM243.75 2.25H241.5V12.75H243.75H246V2.25H243.75ZM243.75 12.75V10.5H233.25V12.75V15H243.75V12.75ZM233.25 12.75H231V54.75H233.25H235.5V12.75H233.25ZM264.75 54.75V57C265.993 57 267 55.9926 267 54.75H264.75ZM254.25 54.75H252C252 55.9926 253.007 57 254.25 57V54.75ZM254.25 2.25V0C253.007 0 252 1.00736 252 2.25H254.25ZM264.75 2.25H267C267 1.00736 265.993 0 264.75 0V2.25ZM264.75 54.75V52.5H254.25V54.75V57H264.75V54.75ZM254.25 54.75H256.5V2.25H254.25H252V54.75H254.25ZM254.25 2.25V4.5H264.75V2.25V0H254.25V2.25ZM264.75 2.25H262.5V54.75H264.75H267V2.25H264.75ZM285.75 54.75V57C286.993 57 288 55.9926 288 54.75H285.75ZM275.25 54.75H273C273 55.9926 274.007 57 275.25 57V54.75ZM275.25 2.25V0C274.007 0 273 1.00736 273 2.25H275.25ZM285.75 2.25H288C288 1.00736 286.993 0 285.75 0V2.25ZM285.75 12.75H283.5C283.5 13.9926 284.507 15 285.75 15V12.75ZM296.25 12.75H298.5C298.5 11.5074 297.493 10.5 296.25 10.5V12.75ZM296.25 23.25V25.5C297.493 25.5 298.5 24.4926 298.5 23.25H296.25ZM285.75 23.25V21C284.507 21 283.5 22.0074 283.5 23.25H285.75ZM317.25 54.75V57C318.493 57 319.5 55.9926 319.5 54.75H317.25ZM306.75 54.75H304.5C304.5 55.9926 305.507 57 306.75 57V54.75ZM306.75 33.75H309C309 32.5074 307.993 31.5 306.75 31.5V33.75ZM296.25 33.75H294C294 34.9926 295.007 36 296.25 36V33.75ZM296.25 23.25V21C295.007 21 294 22.0074 294 23.25H296.25ZM306.75 23.25V25.5C307.993 25.5 309 24.4926 309 23.25H306.75ZM306.75 2.25V0C305.507 0 304.5 1.00736 304.5 2.25H306.75ZM317.25 2.25H319.5C319.5 1.00736 318.493 0 317.25 0V2.25ZM285.75 54.75V52.5H275.25V54.75V57H285.75V54.75ZM275.25 54.75H277.5V2.25H275.25H273V54.75H275.25ZM275.25 2.25V4.5H285.75V2.25V0H275.25V2.25ZM285.75 2.25H283.5V12.75H285.75H288V2.25H285.75ZM285.75 12.75V15H296.25V12.75V10.5H285.75V12.75ZM296.25 12.75H294V23.25H296.25H298.5V12.75H296.25ZM296.25 23.25V21H285.75V23.25V25.5H296.25V23.25ZM285.75 23.25H283.5V54.75H285.75H288V23.25H285.75ZM317.25 54.75V52.5H306.75V54.75V57H317.25V54.75ZM306.75 54.75H309V33.75H306.75H304.5V54.75H306.75ZM306.75 33.75V31.5H296.25V33.75V36H306.75V33.75ZM296.25 33.75H298.5V23.25H296.25H294V33.75H296.25ZM296.25 23.25V25.5H306.75V23.25V21H296.25V23.25ZM306.75 23.25H309V2.25H306.75H304.5V23.25H306.75ZM306.75 2.25V4.5H317.25V2.25V0H306.75V2.25ZM317.25 2.25H315V54.75H317.25H319.5V2.25H317.25ZM338.25 12.75H336C336 13.9926 337.007 15 338.25 15V12.75ZM338.25 2.25V0C337.007 0 336 1.00736 336 2.25H338.25ZM369.75 2.25H372C372 1.00736 370.993 0 369.75 0V2.25ZM369.75 12.75V15C370.993 15 372 13.9926 372 12.75H369.75ZM338.25 54.75H336C336 55.9926 337.007 57 338.25 57V54.75ZM338.25 44.25H340.5C340.5 43.0074 339.493 42 338.25 42V44.25ZM327.75 44.25H325.5C325.5 45.4926 326.507 46.5 327.75 46.5V44.25ZM327.75 12.75V10.5C326.507 10.5 325.5 11.5074 325.5 12.75H327.75ZM338.25 12.75H340.5C340.5 11.5074 339.493 10.5 338.25 10.5V12.75ZM338.25 44.25H336C336 45.4926 337.007 46.5 338.25 46.5V44.25ZM359.25 44.25V46.5C360.493 46.5 361.5 45.4926 361.5 44.25H359.25ZM359.25 33.75H361.5C361.5 32.5074 360.493 31.5 359.25 31.5V33.75ZM348.75 33.75H346.5C346.5 34.9926 347.507 36 348.75 36V33.75ZM348.75 23.25V21C347.507 21 346.5 22.0074 346.5 23.25H348.75ZM369.75 23.25H372C372 22.0074 370.993 21 369.75 21V23.25ZM369.75 54.75V57C370.993 57 372 55.9926 372 54.75H369.75ZM338.25 12.75H340.5V2.25H338.25H336V12.75H338.25ZM338.25 2.25V4.5H369.75V2.25V0H338.25V2.25ZM369.75 2.25H367.5V12.75H369.75H372V2.25H369.75ZM369.75 12.75V10.5H338.25V12.75V15H369.75V12.75ZM338.25 54.75H340.5V44.25H338.25H336V54.75H338.25ZM338.25 44.25V42H327.75V44.25V46.5H338.25V44.25ZM327.75 44.25H330V12.75H327.75H325.5V44.25H327.75ZM327.75 12.75V15H338.25V12.75V10.5H327.75V12.75ZM338.25 12.75H336V44.25H338.25H340.5V12.75H338.25ZM338.25 44.25V46.5H359.25V44.25V42H338.25V44.25ZM359.25 44.25H361.5V33.75H359.25H357V44.25H359.25ZM359.25 33.75V31.5H348.75V33.75V36H359.25V33.75ZM348.75 33.75H351V23.25H348.75H346.5V33.75H348.75ZM348.75 23.25V25.5H369.75V23.25V21H348.75V23.25ZM369.75 23.25H367.5V54.75H369.75H372V23.25H369.75ZM369.75 54.75V52.5H338.25V54.75V57H369.75V54.75ZM411.75 23.25V25.5C412.993 25.5 414 24.4926 414 23.25H411.75ZM401.25 23.25H399C399 24.4926 400.007 25.5 401.25 25.5V23.25ZM401.25 2.25V0C400.007 0 399 1.00736 399 2.25H401.25ZM411.75 2.25H414C414 1.00736 412.993 0 411.75 0V2.25ZM422.25 23.25H420C420 24.4926 421.007 25.5 422.25 25.5V23.25ZM422.25 2.25V0C421.007 0 420 1.00736 420 2.25H422.25ZM432.75 2.25H435C435 1.00736 433.993 0 432.75 0V2.25ZM432.75 23.25V25.5C433.993 25.5 435 24.4926 435 23.25H432.75ZM422.25 54.75V57C423.493 57 424.5 55.9926 424.5 54.75H422.25ZM411.75 54.75H409.5C409.5 55.9926 410.507 57 411.75 57V54.75ZM411.75 23.25V21C410.507 21 409.5 22.0074 409.5 23.25H411.75ZM422.25 23.25H424.5C424.5 22.0074 423.493 21 422.25 21V23.25ZM411.75 23.25V21H401.25V23.25V25.5H411.75V23.25ZM401.25 23.25H403.5V2.25H401.25H399V23.25H401.25ZM401.25 2.25V4.5H411.75V2.25V0H401.25V2.25ZM411.75 2.25H409.5V23.25H411.75H414V2.25H411.75ZM422.25 23.25H424.5V2.25H422.25H420V23.25H422.25ZM422.25 2.25V4.5H432.75V2.25V0H422.25V2.25ZM432.75 2.25H430.5V23.25H432.75H435V2.25H432.75ZM432.75 23.25V21H422.25V23.25V25.5H432.75V23.25ZM422.25 54.75V52.5H411.75V54.75V57H422.25V54.75ZM411.75 54.75H414V23.25H411.75H409.5V54.75H411.75ZM411.75 23.25V25.5H422.25V23.25V21H411.75V23.25ZM422.25 23.25H420V54.75H422.25H424.5V23.25H422.25ZM453.75 12.75H451.5C451.5 13.9926 452.507 15 453.75 15V12.75ZM453.75 2.25V0C452.507 0 451.5 1.00736 451.5 2.25H453.75ZM474.75 2.25H477C477 1.00736 475.993 0 474.75 0V2.25ZM474.75 12.75V15C475.993 15 477 13.9926 477 12.75H474.75ZM453.75 44.25V46.5C454.993 46.5 456 45.4926 456 44.25H453.75ZM443.25 44.25H441C441 45.4926 442.007 46.5 443.25 46.5V44.25ZM443.25 12.75V10.5C442.007 10.5 441 11.5074 441 12.75H443.25ZM453.75 12.75H456C456 11.5074 454.993 10.5 453.75 10.5V12.75ZM485.25 44.25V46.5C486.493 46.5 487.5 45.4926 487.5 44.25H485.25ZM474.75 44.25H472.5C472.5 45.4926 473.507 46.5 474.75 46.5V44.25ZM474.75 12.75V10.5C473.507 10.5 472.5 11.5074 472.5 12.75H474.75ZM485.25 12.75H487.5C487.5 11.5074 486.493 10.5 485.25 10.5V12.75ZM474.75 44.25H477C477 43.0074 475.993 42 474.75 42V44.25ZM474.75 54.75V57C475.993 57 477 55.9926 477 54.75H474.75ZM453.75 54.75H451.5C451.5 55.9926 452.507 57 453.75 57V54.75ZM453.75 44.25V42C452.507 42 451.5 43.0074 451.5 44.25H453.75ZM453.75 12.75H456V2.25H453.75H451.5V12.75H453.75ZM453.75 2.25V4.5H474.75V2.25V0H453.75V2.25ZM474.75 2.25H472.5V12.75H474.75H477V2.25H474.75ZM474.75 12.75V10.5H453.75V12.75V15H474.75V12.75ZM453.75 44.25V42H443.25V44.25V46.5H453.75V44.25ZM443.25 44.25H445.5V12.75H443.25H441V44.25H443.25ZM443.25 12.75V15H453.75V12.75V10.5H443.25V12.75ZM453.75 12.75H451.5V44.25H453.75H456V12.75H453.75ZM485.25 44.25V42H474.75V44.25V46.5H485.25V44.25ZM474.75 44.25H477V12.75H474.75H472.5V44.25H474.75ZM474.75 12.75V15H485.25V12.75V10.5H474.75V12.75ZM485.25 12.75H483V44.25H485.25H487.5V12.75H485.25ZM474.75 44.25H472.5V54.75H474.75H477V44.25H474.75ZM474.75 54.75V52.5H453.75V54.75V57H474.75V54.75ZM453.75 54.75H456V44.25H453.75H451.5V54.75H453.75ZM453.75 44.25V46.5H474.75V44.25V42H453.75V44.25ZM506.25 44.25V46.5C507.493 46.5 508.5 45.4926 508.5 44.25H506.25ZM495.75 44.25H493.5C493.5 45.4926 494.507 46.5 495.75 46.5V44.25ZM495.75 2.25V0C494.507 0 493.5 1.00736 493.5 2.25H495.75ZM506.25 2.25H508.5C508.5 1.00736 507.493 0 506.25 0V2.25ZM537.75 44.25V46.5C538.993 46.5 540 45.4926 540 44.25H537.75ZM527.25 44.25H525C525 45.4926 526.007 46.5 527.25 46.5V44.25ZM527.25 2.25V0C526.007 0 525 1.00736 525 2.25H527.25ZM537.75 2.25H540C540 1.00736 538.993 0 537.75 0V2.25ZM527.25 44.25H529.5C529.5 43.0074 528.493 42 527.25 42V44.25ZM527.25 54.75V57C528.493 57 529.5 55.9926 529.5 54.75H527.25ZM506.25 54.75H504C504 55.9926 505.007 57 506.25 57V54.75ZM506.25 44.25V42C505.007 42 504 43.0074 504 44.25H506.25ZM506.25 44.25V42H495.75V44.25V46.5H506.25V44.25ZM495.75 44.25H498V2.25H495.75H493.5V44.25H495.75ZM495.75 2.25V4.5H506.25V2.25V0H495.75V2.25ZM506.25 2.25H504V44.25H506.25H508.5V2.25H506.25ZM537.75 44.25V42H527.25V44.25V46.5H537.75V44.25ZM527.25 44.25H529.5V2.25H527.25H525V44.25H527.25ZM527.25 2.25V4.5H537.75V2.25V0H527.25V2.25ZM537.75 2.25H535.5V44.25H537.75H540V2.25H537.75ZM527.25 44.25H525V54.75H527.25H529.5V44.25H527.25ZM527.25 54.75V52.5H506.25V54.75V57H527.25V54.75ZM506.25 54.75H508.5V44.25H506.25H504V54.75H506.25ZM506.25 44.25V46.5H527.25V44.25V42H506.25V44.25ZM558.75 54.75V57C559.993 57 561 55.9926 561 54.75H558.75ZM548.25 54.75H546C546 55.9926 547.007 57 548.25 57V54.75ZM548.25 2.25V0C547.007 0 546 1.00736 546 2.25H548.25ZM579.75 2.25H582C582 1.00736 580.993 0 579.75 0V2.25ZM579.75 12.75V15C580.993 15 582 13.9926 582 12.75H579.75ZM558.75 12.75V10.5C557.507 10.5 556.5 11.5074 556.5 12.75H558.75ZM558.75 23.25H556.5C556.5 24.4926 557.507 25.5 558.75 25.5V23.25ZM579.75 23.25H582C582 22.0074 580.993 21 579.75 21V23.25ZM579.75 33.75V36C580.993 36 582 34.9926 582 33.75H579.75ZM558.75 33.75V31.5C557.507 31.5 556.5 32.5074 556.5 33.75H558.75ZM590.25 23.25V25.5C591.493 25.5 592.5 24.4926 592.5 23.25H590.25ZM579.75 23.25H577.5C577.5 24.4926 578.507 25.5 579.75 25.5V23.25ZM579.75 12.75V10.5C578.507 10.5 577.5 11.5074 577.5 12.75H579.75ZM590.25 12.75H592.5C592.5 11.5074 591.493 10.5 590.25 10.5V12.75ZM590.25 54.75V57C591.493 57 592.5 55.9926 592.5 54.75H590.25ZM579.75 54.75H577.5C577.5 55.9926 578.507 57 579.75 57V54.75ZM579.75 33.75V31.5C578.507 31.5 577.5 32.5074 577.5 33.75H579.75ZM590.25 33.75H592.5C592.5 32.5074 591.493 31.5 590.25 31.5V33.75ZM558.75 54.75V52.5H548.25V54.75V57H558.75V54.75ZM548.25 54.75H550.5V2.25H548.25H546V54.75H548.25ZM548.25 2.25V4.5H579.75V2.25V0H548.25V2.25ZM579.75 2.25H577.5V12.75H579.75H582V2.25H579.75ZM579.75 12.75V10.5H558.75V12.75V15H579.75V12.75ZM558.75 12.75H556.5V23.25H558.75H561V12.75H558.75ZM558.75 23.25V25.5H579.75V23.25V21H558.75V23.25ZM579.75 23.25H577.5V33.75H579.75H582V23.25H579.75ZM579.75 33.75V31.5H558.75V33.75V36H579.75V33.75ZM558.75 33.75H556.5V54.75H558.75H561V33.75H558.75ZM590.25 23.25V21H579.75V23.25V25.5H590.25V23.25ZM579.75 23.25H582V12.75H579.75H577.5V23.25H579.75ZM579.75 12.75V15H590.25V12.75V10.5H579.75V12.75ZM590.25 12.75H588V23.25H590.25H592.5V12.75H590.25ZM590.25 54.75V52.5H579.75V54.75V57H590.25V54.75ZM579.75 54.75H582V33.75H579.75H577.5V54.75H579.75ZM579.75 33.75V36H590.25V33.75V31.5H579.75V33.75ZM590.25 33.75H588V54.75H590.25H592.5V33.75H590.25ZM642.75 54.75V57C643.993 57 645 55.9926 645 54.75H642.75ZM632.25 54.75H630C630 55.9926 631.007 57 632.25 57V54.75ZM632.25 12.75H634.5C634.5 11.5074 633.493 10.5 632.25 10.5V12.75ZM621.75 12.75H619.5C619.5 13.9926 620.507 15 621.75 15V12.75ZM621.75 2.25V0C620.507 0 619.5 1.00736 619.5 2.25H621.75ZM653.25 2.25H655.5C655.5 1.00736 654.493 0 653.25 0V2.25ZM653.25 12.75V15C654.493 15 655.5 13.9926 655.5 12.75H653.25ZM642.75 12.75V10.5C641.507 10.5 640.5 11.5074 640.5 12.75H642.75ZM642.75 54.75V52.5H632.25V54.75V57H642.75V54.75ZM632.25 54.75H634.5V12.75H632.25H630V54.75H632.25ZM632.25 12.75V10.5H621.75V12.75V15H632.25V12.75ZM621.75 12.75H624V2.25H621.75H619.5V12.75H621.75ZM621.75 2.25V4.5H653.25V2.25V0H621.75V2.25ZM653.25 2.25H651V12.75H653.25H655.5V2.25H653.25ZM653.25 12.75V10.5H642.75V12.75V15H653.25V12.75ZM642.75 12.75H640.5V54.75H642.75H645V12.75H642.75ZM674.25 12.75H672C672 13.9926 673.007 15 674.25 15V12.75ZM674.25 2.25V0C673.007 0 672 1.00736 672 2.25H674.25ZM695.25 2.25H697.5C697.5 1.00736 696.493 0 695.25 0V2.25ZM695.25 12.75V15C696.493 15 697.5 13.9926 697.5 12.75H695.25ZM674.25 44.25V46.5C675.493 46.5 676.5 45.4926 676.5 44.25H674.25ZM663.75 44.25H661.5C661.5 45.4926 662.507 46.5 663.75 46.5V44.25ZM663.75 12.75V10.5C662.507 10.5 661.5 11.5074 661.5 12.75H663.75ZM674.25 12.75H676.5C676.5 11.5074 675.493 10.5 674.25 10.5V12.75ZM705.75 44.25V46.5C706.993 46.5 708 45.4926 708 44.25H705.75ZM695.25 44.25H693C693 45.4926 694.007 46.5 695.25 46.5V44.25ZM695.25 12.75V10.5C694.007 10.5 693 11.5074 693 12.75H695.25ZM705.75 12.75H708C708 11.5074 706.993 10.5 705.75 10.5V12.75ZM695.25 44.25H697.5C697.5 43.0074 696.493 42 695.25 42V44.25ZM695.25 54.75V57C696.493 57 697.5 55.9926 697.5 54.75H695.25ZM674.25 54.75H672C672 55.9926 673.007 57 674.25 57V54.75ZM674.25 44.25V42C673.007 42 672 43.0074 672 44.25H674.25ZM674.25 12.75H676.5V2.25H674.25H672V12.75H674.25ZM674.25 2.25V4.5H695.25V2.25V0H674.25V2.25ZM695.25 2.25H693V12.75H695.25H697.5V2.25H695.25ZM695.25 12.75V10.5H674.25V12.75V15H695.25V12.75ZM674.25 44.25V42H663.75V44.25V46.5H674.25V44.25ZM663.75 44.25H666V12.75H663.75H661.5V44.25H663.75ZM663.75 12.75V15H674.25V12.75V10.5H663.75V12.75ZM674.25 12.75H672V44.25H674.25H676.5V12.75H674.25ZM705.75 44.25V42H695.25V44.25V46.5H705.75V44.25ZM695.25 44.25H697.5V12.75H695.25H693V44.25H695.25ZM695.25 12.75V15H705.75V12.75V10.5H695.25V12.75ZM705.75 12.75H703.5V44.25H705.75H708V12.75H705.75ZM695.25 44.25H693V54.75H695.25H697.5V44.25H695.25ZM695.25 54.75V52.5H674.25V54.75V57H695.25V54.75ZM674.25 54.75H676.5V44.25H674.25H672V54.75H674.25ZM674.25 44.25V46.5H695.25V44.25V42H674.25V44.25ZM726.75 54.75V57C727.993 57 729 55.9926 729 54.75H726.75ZM716.25 54.75H714C714 55.9926 715.007 57 716.25 57V54.75ZM716.25 2.25V0C715.007 0 714 1.00736 714 2.25H716.25ZM726.75 2.25H729C729 1.00736 727.993 0 726.75 0V2.25ZM726.75 12.75H724.5C724.5 13.9926 725.507 15 726.75 15V12.75ZM737.25 12.75H739.5C739.5 11.5074 738.493 10.5 737.25 10.5V12.75ZM737.25 23.25V25.5C738.493 25.5 739.5 24.4926 739.5 23.25H737.25ZM726.75 23.25V21C725.507 21 724.5 22.0074 724.5 23.25H726.75ZM768.75 54.75V57C769.993 57 771 55.9926 771 54.75H768.75ZM758.25 54.75H756C756 55.9926 757.007 57 758.25 57V54.75ZM758.25 23.25H760.5C760.5 22.0074 759.493 21 758.25 21V23.25ZM747.75 23.25H745.5C745.5 24.4926 746.507 25.5 747.75 25.5V23.25ZM747.75 12.75V10.5C746.507 10.5 745.5 11.5074 745.5 12.75H747.75ZM758.25 12.75V15C759.493 15 760.5 13.9926 760.5 12.75H758.25ZM758.25 2.25V0C757.007 0 756 1.00736 756 2.25H758.25ZM768.75 2.25H771C771 1.00736 769.993 0 768.75 0V2.25ZM737.25 33.75H735C735 34.9926 736.007 36 737.25 36V33.75ZM737.25 23.25V21C736.007 21 735 22.0074 735 23.25H737.25ZM747.75 23.25H750C750 22.0074 748.993 21 747.75 21V23.25ZM747.75 33.75V36C748.993 36 750 34.9926 750 33.75H747.75ZM726.75 54.75V52.5H716.25V54.75V57H726.75V54.75ZM716.25 54.75H718.5V2.25H716.25H714V54.75H716.25ZM716.25 2.25V4.5H726.75V2.25V0H716.25V2.25ZM726.75 2.25H724.5V12.75H726.75H729V2.25H726.75ZM726.75 12.75V15H737.25V12.75V10.5H726.75V12.75ZM737.25 12.75H735V23.25H737.25H739.5V12.75H737.25ZM737.25 23.25V21H726.75V23.25V25.5H737.25V23.25ZM726.75 23.25H724.5V54.75H726.75H729V23.25H726.75ZM768.75 54.75V52.5H758.25V54.75V57H768.75V54.75ZM758.25 54.75H760.5V23.25H758.25H756V54.75H758.25ZM758.25 23.25V21H747.75V23.25V25.5H758.25V23.25ZM747.75 23.25H750V12.75H747.75H745.5V23.25H747.75ZM747.75 12.75V15H758.25V12.75V10.5H747.75V12.75ZM758.25 12.75H760.5V2.25H758.25H756V12.75H758.25ZM758.25 2.25V4.5H768.75V2.25V0H758.25V2.25ZM768.75 2.25H766.5V54.75H768.75H771V2.25H768.75ZM737.25 33.75H739.5V23.25H737.25H735V33.75H737.25ZM737.25 23.25V25.5H747.75V23.25V21H737.25V23.25ZM747.75 23.25H745.5V33.75H747.75H750V23.25H747.75ZM747.75 33.75V31.5H737.25V33.75V36H747.75V33.75ZM789.75 12.75H787.5C787.5 13.9926 788.507 15 789.75 15V12.75ZM789.75 2.25V0C788.507 0 787.5 1.00736 787.5 2.25H789.75ZM810.75 2.25H813C813 1.00736 811.993 0 810.75 0V2.25ZM810.75 12.75V15C811.993 15 813 13.9926 813 12.75H810.75ZM789.75 44.25V46.5C790.993 46.5 792 45.4926 792 44.25H789.75ZM779.25 44.25H777C777 45.4926 778.007 46.5 779.25 46.5V44.25ZM779.25 12.75V10.5C778.007 10.5 777 11.5074 777 12.75H779.25ZM789.75 12.75H792C792 11.5074 790.993 10.5 789.75 10.5V12.75ZM821.25 44.25V46.5C822.493 46.5 823.5 45.4926 823.5 44.25H821.25ZM810.75 44.25H808.5C808.5 45.4926 809.507 46.5 810.75 46.5V44.25ZM810.75 12.75V10.5C809.507 10.5 808.5 11.5074 808.5 12.75H810.75ZM821.25 12.75H823.5C823.5 11.5074 822.493 10.5 821.25 10.5V12.75ZM810.75 44.25H813C813 43.0074 811.993 42 810.75 42V44.25ZM810.75 54.75V57C811.993 57 813 55.9926 813 54.75H810.75ZM789.75 54.75H787.5C787.5 55.9926 788.507 57 789.75 57V54.75ZM789.75 44.25V42C788.507 42 787.5 43.0074 787.5 44.25H789.75ZM789.75 12.75H792V2.25H789.75H787.5V12.75H789.75ZM789.75 2.25V4.5H810.75V2.25V0H789.75V2.25ZM810.75 2.25H808.5V12.75H810.75H813V2.25H810.75ZM810.75 12.75V10.5H789.75V12.75V15H810.75V12.75ZM789.75 44.25V42H779.25V44.25V46.5H789.75V44.25ZM779.25 44.25H781.5V12.75H779.25H777V44.25H779.25ZM779.25 12.75V15H789.75V12.75V10.5H779.25V12.75ZM789.75 12.75H787.5V44.25H789.75H792V12.75H789.75ZM821.25 44.25V42H810.75V44.25V46.5H821.25V44.25ZM810.75 44.25H813V12.75H810.75H808.5V44.25H810.75ZM810.75 12.75V15H821.25V12.75V10.5H810.75V12.75ZM821.25 12.75H819V44.25H821.25H823.5V12.75H821.25ZM810.75 44.25H808.5V54.75H810.75H813V44.25H810.75ZM810.75 54.75V52.5H789.75V54.75V57H810.75V54.75ZM789.75 54.75H792V44.25H789.75H787.5V54.75H789.75ZM789.75 44.25V46.5H810.75V44.25V42H789.75V44.25ZM842.25 54.75V57C843.493 57 844.5 55.9926 844.5 54.75H842.25ZM831.75 54.75H829.5C829.5 55.9926 830.507 57 831.75 57V54.75ZM831.75 2.25V0C830.507 0 829.5 1.00736 829.5 2.25H831.75ZM863.25 2.25H865.5C865.5 1.00736 864.493 0 863.25 0V2.25ZM863.25 12.75V15C864.493 15 865.5 13.9926 865.5 12.75H863.25ZM842.25 12.75V10.5C841.007 10.5 840 11.5074 840 12.75H842.25ZM842.25 23.25H840C840 24.4926 841.007 25.5 842.25 25.5V23.25ZM863.25 23.25H865.5C865.5 22.0074 864.493 21 863.25 21V23.25ZM863.25 33.75V36C864.493 36 865.5 34.9926 865.5 33.75H863.25ZM842.25 33.75V31.5C841.007 31.5 840 32.5074 840 33.75H842.25ZM873.75 23.25V25.5C874.993 25.5 876 24.4926 876 23.25H873.75ZM863.25 23.25H861C861 24.4926 862.007 25.5 863.25 25.5V23.25ZM863.25 12.75V10.5C862.007 10.5 861 11.5074 861 12.75H863.25ZM873.75 12.75H876C876 11.5074 874.993 10.5 873.75 10.5V12.75ZM873.75 54.75V57C874.993 57 876 55.9926 876 54.75H873.75ZM863.25 54.75H861C861 55.9926 862.007 57 863.25 57V54.75ZM863.25 33.75V31.5C862.007 31.5 861 32.5074 861 33.75H863.25ZM873.75 33.75H876C876 32.5074 874.993 31.5 873.75 31.5V33.75ZM842.25 54.75V52.5H831.75V54.75V57H842.25V54.75ZM831.75 54.75H834V2.25H831.75H829.5V54.75H831.75ZM831.75 2.25V4.5H863.25V2.25V0H831.75V2.25ZM863.25 2.25H861V12.75H863.25H865.5V2.25H863.25ZM863.25 12.75V10.5H842.25V12.75V15H863.25V12.75ZM842.25 12.75H840V23.25H842.25H844.5V12.75H842.25ZM842.25 23.25V25.5H863.25V23.25V21H842.25V23.25ZM863.25 23.25H861V33.75H863.25H865.5V23.25H863.25ZM863.25 33.75V31.5H842.25V33.75V36H863.25V33.75ZM842.25 33.75H840V54.75H842.25H844.5V33.75H842.25ZM873.75 23.25V21H863.25V23.25V25.5H873.75V23.25ZM863.25 23.25H865.5V12.75H863.25H861V23.25H863.25ZM863.25 12.75V15H873.75V12.75V10.5H863.25V12.75ZM873.75 12.75H871.5V23.25H873.75H876V12.75H873.75ZM873.75 54.75V52.5H863.25V54.75V57H873.75V54.75ZM863.25 54.75H865.5V33.75H863.25H861V54.75H863.25ZM863.25 33.75V36H873.75V33.75V31.5H863.25V33.75ZM873.75 33.75H871.5V54.75H873.75H876V33.75H873.75ZM894.75 54.75V57C895.993 57 897 55.9926 897 54.75H894.75ZM884.25 54.75H882C882 55.9926 883.007 57 884.25 57V54.75ZM884.25 2.25V0C883.007 0 882 1.00736 882 2.25H884.25ZM915.75 2.25H918C918 1.00736 916.993 0 915.75 0V2.25ZM915.75 12.75V15C916.993 15 918 13.9926 918 12.75H915.75ZM894.75 12.75V10.5C893.507 10.5 892.5 11.5074 892.5 12.75H894.75ZM894.75 23.25H892.5C892.5 24.4926 893.507 25.5 894.75 25.5V23.25ZM915.75 23.25H918C918 22.0074 916.993 21 915.75 21V23.25ZM915.75 33.75V36C916.993 36 918 34.9926 918 33.75H915.75ZM894.75 33.75V31.5C893.507 31.5 892.5 32.5074 892.5 33.75H894.75ZM926.25 23.25V25.5C927.493 25.5 928.5 24.4926 928.5 23.25H926.25ZM915.75 23.25H913.5C913.5 24.4926 914.507 25.5 915.75 25.5V23.25ZM915.75 12.75V10.5C914.507 10.5 913.5 11.5074 913.5 12.75H915.75ZM926.25 12.75H928.5C928.5 11.5074 927.493 10.5 926.25 10.5V12.75ZM926.25 54.75V57C927.493 57 928.5 55.9926 928.5 54.75H926.25ZM915.75 54.75H913.5C913.5 55.9926 914.507 57 915.75 57V54.75ZM915.75 33.75V31.5C914.507 31.5 913.5 32.5074 913.5 33.75H915.75ZM926.25 33.75H928.5C928.5 32.5074 927.493 31.5 926.25 31.5V33.75ZM894.75 54.75V52.5H884.25V54.75V57H894.75V54.75ZM884.25 54.75H886.5V2.25H884.25H882V54.75H884.25ZM884.25 2.25V4.5H915.75V2.25V0H884.25V2.25ZM915.75 2.25H913.5V12.75H915.75H918V2.25H915.75ZM915.75 12.75V10.5H894.75V12.75V15H915.75V12.75ZM894.75 12.75H892.5V23.25H894.75H897V12.75H894.75ZM894.75 23.25V25.5H915.75V23.25V21H894.75V23.25ZM915.75 23.25H913.5V33.75H915.75H918V23.25H915.75ZM915.75 33.75V31.5H894.75V33.75V36H915.75V33.75ZM894.75 33.75H892.5V54.75H894.75H897V33.75H894.75ZM926.25 23.25V21H915.75V23.25V25.5H926.25V23.25ZM915.75 23.25H918V12.75H915.75H913.5V23.25H915.75ZM915.75 12.75V15H926.25V12.75V10.5H915.75V12.75ZM926.25 12.75H924V23.25H926.25H928.5V12.75H926.25ZM926.25 54.75V52.5H915.75V54.75V57H926.25V54.75ZM915.75 54.75H918V33.75H915.75H913.5V54.75H915.75ZM915.75 33.75V36H926.25V33.75V31.5H915.75V33.75ZM926.25 33.75H924V54.75H926.25H928.5V33.75H926.25ZM947.25 12.75H945C945 13.9926 946.007 15 947.25 15V12.75ZM947.25 2.25V0C946.007 0 945 1.00736 945 2.25H947.25ZM968.25 2.25H970.5C970.5 1.00736 969.493 0 968.25 0V2.25ZM968.25 12.75V15C969.493 15 970.5 13.9926 970.5 12.75H968.25ZM947.25 44.25V46.5C948.493 46.5 949.5 45.4926 949.5 44.25H947.25ZM936.75 44.25H934.5C934.5 45.4926 935.507 46.5 936.75 46.5V44.25ZM936.75 12.75V10.5C935.507 10.5 934.5 11.5074 934.5 12.75H936.75ZM947.25 12.75H949.5C949.5 11.5074 948.493 10.5 947.25 10.5V12.75ZM978.75 44.25V46.5C979.993 46.5 981 45.4926 981 44.25H978.75ZM968.25 44.25H966C966 45.4926 967.007 46.5 968.25 46.5V44.25ZM968.25 12.75V10.5C967.007 10.5 966 11.5074 966 12.75H968.25ZM978.75 12.75H981C981 11.5074 979.993 10.5 978.75 10.5V12.75ZM968.25 44.25H970.5C970.5 43.0074 969.493 42 968.25 42V44.25ZM968.25 54.75V57C969.493 57 970.5 55.9926 970.5 54.75H968.25ZM947.25 54.75H945C945 55.9926 946.007 57 947.25 57V54.75ZM947.25 44.25V42C946.007 42 945 43.0074 945 44.25H947.25ZM947.25 12.75H949.5V2.25H947.25H945V12.75H947.25ZM947.25 2.25V4.5H968.25V2.25V0H947.25V2.25ZM968.25 2.25H966V12.75H968.25H970.5V2.25H968.25ZM968.25 12.75V10.5H947.25V12.75V15H968.25V12.75ZM947.25 44.25V42H936.75V44.25V46.5H947.25V44.25ZM936.75 44.25H939V12.75H936.75H934.5V44.25H936.75ZM936.75 12.75V15H947.25V12.75V10.5H936.75V12.75ZM947.25 12.75H945V44.25H947.25H949.5V12.75H947.25ZM978.75 44.25V42H968.25V44.25V46.5H978.75V44.25ZM968.25 44.25H970.5V12.75H968.25H966V44.25H968.25ZM968.25 12.75V15H978.75V12.75V10.5H968.25V12.75ZM978.75 12.75H976.5V44.25H978.75H981V12.75H978.75ZM968.25 44.25H966V54.75H968.25H970.5V44.25H968.25ZM968.25 54.75V52.5H947.25V54.75V57H968.25V54.75ZM947.25 54.75H949.5V44.25H947.25H945V54.75H947.25ZM947.25 44.25V46.5H968.25V44.25V42H947.25V44.25ZM999.75 33.75V36C1000.99 36 1002 34.9926 1002 33.75H999.75ZM989.25 33.75H987C987 34.9926 988.007 36 989.25 36V33.75ZM989.25 2.25V0C988.007 0 987 1.00736 987 2.25H989.25ZM999.75 2.25H1002C1002 1.00736 1000.99 0 999.75 0V2.25ZM1010.25 33.75H1008C1008 34.9926 1009.01 36 1010.25 36V33.75ZM1010.25 2.25V0C1009.01 0 1008 1.00736 1008 2.25H1010.25ZM1020.75 2.25H1023C1023 1.00736 1021.99 0 1020.75 0V2.25ZM1020.75 33.75V36C1021.99 36 1023 34.9926 1023 33.75H1020.75ZM1031.25 33.75H1029C1029 34.9926 1030.01 36 1031.25 36V33.75ZM1031.25 2.25V0C1030.01 0 1029 1.00736 1029 2.25H1031.25ZM1041.75 2.25H1044C1044 1.00736 1042.99 0 1041.75 0V2.25ZM1041.75 33.75V36C1042.99 36 1044 34.9926 1044 33.75H1041.75ZM1010.25 54.75V57C1011.49 57 1012.5 55.9926 1012.5 54.75H1010.25ZM999.75 54.75H997.5C997.5 55.9926 998.507 57 999.75 57V54.75ZM999.75 33.75V31.5C998.507 31.5 997.5 32.5074 997.5 33.75H999.75ZM1010.25 33.75H1012.5C1012.5 32.5074 1011.49 31.5 1010.25 31.5V33.75ZM1031.25 54.75V57C1032.49 57 1033.5 55.9926 1033.5 54.75H1031.25ZM1020.75 54.75H1018.5C1018.5 55.9926 1019.51 57 1020.75 57V54.75ZM1020.75 33.75V31.5C1019.51 31.5 1018.5 32.5074 1018.5 33.75H1020.75ZM1031.25 33.75H1033.5C1033.5 32.5074 1032.49 31.5 1031.25 31.5V33.75ZM999.75 33.75V31.5H989.25V33.75V36H999.75V33.75ZM989.25 33.75H991.5V2.25H989.25H987V33.75H989.25ZM989.25 2.25V4.5H999.75V2.25V0H989.25V2.25ZM999.75 2.25H997.5V33.75H999.75H1002V2.25H999.75ZM1010.25 33.75H1012.5V2.25H1010.25H1008V33.75H1010.25ZM1010.25 2.25V4.5H1020.75V2.25V0H1010.25V2.25ZM1020.75 2.25H1018.5V33.75H1020.75H1023V2.25H1020.75ZM1020.75 33.75V31.5H1010.25V33.75V36H1020.75V33.75ZM1031.25 33.75H1033.5V2.25H1031.25H1029V33.75H1031.25ZM1031.25 2.25V4.5H1041.75V2.25V0H1031.25V2.25ZM1041.75 2.25H1039.5V33.75H1041.75H1044V2.25H1041.75ZM1041.75 33.75V31.5H1031.25V33.75V36H1041.75V33.75ZM1010.25 54.75V52.5H999.75V54.75V57H1010.25V54.75ZM999.75 54.75H1002V33.75H999.75H997.5V54.75H999.75ZM999.75 33.75V36H1010.25V33.75V31.5H999.75V33.75ZM1010.25 33.75H1008V54.75H1010.25H1012.5V33.75H1010.25ZM1031.25 54.75V52.5H1020.75V54.75V57H1031.25V54.75ZM1020.75 54.75H1023V33.75H1020.75H1018.5V54.75H1020.75ZM1020.75 33.75V36H1031.25V33.75V31.5H1020.75V33.75ZM1031.25 33.75H1029V54.75H1031.25H1033.5V33.75H1031.25Z" fill="#663333" style="mix-blend-mode:plus-lighter"/>
<path d="M12.75 12.75H10.5C10.5 13.9926 11.5074 15 12.75 15V12.75ZM12.75 2.25V0C11.5074 0 10.5 1.00736 10.5 2.25H12.75ZM33.75 2.25H36C36 1.00736 34.9926 0 33.75 0V2.25ZM33.75 12.75V15C34.9926 15 36 13.9926 36 12.75H33.75ZM12.75 44.25V46.5C13.9926 46.5 15 45.4926 15 44.25H12.75ZM2.25 44.25H0C0 45.4926 1.00736 46.5 2.25 46.5L2.25 44.25ZM2.25 12.75V10.5C1.00736 10.5 0 11.5074 0 12.75H2.25ZM12.75 12.75H15C15 11.5074 13.9926 10.5 12.75 10.5V12.75ZM33.75 23.25H31.5C31.5 24.4926 32.5074 25.5 33.75 25.5V23.25ZM33.75 12.75V10.5C32.5074 10.5 31.5 11.5074 31.5 12.75H33.75ZM44.25 12.75H46.5C46.5 11.5074 45.4926 10.5 44.25 10.5V12.75ZM44.25 23.25V25.5C45.4926 25.5 46.5 24.4926 46.5 23.25H44.25ZM44.25 44.25V46.5C45.4926 46.5 46.5 45.4926 46.5 44.25H44.25ZM33.75 44.25H31.5C31.5 45.4926 32.5074 46.5 33.75 46.5V44.25ZM33.75 33.75V31.5C32.5074 31.5 31.5 32.5074 31.5 33.75H33.75ZM44.25 33.75H46.5C46.5 32.5074 45.4926 31.5 44.25 31.5V33.75ZM33.75 44.25H36C36 43.0074 34.9926 42 33.75 42V44.25ZM33.75 54.75V57C34.9926 57 36 55.9926 36 54.75H33.75ZM12.75 54.75H10.5C10.5 55.9926 11.5074 57 12.75 57V54.75ZM12.75 44.25V42C11.5074 42 10.5 43.0074 10.5 44.25H12.75ZM12.75 12.75H15V2.25H12.75H10.5V12.75H12.75ZM12.75 2.25V4.5H33.75V2.25V0H12.75V2.25ZM33.75 2.25H31.5V12.75H33.75H36V2.25H33.75ZM33.75 12.75V10.5H12.75V12.75V15H33.75V12.75ZM12.75 44.25V42H2.25V44.25V46.5H12.75V44.25ZM2.25 44.25H4.5V12.75H2.25H0V44.25H2.25ZM2.25 12.75V15H12.75V12.75V10.5H2.25V12.75ZM12.75 12.75H10.5V44.25H12.75H15V12.75H12.75ZM33.75 23.25H36V12.75H33.75H31.5V23.25H33.75ZM33.75 12.75V15H44.25V12.75V10.5H33.75V12.75ZM44.25 12.75H42V23.25H44.25H46.5V12.75H44.25ZM44.25 23.25V21H33.75V23.25V25.5H44.25V23.25ZM44.25 44.25V42H33.75V44.25V46.5H44.25V44.25ZM33.75 44.25H36V33.75H33.75H31.5V44.25H33.75ZM33.75 33.75V36H44.25V33.75V31.5H33.75V33.75ZM44.25 33.75H42V44.25H44.25H46.5V33.75H44.25ZM33.75 44.25H31.5V54.75H33.75H36V44.25H33.75ZM33.75 54.75V52.5H12.75V54.75V57H33.75V54.75ZM12.75 54.75H15V44.25H12.75H10.5V54.75H12.75ZM12.75 44.25V46.5H33.75V44.25V42H12.75V44.25ZM65.25 54.75V57C66.4926 57 67.5 55.9926 67.5 54.75H65.25ZM54.75 54.75H52.5C52.5 55.9926 53.5074 57 54.75 57V54.75ZM54.75 2.25V0C53.5074 0 52.5 1.00736 52.5 2.25H54.75ZM86.25 2.25H88.5C88.5 1.00736 87.4926 0 86.25 0V2.25ZM86.25 12.75V15C87.4926 15 88.5 13.9926 88.5 12.75H86.25ZM65.25 12.75V10.5C64.0074 10.5 63 11.5074 63 12.75H65.25ZM65.25 23.25H63C63 24.4926 64.0074 25.5 65.25 25.5V23.25ZM86.25 23.25H88.5C88.5 22.0074 87.4926 21 86.25 21V23.25ZM86.25 33.75V36C87.4926 36 88.5 34.9926 88.5 33.75H86.25ZM65.25 33.75V31.5C64.0074 31.5 63 32.5074 63 33.75H65.25ZM96.75 23.25V25.5C97.9926 25.5 99 24.4926 99 23.25H96.75ZM86.25 23.25H84C84 24.4926 85.0074 25.5 86.25 25.5V23.25ZM86.25 12.75V10.5C85.0074 10.5 84 11.5074 84 12.75H86.25ZM96.75 12.75H99C99 11.5074 97.9926 10.5 96.75 10.5V12.75ZM96.75 54.75V57C97.9926 57 99 55.9926 99 54.75H96.75ZM86.25 54.75H84C84 55.9926 85.0074 57 86.25 57V54.75ZM86.25 33.75V31.5C85.0074 31.5 84 32.5074 84 33.75H86.25ZM96.75 33.75H99C99 32.5074 97.9926 31.5 96.75 31.5V33.75ZM65.25 54.75V52.5H54.75V54.75V57H65.25V54.75ZM54.75 54.75H57V2.25H54.75H52.5V54.75H54.75ZM54.75 2.25V4.5H86.25V2.25V0H54.75V2.25ZM86.25 2.25H84V12.75H86.25H88.5V2.25H86.25ZM86.25 12.75V10.5H65.25V12.75V15H86.25V12.75ZM65.25 12.75H63V23.25H65.25H67.5V12.75H65.25ZM65.25 23.25V25.5H86.25V23.25V21H65.25V23.25ZM86.25 23.25H84V33.75H86.25H88.5V23.25H86.25ZM86.25 33.75V31.5H65.25V33.75V36H86.25V33.75ZM65.25 33.75H63V54.75H65.25H67.5V33.75H65.25ZM96.75 23.25V21H86.25V23.25V25.5H96.75V23.25ZM86.25 23.25H88.5V12.75H86.25H84V23.25H86.25ZM86.25 12.75V15H96.75V12.75V10.5H86.25V12.75ZM96.75 12.75H94.5V23.25H96.75H99V12.75H96.75ZM96.75 54.75V52.5H86.25V54.75V57H96.75V54.75ZM86.25 54.75H88.5V33.75H86.25H84V54.75H86.25ZM86.25 33.75V36H96.75V33.75V31.5H86.25V33.75ZM96.75 33.75H94.5V54.75H96.75H99V33.75H96.75ZM117.75 12.75H115.5C115.5 13.9926 116.507 15 117.75 15V12.75ZM117.75 2.25V0C116.507 0 115.5 1.00736 115.5 2.25H117.75ZM138.75 2.25H141C141 1.00736 139.993 0 138.75 0V2.25ZM138.75 12.75V15C139.993 15 141 13.9926 141 12.75H138.75ZM117.75 54.75V57C118.993 57 120 55.9926 120 54.75H117.75ZM107.25 54.75H105C105 55.9926 106.007 57 107.25 57V54.75ZM107.25 12.75V10.5C106.007 10.5 105 11.5074 105 12.75H107.25ZM117.75 12.75H120C120 11.5074 118.993 10.5 117.75 10.5V12.75ZM117.75 23.25H115.5C115.5 24.4926 116.507 25.5 117.75 25.5V23.25ZM138.75 23.25V25.5C139.993 25.5 141 24.4926 141 23.25H138.75ZM138.75 12.75V10.5C137.507 10.5 136.5 11.5074 136.5 12.75H138.75ZM149.25 12.75H151.5C151.5 11.5074 150.493 10.5 149.25 10.5V12.75ZM149.25 54.75V57C150.493 57 151.5 55.9926 151.5 54.75H149.25ZM138.75 54.75H136.5C136.5 55.9926 137.507 57 138.75 57V54.75ZM138.75 33.75H141C141 32.5074 139.993 31.5 138.75 31.5V33.75ZM117.75 33.75V31.5C116.507 31.5 115.5 32.5074 115.5 33.75H117.75ZM117.75 12.75H120V2.25H117.75H115.5V12.75H117.75ZM117.75 2.25V4.5H138.75V2.25V0H117.75V2.25ZM138.75 2.25H136.5V12.75H138.75H141V2.25H138.75ZM138.75 12.75V10.5H117.75V12.75V15H138.75V12.75ZM117.75 54.75V52.5H107.25V54.75V57H117.75V54.75ZM107.25 54.75H109.5V12.75H107.25H105V54.75H107.25ZM107.25 12.75V15H117.75V12.75V10.5H107.25V12.75ZM117.75 12.75H115.5V23.25H117.75H120V12.75H117.75ZM117.75 23.25V25.5H138.75V23.25V21H117.75V23.25ZM138.75 23.25H141V12.75H138.75H136.5V23.25H138.75ZM138.75 12.75V15H149.25V12.75V10.5H138.75V12.75ZM149.25 12.75H147V54.75H149.25H151.5V12.75H149.25ZM149.25 54.75V52.5H138.75V54.75V57H149.25V54.75ZM138.75 54.75H141V33.75H138.75H136.5V54.75H138.75ZM138.75 33.75V31.5H117.75V33.75V36H138.75V33.75ZM117.75 33.75H115.5V54.75H117.75H120V33.75H117.75ZM170.25 54.75V57C171.493 57 172.5 55.9926 172.5 54.75H170.25ZM159.75 54.75H157.5C157.5 55.9926 158.507 57 159.75 57V54.75ZM159.75 2.25V0C158.507 0 157.5 1.00736 157.5 2.25H159.75ZM201.75 2.25H204C204 1.00736 202.993 0 201.75 0V2.25ZM201.75 12.75V15C202.993 15 204 13.9926 204 12.75H201.75ZM170.25 12.75V10.5C169.007 10.5 168 11.5074 168 12.75H170.25ZM170.25 23.25H168C168 24.4926 169.007 25.5 170.25 25.5V23.25ZM191.25 23.25H193.5C193.5 22.0074 192.493 21 191.25 21V23.25ZM191.25 33.75V36C192.493 36 193.5 34.9926 193.5 33.75H191.25ZM170.25 33.75V31.5C169.007 31.5 168 32.5074 168 33.75H170.25ZM170.25 54.75V52.5H159.75V54.75V57H170.25V54.75ZM159.75 54.75H162V2.25H159.75H157.5V54.75H159.75ZM159.75 2.25V4.5H201.75V2.25V0H159.75V2.25ZM201.75 2.25H199.5V12.75H201.75H204V2.25H201.75ZM201.75 12.75V10.5H170.25V12.75V15H201.75V12.75ZM170.25 12.75H168V23.25H170.25H172.5V12.75H170.25ZM170.25 23.25V25.5H191.25V23.25V21H170.25V23.25ZM191.25 23.25H189V33.75H191.25H193.5V23.25H191.25ZM191.25 33.75V31.5H170.25V33.75V36H191.25V33.75ZM170.25 33.75H168V54.75H170.25H172.5V33.75H170.25ZM233.25 54.75V57C234.493 57 235.5 55.9926 235.5 54.75H233.25ZM222.75 54.75H220.5C220.5 55.9926 221.507 57 222.75 57V54.75ZM222.75 12.75H225C225 11.5074 223.993 10.5 222.75 10.5V12.75ZM212.25 12.75H210C210 13.9926 211.007 15 212.25 15V12.75ZM212.25 2.25V0C211.007 0 210 1.00736 210 2.25H212.25ZM243.75 2.25H246C246 1.00736 244.993 0 243.75 0V2.25ZM243.75 12.75V15C244.993 15 246 13.9926 246 12.75H243.75ZM233.25 12.75V10.5C232.007 10.5 231 11.5074 231 12.75H233.25ZM233.25 54.75V52.5H222.75V54.75V57H233.25V54.75ZM222.75 54.75H225V12.75H222.75H220.5V54.75H222.75ZM222.75 12.75V10.5H212.25V12.75V15H222.75V12.75ZM212.25 12.75H214.5V2.25H212.25H210V12.75H212.25ZM212.25 2.25V4.5H243.75V2.25V0H212.25V2.25ZM243.75 2.25H241.5V12.75H243.75H246V2.25H243.75ZM243.75 12.75V10.5H233.25V12.75V15H243.75V12.75ZM233.25 12.75H231V54.75H233.25H235.5V12.75H233.25ZM264.75 54.75V57C265.993 57 267 55.9926 267 54.75H264.75ZM254.25 54.75H252C252 55.9926 253.007 57 254.25 57V54.75ZM254.25 2.25V0C253.007 0 252 1.00736 252 2.25H254.25ZM264.75 2.25H267C267 1.00736 265.993 0 264.75 0V2.25ZM264.75 54.75V52.5H254.25V54.75V57H264.75V54.75ZM254.25 54.75H256.5V2.25H254.25H252V54.75H254.25ZM254.25 2.25V4.5H264.75V2.25V0H254.25V2.25ZM264.75 2.25H262.5V54.75H264.75H267V2.25H264.75ZM285.75 54.75V57C286.993 57 288 55.9926 288 54.75H285.75ZM275.25 54.75H273C273 55.9926 274.007 57 275.25 57V54.75ZM275.25 2.25V0C274.007 0 273 1.00736 273 2.25H275.25ZM285.75 2.25H288C288 1.00736 286.993 0 285.75 0V2.25ZM285.75 12.75H283.5C283.5 13.9926 284.507 15 285.75 15V12.75ZM296.25 12.75H298.5C298.5 11.5074 297.493 10.5 296.25 10.5V12.75ZM296.25 23.25V25.5C297.493 25.5 298.5 24.4926 298.5 23.25H296.25ZM285.75 23.25V21C284.507 21 283.5 22.0074 283.5 23.25H285.75ZM317.25 54.75V57C318.493 57 319.5 55.9926 319.5 54.75H317.25ZM306.75 54.75H304.5C304.5 55.9926 305.507 57 306.75 57V54.75ZM306.75 33.75H309C309 32.5074 307.993 31.5 306.75 31.5V33.75ZM296.25 33.75H294C294 34.9926 295.007 36 296.25 36V33.75ZM296.25 23.25V21C295.007 21 294 22.0074 294 23.25H296.25ZM306.75 23.25V25.5C307.993 25.5 309 24.4926 309 23.25H306.75ZM306.75 2.25V0C305.507 0 304.5 1.00736 304.5 2.25H306.75ZM317.25 2.25H319.5C319.5 1.00736 318.493 0 317.25 0V2.25ZM285.75 54.75V52.5H275.25V54.75V57H285.75V54.75ZM275.25 54.75H277.5V2.25H275.25H273V54.75H275.25ZM275.25 2.25V4.5H285.75V2.25V0H275.25V2.25ZM285.75 2.25H283.5V12.75H285.75H288V2.25H285.75ZM285.75 12.75V15H296.25V12.75V10.5H285.75V12.75ZM296.25 12.75H294V23.25H296.25H298.5V12.75H296.25ZM296.25 23.25V21H285.75V23.25V25.5H296.25V23.25ZM285.75 23.25H283.5V54.75H285.75H288V23.25H285.75ZM317.25 54.75V52.5H306.75V54.75V57H317.25V54.75ZM306.75 54.75H309V33.75H306.75H304.5V54.75H306.75ZM306.75 33.75V31.5H296.25V33.75V36H306.75V33.75ZM296.25 33.75H298.5V23.25H296.25H294V33.75H296.25ZM296.25 23.25V25.5H306.75V23.25V21H296.25V23.25ZM306.75 23.25H309V2.25H306.75H304.5V23.25H306.75ZM306.75 2.25V4.5H317.25V2.25V0H306.75V2.25ZM317.25 2.25H315V54.75H317.25H319.5V2.25H317.25ZM338.25 12.75H336C336 13.9926 337.007 15 338.25 15V12.75ZM338.25 2.25V0C337.007 0 336 1.00736 336 2.25H338.25ZM369.75 2.25H372C372 1.00736 370.993 0 369.75 0V2.25ZM369.75 12.75V15C370.993 15 372 13.9926 372 12.75H369.75ZM338.25 54.75H336C336 55.9926 337.007 57 338.25 57V54.75ZM338.25 44.25H340.5C340.5 43.0074 339.493 42 338.25 42V44.25ZM327.75 44.25H325.5C325.5 45.4926 326.507 46.5 327.75 46.5V44.25ZM327.75 12.75V10.5C326.507 10.5 325.5 11.5074 325.5 12.75H327.75ZM338.25 12.75H340.5C340.5 11.5074 339.493 10.5 338.25 10.5V12.75ZM338.25 44.25H336C336 45.4926 337.007 46.5 338.25 46.5V44.25ZM359.25 44.25V46.5C360.493 46.5 361.5 45.4926 361.5 44.25H359.25ZM359.25 33.75H361.5C361.5 32.5074 360.493 31.5 359.25 31.5V33.75ZM348.75 33.75H346.5C346.5 34.9926 347.507 36 348.75 36V33.75ZM348.75 23.25V21C347.507 21 346.5 22.0074 346.5 23.25H348.75ZM369.75 23.25H372C372 22.0074 370.993 21 369.75 21V23.25ZM369.75 54.75V57C370.993 57 372 55.9926 372 54.75H369.75ZM338.25 12.75H340.5V2.25H338.25H336V12.75H338.25ZM338.25 2.25V4.5H369.75V2.25V0H338.25V2.25ZM369.75 2.25H367.5V12.75H369.75H372V2.25H369.75ZM369.75 12.75V10.5H338.25V12.75V15H369.75V12.75ZM338.25 54.75H340.5V44.25H338.25H336V54.75H338.25ZM338.25 44.25V42H327.75V44.25V46.5H338.25V44.25ZM327.75 44.25H330V12.75H327.75H325.5V44.25H327.75ZM327.75 12.75V15H338.25V12.75V10.5H327.75V12.75ZM338.25 12.75H336V44.25H338.25H340.5V12.75H338.25ZM338.25 44.25V46.5H359.25V44.25V42H338.25V44.25ZM359.25 44.25H361.5V33.75H359.25H357V44.25H359.25ZM359.25 33.75V31.5H348.75V33.75V36H359.25V33.75ZM348.75 33.75H351V23.25H348.75H346.5V33.75H348.75ZM348.75 23.25V25.5H369.75V23.25V21H348.75V23.25ZM369.75 23.25H367.5V54.75H369.75H372V23.25H369.75ZM369.75 54.75V52.5H338.25V54.75V57H369.75V54.75ZM411.75 23.25V25.5C412.993 25.5 414 24.4926 414 23.25H411.75ZM401.25 23.25H399C399 24.4926 400.007 25.5 401.25 25.5V23.25ZM401.25 2.25V0C400.007 0 399 1.00736 399 2.25H401.25ZM411.75 2.25H414C414 1.00736 412.993 0 411.75 0V2.25ZM422.25 23.25H420C420 24.4926 421.007 25.5 422.25 25.5V23.25ZM422.25 2.25V0C421.007 0 420 1.00736 420 2.25H422.25ZM432.75 2.25H435C435 1.00736 433.993 0 432.75 0V2.25ZM432.75 23.25V25.5C433.993 25.5 435 24.4926 435 23.25H432.75ZM422.25 54.75V57C423.493 57 424.5 55.9926 424.5 54.75H422.25ZM411.75 54.75H409.5C409.5 55.9926 410.507 57 411.75 57V54.75ZM411.75 23.25V21C410.507 21 409.5 22.0074 409.5 23.25H411.75ZM422.25 23.25H424.5C424.5 22.0074 423.493 21 422.25 21V23.25ZM411.75 23.25V21H401.25V23.25V25.5H411.75V23.25ZM401.25 23.25H403.5V2.25H401.25H399V23.25H401.25ZM401.25 2.25V4.5H411.75V2.25V0H401.25V2.25ZM411.75 2.25H409.5V23.25H411.75H414V2.25H411.75ZM422.25 23.25H424.5V2.25H422.25H420V23.25H422.25ZM422.25 2.25V4.5H432.75V2.25V0H422.25V2.25ZM432.75 2.25H430.5V23.25H432.75H435V2.25H432.75ZM432.75 23.25V21H422.25V23.25V25.5H432.75V23.25ZM422.25 54.75V52.5H411.75V54.75V57H422.25V54.75ZM411.75 54.75H414V23.25H411.75H409.5V54.75H411.75ZM411.75 23.25V25.5H422.25V23.25V21H411.75V23.25ZM422.25 23.25H420V54.75H422.25H424.5V23.25H422.25ZM453.75 12.75H451.5C451.5 13.9926 452.507 15 453.75 15V12.75ZM453.75 2.25V0C452.507 0 451.5 1.00736 451.5 2.25H453.75ZM474.75 2.25H477C477 1.00736 475.993 0 474.75 0V2.25ZM474.75 12.75V15C475.993 15 477 13.9926 477 12.75H474.75ZM453.75 44.25V46.5C454.993 46.5 456 45.4926 456 44.25H453.75ZM443.25 44.25H441C441 45.4926 442.007 46.5 443.25 46.5V44.25ZM443.25 12.75V10.5C442.007 10.5 441 11.5074 441 12.75H443.25ZM453.75 12.75H456C456 11.5074 454.993 10.5 453.75 10.5V12.75ZM485.25 44.25V46.5C486.493 46.5 487.5 45.4926 487.5 44.25H485.25ZM474.75 44.25H472.5C472.5 45.4926 473.507 46.5 474.75 46.5V44.25ZM474.75 12.75V10.5C473.507 10.5 472.5 11.5074 472.5 12.75H474.75ZM485.25 12.75H487.5C487.5 11.5074 486.493 10.5 485.25 10.5V12.75ZM474.75 44.25H477C477 43.0074 475.993 42 474.75 42V44.25ZM474.75 54.75V57C475.993 57 477 55.9926 477 54.75H474.75ZM453.75 54.75H451.5C451.5 55.9926 452.507 57 453.75 57V54.75ZM453.75 44.25V42C452.507 42 451.5 43.0074 451.5 44.25H453.75ZM453.75 12.75H456V2.25H453.75H451.5V12.75H453.75ZM453.75 2.25V4.5H474.75V2.25V0H453.75V2.25ZM474.75 2.25H472.5V12.75H474.75H477V2.25H474.75ZM474.75 12.75V10.5H453.75V12.75V15H474.75V12.75ZM453.75 44.25V42H443.25V44.25V46.5H453.75V44.25ZM443.25 44.25H445.5V12.75H443.25H441V44.25H443.25ZM443.25 12.75V15H453.75V12.75V10.5H443.25V12.75ZM453.75 12.75H451.5V44.25H453.75H456V12.75H453.75ZM485.25 44.25V42H474.75V44.25V46.5H485.25V44.25ZM474.75 44.25H477V12.75H474.75H472.5V44.25H474.75ZM474.75 12.75V15H485.25V12.75V10.5H474.75V12.75ZM485.25 12.75H483V44.25H485.25H487.5V12.75H485.25ZM474.75 44.25H472.5V54.75H474.75H477V44.25H474.75ZM474.75 54.75V52.5H453.75V54.75V57H474.75V54.75ZM453.75 54.75H456V44.25H453.75H451.5V54.75H453.75ZM453.75 44.25V46.5H474.75V44.25V42H453.75V44.25ZM506.25 44.25V46.5C507.493 46.5 508.5 45.4926 508.5 44.25H506.25ZM495.75 44.25H493.5C493.5 45.4926 494.507 46.5 495.75 46.5V44.25ZM495.75 2.25V0C494.507 0 493.5 1.00736 493.5 2.25H495.75ZM506.25 2.25H508.5C508.5 1.00736 507.493 0 506.25 0V2.25ZM537.75 44.25V46.5C538.993 46.5 540 45.4926 540 44.25H537.75ZM527.25 44.25H525C525 45.4926 526.007 46.5 527.25 46.5V44.25ZM527.25 2.25V0C526.007 0 525 1.00736 525 2.25H527.25ZM537.75 2.25H540C540 1.00736 538.993 0 537.75 0V2.25ZM527.25 44.25H529.5C529.5 43.0074 528.493 42 527.25 42V44.25ZM527.25 54.75V57C528.493 57 529.5 55.9926 529.5 54.75H527.25ZM506.25 54.75H504C504 55.9926 505.007 57 506.25 57V54.75ZM506.25 44.25V42C505.007 42 504 43.0074 504 44.25H506.25ZM506.25 44.25V42H495.75V44.25V46.5H506.25V44.25ZM495.75 44.25H498V2.25H495.75H493.5V44.25H495.75ZM495.75 2.25V4.5H506.25V2.25V0H495.75V2.25ZM506.25 2.25H504V44.25H506.25H508.5V2.25H506.25ZM537.75 44.25V42H527.25V44.25V46.5H537.75V44.25ZM527.25 44.25H529.5V2.25H527.25H525V44.25H527.25ZM527.25 2.25V4.5H537.75V2.25V0H527.25V2.25ZM537.75 2.25H535.5V44.25H537.75H540V2.25H537.75ZM527.25 44.25H525V54.75H527.25H529.5V44.25H527.25ZM527.25 54.75V52.5H506.25V54.75V57H527.25V54.75ZM506.25 54.75H508.5V44.25H506.25H504V54.75H506.25ZM506.25 44.25V46.5H527.25V44.25V42H506.25V44.25ZM558.75 54.75V57C559.993 57 561 55.9926 561 54.75H558.75ZM548.25 54.75H546C546 55.9926 547.007 57 548.25 57V54.75ZM548.25 2.25V0C547.007 0 546 1.00736 546 2.25H548.25ZM579.75 2.25H582C582 1.00736 580.993 0 579.75 0V2.25ZM579.75 12.75V15C580.993 15 582 13.9926 582 12.75H579.75ZM558.75 12.75V10.5C557.507 10.5 556.5 11.5074 556.5 12.75H558.75ZM558.75 23.25H556.5C556.5 24.4926 557.507 25.5 558.75 25.5V23.25ZM579.75 23.25H582C582 22.0074 580.993 21 579.75 21V23.25ZM579.75 33.75V36C580.993 36 582 34.9926 582 33.75H579.75ZM558.75 33.75V31.5C557.507 31.5 556.5 32.5074 556.5 33.75H558.75ZM590.25 23.25V25.5C591.493 25.5 592.5 24.4926 592.5 23.25H590.25ZM579.75 23.25H577.5C577.5 24.4926 578.507 25.5 579.75 25.5V23.25ZM579.75 12.75V10.5C578.507 10.5 577.5 11.5074 577.5 12.75H579.75ZM590.25 12.75H592.5C592.5 11.5074 591.493 10.5 590.25 10.5V12.75ZM590.25 54.75V57C591.493 57 592.5 55.9926 592.5 54.75H590.25ZM579.75 54.75H577.5C577.5 55.9926 578.507 57 579.75 57V54.75ZM579.75 33.75V31.5C578.507 31.5 577.5 32.5074 577.5 33.75H579.75ZM590.25 33.75H592.5C592.5 32.5074 591.493 31.5 590.25 31.5V33.75ZM558.75 54.75V52.5H548.25V54.75V57H558.75V54.75ZM548.25 54.75H550.5V2.25H548.25H546V54.75H548.25ZM548.25 2.25V4.5H579.75V2.25V0H548.25V2.25ZM579.75 2.25H577.5V12.75H579.75H582V2.25H579.75ZM579.75 12.75V10.5H558.75V12.75V15H579.75V12.75ZM558.75 12.75H556.5V23.25H558.75H561V12.75H558.75ZM558.75 23.25V25.5H579.75V23.25V21H558.75V23.25ZM579.75 23.25H577.5V33.75H579.75H582V23.25H579.75ZM579.75 33.75V31.5H558.75V33.75V36H579.75V33.75ZM558.75 33.75H556.5V54.75H558.75H561V33.75H558.75ZM590.25 23.25V21H579.75V23.25V25.5H590.25V23.25ZM579.75 23.25H582V12.75H579.75H577.5V23.25H579.75ZM579.75 12.75V15H590.25V12.75V10.5H579.75V12.75ZM590.25 12.75H588V23.25H590.25H592.5V12.75H590.25ZM590.25 54.75V52.5H579.75V54.75V57H590.25V54.75ZM579.75 54.75H582V33.75H579.75H577.5V54.75H579.75ZM579.75 33.75V36H590.25V33.75V31.5H579.75V33.75ZM590.25 33.75H588V54.75H590.25H592.5V33.75H590.25ZM642.75 54.75V57C643.993 57 645 55.9926 645 54.75H642.75ZM632.25 54.75H630C630 55.9926 631.007 57 632.25 57V54.75ZM632.25 12.75H634.5C634.5 11.5074 633.493 10.5 632.25 10.5V12.75ZM621.75 12.75H619.5C619.5 13.9926 620.507 15 621.75 15V12.75ZM621.75 2.25V0C620.507 0 619.5 1.00736 619.5 2.25H621.75ZM653.25 2.25H655.5C655.5 1.00736 654.493 0 653.25 0V2.25ZM653.25 12.75V15C654.493 15 655.5 13.9926 655.5 12.75H653.25ZM642.75 12.75V10.5C641.507 10.5 640.5 11.5074 640.5 12.75H642.75ZM642.75 54.75V52.5H632.25V54.75V57H642.75V54.75ZM632.25 54.75H634.5V12.75H632.25H630V54.75H632.25ZM632.25 12.75V10.5H621.75V12.75V15H632.25V12.75ZM621.75 12.75H624V2.25H621.75H619.5V12.75H621.75ZM621.75 2.25V4.5H653.25V2.25V0H621.75V2.25ZM653.25 2.25H651V12.75H653.25H655.5V2.25H653.25ZM653.25 12.75V10.5H642.75V12.75V15H653.25V12.75ZM642.75 12.75H640.5V54.75H642.75H645V12.75H642.75ZM674.25 12.75H672C672 13.9926 673.007 15 674.25 15V12.75ZM674.25 2.25V0C673.007 0 672 1.00736 672 2.25H674.25ZM695.25 2.25H697.5C697.5 1.00736 696.493 0 695.25 0V2.25ZM695.25 12.75V15C696.493 15 697.5 13.9926 697.5 12.75H695.25ZM674.25 44.25V46.5C675.493 46.5 676.5 45.4926 676.5 44.25H674.25ZM663.75 44.25H661.5C661.5 45.4926 662.507 46.5 663.75 46.5V44.25ZM663.75 12.75V10.5C662.507 10.5 661.5 11.5074 661.5 12.75H663.75ZM674.25 12.75H676.5C676.5 11.5074 675.493 10.5 674.25 10.5V12.75ZM705.75 44.25V46.5C706.993 46.5 708 45.4926 708 44.25H705.75ZM695.25 44.25H693C693 45.4926 694.007 46.5 695.25 46.5V44.25ZM695.25 12.75V10.5C694.007 10.5 693 11.5074 693 12.75H695.25ZM705.75 12.75H708C708 11.5074 706.993 10.5 705.75 10.5V12.75ZM695.25 44.25H697.5C697.5 43.0074 696.493 42 695.25 42V44.25ZM695.25 54.75V57C696.493 57 697.5 55.9926 697.5 54.75H695.25ZM674.25 54.75H672C672 55.9926 673.007 57 674.25 57V54.75ZM674.25 44.25V42C673.007 42 672 43.0074 672 44.25H674.25ZM674.25 12.75H676.5V2.25H674.25H672V12.75H674.25ZM674.25 2.25V4.5H695.25V2.25V0H674.25V2.25ZM695.25 2.25H693V12.75H695.25H697.5V2.25H695.25ZM695.25 12.75V10.5H674.25V12.75V15H695.25V12.75ZM674.25 44.25V42H663.75V44.25V46.5H674.25V44.25ZM663.75 44.25H666V12.75H663.75H661.5V44.25H663.75ZM663.75 12.75V15H674.25V12.75V10.5H663.75V12.75ZM674.25 12.75H672V44.25H674.25H676.5V12.75H674.25ZM705.75 44.25V42H695.25V44.25V46.5H705.75V44.25ZM695.25 44.25H697.5V12.75H695.25H693V44.25H695.25ZM695.25 12.75V15H705.75V12.75V10.5H695.25V12.75ZM705.75 12.75H703.5V44.25H705.75H708V12.75H705.75ZM695.25 44.25H693V54.75H695.25H697.5V44.25H695.25ZM695.25 54.75V52.5H674.25V54.75V57H695.25V54.75ZM674.25 54.75H676.5V44.25H674.25H672V54.75H674.25ZM674.25 44.25V46.5H695.25V44.25V42H674.25V44.25ZM726.75 54.75V57C727.993 57 729 55.9926 729 54.75H726.75ZM716.25 54.75H714C714 55.9926 715.007 57 716.25 57V54.75ZM716.25 2.25V0C715.007 0 714 1.00736 714 2.25H716.25ZM726.75 2.25H729C729 1.00736 727.993 0 726.75 0V2.25ZM726.75 12.75H724.5C724.5 13.9926 725.507 15 726.75 15V12.75ZM737.25 12.75H739.5C739.5 11.5074 738.493 10.5 737.25 10.5V12.75ZM737.25 23.25V25.5C738.493 25.5 739.5 24.4926 739.5 23.25H737.25ZM726.75 23.25V21C725.507 21 724.5 22.0074 724.5 23.25H726.75ZM768.75 54.75V57C769.993 57 771 55.9926 771 54.75H768.75ZM758.25 54.75H756C756 55.9926 757.007 57 758.25 57V54.75ZM758.25 23.25H760.5C760.5 22.0074 759.493 21 758.25 21V23.25ZM747.75 23.25H745.5C745.5 24.4926 746.507 25.5 747.75 25.5V23.25ZM747.75 12.75V10.5C746.507 10.5 745.5 11.5074 745.5 12.75H747.75ZM758.25 12.75V15C759.493 15 760.5 13.9926 760.5 12.75H758.25ZM758.25 2.25V0C757.007 0 756 1.00736 756 2.25H758.25ZM768.75 2.25H771C771 1.00736 769.993 0 768.75 0V2.25ZM737.25 33.75H735C735 34.9926 736.007 36 737.25 36V33.75ZM737.25 23.25V21C736.007 21 735 22.0074 735 23.25H737.25ZM747.75 23.25H750C750 22.0074 748.993 21 747.75 21V23.25ZM747.75 33.75V36C748.993 36 750 34.9926 750 33.75H747.75ZM726.75 54.75V52.5H716.25V54.75V57H726.75V54.75ZM716.25 54.75H718.5V2.25H716.25H714V54.75H716.25ZM716.25 2.25V4.5H726.75V2.25V0H716.25V2.25ZM726.75 2.25H724.5V12.75H726.75H729V2.25H726.75ZM726.75 12.75V15H737.25V12.75V10.5H726.75V12.75ZM737.25 12.75H735V23.25H737.25H739.5V12.75H737.25ZM737.25 23.25V21H726.75V23.25V25.5H737.25V23.25ZM726.75 23.25H724.5V54.75H726.75H729V23.25H726.75ZM768.75 54.75V52.5H758.25V54.75V57H768.75V54.75ZM758.25 54.75H760.5V23.25H758.25H756V54.75H758.25ZM758.25 23.25V21H747.75V23.25V25.5H758.25V23.25ZM747.75 23.25H750V12.75H747.75H745.5V23.25H747.75ZM747.75 12.75V15H758.25V12.75V10.5H747.75V12.75ZM758.25 12.75H760.5V2.25H758.25H756V12.75H758.25ZM758.25 2.25V4.5H768.75V2.25V0H758.25V2.25ZM768.75 2.25H766.5V54.75H768.75H771V2.25H768.75ZM737.25 33.75H739.5V23.25H737.25H735V33.75H737.25ZM737.25 23.25V25.5H747.75V23.25V21H737.25V23.25ZM747.75 23.25H745.5V33.75H747.75H750V23.25H747.75ZM747.75 33.75V31.5H737.25V33.75V36H747.75V33.75ZM789.75 12.75H787.5C787.5 13.9926 788.507 15 789.75 15V12.75ZM789.75 2.25V0C788.507 0 787.5 1.00736 787.5 2.25H789.75ZM810.75 2.25H813C813 1.00736 811.993 0 810.75 0V2.25ZM810.75 12.75V15C811.993 15 813 13.9926 813 12.75H810.75ZM789.75 44.25V46.5C790.993 46.5 792 45.4926 792 44.25H789.75ZM779.25 44.25H777C777 45.4926 778.007 46.5 779.25 46.5V44.25ZM779.25 12.75V10.5C778.007 10.5 777 11.5074 777 12.75H779.25ZM789.75 12.75H792C792 11.5074 790.993 10.5 789.75 10.5V12.75ZM821.25 44.25V46.5C822.493 46.5 823.5 45.4926 823.5 44.25H821.25ZM810.75 44.25H808.5C808.5 45.4926 809.507 46.5 810.75 46.5V44.25ZM810.75 12.75V10.5C809.507 10.5 808.5 11.5074 808.5 12.75H810.75ZM821.25 12.75H823.5C823.5 11.5074 822.493 10.5 821.25 10.5V12.75ZM810.75 44.25H813C813 43.0074 811.993 42 810.75 42V44.25ZM810.75 54.75V57C811.993 57 813 55.9926 813 54.75H810.75ZM789.75 54.75H787.5C787.5 55.9926 788.507 57 789.75 57V54.75ZM789.75 44.25V42C788.507 42 787.5 43.0074 787.5 44.25H789.75ZM789.75 12.75H792V2.25H789.75H787.5V12.75H789.75ZM789.75 2.25V4.5H810.75V2.25V0H789.75V2.25ZM810.75 2.25H808.5V12.75H810.75H813V2.25H810.75ZM810.75 12.75V10.5H789.75V12.75V15H810.75V12.75ZM789.75 44.25V42H779.25V44.25V46.5H789.75V44.25ZM779.25 44.25H781.5V12.75H779.25H777V44.25H779.25ZM779.25 12.75V15H789.75V12.75V10.5H779.25V12.75ZM789.75 12.75H787.5V44.25H789.75H792V12.75H789.75ZM821.25 44.25V42H810.75V44.25V46.5H821.25V44.25ZM810.75 44.25H813V12.75H810.75H808.5V44.25H810.75ZM810.75 12.75V15H821.25V12.75V10.5H810.75V12.75ZM821.25 12.75H819V44.25H821.25H823.5V12.75H821.25ZM810.75 44.25H808.5V54.75H810.75H813V44.25H810.75ZM810.75 54.75V52.5H789.75V54.75V57H810.75V54.75ZM789.75 54.75H792V44.25H789.75H787.5V54.75H789.75ZM789.75 44.25V46.5H810.75V44.25V42H789.75V44.25ZM842.25 54.75V57C843.493 57 844.5 55.9926 844.5 54.75H842.25ZM831.75 54.75H829.5C829.5 55.9926 830.507 57 831.75 57V54.75ZM831.75 2.25V0C830.507 0 829.5 1.00736 829.5 2.25H831.75ZM863.25 2.25H865.5C865.5 1.00736 864.493 0 863.25 0V2.25ZM863.25 12.75V15C864.493 15 865.5 13.9926 865.5 12.75H863.25ZM842.25 12.75V10.5C841.007 10.5 840 11.5074 840 12.75H842.25ZM842.25 23.25H840C840 24.4926 841.007 25.5 842.25 25.5V23.25ZM863.25 23.25H865.5C865.5 22.0074 864.493 21 863.25 21V23.25ZM863.25 33.75V36C864.493 36 865.5 34.9926 865.5 33.75H863.25ZM842.25 33.75V31.5C841.007 31.5 840 32.5074 840 33.75H842.25ZM873.75 23.25V25.5C874.993 25.5 876 24.4926 876 23.25H873.75ZM863.25 23.25H861C861 24.4926 862.007 25.5 863.25 25.5V23.25ZM863.25 12.75V10.5C862.007 10.5 861 11.5074 861 12.75H863.25ZM873.75 12.75H876C876 11.5074 874.993 10.5 873.75 10.5V12.75ZM873.75 54.75V57C874.993 57 876 55.9926 876 54.75H873.75ZM863.25 54.75H861C861 55.9926 862.007 57 863.25 57V54.75ZM863.25 33.75V31.5C862.007 31.5 861 32.5074 861 33.75H863.25ZM873.75 33.75H876C876 32.5074 874.993 31.5 873.75 31.5V33.75ZM842.25 54.75V52.5H831.75V54.75V57H842.25V54.75ZM831.75 54.75H834V2.25H831.75H829.5V54.75H831.75ZM831.75 2.25V4.5H863.25V2.25V0H831.75V2.25ZM863.25 2.25H861V12.75H863.25H865.5V2.25H863.25ZM863.25 12.75V10.5H842.25V12.75V15H863.25V12.75ZM842.25 12.75H840V23.25H842.25H844.5V12.75H842.25ZM842.25 23.25V25.5H863.25V23.25V21H842.25V23.25ZM863.25 23.25H861V33.75H863.25H865.5V23.25H863.25ZM863.25 33.75V31.5H842.25V33.75V36H863.25V33.75ZM842.25 33.75H840V54.75H842.25H844.5V33.75H842.25ZM873.75 23.25V21H863.25V23.25V25.5H873.75V23.25ZM863.25 23.25H865.5V12.75H863.25H861V23.25H863.25ZM863.25 12.75V15H873.75V12.75V10.5H863.25V12.75ZM873.75 12.75H871.5V23.25H873.75H876V12.75H873.75ZM873.75 54.75V52.5H863.25V54.75V57H873.75V54.75ZM863.25 54.75H865.5V33.75H863.25H861V54.75H863.25ZM863.25 33.75V36H873.75V33.75V31.5H863.25V33.75ZM873.75 33.75H871.5V54.75H873.75H876V33.75H873.75ZM894.75 54.75V57C895.993 57 897 55.9926 897 54.75H894.75ZM884.25 54.75H882C882 55.9926 883.007 57 884.25 57V54.75ZM884.25 2.25V0C883.007 0 882 1.00736 882 2.25H884.25ZM915.75 2.25H918C918 1.00736 916.993 0 915.75 0V2.25ZM915.75 12.75V15C916.993 15 918 13.9926 918 12.75H915.75ZM894.75 12.75V10.5C893.507 10.5 892.5 11.5074 892.5 12.75H894.75ZM894.75 23.25H892.5C892.5 24.4926 893.507 25.5 894.75 25.5V23.25ZM915.75 23.25H918C918 22.0074 916.993 21 915.75 21V23.25ZM915.75 33.75V36C916.993 36 918 34.9926 918 33.75H915.75ZM894.75 33.75V31.5C893.507 31.5 892.5 32.5074 892.5 33.75H894.75ZM926.25 23.25V25.5C927.493 25.5 928.5 24.4926 928.5 23.25H926.25ZM915.75 23.25H913.5C913.5 24.4926 914.507 25.5 915.75 25.5V23.25ZM915.75 12.75V10.5C914.507 10.5 913.5 11.5074 913.5 12.75H915.75ZM926.25 12.75H928.5C928.5 11.5074 927.493 10.5 926.25 10.5V12.75ZM926.25 54.75V57C927.493 57 928.5 55.9926 928.5 54.75H926.25ZM915.75 54.75H913.5C913.5 55.9926 914.507 57 915.75 57V54.75ZM915.75 33.75V31.5C914.507 31.5 913.5 32.5074 913.5 33.75H915.75ZM926.25 33.75H928.5C928.5 32.5074 927.493 31.5 926.25 31.5V33.75ZM894.75 54.75V52.5H884.25V54.75V57H894.75V54.75ZM884.25 54.75H886.5V2.25H884.25H882V54.75H884.25ZM884.25 2.25V4.5H915.75V2.25V0H884.25V2.25ZM915.75 2.25H913.5V12.75H915.75H918V2.25H915.75ZM915.75 12.75V10.5H894.75V12.75V15H915.75V12.75ZM894.75 12.75H892.5V23.25H894.75H897V12.75H894.75ZM894.75 23.25V25.5H915.75V23.25V21H894.75V23.25ZM915.75 23.25H913.5V33.75H915.75H918V23.25H915.75ZM915.75 33.75V31.5H894.75V33.75V36H915.75V33.75ZM894.75 33.75H892.5V54.75H894.75H897V33.75H894.75ZM926.25 23.25V21H915.75V23.25V25.5H926.25V23.25ZM915.75 23.25H918V12.75H915.75H913.5V23.25H915.75ZM915.75 12.75V15H926.25V12.75V10.5H915.75V12.75ZM926.25 12.75H924V23.25H926.25H928.5V12.75H926.25ZM926.25 54.75V52.5H915.75V54.75V57H926.25V54.75ZM915.75 54.75H918V33.75H915.75H913.5V54.75H915.75ZM915.75 33.75V36H926.25V33.75V31.5H915.75V33.75ZM926.25 33.75H924V54.75H926.25H928.5V33.75H926.25ZM947.25 12.75H945C945 13.9926 946.007 15 947.25 15V12.75ZM947.25 2.25V0C946.007 0 945 1.00736 945 2.25H947.25ZM968.25 2.25H970.5C970.5 1.00736 969.493 0 968.25 0V2.25ZM968.25 12.75V15C969.493 15 970.5 13.9926 970.5 12.75H968.25ZM947.25 44.25V46.5C948.493 46.5 949.5 45.4926 949.5 44.25H947.25ZM936.75 44.25H934.5C934.5 45.4926 935.507 46.5 936.75 46.5V44.25ZM936.75 12.75V10.5C935.507 10.5 934.5 11.5074 934.5 12.75H936.75ZM947.25 12.75H949.5C949.5 11.5074 948.493 10.5 947.25 10.5V12.75ZM978.75 44.25V46.5C979.993 46.5 981 45.4926 981 44.25H978.75ZM968.25 44.25H966C966 45.4926 967.007 46.5 968.25 46.5V44.25ZM968.25 12.75V10.5C967.007 10.5 966 11.5074 966 12.75H968.25ZM978.75 12.75H981C981 11.5074 979.993 10.5 978.75 10.5V12.75ZM968.25 44.25H970.5C970.5 43.0074 969.493 42 968.25 42V44.25ZM968.25 54.75V57C969.493 57 970.5 55.9926 970.5 54.75H968.25ZM947.25 54.75H945C945 55.9926 946.007 57 947.25 57V54.75ZM947.25 44.25V42C946.007 42 945 43.0074 945 44.25H947.25ZM947.25 12.75H949.5V2.25H947.25H945V12.75H947.25ZM947.25 2.25V4.5H968.25V2.25V0H947.25V2.25ZM968.25 2.25H966V12.75H968.25H970.5V2.25H968.25ZM968.25 12.75V10.5H947.25V12.75V15H968.25V12.75ZM947.25 44.25V42H936.75V44.25V46.5H947.25V44.25ZM936.75 44.25H939V12.75H936.75H934.5V44.25H936.75ZM936.75 12.75V15H947.25V12.75V10.5H936.75V12.75ZM947.25 12.75H945V44.25H947.25H949.5V12.75H947.25ZM978.75 44.25V42H968.25V44.25V46.5H978.75V44.25ZM968.25 44.25H970.5V12.75H968.25H966V44.25H968.25ZM968.25 12.75V15H978.75V12.75V10.5H968.25V12.75ZM978.75 12.75H976.5V44.25H978.75H981V12.75H978.75ZM968.25 44.25H966V54.75H968.25H970.5V44.25H968.25ZM968.25 54.75V52.5H947.25V54.75V57H968.25V54.75ZM947.25 54.75H949.5V44.25H947.25H945V54.75H947.25ZM947.25 44.25V46.5H968.25V44.25V42H947.25V44.25ZM999.75 33.75V36C1000.99 36 1002 34.9926 1002 33.75H999.75ZM989.25 33.75H987C987 34.9926 988.007 36 989.25 36V33.75ZM989.25 2.25V0C988.007 0 987 1.00736 987 2.25H989.25ZM999.75 2.25H1002C1002 1.00736 1000.99 0 999.75 0V2.25ZM1010.25 33.75H1008C1008 34.9926 1009.01 36 1010.25 36V33.75ZM1010.25 2.25V0C1009.01 0 1008 1.00736 1008 2.25H1010.25ZM1020.75 2.25H1023C1023 1.00736 1021.99 0 1020.75 0V2.25ZM1020.75 33.75V36C1021.99 36 1023 34.9926 1023 33.75H1020.75ZM1031.25 33.75H1029C1029 34.9926 1030.01 36 1031.25 36V33.75ZM1031.25 2.25V0C1030.01 0 1029 1.00736 1029 2.25H1031.25ZM1041.75 2.25H1044C1044 1.00736 1042.99 0 1041.75 0V2.25ZM1041.75 33.75V36C1042.99 36 1044 34.9926 1044 33.75H1041.75ZM1010.25 54.75V57C1011.49 57 1012.5 55.9926 1012.5 54.75H1010.25ZM999.75 54.75H997.5C997.5 55.9926 998.507 57 999.75 57V54.75ZM999.75 33.75V31.5C998.507 31.5 997.5 32.5074 997.5 33.75H999.75ZM1010.25 33.75H1012.5C1012.5 32.5074 1011.49 31.5 1010.25 31.5V33.75ZM1031.25 54.75V57C1032.49 57 1033.5 55.9926 1033.5 54.75H1031.25ZM1020.75 54.75H1018.5C1018.5 55.9926 1019.51 57 1020.75 57V54.75ZM1020.75 33.75V31.5C1019.51 31.5 1018.5 32.5074 1018.5 33.75H1020.75ZM1031.25 33.75H1033.5C1033.5 32.5074 1032.49 31.5 1031.25 31.5V33.75ZM999.75 33.75V31.5H989.25V33.75V36H999.75V33.75ZM989.25 33.75H991.5V2.25H989.25H987V33.75H989.25ZM989.25 2.25V4.5H999.75V2.25V0H989.25V2.25ZM999.75 2.25H997.5V33.75H999.75H1002V2.25H999.75ZM1010.25 33.75H1012.5V2.25H1010.25H1008V33.75H1010.25ZM1010.25 2.25V4.5H1020.75V2.25V0H1010.25V2.25ZM1020.75 2.25H1018.5V33.75H1020.75H1023V2.25H1020.75ZM1020.75 33.75V31.5H1010.25V33.75V36H1020.75V33.75ZM1031.25 33.75H1033.5V2.25H1031.25H1029V33.75H1031.25ZM1031.25 2.25V4.5H1041.75V2.25V0H1031.25V2.25ZM1041.75 2.25H1039.5V33.75H1041.75H1044V2.25H1041.75ZM1041.75 33.75V31.5H1031.25V33.75V36H1041.75V33.75ZM1010.25 54.75V52.5H999.75V54.75V57H1010.25V54.75ZM999.75 54.75H1002V33.75H999.75H997.5V54.75H999.75ZM999.75 33.75V36H1010.25V33.75V31.5H999.75V33.75ZM1010.25 33.75H1008V54.75H1010.25H1012.5V33.75H1010.25ZM1031.25 54.75V52.5H1020.75V54.75V57H1031.25V54.75ZM1020.75 54.75H1023V33.75H1020.75H1018.5V54.75H1020.75ZM1020.75 33.75V36H1031.25V33.75V31.5H1020.75V33.75ZM1031.25 33.75H1029V54.75H1031.25H1033.5V33.75H1031.25Z" fill="#FDB100" style="mix-blend-mode:multiply"/>
</svg>
