<svg width="1042" height="55" viewBox="0 0 1042 55" fill="none" xmlns="http://www.w3.org/2000/svg">
<path d="M11.5 11.5V1H32.5V11.5H11.5ZM11.5 43H1V11.5H11.5V43ZM32.5 22V11.5H43V22H32.5ZM43 43H32.5V32.5H43V43ZM32.5 43V53.5H11.5V43H32.5ZM64 53.5H53.5V1H85V11.5H64V22H85V32.5H64V53.5ZM95.5 22H85V11.5H95.5V22ZM95.5 53.5H85V32.5H95.5V53.5ZM116.5 11.5V1H137.5V11.5H116.5ZM116.5 53.5H106V11.5H116.5V22H137.5V11.5H148V53.5H137.5V32.5H116.5V53.5ZM169 53.5H158.5V1H200.5V11.5H169V22H190V32.5H169V53.5ZM232 53.5H221.5V11.5H211V1H242.5V11.5H232V53.5ZM263.5 53.5H253V1H263.5V53.5ZM284.5 53.5H274V1H284.5V11.5H295V22H284.5V53.5ZM316 53.5H305.5V32.5H295V22H305.5V1H316V53.5ZM337 11.5V1H368.5V11.5H337ZM337 53.5V43H326.5V11.5H337V43H358V32.5H347.5V22H368.5V53.5H337ZM410.5 22H400V1H410.5V22ZM421 22V1H431.5V22H421ZM421 53.5H410.5V22H421V53.5ZM452.5 11.5V1H473.5V11.5H452.5ZM452.5 43H442V11.5H452.5V43ZM484 43H473.5V11.5H484V43ZM473.5 43V53.5H452.5V43H473.5ZM505 43H494.5V1H505V43ZM536.5 43H526V1H536.5V43ZM526 43V53.5H505V43H526ZM557.5 53.5H547V1H578.5V11.5H557.5V22H578.5V32.5H557.5V53.5ZM589 22H578.5V11.5H589V22ZM589 53.5H578.5V32.5H589V53.5ZM641.5 53.5H631V11.5H620.5V1H652V11.5H641.5V53.5ZM673 11.5V1H694V11.5H673ZM673 43H662.5V11.5H673V43ZM704.5 43H694V11.5H704.5V43ZM694 43V53.5H673V43H694ZM725.5 53.5H715V1H725.5V11.5H736V22H725.5V53.5ZM767.5 53.5H757V22H746.5V11.5H757V1H767.5V53.5ZM736 32.5V22H746.5V32.5H736ZM788.5 11.5V1H809.5V11.5H788.5ZM788.5 43H778V11.5H788.5V43ZM820 43H809.5V11.5H820V43ZM809.5 43V53.5H788.5V43H809.5ZM841 53.5H830.5V1H862V11.5H841V22H862V32.5H841V53.5ZM872.5 22H862V11.5H872.5V22ZM872.5 53.5H862V32.5H872.5V53.5ZM893.5 53.5H883V1H914.5V11.5H893.5V22H914.5V32.5H893.5V53.5ZM925 22H914.5V11.5H925V22ZM925 53.5H914.5V32.5H925V53.5ZM946 11.5V1H967V11.5H946ZM946 43H935.5V11.5H946V43ZM977.5 43H967V11.5H977.5V43ZM967 43V53.5H946V43H967ZM998.5 32.5H988V1H998.5V32.5ZM1009 32.5V1H1019.5V32.5H1009ZM1030 32.5V1H1040.5V32.5H1030ZM1009 53.5H998.5V32.5H1009V53.5ZM1030 53.5H1019.5V32.5H1030V53.5Z" fill="#FDB100"/>
<path d="M11.5 11.5H10.5V12.5H11.5V11.5ZM11.5 1V0H10.5V1H11.5ZM32.5 1H33.5V0H32.5V1ZM32.5 11.5V12.5H33.5V11.5H32.5ZM11.5 43V44H12.5V43H11.5ZM1 43H0V44H1V43ZM1 11.5V10.5H0V11.5H1ZM11.5 11.5H12.5V10.5H11.5V11.5ZM32.5 22H31.5V23H32.5V22ZM32.5 11.5V10.5H31.5V11.5H32.5ZM43 11.5H44V10.5H43V11.5ZM43 22V23H44V22H43ZM43 43V44H44V43H43ZM32.5 43H31.5V44H32.5V43ZM32.5 32.5V31.5H31.5V32.5H32.5ZM43 32.5H44V31.5H43V32.5ZM32.5 43H33.5V42H32.5V43ZM32.5 53.5V54.5H33.5V53.5H32.5ZM11.5 53.5H10.5V54.5H11.5V53.5ZM11.5 43V42H10.5V43H11.5ZM11.5 11.5H12.5V1H11.5H10.5V11.5H11.5ZM11.5 1V2H32.5V1V0H11.5V1ZM32.5 1H31.5V11.5H32.5H33.5V1H32.5ZM32.5 11.5V10.5H11.5V11.5V12.5H32.5V11.5ZM11.5 43V42H1V43V44H11.5V43ZM1 43H2V11.5H1H0V43H1ZM1 11.5V12.5H11.5V11.5V10.5H1V11.5ZM11.5 11.5H10.5V43H11.5H12.5V11.5H11.5ZM32.5 22H33.5V11.5H32.5H31.5V22H32.5ZM32.5 11.5V12.5H43V11.5V10.5H32.5V11.5ZM43 11.5H42V22H43H44V11.5H43ZM43 22V21H32.5V22V23H43V22ZM43 43V42H32.5V43V44H43V43ZM32.5 43H33.5V32.5H32.5H31.5V43H32.5ZM32.5 32.5V33.5H43V32.5V31.5H32.5V32.5ZM43 32.5H42V43H43H44V32.5H43ZM32.5 43H31.5V53.5H32.5H33.5V43H32.5ZM32.5 53.5V52.5H11.5V53.5V54.5H32.5V53.5ZM11.5 53.5H12.5V43H11.5H10.5V53.5H11.5ZM11.5 43V44H32.5V43V42H11.5V43ZM64 53.5V54.5H65V53.5H64ZM53.5 53.5H52.5V54.5H53.5V53.5ZM53.5 1V0H52.5V1H53.5ZM85 1H86V0H85V1ZM85 11.5V12.5H86V11.5H85ZM64 11.5V10.5H63V11.5H64ZM64 22H63V23H64V22ZM85 22H86V21H85V22ZM85 32.5V33.5H86V32.5H85ZM64 32.5V31.5H63V32.5H64ZM95.5 22V23H96.5V22H95.5ZM85 22H84V23H85V22ZM85 11.5V10.5H84V11.5H85ZM95.5 11.5H96.5V10.5H95.5V11.5ZM95.5 53.5V54.5H96.5V53.5H95.5ZM85 53.5H84V54.5H85V53.5ZM85 32.5V31.5H84V32.5H85ZM95.5 32.5H96.5V31.5H95.5V32.5ZM64 53.5V52.5H53.5V53.5V54.5H64V53.5ZM53.5 53.5H54.5V1H53.5H52.5V53.5H53.5ZM53.5 1V2H85V1V0H53.5V1ZM85 1H84V11.5H85H86V1H85ZM85 11.5V10.5H64V11.5V12.5H85V11.5ZM64 11.5H63V22H64H65V11.5H64ZM64 22V23H85V22V21H64V22ZM85 22H84V32.5H85H86V22H85ZM85 32.5V31.5H64V32.5V33.5H85V32.5ZM64 32.5H63V53.5H64H65V32.5H64ZM95.5 22V21H85V22V23H95.5V22ZM85 22H86V11.5H85H84V22H85ZM85 11.5V12.5H95.5V11.5V10.5H85V11.5ZM95.5 11.5H94.5V22H95.5H96.5V11.5H95.5ZM95.5 53.5V52.5H85V53.5V54.5H95.5V53.5ZM85 53.5H86V32.5H85H84V53.5H85ZM85 32.5V33.5H95.5V32.5V31.5H85V32.5ZM95.5 32.5H94.5V53.5H95.5H96.5V32.5H95.5ZM116.5 11.5H115.5V12.5H116.5V11.5ZM116.5 1V0H115.5V1H116.5ZM137.5 1H138.5V0H137.5V1ZM137.5 11.5V12.5H138.5V11.5H137.5ZM116.5 53.5V54.5H117.5V53.5H116.5ZM106 53.5H105V54.5H106V53.5ZM106 11.5V10.5H105V11.5H106ZM116.5 11.5H117.5V10.5H116.5V11.5ZM116.5 22H115.5V23H116.5V22ZM137.5 22V23H138.5V22H137.5ZM137.5 11.5V10.5H136.5V11.5H137.5ZM148 11.5H149V10.5H148V11.5ZM148 53.5V54.5H149V53.5H148ZM137.5 53.5H136.5V54.5H137.5V53.5ZM137.5 32.5H138.5V31.5H137.5V32.5ZM116.5 32.5V31.5H115.5V32.5H116.5ZM116.5 11.5H117.5V1H116.5H115.5V11.5H116.5ZM116.5 1V2H137.5V1V0H116.5V1ZM137.5 1H136.5V11.5H137.5H138.5V1H137.5ZM137.5 11.5V10.5H116.5V11.5V12.5H137.5V11.5ZM116.5 53.5V52.5H106V53.5V54.5H116.5V53.5ZM106 53.5H107V11.5H106H105V53.5H106ZM106 11.5V12.5H116.5V11.5V10.5H106V11.5ZM116.5 11.5H115.5V22H116.5H117.5V11.5H116.5ZM116.5 22V23H137.5V22V21H116.5V22ZM137.5 22H138.5V11.5H137.5H136.5V22H137.5ZM137.5 11.5V12.5H148V11.5V10.5H137.5V11.5ZM148 11.5H147V53.5H148H149V11.5H148ZM148 53.5V52.5H137.5V53.5V54.5H148V53.5ZM137.5 53.5H138.5V32.5H137.5H136.5V53.5H137.5ZM137.5 32.5V31.5H116.5V32.5V33.5H137.5V32.5ZM116.5 32.5H115.5V53.5H116.5H117.5V32.5H116.5ZM169 53.5V54.5H170V53.5H169ZM158.5 53.5H157.5V54.5H158.5V53.5ZM158.5 1V0H157.5V1H158.5ZM200.5 1H201.5V0H200.5V1ZM200.5 11.5V12.5H201.5V11.5H200.5ZM169 11.5V10.5H168V11.5H169ZM169 22H168V23H169V22ZM190 22H191V21H190V22ZM190 32.5V33.5H191V32.5H190ZM169 32.5V31.5H168V32.5H169ZM169 53.5V52.5H158.5V53.5V54.5H169V53.5ZM158.5 53.5H159.5V1H158.5H157.5V53.5H158.5ZM158.5 1V2H200.5V1V0H158.5V1ZM200.5 1H199.5V11.5H200.5H201.5V1H200.5ZM200.5 11.5V10.5H169V11.5V12.5H200.5V11.5ZM169 11.5H168V22H169H170V11.5H169ZM169 22V23H190V22V21H169V22ZM190 22H189V32.5H190H191V22H190ZM190 32.5V31.5H169V32.5V33.5H190V32.5ZM169 32.5H168V53.5H169H170V32.5H169ZM232 53.5V54.5H233V53.5H232ZM221.5 53.5H220.5V54.5H221.5V53.5ZM221.5 11.5H222.5V10.5H221.5V11.5ZM211 11.5H210V12.5H211V11.5ZM211 1V0H210V1H211ZM242.5 1H243.5V0H242.5V1ZM242.5 11.5V12.5H243.5V11.5H242.5ZM232 11.5V10.5H231V11.5H232ZM232 53.5V52.5H221.5V53.5V54.5H232V53.5ZM221.5 53.5H222.5V11.5H221.5H220.5V53.5H221.5ZM221.5 11.5V10.5H211V11.5V12.5H221.5V11.5ZM211 11.5H212V1H211H210V11.5H211ZM211 1V2H242.5V1V0H211V1ZM242.5 1H241.5V11.5H242.5H243.5V1H242.5ZM242.5 11.5V10.5H232V11.5V12.5H242.5V11.5ZM232 11.5H231V53.5H232H233V11.5H232ZM263.5 53.5V54.5H264.5V53.5H263.5ZM253 53.5H252V54.5H253V53.5ZM253 1V0H252V1H253ZM263.5 1H264.5V0H263.5V1ZM263.5 53.5V52.5H253V53.5V54.5H263.5V53.5ZM253 53.5H254V1H253H252V53.5H253ZM253 1V2H263.5V1V0H253V1ZM263.5 1H262.5V53.5H263.5H264.5V1H263.5ZM284.5 53.5V54.5H285.5V53.5H284.5ZM274 53.5H273V54.5H274V53.5ZM274 1V0H273V1H274ZM284.5 1H285.5V0H284.5V1ZM284.5 11.5H283.5V12.5H284.5V11.5ZM295 11.5H296V10.5H295V11.5ZM295 22V23H296V22H295ZM284.5 22V21H283.5V22H284.5ZM316 53.5V54.5H317V53.5H316ZM305.5 53.5H304.5V54.5H305.5V53.5ZM305.5 32.5H306.5V31.5H305.5V32.5ZM295 32.5H294V33.5H295V32.5ZM295 22V21H294V22H295ZM305.5 22V23H306.5V22H305.5ZM305.5 1V0H304.5V1H305.5ZM316 1H317V0H316V1ZM284.5 53.5V52.5H274V53.5V54.5H284.5V53.5ZM274 53.5H275V1H274H273V53.5H274ZM274 1V2H284.5V1V0H274V1ZM284.5 1H283.5V11.5H284.5H285.5V1H284.5ZM284.5 11.5V12.5H295V11.5V10.5H284.5V11.5ZM295 11.5H294V22H295H296V11.5H295ZM295 22V21H284.5V22V23H295V22ZM284.5 22H283.5V53.5H284.5H285.5V22H284.5ZM316 53.5V52.5H305.5V53.5V54.5H316V53.5ZM305.5 53.5H306.5V32.5H305.5H304.5V53.5H305.5ZM305.5 32.5V31.5H295V32.5V33.5H305.5V32.5ZM295 32.5H296V22H295H294V32.5H295ZM295 22V23H305.5V22V21H295V22ZM305.5 22H306.5V1H305.5H304.5V22H305.5ZM305.5 1V2H316V1V0H305.5V1ZM316 1H315V53.5H316H317V1H316ZM337 11.5H336V12.5H337V11.5ZM337 1V0H336V1H337ZM368.5 1H369.5V0H368.5V1ZM368.5 11.5V12.5H369.5V11.5H368.5ZM337 53.5H336V54.5H337V53.5ZM337 43H338V42H337V43ZM326.5 43H325.5V44H326.5V43ZM326.5 11.5V10.5H325.5V11.5H326.5ZM337 11.5H338V10.5H337V11.5ZM337 43H336V44H337V43ZM358 43V44H359V43H358ZM358 32.5H359V31.5H358V32.5ZM347.5 32.5H346.5V33.5H347.5V32.5ZM347.5 22V21H346.5V22H347.5ZM368.5 22H369.5V21H368.5V22ZM368.5 53.5V54.5H369.5V53.5H368.5ZM337 11.5H338V1H337H336V11.5H337ZM337 1V2H368.5V1V0H337V1ZM368.5 1H367.5V11.5H368.5H369.5V1H368.5ZM368.5 11.5V10.5H337V11.5V12.5H368.5V11.5ZM337 53.5H338V43H337H336V53.5H337ZM337 43V42H326.5V43V44H337V43ZM326.5 43H327.5V11.5H326.5H325.5V43H326.5ZM326.5 11.5V12.5H337V11.5V10.5H326.5V11.5ZM337 11.5H336V43H337H338V11.5H337ZM337 43V44H358V43V42H337V43ZM358 43H359V32.5H358H357V43H358ZM358 32.5V31.5H347.5V32.5V33.5H358V32.5ZM347.5 32.5H348.5V22H347.5H346.5V32.5H347.5ZM347.5 22V23H368.5V22V21H347.5V22ZM368.5 22H367.5V53.5H368.5H369.5V22H368.5ZM368.5 53.5V52.5H337V53.5V54.5H368.5V53.5ZM410.5 22V23H411.5V22H410.5ZM400 22H399V23H400V22ZM400 1V0H399V1H400ZM410.5 1H411.5V0H410.5V1ZM421 22H420V23H421V22ZM421 1V0H420V1H421ZM431.5 1H432.5V0H431.5V1ZM431.5 22V23H432.5V22H431.5ZM421 53.5V54.5H422V53.5H421ZM410.5 53.5H409.5V54.5H410.5V53.5ZM410.5 22V21H409.5V22H410.5ZM421 22H422V21H421V22ZM410.5 22V21H400V22V23H410.5V22ZM400 22H401V1H400H399V22H400ZM400 1V2H410.5V1V0H400V1ZM410.5 1H409.5V22H410.5H411.5V1H410.5ZM421 22H422V1H421H420V22H421ZM421 1V2H431.5V1V0H421V1ZM431.5 1H430.5V22H431.5H432.5V1H431.5ZM431.5 22V21H421V22V23H431.5V22ZM421 53.5V52.5H410.5V53.5V54.5H421V53.5ZM410.5 53.5H411.5V22H410.5H409.5V53.5H410.5ZM410.5 22V23H421V22V21H410.5V22ZM421 22H420V53.5H421H422V22H421ZM452.5 11.5H451.5V12.5H452.5V11.5ZM452.5 1V0H451.5V1H452.5ZM473.5 1H474.5V0H473.5V1ZM473.5 11.5V12.5H474.5V11.5H473.5ZM452.5 43V44H453.5V43H452.5ZM442 43H441V44H442V43ZM442 11.5V10.5H441V11.5H442ZM452.5 11.5H453.5V10.5H452.5V11.5ZM484 43V44H485V43H484ZM473.5 43H472.5V44H473.5V43ZM473.5 11.5V10.5H472.5V11.5H473.5ZM484 11.5H485V10.5H484V11.5ZM473.5 43H474.5V42H473.5V43ZM473.5 53.5V54.5H474.5V53.5H473.5ZM452.5 53.5H451.5V54.5H452.5V53.5ZM452.5 43V42H451.5V43H452.5ZM452.5 11.5H453.5V1H452.5H451.5V11.5H452.5ZM452.5 1V2H473.5V1V0H452.5V1ZM473.5 1H472.5V11.5H473.5H474.5V1H473.5ZM473.5 11.5V10.5H452.5V11.5V12.5H473.5V11.5ZM452.5 43V42H442V43V44H452.5V43ZM442 43H443V11.5H442H441V43H442ZM442 11.5V12.5H452.5V11.5V10.5H442V11.5ZM452.5 11.5H451.5V43H452.5H453.5V11.5H452.5ZM484 43V42H473.5V43V44H484V43ZM473.5 43H474.5V11.5H473.5H472.5V43H473.5ZM473.5 11.5V12.5H484V11.5V10.5H473.5V11.5ZM484 11.5H483V43H484H485V11.5H484ZM473.5 43H472.5V53.5H473.5H474.5V43H473.5ZM473.5 53.5V52.5H452.5V53.5V54.5H473.5V53.5ZM452.5 53.5H453.5V43H452.5H451.5V53.5H452.5ZM452.5 43V44H473.5V43V42H452.5V43ZM505 43V44H506V43H505ZM494.5 43H493.5V44H494.5V43ZM494.5 1V0H493.5V1H494.5ZM505 1H506V0H505V1ZM536.5 43V44H537.5V43H536.5ZM526 43H525V44H526V43ZM526 1V0H525V1H526ZM536.5 1H537.5V0H536.5V1ZM526 43H527V42H526V43ZM526 53.5V54.5H527V53.5H526ZM505 53.5H504V54.5H505V53.5ZM505 43V42H504V43H505ZM505 43V42H494.5V43V44H505V43ZM494.5 43H495.5V1H494.5H493.5V43H494.5ZM494.5 1V2H505V1V0H494.5V1ZM505 1H504V43H505H506V1H505ZM536.5 43V42H526V43V44H536.5V43ZM526 43H527V1H526H525V43H526ZM526 1V2H536.5V1V0H526V1ZM536.5 1H535.5V43H536.5H537.5V1H536.5ZM526 43H525V53.5H526H527V43H526ZM526 53.5V52.5H505V53.5V54.5H526V53.5ZM505 53.5H506V43H505H504V53.5H505ZM505 43V44H526V43V42H505V43ZM557.5 53.5V54.5H558.5V53.5H557.5ZM547 53.5H546V54.5H547V53.5ZM547 1V0H546V1H547ZM578.5 1H579.5V0H578.5V1ZM578.5 11.5V12.5H579.5V11.5H578.5ZM557.5 11.5V10.5H556.5V11.5H557.5ZM557.5 22H556.5V23H557.5V22ZM578.5 22H579.5V21H578.5V22ZM578.5 32.5V33.5H579.5V32.5H578.5ZM557.5 32.5V31.5H556.5V32.5H557.5ZM589 22V23H590V22H589ZM578.5 22H577.5V23H578.5V22ZM578.5 11.5V10.5H577.5V11.5H578.5ZM589 11.5H590V10.5H589V11.5ZM589 53.5V54.5H590V53.5H589ZM578.5 53.5H577.5V54.5H578.5V53.5ZM578.5 32.5V31.5H577.5V32.5H578.5ZM589 32.5H590V31.5H589V32.5ZM557.5 53.5V52.5H547V53.5V54.5H557.5V53.5ZM547 53.5H548V1H547H546V53.5H547ZM547 1V2H578.5V1V0H547V1ZM578.5 1H577.5V11.5H578.5H579.5V1H578.5ZM578.5 11.5V10.5H557.5V11.5V12.5H578.5V11.5ZM557.5 11.5H556.5V22H557.5H558.5V11.5H557.5ZM557.5 22V23H578.5V22V21H557.5V22ZM578.5 22H577.5V32.5H578.5H579.5V22H578.5ZM578.5 32.5V31.5H557.5V32.5V33.5H578.5V32.5ZM557.5 32.5H556.5V53.5H557.5H558.5V32.5H557.5ZM589 22V21H578.5V22V23H589V22ZM578.5 22H579.5V11.5H578.5H577.5V22H578.5ZM578.5 11.5V12.5H589V11.5V10.5H578.5V11.5ZM589 11.5H588V22H589H590V11.5H589ZM589 53.5V52.5H578.5V53.5V54.5H589V53.5ZM578.5 53.5H579.5V32.5H578.5H577.5V53.5H578.5ZM578.5 32.5V33.5H589V32.5V31.5H578.5V32.5ZM589 32.5H588V53.5H589H590V32.5H589ZM641.5 53.5V54.5H642.5V53.5H641.5ZM631 53.5H630V54.5H631V53.5ZM631 11.5H632V10.5H631V11.5ZM620.5 11.5H619.5V12.5H620.5V11.5ZM620.5 1V0H619.5V1H620.5ZM652 1H653V0H652V1ZM652 11.5V12.5H653V11.5H652ZM641.5 11.5V10.5H640.5V11.5H641.5ZM641.5 53.5V52.5H631V53.5V54.5H641.5V53.5ZM631 53.5H632V11.5H631H630V53.5H631ZM631 11.5V10.5H620.5V11.5V12.5H631V11.5ZM620.5 11.5H621.5V1H620.5H619.5V11.5H620.5ZM620.5 1V2H652V1V0H620.5V1ZM652 1H651V11.5H652H653V1H652ZM652 11.5V10.5H641.5V11.5V12.5H652V11.5ZM641.5 11.5H640.5V53.5H641.5H642.5V11.5H641.5ZM673 11.5H672V12.5H673V11.5ZM673 1V0H672V1H673ZM694 1H695V0H694V1ZM694 11.5V12.5H695V11.5H694ZM673 43V44H674V43H673ZM662.5 43H661.5V44H662.5V43ZM662.5 11.5V10.5H661.5V11.5H662.5ZM673 11.5H674V10.5H673V11.5ZM704.5 43V44H705.5V43H704.5ZM694 43H693V44H694V43ZM694 11.5V10.5H693V11.5H694ZM704.5 11.5H705.5V10.5H704.5V11.5ZM694 43H695V42H694V43ZM694 53.5V54.5H695V53.5H694ZM673 53.5H672V54.5H673V53.5ZM673 43V42H672V43H673ZM673 11.5H674V1H673H672V11.5H673ZM673 1V2H694V1V0H673V1ZM694 1H693V11.5H694H695V1H694ZM694 11.5V10.5H673V11.5V12.5H694V11.5ZM673 43V42H662.5V43V44H673V43ZM662.5 43H663.5V11.5H662.5H661.5V43H662.5ZM662.5 11.5V12.5H673V11.5V10.5H662.5V11.5ZM673 11.5H672V43H673H674V11.5H673ZM704.5 43V42H694V43V44H704.5V43ZM694 43H695V11.5H694H693V43H694ZM694 11.5V12.5H704.5V11.5V10.5H694V11.5ZM704.5 11.5H703.5V43H704.5H705.5V11.5H704.5ZM694 43H693V53.5H694H695V43H694ZM694 53.5V52.5H673V53.5V54.5H694V53.5ZM673 53.5H674V43H673H672V53.5H673ZM673 43V44H694V43V42H673V43ZM725.5 53.5V54.5H726.5V53.5H725.5ZM715 53.5H714V54.5H715V53.5ZM715 1V0H714V1H715ZM725.5 1H726.5V0H725.5V1ZM725.5 11.5H724.5V12.5H725.5V11.5ZM736 11.5H737V10.5H736V11.5ZM736 22V23H737V22H736ZM725.5 22V21H724.5V22H725.5ZM767.5 53.5V54.5H768.5V53.5H767.5ZM757 53.5H756V54.5H757V53.5ZM757 22H758V21H757V22ZM746.5 22H745.5V23H746.5V22ZM746.5 11.5V10.5H745.5V11.5H746.5ZM757 11.5V12.5H758V11.5H757ZM757 1V0H756V1H757ZM767.5 1H768.5V0H767.5V1ZM736 32.5H735V33.5H736V32.5ZM736 22V21H735V22H736ZM746.5 22H747.5V21H746.5V22ZM746.5 32.5V33.5H747.5V32.5H746.5ZM725.5 53.5V52.5H715V53.5V54.5H725.5V53.5ZM715 53.5H716V1H715H714V53.5H715ZM715 1V2H725.5V1V0H715V1ZM725.5 1H724.5V11.5H725.5H726.5V1H725.5ZM725.5 11.5V12.5H736V11.5V10.5H725.5V11.5ZM736 11.5H735V22H736H737V11.5H736ZM736 22V21H725.5V22V23H736V22ZM725.5 22H724.5V53.5H725.5H726.5V22H725.5ZM767.5 53.5V52.5H757V53.5V54.5H767.5V53.5ZM757 53.5H758V22H757H756V53.5H757ZM757 22V21H746.5V22V23H757V22ZM746.5 22H747.5V11.5H746.5H745.5V22H746.5ZM746.5 11.5V12.5H757V11.5V10.5H746.5V11.5ZM757 11.5H758V1H757H756V11.5H757ZM757 1V2H767.5V1V0H757V1ZM767.5 1H766.5V53.5H767.5H768.5V1H767.5ZM736 32.5H737V22H736H735V32.5H736ZM736 22V23H746.5V22V21H736V22ZM746.5 22H745.5V32.5H746.5H747.5V22H746.5ZM746.5 32.5V31.5H736V32.5V33.5H746.5V32.5ZM788.5 11.5H787.5V12.5H788.5V11.5ZM788.5 1V0H787.5V1H788.5ZM809.5 1H810.5V0H809.5V1ZM809.5 11.5V12.5H810.5V11.5H809.5ZM788.5 43V44H789.5V43H788.5ZM778 43H777V44H778V43ZM778 11.5V10.5H777V11.5H778ZM788.5 11.5H789.5V10.5H788.5V11.5ZM820 43V44H821V43H820ZM809.5 43H808.5V44H809.5V43ZM809.5 11.5V10.5H808.5V11.5H809.5ZM820 11.5H821V10.5H820V11.5ZM809.5 43H810.5V42H809.5V43ZM809.5 53.5V54.5H810.5V53.5H809.5ZM788.5 53.5H787.5V54.5H788.5V53.5ZM788.5 43V42H787.5V43H788.5ZM788.5 11.5H789.5V1H788.5H787.5V11.5H788.5ZM788.5 1V2H809.5V1V0H788.5V1ZM809.5 1H808.5V11.5H809.5H810.5V1H809.5ZM809.5 11.5V10.5H788.5V11.5V12.5H809.5V11.5ZM788.5 43V42H778V43V44H788.5V43ZM778 43H779V11.5H778H777V43H778ZM778 11.5V12.5H788.5V11.5V10.5H778V11.5ZM788.5 11.5H787.5V43H788.5H789.5V11.5H788.5ZM820 43V42H809.5V43V44H820V43ZM809.5 43H810.5V11.5H809.5H808.5V43H809.5ZM809.5 11.5V12.5H820V11.5V10.5H809.5V11.5ZM820 11.5H819V43H820H821V11.5H820ZM809.5 43H808.5V53.5H809.5H810.5V43H809.5ZM809.5 53.5V52.5H788.5V53.5V54.5H809.5V53.5ZM788.5 53.5H789.5V43H788.5H787.5V53.5H788.5ZM788.5 43V44H809.5V43V42H788.5V43ZM841 53.5V54.5H842V53.5H841ZM830.5 53.5H829.5V54.5H830.5V53.5ZM830.5 1V0H829.5V1H830.5ZM862 1H863V0H862V1ZM862 11.5V12.5H863V11.5H862ZM841 11.5V10.5H840V11.5H841ZM841 22H840V23H841V22ZM862 22H863V21H862V22ZM862 32.5V33.5H863V32.5H862ZM841 32.5V31.5H840V32.5H841ZM872.5 22V23H873.5V22H872.5ZM862 22H861V23H862V22ZM862 11.5V10.5H861V11.5H862ZM872.5 11.5H873.5V10.5H872.5V11.5ZM872.5 53.5V54.5H873.5V53.5H872.5ZM862 53.5H861V54.5H862V53.5ZM862 32.5V31.5H861V32.5H862ZM872.5 32.5H873.5V31.5H872.5V32.5ZM841 53.5V52.5H830.5V53.5V54.5H841V53.5ZM830.5 53.5H831.5V1H830.5H829.5V53.5H830.5ZM830.5 1V2H862V1V0H830.5V1ZM862 1H861V11.5H862H863V1H862ZM862 11.5V10.5H841V11.5V12.5H862V11.5ZM841 11.5H840V22H841H842V11.5H841ZM841 22V23H862V22V21H841V22ZM862 22H861V32.5H862H863V22H862ZM862 32.5V31.5H841V32.5V33.5H862V32.5ZM841 32.5H840V53.5H841H842V32.5H841ZM872.5 22V21H862V22V23H872.5V22ZM862 22H863V11.5H862H861V22H862ZM862 11.5V12.5H872.5V11.5V10.5H862V11.5ZM872.5 11.5H871.5V22H872.5H873.5V11.5H872.5ZM872.5 53.5V52.5H862V53.5V54.5H872.5V53.5ZM862 53.5H863V32.5H862H861V53.5H862ZM862 32.5V33.5H872.5V32.5V31.5H862V32.5ZM872.5 32.5H871.5V53.5H872.5H873.5V32.5H872.5ZM893.5 53.5V54.5H894.5V53.5H893.5ZM883 53.5H882V54.5H883V53.5ZM883 1V0H882V1H883ZM914.5 1H915.5V0H914.5V1ZM914.5 11.5V12.5H915.5V11.5H914.5ZM893.5 11.5V10.5H892.5V11.5H893.5ZM893.5 22H892.5V23H893.5V22ZM914.5 22H915.5V21H914.5V22ZM914.5 32.5V33.5H915.5V32.5H914.5ZM893.5 32.5V31.5H892.5V32.5H893.5ZM925 22V23H926V22H925ZM914.5 22H913.5V23H914.5V22ZM914.5 11.5V10.5H913.5V11.5H914.5ZM925 11.5H926V10.5H925V11.5ZM925 53.5V54.5H926V53.5H925ZM914.5 53.5H913.5V54.5H914.5V53.5ZM914.5 32.5V31.5H913.5V32.5H914.5ZM925 32.5H926V31.5H925V32.5ZM893.5 53.5V52.5H883V53.5V54.5H893.5V53.5ZM883 53.5H884V1H883H882V53.5H883ZM883 1V2H914.5V1V0H883V1ZM914.5 1H913.5V11.5H914.5H915.5V1H914.5ZM914.5 11.5V10.5H893.5V11.5V12.5H914.5V11.5ZM893.5 11.5H892.5V22H893.5H894.5V11.5H893.5ZM893.5 22V23H914.5V22V21H893.5V22ZM914.5 22H913.5V32.5H914.5H915.5V22H914.5ZM914.5 32.5V31.5H893.5V32.5V33.5H914.5V32.5ZM893.5 32.5H892.5V53.5H893.5H894.5V32.5H893.5ZM925 22V21H914.5V22V23H925V22ZM914.5 22H915.5V11.5H914.5H913.5V22H914.5ZM914.5 11.5V12.5H925V11.5V10.5H914.5V11.5ZM925 11.5H924V22H925H926V11.5H925ZM925 53.5V52.5H914.5V53.5V54.5H925V53.5ZM914.5 53.5H915.5V32.5H914.5H913.5V53.5H914.5ZM914.5 32.5V33.5H925V32.5V31.5H914.5V32.5ZM925 32.5H924V53.5H925H926V32.5H925ZM946 11.5H945V12.5H946V11.5ZM946 1V0H945V1H946ZM967 1H968V0H967V1ZM967 11.5V12.5H968V11.5H967ZM946 43V44H947V43H946ZM935.5 43H934.5V44H935.5V43ZM935.5 11.5V10.5H934.5V11.5H935.5ZM946 11.5H947V10.5H946V11.5ZM977.5 43V44H978.5V43H977.5ZM967 43H966V44H967V43ZM967 11.5V10.5H966V11.5H967ZM977.5 11.5H978.5V10.5H977.5V11.5ZM967 43H968V42H967V43ZM967 53.5V54.5H968V53.5H967ZM946 53.5H945V54.5H946V53.5ZM946 43V42H945V43H946ZM946 11.5H947V1H946H945V11.5H946ZM946 1V2H967V1V0H946V1ZM967 1H966V11.5H967H968V1H967ZM967 11.5V10.5H946V11.5V12.5H967V11.5ZM946 43V42H935.5V43V44H946V43ZM935.5 43H936.5V11.5H935.5H934.5V43H935.5ZM935.5 11.5V12.5H946V11.5V10.5H935.5V11.5ZM946 11.5H945V43H946H947V11.5H946ZM977.5 43V42H967V43V44H977.5V43ZM967 43H968V11.5H967H966V43H967ZM967 11.5V12.5H977.5V11.5V10.5H967V11.5ZM977.5 11.5H976.5V43H977.5H978.5V11.5H977.5ZM967 43H966V53.5H967H968V43H967ZM967 53.5V52.5H946V53.5V54.5H967V53.5ZM946 53.5H947V43H946H945V53.5H946ZM946 43V44H967V43V42H946V43ZM998.5 32.5V33.5H999.5V32.5H998.5ZM988 32.5H987V33.5H988V32.5ZM988 1V0H987V1H988ZM998.5 1H999.5V0H998.5V1ZM1009 32.5H1008V33.5H1009V32.5ZM1009 1V0H1008V1H1009ZM1019.5 1H1020.5V0H1019.5V1ZM1019.5 32.5V33.5H1020.5V32.5H1019.5ZM1030 32.5H1029V33.5H1030V32.5ZM1030 1V0H1029V1H1030ZM1040.5 1H1041.5V0H1040.5V1ZM1040.5 32.5V33.5H1041.5V32.5H1040.5ZM1009 53.5V54.5H1010V53.5H1009ZM998.5 53.5H997.5V54.5H998.5V53.5ZM998.5 32.5V31.5H997.5V32.5H998.5ZM1009 32.5H1010V31.5H1009V32.5ZM1030 53.5V54.5H1031V53.5H1030ZM1019.5 53.5H1018.5V54.5H1019.5V53.5ZM1019.5 32.5V31.5H1018.5V32.5H1019.5ZM1030 32.5H1031V31.5H1030V32.5ZM998.5 32.5V31.5H988V32.5V33.5H998.5V32.5ZM988 32.5H989V1H988H987V32.5H988ZM988 1V2H998.5V1V0H988V1ZM998.5 1H997.5V32.5H998.5H999.5V1H998.5ZM1009 32.5H1010V1H1009H1008V32.5H1009ZM1009 1V2H1019.5V1V0H1009V1ZM1019.5 1H1018.5V32.5H1019.5H1020.5V1H1019.5ZM1019.5 32.5V31.5H1009V32.5V33.5H1019.5V32.5ZM1030 32.5H1031V1H1030H1029V32.5H1030ZM1030 1V2H1040.5V1V0H1030V1ZM1040.5 1H1039.5V32.5H1040.5H1041.5V1H1040.5ZM1040.5 32.5V31.5H1030V32.5V33.5H1040.5V32.5ZM1009 53.5V52.5H998.5V53.5V54.5H1009V53.5ZM998.5 53.5H999.5V32.5H998.5H997.5V53.5H998.5ZM998.5 32.5V33.5H1009V32.5V31.5H998.5V32.5ZM1009 32.5H1008V53.5H1009H1010V32.5H1009ZM1030 53.5V52.5H1019.5V53.5V54.5H1030V53.5ZM1019.5 53.5H1020.5V32.5H1019.5H1018.5V53.5H1019.5ZM1019.5 32.5V33.5H1030V32.5V31.5H1019.5V32.5ZM1030 32.5H1029V53.5H1030H1031V32.5H1030Z" fill="#663333" style="mix-blend-mode:overlay"/>
<path d="M11.5 11.5H10.5V12.5H11.5V11.5ZM11.5 1V0H10.5V1H11.5ZM32.5 1H33.5V0H32.5V1ZM32.5 11.5V12.5H33.5V11.5H32.5ZM11.5 43V44H12.5V43H11.5ZM1 43H0V44H1V43ZM1 11.5V10.5H0V11.5H1ZM11.5 11.5H12.5V10.5H11.5V11.5ZM32.5 22H31.5V23H32.5V22ZM32.5 11.5V10.5H31.5V11.5H32.5ZM43 11.5H44V10.5H43V11.5ZM43 22V23H44V22H43ZM43 43V44H44V43H43ZM32.5 43H31.5V44H32.5V43ZM32.5 32.5V31.5H31.5V32.5H32.5ZM43 32.5H44V31.5H43V32.5ZM32.5 43H33.5V42H32.5V43ZM32.5 53.5V54.5H33.5V53.5H32.5ZM11.5 53.5H10.5V54.5H11.5V53.5ZM11.5 43V42H10.5V43H11.5ZM11.5 11.5H12.5V1H11.5H10.5V11.5H11.5ZM11.5 1V2H32.5V1V0H11.5V1ZM32.5 1H31.5V11.5H32.5H33.5V1H32.5ZM32.5 11.5V10.5H11.5V11.5V12.5H32.5V11.5ZM11.5 43V42H1V43V44H11.5V43ZM1 43H2V11.5H1H0V43H1ZM1 11.5V12.5H11.5V11.5V10.5H1V11.5ZM11.5 11.5H10.5V43H11.5H12.5V11.5H11.5ZM32.5 22H33.5V11.5H32.5H31.5V22H32.5ZM32.5 11.5V12.5H43V11.5V10.5H32.5V11.5ZM43 11.5H42V22H43H44V11.5H43ZM43 22V21H32.5V22V23H43V22ZM43 43V42H32.5V43V44H43V43ZM32.5 43H33.5V32.5H32.5H31.5V43H32.5ZM32.5 32.5V33.5H43V32.5V31.5H32.5V32.5ZM43 32.5H42V43H43H44V32.5H43ZM32.5 43H31.5V53.5H32.5H33.5V43H32.5ZM32.5 53.5V52.5H11.5V53.5V54.5H32.5V53.5ZM11.5 53.5H12.5V43H11.5H10.5V53.5H11.5ZM11.5 43V44H32.5V43V42H11.5V43ZM64 53.5V54.5H65V53.5H64ZM53.5 53.5H52.5V54.5H53.5V53.5ZM53.5 1V0H52.5V1H53.5ZM85 1H86V0H85V1ZM85 11.5V12.5H86V11.5H85ZM64 11.5V10.5H63V11.5H64ZM64 22H63V23H64V22ZM85 22H86V21H85V22ZM85 32.5V33.5H86V32.5H85ZM64 32.5V31.5H63V32.5H64ZM95.5 22V23H96.5V22H95.5ZM85 22H84V23H85V22ZM85 11.5V10.5H84V11.5H85ZM95.5 11.5H96.5V10.5H95.5V11.5ZM95.5 53.5V54.5H96.5V53.5H95.5ZM85 53.5H84V54.5H85V53.5ZM85 32.5V31.5H84V32.5H85ZM95.5 32.5H96.5V31.5H95.5V32.5ZM64 53.5V52.5H53.5V53.5V54.5H64V53.5ZM53.5 53.5H54.5V1H53.5H52.5V53.5H53.5ZM53.5 1V2H85V1V0H53.5V1ZM85 1H84V11.5H85H86V1H85ZM85 11.5V10.5H64V11.5V12.5H85V11.5ZM64 11.5H63V22H64H65V11.5H64ZM64 22V23H85V22V21H64V22ZM85 22H84V32.5H85H86V22H85ZM85 32.5V31.5H64V32.5V33.5H85V32.5ZM64 32.5H63V53.5H64H65V32.5H64ZM95.5 22V21H85V22V23H95.5V22ZM85 22H86V11.5H85H84V22H85ZM85 11.5V12.5H95.5V11.5V10.5H85V11.5ZM95.5 11.5H94.5V22H95.5H96.5V11.5H95.5ZM95.5 53.5V52.5H85V53.5V54.5H95.5V53.5ZM85 53.5H86V32.5H85H84V53.5H85ZM85 32.5V33.5H95.5V32.5V31.5H85V32.5ZM95.5 32.5H94.5V53.5H95.5H96.5V32.5H95.5ZM116.5 11.5H115.5V12.5H116.5V11.5ZM116.5 1V0H115.5V1H116.5ZM137.5 1H138.5V0H137.5V1ZM137.5 11.5V12.5H138.5V11.5H137.5ZM116.5 53.5V54.5H117.5V53.5H116.5ZM106 53.5H105V54.5H106V53.5ZM106 11.5V10.5H105V11.5H106ZM116.5 11.5H117.5V10.5H116.5V11.5ZM116.5 22H115.5V23H116.5V22ZM137.5 22V23H138.5V22H137.5ZM137.5 11.5V10.5H136.5V11.5H137.5ZM148 11.5H149V10.5H148V11.5ZM148 53.5V54.5H149V53.5H148ZM137.5 53.5H136.5V54.5H137.5V53.5ZM137.5 32.5H138.5V31.5H137.5V32.5ZM116.5 32.5V31.5H115.5V32.5H116.5ZM116.5 11.5H117.5V1H116.5H115.5V11.5H116.5ZM116.5 1V2H137.5V1V0H116.5V1ZM137.5 1H136.5V11.5H137.5H138.5V1H137.5ZM137.5 11.5V10.5H116.5V11.5V12.5H137.5V11.5ZM116.5 53.5V52.5H106V53.5V54.5H116.5V53.5ZM106 53.5H107V11.5H106H105V53.5H106ZM106 11.5V12.5H116.5V11.5V10.5H106V11.5ZM116.5 11.5H115.5V22H116.5H117.5V11.5H116.5ZM116.5 22V23H137.5V22V21H116.5V22ZM137.5 22H138.5V11.5H137.5H136.5V22H137.5ZM137.5 11.5V12.5H148V11.5V10.5H137.5V11.5ZM148 11.5H147V53.5H148H149V11.5H148ZM148 53.5V52.5H137.5V53.5V54.5H148V53.5ZM137.5 53.5H138.5V32.5H137.5H136.5V53.5H137.5ZM137.5 32.5V31.5H116.5V32.5V33.5H137.5V32.5ZM116.5 32.5H115.5V53.5H116.5H117.5V32.5H116.5ZM169 53.5V54.5H170V53.5H169ZM158.5 53.5H157.5V54.5H158.5V53.5ZM158.5 1V0H157.5V1H158.5ZM200.5 1H201.5V0H200.5V1ZM200.5 11.5V12.5H201.5V11.5H200.5ZM169 11.5V10.5H168V11.5H169ZM169 22H168V23H169V22ZM190 22H191V21H190V22ZM190 32.5V33.5H191V32.5H190ZM169 32.5V31.5H168V32.5H169ZM169 53.5V52.5H158.5V53.5V54.5H169V53.5ZM158.5 53.5H159.5V1H158.5H157.5V53.5H158.5ZM158.5 1V2H200.5V1V0H158.5V1ZM200.5 1H199.5V11.5H200.5H201.5V1H200.5ZM200.5 11.5V10.5H169V11.5V12.5H200.5V11.5ZM169 11.5H168V22H169H170V11.5H169ZM169 22V23H190V22V21H169V22ZM190 22H189V32.5H190H191V22H190ZM190 32.5V31.5H169V32.5V33.5H190V32.5ZM169 32.5H168V53.5H169H170V32.5H169ZM232 53.5V54.5H233V53.5H232ZM221.5 53.5H220.5V54.5H221.5V53.5ZM221.5 11.5H222.5V10.5H221.5V11.5ZM211 11.5H210V12.5H211V11.5ZM211 1V0H210V1H211ZM242.5 1H243.5V0H242.5V1ZM242.5 11.5V12.5H243.5V11.5H242.5ZM232 11.5V10.5H231V11.5H232ZM232 53.5V52.5H221.5V53.5V54.5H232V53.5ZM221.5 53.5H222.5V11.5H221.5H220.5V53.5H221.5ZM221.5 11.5V10.5H211V11.5V12.5H221.5V11.5ZM211 11.5H212V1H211H210V11.5H211ZM211 1V2H242.5V1V0H211V1ZM242.5 1H241.5V11.5H242.5H243.5V1H242.5ZM242.5 11.5V10.5H232V11.5V12.5H242.5V11.5ZM232 11.5H231V53.5H232H233V11.5H232ZM263.5 53.5V54.5H264.5V53.5H263.5ZM253 53.5H252V54.5H253V53.5ZM253 1V0H252V1H253ZM263.5 1H264.5V0H263.5V1ZM263.5 53.5V52.5H253V53.5V54.5H263.5V53.5ZM253 53.5H254V1H253H252V53.5H253ZM253 1V2H263.5V1V0H253V1ZM263.5 1H262.5V53.5H263.5H264.5V1H263.5ZM284.5 53.5V54.5H285.5V53.5H284.5ZM274 53.5H273V54.5H274V53.5ZM274 1V0H273V1H274ZM284.5 1H285.5V0H284.5V1ZM284.5 11.5H283.5V12.5H284.5V11.5ZM295 11.5H296V10.5H295V11.5ZM295 22V23H296V22H295ZM284.5 22V21H283.5V22H284.5ZM316 53.5V54.5H317V53.5H316ZM305.5 53.5H304.5V54.5H305.5V53.5ZM305.5 32.5H306.5V31.5H305.5V32.5ZM295 32.5H294V33.5H295V32.5ZM295 22V21H294V22H295ZM305.5 22V23H306.5V22H305.5ZM305.5 1V0H304.5V1H305.5ZM316 1H317V0H316V1ZM284.5 53.5V52.5H274V53.5V54.5H284.5V53.5ZM274 53.5H275V1H274H273V53.5H274ZM274 1V2H284.5V1V0H274V1ZM284.5 1H283.5V11.5H284.5H285.5V1H284.5ZM284.5 11.5V12.5H295V11.5V10.5H284.5V11.5ZM295 11.5H294V22H295H296V11.5H295ZM295 22V21H284.5V22V23H295V22ZM284.5 22H283.5V53.5H284.5H285.5V22H284.5ZM316 53.5V52.5H305.5V53.5V54.5H316V53.5ZM305.5 53.5H306.5V32.5H305.5H304.5V53.5H305.5ZM305.5 32.5V31.5H295V32.5V33.5H305.5V32.5ZM295 32.5H296V22H295H294V32.5H295ZM295 22V23H305.5V22V21H295V22ZM305.5 22H306.5V1H305.5H304.5V22H305.5ZM305.5 1V2H316V1V0H305.5V1ZM316 1H315V53.5H316H317V1H316ZM337 11.5H336V12.5H337V11.5ZM337 1V0H336V1H337ZM368.5 1H369.5V0H368.5V1ZM368.5 11.5V12.5H369.5V11.5H368.5ZM337 53.5H336V54.5H337V53.5ZM337 43H338V42H337V43ZM326.5 43H325.5V44H326.5V43ZM326.5 11.5V10.5H325.5V11.5H326.5ZM337 11.5H338V10.5H337V11.5ZM337 43H336V44H337V43ZM358 43V44H359V43H358ZM358 32.5H359V31.5H358V32.5ZM347.5 32.5H346.5V33.5H347.5V32.5ZM347.5 22V21H346.5V22H347.5ZM368.5 22H369.5V21H368.5V22ZM368.5 53.5V54.5H369.5V53.5H368.5ZM337 11.5H338V1H337H336V11.5H337ZM337 1V2H368.5V1V0H337V1ZM368.5 1H367.5V11.5H368.5H369.5V1H368.5ZM368.5 11.5V10.5H337V11.5V12.5H368.5V11.5ZM337 53.5H338V43H337H336V53.5H337ZM337 43V42H326.5V43V44H337V43ZM326.5 43H327.5V11.5H326.5H325.5V43H326.5ZM326.5 11.5V12.5H337V11.5V10.5H326.5V11.5ZM337 11.5H336V43H337H338V11.5H337ZM337 43V44H358V43V42H337V43ZM358 43H359V32.5H358H357V43H358ZM358 32.5V31.5H347.5V32.5V33.5H358V32.5ZM347.5 32.5H348.5V22H347.5H346.5V32.5H347.5ZM347.5 22V23H368.5V22V21H347.5V22ZM368.5 22H367.5V53.5H368.5H369.5V22H368.5ZM368.5 53.5V52.5H337V53.5V54.5H368.5V53.5ZM410.5 22V23H411.5V22H410.5ZM400 22H399V23H400V22ZM400 1V0H399V1H400ZM410.5 1H411.5V0H410.5V1ZM421 22H420V23H421V22ZM421 1V0H420V1H421ZM431.5 1H432.5V0H431.5V1ZM431.5 22V23H432.5V22H431.5ZM421 53.5V54.5H422V53.5H421ZM410.5 53.5H409.5V54.5H410.5V53.5ZM410.5 22V21H409.5V22H410.5ZM421 22H422V21H421V22ZM410.5 22V21H400V22V23H410.5V22ZM400 22H401V1H400H399V22H400ZM400 1V2H410.5V1V0H400V1ZM410.5 1H409.5V22H410.5H411.5V1H410.5ZM421 22H422V1H421H420V22H421ZM421 1V2H431.5V1V0H421V1ZM431.5 1H430.5V22H431.5H432.5V1H431.5ZM431.5 22V21H421V22V23H431.5V22ZM421 53.5V52.5H410.5V53.5V54.5H421V53.5ZM410.5 53.5H411.5V22H410.5H409.5V53.5H410.5ZM410.5 22V23H421V22V21H410.5V22ZM421 22H420V53.5H421H422V22H421ZM452.5 11.5H451.5V12.5H452.5V11.5ZM452.5 1V0H451.5V1H452.5ZM473.5 1H474.5V0H473.5V1ZM473.5 11.5V12.5H474.5V11.5H473.5ZM452.5 43V44H453.5V43H452.5ZM442 43H441V44H442V43ZM442 11.5V10.5H441V11.5H442ZM452.5 11.5H453.5V10.5H452.5V11.5ZM484 43V44H485V43H484ZM473.5 43H472.5V44H473.5V43ZM473.5 11.5V10.5H472.5V11.5H473.5ZM484 11.5H485V10.5H484V11.5ZM473.5 43H474.5V42H473.5V43ZM473.5 53.5V54.5H474.5V53.5H473.5ZM452.5 53.5H451.5V54.5H452.5V53.5ZM452.5 43V42H451.5V43H452.5ZM452.5 11.5H453.5V1H452.5H451.5V11.5H452.5ZM452.5 1V2H473.5V1V0H452.5V1ZM473.5 1H472.5V11.5H473.5H474.5V1H473.5ZM473.5 11.5V10.5H452.5V11.5V12.5H473.5V11.5ZM452.5 43V42H442V43V44H452.5V43ZM442 43H443V11.5H442H441V43H442ZM442 11.5V12.5H452.5V11.5V10.5H442V11.5ZM452.5 11.5H451.5V43H452.5H453.5V11.5H452.5ZM484 43V42H473.5V43V44H484V43ZM473.5 43H474.5V11.5H473.5H472.5V43H473.5ZM473.5 11.5V12.5H484V11.5V10.5H473.5V11.5ZM484 11.5H483V43H484H485V11.5H484ZM473.5 43H472.5V53.5H473.5H474.5V43H473.5ZM473.5 53.5V52.5H452.5V53.5V54.5H473.5V53.5ZM452.5 53.5H453.5V43H452.5H451.5V53.5H452.5ZM452.5 43V44H473.5V43V42H452.5V43ZM505 43V44H506V43H505ZM494.5 43H493.5V44H494.5V43ZM494.5 1V0H493.5V1H494.5ZM505 1H506V0H505V1ZM536.5 43V44H537.5V43H536.5ZM526 43H525V44H526V43ZM526 1V0H525V1H526ZM536.5 1H537.5V0H536.5V1ZM526 43H527V42H526V43ZM526 53.5V54.5H527V53.5H526ZM505 53.5H504V54.5H505V53.5ZM505 43V42H504V43H505ZM505 43V42H494.5V43V44H505V43ZM494.5 43H495.5V1H494.5H493.5V43H494.5ZM494.5 1V2H505V1V0H494.5V1ZM505 1H504V43H505H506V1H505ZM536.5 43V42H526V43V44H536.5V43ZM526 43H527V1H526H525V43H526ZM526 1V2H536.5V1V0H526V1ZM536.5 1H535.5V43H536.5H537.5V1H536.5ZM526 43H525V53.5H526H527V43H526ZM526 53.5V52.5H505V53.5V54.5H526V53.5ZM505 53.5H506V43H505H504V53.5H505ZM505 43V44H526V43V42H505V43ZM557.5 53.5V54.5H558.5V53.5H557.5ZM547 53.5H546V54.5H547V53.5ZM547 1V0H546V1H547ZM578.5 1H579.5V0H578.5V1ZM578.5 11.5V12.5H579.5V11.5H578.5ZM557.5 11.5V10.5H556.5V11.5H557.5ZM557.5 22H556.5V23H557.5V22ZM578.5 22H579.5V21H578.5V22ZM578.5 32.5V33.5H579.5V32.5H578.5ZM557.5 32.5V31.5H556.5V32.5H557.5ZM589 22V23H590V22H589ZM578.5 22H577.5V23H578.5V22ZM578.5 11.5V10.5H577.5V11.5H578.5ZM589 11.5H590V10.5H589V11.5ZM589 53.5V54.5H590V53.5H589ZM578.5 53.5H577.5V54.5H578.5V53.5ZM578.5 32.5V31.5H577.5V32.5H578.5ZM589 32.5H590V31.5H589V32.5ZM557.5 53.5V52.5H547V53.5V54.5H557.5V53.5ZM547 53.5H548V1H547H546V53.5H547ZM547 1V2H578.5V1V0H547V1ZM578.5 1H577.5V11.5H578.5H579.5V1H578.5ZM578.5 11.5V10.5H557.5V11.5V12.5H578.5V11.5ZM557.5 11.5H556.5V22H557.5H558.5V11.5H557.5ZM557.5 22V23H578.5V22V21H557.5V22ZM578.5 22H577.5V32.5H578.5H579.5V22H578.5ZM578.5 32.5V31.5H557.5V32.5V33.5H578.5V32.5ZM557.5 32.5H556.5V53.5H557.5H558.5V32.5H557.5ZM589 22V21H578.5V22V23H589V22ZM578.5 22H579.5V11.5H578.5H577.5V22H578.5ZM578.5 11.5V12.5H589V11.5V10.5H578.5V11.5ZM589 11.5H588V22H589H590V11.5H589ZM589 53.5V52.5H578.5V53.5V54.5H589V53.5ZM578.5 53.5H579.5V32.5H578.5H577.5V53.5H578.5ZM578.5 32.5V33.5H589V32.5V31.5H578.5V32.5ZM589 32.5H588V53.5H589H590V32.5H589ZM641.5 53.5V54.5H642.5V53.5H641.5ZM631 53.5H630V54.5H631V53.5ZM631 11.5H632V10.5H631V11.5ZM620.5 11.5H619.5V12.5H620.5V11.5ZM620.5 1V0H619.5V1H620.5ZM652 1H653V0H652V1ZM652 11.5V12.5H653V11.5H652ZM641.5 11.5V10.5H640.5V11.5H641.5ZM641.5 53.5V52.5H631V53.5V54.5H641.5V53.5ZM631 53.5H632V11.5H631H630V53.5H631ZM631 11.5V10.5H620.5V11.5V12.5H631V11.5ZM620.5 11.5H621.5V1H620.5H619.5V11.5H620.5ZM620.5 1V2H652V1V0H620.5V1ZM652 1H651V11.5H652H653V1H652ZM652 11.5V10.5H641.5V11.5V12.5H652V11.5ZM641.5 11.5H640.5V53.5H641.5H642.5V11.5H641.5ZM673 11.5H672V12.5H673V11.5ZM673 1V0H672V1H673ZM694 1H695V0H694V1ZM694 11.5V12.5H695V11.5H694ZM673 43V44H674V43H673ZM662.5 43H661.5V44H662.5V43ZM662.5 11.5V10.5H661.5V11.5H662.5ZM673 11.5H674V10.5H673V11.5ZM704.5 43V44H705.5V43H704.5ZM694 43H693V44H694V43ZM694 11.5V10.5H693V11.5H694ZM704.5 11.5H705.5V10.5H704.5V11.5ZM694 43H695V42H694V43ZM694 53.5V54.5H695V53.5H694ZM673 53.5H672V54.5H673V53.5ZM673 43V42H672V43H673ZM673 11.5H674V1H673H672V11.5H673ZM673 1V2H694V1V0H673V1ZM694 1H693V11.5H694H695V1H694ZM694 11.5V10.5H673V11.5V12.5H694V11.5ZM673 43V42H662.5V43V44H673V43ZM662.5 43H663.5V11.5H662.5H661.5V43H662.5ZM662.5 11.5V12.5H673V11.5V10.5H662.5V11.5ZM673 11.5H672V43H673H674V11.5H673ZM704.5 43V42H694V43V44H704.5V43ZM694 43H695V11.5H694H693V43H694ZM694 11.5V12.5H704.5V11.5V10.5H694V11.5ZM704.5 11.5H703.5V43H704.5H705.5V11.5H704.5ZM694 43H693V53.5H694H695V43H694ZM694 53.5V52.5H673V53.5V54.5H694V53.5ZM673 53.5H674V43H673H672V53.5H673ZM673 43V44H694V43V42H673V43ZM725.5 53.5V54.5H726.5V53.5H725.5ZM715 53.5H714V54.5H715V53.5ZM715 1V0H714V1H715ZM725.5 1H726.5V0H725.5V1ZM725.5 11.5H724.5V12.5H725.5V11.5ZM736 11.5H737V10.5H736V11.5ZM736 22V23H737V22H736ZM725.5 22V21H724.5V22H725.5ZM767.5 53.5V54.5H768.5V53.5H767.5ZM757 53.5H756V54.5H757V53.5ZM757 22H758V21H757V22ZM746.5 22H745.5V23H746.5V22ZM746.5 11.5V10.5H745.5V11.5H746.5ZM757 11.5V12.5H758V11.5H757ZM757 1V0H756V1H757ZM767.5 1H768.5V0H767.5V1ZM736 32.5H735V33.5H736V32.5ZM736 22V21H735V22H736ZM746.5 22H747.5V21H746.5V22ZM746.5 32.5V33.5H747.5V32.5H746.5ZM725.5 53.5V52.5H715V53.5V54.5H725.5V53.5ZM715 53.5H716V1H715H714V53.5H715ZM715 1V2H725.5V1V0H715V1ZM725.5 1H724.5V11.5H725.5H726.5V1H725.5ZM725.5 11.5V12.5H736V11.5V10.5H725.5V11.5ZM736 11.5H735V22H736H737V11.5H736ZM736 22V21H725.5V22V23H736V22ZM725.5 22H724.5V53.5H725.5H726.5V22H725.5ZM767.5 53.5V52.5H757V53.5V54.5H767.5V53.5ZM757 53.5H758V22H757H756V53.5H757ZM757 22V21H746.5V22V23H757V22ZM746.5 22H747.5V11.5H746.5H745.5V22H746.5ZM746.5 11.5V12.5H757V11.5V10.5H746.5V11.5ZM757 11.5H758V1H757H756V11.5H757ZM757 1V2H767.5V1V0H757V1ZM767.5 1H766.5V53.5H767.5H768.5V1H767.5ZM736 32.5H737V22H736H735V32.5H736ZM736 22V23H746.5V22V21H736V22ZM746.5 22H745.5V32.5H746.5H747.5V22H746.5ZM746.5 32.5V31.5H736V32.5V33.5H746.5V32.5ZM788.5 11.5H787.5V12.5H788.5V11.5ZM788.5 1V0H787.5V1H788.5ZM809.5 1H810.5V0H809.5V1ZM809.5 11.5V12.5H810.5V11.5H809.5ZM788.5 43V44H789.5V43H788.5ZM778 43H777V44H778V43ZM778 11.5V10.5H777V11.5H778ZM788.5 11.5H789.5V10.5H788.5V11.5ZM820 43V44H821V43H820ZM809.5 43H808.5V44H809.5V43ZM809.5 11.5V10.5H808.5V11.5H809.5ZM820 11.5H821V10.5H820V11.5ZM809.5 43H810.5V42H809.5V43ZM809.5 53.5V54.5H810.5V53.5H809.5ZM788.5 53.5H787.5V54.5H788.5V53.5ZM788.5 43V42H787.5V43H788.5ZM788.5 11.5H789.5V1H788.5H787.5V11.5H788.5ZM788.5 1V2H809.5V1V0H788.5V1ZM809.5 1H808.5V11.5H809.5H810.5V1H809.5ZM809.5 11.5V10.5H788.5V11.5V12.5H809.5V11.5ZM788.5 43V42H778V43V44H788.5V43ZM778 43H779V11.5H778H777V43H778ZM778 11.5V12.5H788.5V11.5V10.5H778V11.5ZM788.5 11.5H787.5V43H788.5H789.5V11.5H788.5ZM820 43V42H809.5V43V44H820V43ZM809.5 43H810.5V11.5H809.5H808.5V43H809.5ZM809.5 11.5V12.5H820V11.5V10.5H809.5V11.5ZM820 11.5H819V43H820H821V11.5H820ZM809.5 43H808.5V53.5H809.5H810.5V43H809.5ZM809.5 53.5V52.5H788.5V53.5V54.5H809.5V53.5ZM788.5 53.5H789.5V43H788.5H787.5V53.5H788.5ZM788.5 43V44H809.5V43V42H788.5V43ZM841 53.5V54.5H842V53.5H841ZM830.5 53.5H829.5V54.5H830.5V53.5ZM830.5 1V0H829.5V1H830.5ZM862 1H863V0H862V1ZM862 11.5V12.5H863V11.5H862ZM841 11.5V10.5H840V11.5H841ZM841 22H840V23H841V22ZM862 22H863V21H862V22ZM862 32.5V33.5H863V32.5H862ZM841 32.5V31.5H840V32.5H841ZM872.5 22V23H873.5V22H872.5ZM862 22H861V23H862V22ZM862 11.5V10.5H861V11.5H862ZM872.5 11.5H873.5V10.5H872.5V11.5ZM872.5 53.5V54.5H873.5V53.5H872.5ZM862 53.5H861V54.5H862V53.5ZM862 32.5V31.5H861V32.5H862ZM872.5 32.5H873.5V31.5H872.5V32.5ZM841 53.5V52.5H830.5V53.5V54.5H841V53.5ZM830.5 53.5H831.5V1H830.5H829.5V53.5H830.5ZM830.5 1V2H862V1V0H830.5V1ZM862 1H861V11.5H862H863V1H862ZM862 11.5V10.5H841V11.5V12.5H862V11.5ZM841 11.5H840V22H841H842V11.5H841ZM841 22V23H862V22V21H841V22ZM862 22H861V32.5H862H863V22H862ZM862 32.5V31.5H841V32.5V33.5H862V32.5ZM841 32.5H840V53.5H841H842V32.5H841ZM872.5 22V21H862V22V23H872.5V22ZM862 22H863V11.5H862H861V22H862ZM862 11.5V12.5H872.5V11.5V10.5H862V11.5ZM872.5 11.5H871.5V22H872.5H873.5V11.5H872.5ZM872.5 53.5V52.5H862V53.5V54.5H872.5V53.5ZM862 53.5H863V32.5H862H861V53.5H862ZM862 32.5V33.5H872.5V32.5V31.5H862V32.5ZM872.5 32.5H871.5V53.5H872.5H873.5V32.5H872.5ZM893.5 53.5V54.5H894.5V53.5H893.5ZM883 53.5H882V54.5H883V53.5ZM883 1V0H882V1H883ZM914.5 1H915.5V0H914.5V1ZM914.5 11.5V12.5H915.5V11.5H914.5ZM893.5 11.5V10.5H892.5V11.5H893.5ZM893.5 22H892.5V23H893.5V22ZM914.5 22H915.5V21H914.5V22ZM914.5 32.5V33.5H915.5V32.5H914.5ZM893.5 32.5V31.5H892.5V32.5H893.5ZM925 22V23H926V22H925ZM914.5 22H913.5V23H914.5V22ZM914.5 11.5V10.5H913.5V11.5H914.5ZM925 11.5H926V10.5H925V11.5ZM925 53.5V54.5H926V53.5H925ZM914.5 53.5H913.5V54.5H914.5V53.5ZM914.5 32.5V31.5H913.5V32.5H914.5ZM925 32.5H926V31.5H925V32.5ZM893.5 53.5V52.5H883V53.5V54.5H893.5V53.5ZM883 53.5H884V1H883H882V53.5H883ZM883 1V2H914.5V1V0H883V1ZM914.5 1H913.5V11.5H914.5H915.5V1H914.5ZM914.5 11.5V10.5H893.5V11.5V12.5H914.5V11.5ZM893.5 11.5H892.5V22H893.5H894.5V11.5H893.5ZM893.5 22V23H914.5V22V21H893.5V22ZM914.5 22H913.5V32.5H914.5H915.5V22H914.5ZM914.5 32.5V31.5H893.5V32.5V33.5H914.5V32.5ZM893.5 32.5H892.5V53.5H893.5H894.5V32.5H893.5ZM925 22V21H914.5V22V23H925V22ZM914.5 22H915.5V11.5H914.5H913.5V22H914.5ZM914.5 11.5V12.5H925V11.5V10.5H914.5V11.5ZM925 11.5H924V22H925H926V11.5H925ZM925 53.5V52.5H914.5V53.5V54.5H925V53.5ZM914.5 53.5H915.5V32.5H914.5H913.5V53.5H914.5ZM914.5 32.5V33.5H925V32.5V31.5H914.5V32.5ZM925 32.5H924V53.5H925H926V32.5H925ZM946 11.5H945V12.5H946V11.5ZM946 1V0H945V1H946ZM967 1H968V0H967V1ZM967 11.5V12.5H968V11.5H967ZM946 43V44H947V43H946ZM935.5 43H934.5V44H935.5V43ZM935.5 11.5V10.5H934.5V11.5H935.5ZM946 11.5H947V10.5H946V11.5ZM977.5 43V44H978.5V43H977.5ZM967 43H966V44H967V43ZM967 11.5V10.5H966V11.5H967ZM977.5 11.5H978.5V10.5H977.5V11.5ZM967 43H968V42H967V43ZM967 53.5V54.5H968V53.5H967ZM946 53.5H945V54.5H946V53.5ZM946 43V42H945V43H946ZM946 11.5H947V1H946H945V11.5H946ZM946 1V2H967V1V0H946V1ZM967 1H966V11.5H967H968V1H967ZM967 11.5V10.5H946V11.5V12.5H967V11.5ZM946 43V42H935.5V43V44H946V43ZM935.5 43H936.5V11.5H935.5H934.5V43H935.5ZM935.5 11.5V12.5H946V11.5V10.5H935.5V11.5ZM946 11.5H945V43H946H947V11.5H946ZM977.5 43V42H967V43V44H977.5V43ZM967 43H968V11.5H967H966V43H967ZM967 11.5V12.5H977.5V11.5V10.5H967V11.5ZM977.5 11.5H976.5V43H977.5H978.5V11.5H977.5ZM967 43H966V53.5H967H968V43H967ZM967 53.5V52.5H946V53.5V54.5H967V53.5ZM946 53.5H947V43H946H945V53.5H946ZM946 43V44H967V43V42H946V43ZM998.5 32.5V33.5H999.5V32.5H998.5ZM988 32.5H987V33.5H988V32.5ZM988 1V0H987V1H988ZM998.5 1H999.5V0H998.5V1ZM1009 32.5H1008V33.5H1009V32.5ZM1009 1V0H1008V1H1009ZM1019.5 1H1020.5V0H1019.5V1ZM1019.5 32.5V33.5H1020.5V32.5H1019.5ZM1030 32.5H1029V33.5H1030V32.5ZM1030 1V0H1029V1H1030ZM1040.5 1H1041.5V0H1040.5V1ZM1040.5 32.5V33.5H1041.5V32.5H1040.5ZM1009 53.5V54.5H1010V53.5H1009ZM998.5 53.5H997.5V54.5H998.5V53.5ZM998.5 32.5V31.5H997.5V32.5H998.5ZM1009 32.5H1010V31.5H1009V32.5ZM1030 53.5V54.5H1031V53.5H1030ZM1019.5 53.5H1018.5V54.5H1019.5V53.5ZM1019.5 32.5V31.5H1018.5V32.5H1019.5ZM1030 32.5H1031V31.5H1030V32.5ZM998.5 32.5V31.5H988V32.5V33.5H998.5V32.5ZM988 32.5H989V1H988H987V32.5H988ZM988 1V2H998.5V1V0H988V1ZM998.5 1H997.5V32.5H998.5H999.5V1H998.5ZM1009 32.5H1010V1H1009H1008V32.5H1009ZM1009 1V2H1019.5V1V0H1009V1ZM1019.5 1H1018.5V32.5H1019.5H1020.5V1H1019.5ZM1019.5 32.5V31.5H1009V32.5V33.5H1019.5V32.5ZM1030 32.5H1031V1H1030H1029V32.5H1030ZM1030 1V2H1040.5V1V0H1030V1ZM1040.5 1H1039.5V32.5H1040.5H1041.5V1H1040.5ZM1040.5 32.5V31.5H1030V32.5V33.5H1040.5V32.5ZM1009 53.5V52.5H998.5V53.5V54.5H1009V53.5ZM998.5 53.5H999.5V32.5H998.5H997.5V53.5H998.5ZM998.5 32.5V33.5H1009V32.5V31.5H998.5V32.5ZM1009 32.5H1008V53.5H1009H1010V32.5H1009ZM1030 53.5V52.5H1019.5V53.5V54.5H1030V53.5ZM1019.5 53.5H1020.5V32.5H1019.5H1018.5V53.5H1019.5ZM1019.5 32.5V33.5H1030V32.5V31.5H1019.5V32.5ZM1030 32.5H1029V53.5H1030H1031V32.5H1030Z" fill="#663333" style="mix-blend-mode:lighten"/>
</svg>
