<svg width="507" height="66" viewBox="0 0 507 66" fill="none" xmlns="http://www.w3.org/2000/svg">
<path d="M39.97 32.578L54.418 54.334C51.618 57.134 48.342 59.346 44.59 60.97C40.838 62.538 36.918 63.322 32.83 63.322C27.174 63.322 21.966 61.978 17.206 59.29C12.446 56.546 8.66602 52.822 5.86601 48.118C3.12201 43.414 1.75001 38.206 1.75001 32.494C1.75001 26.838 3.12201 21.686 5.86601 17.038C8.66602 12.39 12.446 8.72201 17.206 6.03401C21.966 3.34601 27.174 2.00201 32.83 2.00201C37.03 2.00201 41.034 2.84201 44.842 4.52201C48.706 6.14601 52.038 8.41401 54.838 11.326L39.97 32.578ZM32.83 8.38601C28.686 8.38601 24.878 9.28201 21.406 11.074C17.934 12.866 15.078 15.358 12.838 18.55C10.654 21.742 9.33801 25.354 8.89001 29.386H34.678L46.69 12.334C42.434 9.70201 37.814 8.38601 32.83 8.38601ZM34.51 35.602H8.89001C9.33801 39.746 10.654 43.442 12.838 46.69C15.078 49.882 17.934 52.402 21.406 54.25C24.878 56.042 28.686 56.938 32.83 56.938C37.702 56.938 42.182 55.65 46.27 53.074L34.51 35.602ZM63.3561 62.734C62.2361 62.734 61.2561 62.342 60.4161 61.558C59.6321 60.718 59.2401 59.738 59.2401 58.618C59.2401 57.498 59.6321 56.546 60.4161 55.762C61.2561 54.922 62.2361 54.502 63.3561 54.502C64.4761 54.502 65.4281 54.922 66.2121 55.762C67.0521 56.546 67.4721 57.498 67.4721 58.618C67.4721 59.738 67.0521 60.718 66.2121 61.558C65.4281 62.342 64.4761 62.734 63.3561 62.734ZM77.7234 2.92601H122.831V62.062H77.7234V2.92601ZM116.363 29.386V9.14201H84.3594V29.386H116.363ZM116.363 55.846V35.602H84.3594V55.846H116.363ZM137.102 62.734C135.982 62.734 135.002 62.342 134.162 61.558C133.378 60.718 132.986 59.738 132.986 58.618C132.986 57.498 133.378 56.546 134.162 55.762C135.002 54.922 135.982 54.502 137.102 54.502C138.222 54.502 139.174 54.922 139.958 55.762C140.798 56.546 141.218 57.498 141.218 58.618C141.218 59.738 140.798 60.718 139.958 61.558C139.174 62.342 138.222 62.734 137.102 62.734ZM151.47 2.67401H178.014C181.822 2.67401 185.294 3.59801 188.43 5.44601C191.622 7.23801 194.142 9.70201 195.99 12.838C197.838 15.974 198.762 19.446 198.762 23.254C198.762 27.79 197.39 31.85 194.646 35.434C191.902 38.962 188.402 41.314 184.146 42.49L197.502 62.062H151.47V2.67401ZM178.014 37.702C180.59 37.702 182.942 37.058 185.07 35.77C187.254 34.482 188.962 32.746 190.194 30.562C191.482 28.378 192.126 25.942 192.126 23.254C192.126 20.566 191.482 18.13 190.194 15.946C188.962 13.706 187.254 11.942 185.07 10.654C182.942 9.36601 180.59 8.72201 178.014 8.72201H175.746V37.702H178.014ZM169.614 55.846V8.80601H157.686V55.846H169.614ZM185.49 55.846L177.342 44.002H175.746V55.846H185.49ZM209.208 62.734C208.088 62.734 207.108 62.342 206.268 61.558C205.484 60.718 205.092 59.738 205.092 58.618C205.092 57.498 205.484 56.546 206.268 55.762C207.108 54.922 208.088 54.502 209.208 54.502C210.328 54.502 211.28 54.922 212.064 55.762C212.904 56.546 213.324 57.498 213.324 58.618C213.324 59.738 212.904 60.718 212.064 61.558C211.28 62.342 210.328 62.734 209.208 62.734ZM247.582 63.406C242.038 63.406 236.886 62.034 232.126 59.29C227.422 56.49 223.67 52.738 220.87 48.034C218.126 43.274 216.754 38.094 216.754 32.494C216.754 26.894 218.126 21.742 220.87 17.038C223.67 12.334 227.422 8.61001 232.126 5.86601C236.886 3.12201 242.038 1.75001 247.582 1.75001C253.182 1.75001 258.334 3.12201 263.038 5.86601C267.798 8.61001 271.55 12.334 274.294 17.038C277.038 21.742 278.41 26.894 278.41 32.494C278.41 38.094 277.038 43.274 274.294 48.034C271.55 52.738 267.798 56.49 263.038 59.29C258.334 62.034 253.182 63.406 247.582 63.406ZM271.774 29.386C271.27 25.41 269.898 21.798 267.658 18.55C265.418 15.302 262.534 12.754 259.006 10.906C255.534 9.00201 251.726 8.05001 247.582 8.05001C243.438 8.05001 239.63 9.00201 236.158 10.906C232.686 12.754 229.83 15.302 227.59 18.55C225.406 21.798 224.062 25.41 223.558 29.386H271.774ZM247.582 57.106C251.726 57.106 255.534 56.182 259.006 54.334C262.534 52.43 265.418 49.854 267.658 46.606C269.898 43.358 271.27 39.718 271.774 35.686H223.558C224.006 39.718 225.35 43.358 227.59 46.606C229.83 49.854 232.686 52.43 236.158 54.334C239.63 56.182 243.438 57.106 247.582 57.106ZM285.907 62.734C284.787 62.734 283.807 62.342 282.967 61.558C282.183 60.718 281.791 59.738 281.791 58.618C281.791 57.498 282.183 56.546 282.967 55.762C283.807 54.922 284.787 54.502 285.907 54.502C287.027 54.502 287.979 54.922 288.763 55.762C289.603 56.546 290.023 57.498 290.023 58.618C290.023 59.738 289.603 60.718 288.763 61.558C287.979 62.342 287.027 62.734 285.907 62.734ZM300.274 2.92601H345.886V62.062H300.274V2.92601ZM318.922 55.762L306.574 23.338V55.762H318.922ZM338.494 55.762L320.854 9.22601H308.002L325.642 55.762H338.494ZM339.586 9.22601H327.574L339.586 40.726V9.22601ZM360.145 62.734C359.025 62.734 358.045 62.342 357.205 61.558C356.421 60.718 356.029 59.738 356.029 58.618C356.029 57.498 356.421 56.546 357.205 55.762C358.045 54.922 359.025 54.502 360.145 54.502C361.265 54.502 362.217 54.922 363.001 55.762C363.841 56.546 364.261 57.498 364.261 58.618C364.261 59.738 363.841 60.718 363.001 61.558C362.217 62.342 361.265 62.734 360.145 62.734ZM398.519 63.406C392.975 63.406 387.823 62.034 383.063 59.29C378.359 56.49 374.607 52.738 371.807 48.034C369.063 43.274 367.691 38.094 367.691 32.494C367.691 26.894 369.063 21.742 371.807 17.038C374.607 12.334 378.359 8.61001 383.063 5.86601C387.823 3.12201 392.975 1.75001 398.519 1.75001C404.119 1.75001 409.271 3.12201 413.975 5.86601C418.735 8.61001 422.487 12.334 425.231 17.038C427.975 21.742 429.347 26.894 429.347 32.494C429.347 38.094 427.975 43.274 425.231 48.034C422.487 52.738 418.735 56.49 413.975 59.29C409.271 62.034 404.119 63.406 398.519 63.406ZM422.711 29.386C422.207 25.41 420.835 21.798 418.595 18.55C416.355 15.302 413.471 12.754 409.943 10.906C406.471 9.00201 402.663 8.05001 398.519 8.05001C394.375 8.05001 390.567 9.00201 387.095 10.906C383.623 12.754 380.767 15.302 378.527 18.55C376.343 21.798 374.999 25.41 374.495 29.386H422.711ZM398.519 57.106C402.663 57.106 406.471 56.182 409.943 54.334C413.471 52.43 416.355 49.854 418.595 46.606C420.835 43.358 422.207 39.718 422.711 35.686H374.495C374.943 39.718 376.287 43.358 378.527 46.606C380.767 49.854 383.623 52.43 387.095 54.334C390.567 56.182 394.375 57.106 398.519 57.106ZM436.844 62.734C435.724 62.734 434.744 62.342 433.904 61.558C433.12 60.718 432.728 59.738 432.728 58.618C432.728 57.498 433.12 56.546 433.904 55.762C434.744 54.922 435.724 54.502 436.844 54.502C437.964 54.502 438.916 54.922 439.7 55.762C440.54 56.546 440.96 57.498 440.96 58.618C440.96 59.738 440.54 60.718 439.7 61.558C438.916 62.342 437.964 62.734 436.844 62.734ZM448.692 39.214H465.828V35.266H463.812C460.9 35.266 458.212 34.566 455.748 33.166C453.34 31.71 451.408 29.778 449.952 27.37C448.552 24.906 447.852 22.218 447.852 19.306V18.55C447.852 15.638 448.552 12.978 449.952 10.57C451.408 8.10601 453.34 6.17401 455.748 4.77401C458.212 3.31801 460.9 2.59001 463.812 2.59001H487.836V25.438H472.548V29.386H474.648C477.56 29.386 480.248 30.114 482.712 31.57C485.176 32.97 487.108 34.902 488.508 37.366C489.964 39.774 490.692 42.434 490.692 45.346V46.102C490.692 49.014 489.964 51.702 488.508 54.166C487.108 56.574 485.176 58.506 482.712 59.962C480.248 61.362 477.56 62.062 474.648 62.062H448.692V39.214ZM465.828 29.134V8.80601H463.812C461.124 8.80601 458.828 9.75801 456.924 11.662C455.02 13.566 454.068 15.862 454.068 18.55V19.306C454.068 21.994 455.02 24.318 456.924 26.278C458.828 28.182 461.124 29.134 463.812 29.134H465.828ZM481.62 19.222V8.80601H472.548V19.222H481.62ZM474.648 55.846C477.392 55.846 479.716 54.894 481.62 52.99C483.524 51.086 484.476 48.79 484.476 46.102V45.346C484.476 42.658 483.524 40.362 481.62 38.458C479.716 36.554 477.392 35.602 474.648 35.602H472.548V55.846H474.648ZM465.828 55.846V45.43H454.908V55.846H465.828ZM500.829 62.734C499.709 62.734 498.729 62.342 497.889 61.558C497.105 60.718 496.713 59.738 496.713 58.618C496.713 57.498 497.105 56.546 497.889 55.762C498.729 54.922 499.709 54.502 500.829 54.502C501.949 54.502 502.901 54.922 503.685 55.762C504.525 56.546 504.945 57.498 504.945 58.618C504.945 59.738 504.525 60.718 503.685 61.558C502.901 62.342 501.949 62.734 500.829 62.734Z" fill="#FDB100"/>
<path d="M39.97 32.578L38.5361 31.5748C38.1236 32.1645 38.1141 32.9466 38.5122 33.5461L39.97 32.578ZM54.418 54.334L55.6555 55.5714C56.2445 54.9824 56.3367 54.0598 55.8758 53.3659L54.418 54.334ZM44.59 60.97L45.2648 62.5847C45.2716 62.5818 45.2784 62.579 45.2852 62.576L44.59 60.97ZM17.206 59.29L16.332 60.8061C16.3365 60.8087 16.341 60.8113 16.3455 60.8138L17.206 59.29ZM5.86601 48.118L4.3544 48.9998C4.357 49.0042 4.35962 49.0087 4.36225 49.0131L5.86601 48.118ZM5.86601 17.038L4.367 16.135C4.36432 16.1394 4.36167 16.1439 4.35903 16.1483L5.86601 17.038ZM17.206 6.03401L16.3455 4.51019H16.3455L17.206 6.03401ZM44.842 4.52201L44.1356 6.12311C44.1451 6.12726 44.1545 6.13132 44.164 6.13531L44.842 4.52201ZM54.838 11.326L56.2719 12.3292C56.7512 11.6441 56.679 10.7157 56.0995 10.1131L54.838 11.326ZM12.838 18.55L11.4055 17.5448C11.4016 17.5504 11.3976 17.5561 11.3937 17.5618L12.838 18.55ZM8.89001 29.386L7.15072 29.1928C7.09575 29.6875 7.25406 30.1822 7.58604 30.5531C7.91802 30.924 8.39224 31.136 8.89001 31.136V29.386ZM34.678 29.386V31.136C35.2472 31.136 35.7809 30.8592 36.1087 30.3938L34.678 29.386ZM46.69 12.334L48.1207 13.3418C48.3984 12.9475 48.5012 12.4561 48.4046 11.9836C48.308 11.511 48.0207 11.0993 47.6105 10.8456L46.69 12.334ZM34.51 35.602L35.9618 34.6249C35.6366 34.1417 35.0924 33.852 34.51 33.852V35.602ZM8.89001 35.602V33.852C8.39314 33.852 7.9197 34.0632 7.58777 34.433C7.25585 34.8027 7.09675 35.2961 7.15015 35.7901L8.89001 35.602ZM12.838 46.69L11.3858 47.6665C11.3923 47.6762 11.3989 47.6857 11.4055 47.6953L12.838 46.69ZM21.406 54.25L20.5838 55.7948C20.5903 55.7983 20.5968 55.8017 20.6034 55.8051L21.406 54.25ZM46.27 53.074L47.203 54.5546C47.6034 54.3023 47.8845 53.8985 47.9823 53.4355C48.08 52.9724 47.9861 52.4895 47.7218 52.0969L46.27 53.074ZM39.97 32.578L38.5122 33.5461L52.9602 55.3021L54.418 54.334L55.8758 53.3659L41.4278 31.6099L39.97 32.578ZM54.418 54.334L53.1806 53.0966C50.5416 55.7356 47.4512 57.8247 43.8949 59.364L44.59 60.97L45.2852 62.576C49.2328 60.8673 52.6945 58.5325 55.6555 55.5714L54.418 54.334ZM44.59 60.97L43.9152 59.3553C40.3781 60.8335 36.6876 61.572 32.83 61.572V63.322V65.072C37.1484 65.072 41.2979 64.2425 45.2648 62.5847L44.59 60.97ZM32.83 63.322V61.572C27.4647 61.572 22.5546 60.3007 18.0665 57.7662L17.206 59.29L16.3455 60.8138C21.3774 63.6554 26.8834 65.072 32.83 65.072V63.322ZM17.206 59.29L18.08 57.7739C13.5787 55.179 10.0159 51.6684 7.36978 47.2229L5.86601 48.118L4.36225 49.0131C7.31612 53.9756 11.3134 57.913 16.332 60.8061L17.206 59.29ZM5.86601 48.118L7.37763 47.2362C4.79751 42.8132 3.50001 37.9119 3.50001 32.494H1.75001H1.49012e-05C1.49012e-05 38.5001 1.44652 44.0148 4.3544 48.9998L5.86601 48.118ZM1.75001 32.494H3.50001C3.50001 27.1353 4.79586 22.293 7.373 17.9277L5.86601 17.038L4.35903 16.1483C1.44817 21.079 1.49012e-05 26.5407 1.49012e-05 32.494H1.75001ZM5.86601 17.038L7.36503 17.941C10.0081 13.5536 13.5673 10.0986 18.0665 7.55783L17.206 6.03401L16.3455 4.51019C11.3247 7.34544 7.32395 11.2264 4.367 16.135L5.86601 17.038ZM17.206 6.03401L18.0665 7.55783C22.5546 5.02336 27.4647 3.75201 32.83 3.75201V2.00201V0.25201C26.8834 0.25201 21.3774 1.66866 16.3455 4.51019L17.206 6.03401ZM32.83 2.00201V3.75201C36.7891 3.75201 40.5523 4.54221 44.1356 6.12311L44.842 4.52201L45.5484 2.9209C41.5158 1.1418 37.271 0.25201 32.83 0.25201V2.00201ZM44.842 4.52201L44.164 6.13531C47.8167 7.67052 50.948 9.80521 53.5766 12.5389L54.838 11.326L56.0995 10.1131C53.1281 7.02281 49.5953 4.6215 45.5201 2.90871L44.842 4.52201ZM54.838 11.326L53.4041 10.3228L38.5361 31.5748L39.97 32.578L41.4039 33.5812L56.2719 12.3292L54.838 11.326ZM32.83 8.38601V6.63601C28.4242 6.63601 24.3386 7.59109 20.6034 9.51892L21.406 11.074L22.2086 12.6291C25.4175 10.9729 28.9479 10.136 32.83 10.136V8.38601ZM21.406 11.074L20.6034 9.51892C16.8806 11.4404 13.8083 14.1208 11.4055 17.5448L12.838 18.55L14.2705 19.5553C16.3477 16.5952 18.9874 14.2917 22.2086 12.6291L21.406 11.074ZM12.838 18.55L11.3937 17.5618C9.03971 21.0023 7.6288 24.89 7.15072 29.1928L8.89001 29.386L10.6293 29.5793C11.0472 25.818 12.2683 22.4817 14.2823 19.5382L12.838 18.55ZM8.89001 29.386V31.136H34.678V29.386V27.636H8.89001V29.386ZM34.678 29.386L36.1087 30.3938L48.1207 13.3418L46.69 12.334L45.2593 11.3262L33.2473 28.3782L34.678 29.386ZM46.69 12.334L47.6105 10.8456C43.0791 8.04333 38.1406 6.63601 32.83 6.63601V8.38601V10.136C37.4875 10.136 41.7889 11.3607 45.7696 13.8224L46.69 12.334ZM34.51 35.602V33.852H8.89001V35.602V37.352H34.51V35.602ZM8.89001 35.602L7.15015 35.7901C7.62663 40.1975 9.03313 44.1677 11.3858 47.6665L12.838 46.69L14.2902 45.7135C12.2749 42.7163 11.0494 39.2945 10.6299 35.4139L8.89001 35.602ZM12.838 46.69L11.4055 47.6953C13.8051 51.1146 16.8709 53.8186 20.5838 55.7948L21.406 54.25L22.2283 52.7052C18.9971 50.9854 16.3509 48.6494 14.2705 45.6848L12.838 46.69ZM21.406 54.25L20.6034 55.8051C24.3386 57.7329 28.4242 58.688 32.83 58.688V56.938V55.188C28.9479 55.188 25.4175 54.3511 22.2086 52.6949L21.406 54.25ZM32.83 56.938V58.688C38.0293 58.688 42.8332 57.3081 47.203 54.5546L46.27 53.074L45.3371 51.5934C41.5308 53.9919 37.3747 55.188 32.83 55.188V56.938ZM46.27 53.074L47.7218 52.0969L35.9618 34.6249L34.51 35.602L33.0582 36.5792L44.8182 54.0512L46.27 53.074ZM60.4161 61.558L59.1368 62.7521C59.1642 62.7815 59.1927 62.8099 59.2221 62.8374L60.4161 61.558ZM60.4161 55.762L61.6536 56.9995V56.9995L60.4161 55.762ZM66.2121 55.762L64.9328 56.9561C64.9602 56.9855 64.9887 57.0139 65.0181 57.0414L66.2121 55.762ZM66.2121 61.558L64.9747 60.3206V60.3206L66.2121 61.558ZM63.3561 62.734V60.984C62.692 60.984 62.1355 60.7689 61.6102 60.2787L60.4161 61.558L59.2221 62.8374C60.3768 63.9151 61.7803 64.484 63.3561 64.484V62.734ZM60.4161 61.558L61.6955 60.364C61.2052 59.8387 60.9901 59.2822 60.9901 58.618H59.2401H57.4901C57.4901 60.1938 58.059 61.5973 59.1368 62.7521L60.4161 61.558ZM59.2401 58.618H60.9901C60.9901 57.9568 61.2015 57.4515 61.6536 56.9995L60.4161 55.762L59.1787 54.5246C58.0628 55.6405 57.4901 57.0392 57.4901 58.618H59.2401ZM60.4161 55.762L61.6536 56.9995C62.1875 56.4655 62.7306 56.252 63.3561 56.252V54.502V52.752C61.7417 52.752 60.3248 53.3785 59.1787 54.5246L60.4161 55.762ZM63.3561 54.502V56.252C63.977 56.252 64.4701 56.4603 64.9328 56.9561L66.2121 55.762L67.4915 54.568C66.3862 53.3837 64.9753 52.752 63.3561 52.752V54.502ZM66.2121 55.762L65.0181 57.0414C65.5139 57.5041 65.7221 57.9971 65.7221 58.618H67.4721H69.2221C69.2221 56.9989 68.5904 55.5879 67.4062 54.4827L66.2121 55.762ZM67.4721 58.618H65.7221C65.7221 59.2435 65.5086 59.7867 64.9747 60.3206L66.2121 61.558L67.4496 62.7954C68.5957 61.6494 69.2221 60.2325 69.2221 58.618H67.4721ZM66.2121 61.558L64.9747 60.3206C64.5226 60.7727 64.0173 60.984 63.3561 60.984V62.734V64.484C64.935 64.484 66.3337 63.9114 67.4496 62.7954L66.2121 61.558ZM77.7234 2.92601V1.17601C76.7569 1.17601 75.9734 1.95951 75.9734 2.92601H77.7234ZM122.831 2.92601H124.581C124.581 1.95951 123.798 1.17601 122.831 1.17601V2.92601ZM122.831 62.062V63.812C123.798 63.812 124.581 63.0285 124.581 62.062H122.831ZM77.7234 62.062H75.9734C75.9734 63.0285 76.7569 63.812 77.7234 63.812V62.062ZM116.363 29.386V31.136C117.33 31.136 118.113 30.3525 118.113 29.386H116.363ZM116.363 9.14201H118.113C118.113 8.17551 117.33 7.39201 116.363 7.39201V9.14201ZM84.3594 9.14201V7.39201C83.3929 7.39201 82.6094 8.17551 82.6094 9.14201H84.3594ZM84.3594 29.386H82.6094C82.6094 30.3525 83.3929 31.136 84.3594 31.136V29.386ZM116.363 55.846V57.596C117.33 57.596 118.113 56.8125 118.113 55.846H116.363ZM116.363 35.602H118.113C118.113 34.6355 117.33 33.852 116.363 33.852V35.602ZM84.3594 35.602V33.852C83.3929 33.852 82.6094 34.6355 82.6094 35.602H84.3594ZM84.3594 55.846H82.6094C82.6094 56.8125 83.3929 57.596 84.3594 57.596V55.846ZM77.7234 2.92601V4.67601H122.831V2.92601V1.17601H77.7234V2.92601ZM122.831 2.92601H121.081V62.062H122.831H124.581V2.92601H122.831ZM122.831 62.062V60.312H77.7234V62.062V63.812H122.831V62.062ZM77.7234 62.062H79.4734V2.92601H77.7234H75.9734V62.062H77.7234ZM116.363 29.386H118.113V9.14201H116.363H114.613V29.386H116.363ZM116.363 9.14201V7.39201H84.3594V9.14201V10.892H116.363V9.14201ZM84.3594 9.14201H82.6094V29.386H84.3594H86.1094V9.14201H84.3594ZM84.3594 29.386V31.136H116.363V29.386V27.636H84.3594V29.386ZM116.363 55.846H118.113V35.602H116.363H114.613V55.846H116.363ZM116.363 35.602V33.852H84.3594V35.602V37.352H116.363V35.602ZM84.3594 35.602H82.6094V55.846H84.3594H86.1094V35.602H84.3594ZM84.3594 55.846V57.596H116.363V55.846V54.096H84.3594V55.846ZM134.162 61.558L132.883 62.7521C132.91 62.7815 132.939 62.8099 132.968 62.8374L134.162 61.558ZM134.162 55.762L135.4 56.9995V56.9995L134.162 55.762ZM139.958 55.762L138.679 56.9561C138.706 56.9855 138.735 57.0139 138.764 57.0414L139.958 55.762ZM139.958 61.558L138.721 60.3206V60.3206L139.958 61.558ZM137.102 62.734V60.984C136.438 60.984 135.882 60.7689 135.356 60.2787L134.162 61.558L132.968 62.8374C134.123 63.9151 135.526 64.484 137.102 64.484V62.734ZM134.162 61.558L135.442 60.364C134.951 59.8387 134.736 59.2822 134.736 58.618H132.986H131.236C131.236 60.1938 131.805 61.5973 132.883 62.7521L134.162 61.558ZM132.986 58.618H134.736C134.736 57.9568 134.948 57.4515 135.4 56.9995L134.162 55.762L132.925 54.5246C131.809 55.6405 131.236 57.0392 131.236 58.618H132.986ZM134.162 55.762L135.4 56.9995C135.934 56.4655 136.477 56.252 137.102 56.252V54.502V52.752C135.488 52.752 134.071 53.3785 132.925 54.5246L134.162 55.762ZM137.102 54.502V56.252C137.723 56.252 138.216 56.4603 138.679 56.9561L139.958 55.762L141.238 54.568C140.132 53.3837 138.721 52.752 137.102 52.752V54.502ZM139.958 55.762L138.764 57.0414C139.26 57.5041 139.468 57.9971 139.468 58.618H141.218H142.968C142.968 56.9989 142.337 55.5879 141.152 54.4827L139.958 55.762ZM141.218 58.618H139.468C139.468 59.2435 139.255 59.7867 138.721 60.3206L139.958 61.558L141.196 62.7954C142.342 61.6494 142.968 60.2325 142.968 58.618H141.218ZM139.958 61.558L138.721 60.3206C138.269 60.7727 137.763 60.984 137.102 60.984V62.734V64.484C138.681 64.484 140.08 63.9114 141.196 62.7954L139.958 61.558ZM151.47 2.67401V0.924011C150.503 0.924011 149.72 1.70751 149.72 2.67401H151.47ZM188.43 5.44601L187.541 6.9537C187.552 6.95991 187.562 6.966 187.573 6.97198L188.43 5.44601ZM194.646 35.434L196.027 36.5084L196.035 36.4979L194.646 35.434ZM184.146 42.49L183.679 40.8032C183.135 40.9537 182.697 41.3576 182.502 41.888C182.308 42.4183 182.382 43.0099 182.7 43.4764L184.146 42.49ZM197.502 62.062V63.812C198.15 63.812 198.746 63.4531 199.049 62.8794C199.352 62.3057 199.313 61.6115 198.947 61.0756L197.502 62.062ZM151.47 62.062H149.72C149.72 63.0285 150.503 63.812 151.47 63.812V62.062ZM185.07 35.77L184.181 34.2626C184.175 34.266 184.169 34.2694 184.163 34.2729L185.07 35.77ZM190.194 30.562L188.686 29.673C188.68 29.6827 188.675 29.6924 188.669 29.7022L190.194 30.562ZM190.194 15.946L188.66 16.7894C188.669 16.8047 188.677 16.8199 188.686 16.835L190.194 15.946ZM185.07 10.654L184.163 12.1511C184.169 12.1546 184.175 12.158 184.181 12.1614L185.07 10.654ZM175.746 8.72201V6.97201C174.779 6.97201 173.996 7.75551 173.996 8.72201H175.746ZM175.746 37.702H173.996C173.996 38.6685 174.779 39.452 175.746 39.452V37.702ZM169.614 55.846V57.596C170.58 57.596 171.364 56.8125 171.364 55.846H169.614ZM169.614 8.80601H171.364C171.364 7.83951 170.58 7.05601 169.614 7.05601V8.80601ZM157.686 8.80601V7.05601C156.719 7.05601 155.936 7.83951 155.936 8.80601H157.686ZM157.686 55.846H155.936C155.936 56.8125 156.719 57.596 157.686 57.596V55.846ZM185.49 55.846V57.596C186.139 57.596 186.736 57.2358 187.038 56.6605C187.341 56.0852 187.3 55.3896 186.931 54.8541L185.49 55.846ZM177.342 44.002L178.783 43.0102C178.457 42.5355 177.918 42.252 177.342 42.252V44.002ZM175.746 44.002V42.252C174.779 42.252 173.996 43.0355 173.996 44.002H175.746ZM175.746 55.846H173.996C173.996 56.8125 174.779 57.596 175.746 57.596V55.846ZM151.47 2.67401V4.42401H178.014V2.67401V0.924011H151.47V2.67401ZM178.014 2.67401V4.42401C181.524 4.42401 184.687 5.27181 187.541 6.9537L188.43 5.44601L189.318 3.93832C185.9 1.92421 182.119 0.924011 178.014 0.924011V2.67401ZM188.43 5.44601L187.573 6.97198C190.497 8.61359 192.792 10.8583 194.482 13.7265L195.99 12.838L197.497 11.9495C195.491 8.5457 192.746 5.86243 189.286 3.92004L188.43 5.44601ZM195.99 12.838L194.482 13.7265C196.164 16.5806 197.012 19.7434 197.012 23.254H198.762H200.512C200.512 19.1486 199.511 15.3674 197.497 11.9495L195.99 12.838ZM198.762 23.254H197.012C197.012 27.4075 195.765 31.0932 193.256 34.3702L194.646 35.434L196.035 36.4979C199.014 32.6069 200.512 28.1726 200.512 23.254H198.762ZM194.646 35.434L193.264 34.3596C190.748 37.5942 187.568 39.7289 183.679 40.8032L184.146 42.49L184.612 44.1768C189.235 42.8992 193.055 40.3298 196.027 36.5084L194.646 35.434ZM184.146 42.49L182.7 43.4764L196.056 63.0484L197.502 62.062L198.947 61.0756L185.591 41.5036L184.146 42.49ZM197.502 62.062V60.312H151.47V62.062V63.812H197.502V62.062ZM151.47 62.062H153.22V2.67401H151.47H149.72V62.062H151.47ZM178.014 37.702V39.452C180.897 39.452 183.564 38.7266 185.976 37.2671L185.07 35.77L184.163 34.2729C182.319 35.3894 180.282 35.952 178.014 35.952V37.702ZM185.07 35.77L185.958 37.2774C188.404 35.835 190.333 33.8769 191.718 31.4218L190.194 30.562L188.669 29.7022C187.59 31.6151 186.103 33.1291 184.181 34.2626L185.07 35.77ZM190.194 30.562L191.701 31.451C193.157 28.9813 193.876 26.2351 193.876 23.254H192.126H190.376C190.376 25.6489 189.806 27.7747 188.686 29.673L190.194 30.562ZM192.126 23.254H193.876C193.876 20.2729 193.157 17.5267 191.701 15.057L190.194 15.946L188.686 16.835C189.806 18.7333 190.376 20.8591 190.376 23.254H192.126ZM190.194 15.946L191.727 15.1027C190.345 12.5899 188.415 10.5955 185.958 9.14662L185.07 10.654L184.181 12.1614C186.092 13.2885 187.578 14.8221 188.66 16.7894L190.194 15.946ZM185.07 10.654L185.976 9.15688C183.564 7.69739 180.897 6.97201 178.014 6.97201V8.72201V10.472C180.282 10.472 182.319 11.0346 184.163 12.1511L185.07 10.654ZM178.014 8.72201V6.97201H175.746V8.72201V10.472H178.014V8.72201ZM175.746 8.72201H173.996V37.702H175.746H177.496V8.72201H175.746ZM175.746 37.702V39.452H178.014V37.702V35.952H175.746V37.702ZM169.614 55.846H171.364V8.80601H169.614H167.864V55.846H169.614ZM169.614 8.80601V7.05601H157.686V8.80601V10.556H169.614V8.80601ZM157.686 8.80601H155.936V55.846H157.686H159.436V8.80601H157.686ZM157.686 55.846V57.596H169.614V55.846V54.096H157.686V55.846ZM185.49 55.846L186.931 54.8541L178.783 43.0102L177.342 44.002L175.9 44.9939L184.048 56.8379L185.49 55.846ZM177.342 44.002V42.252H175.746V44.002V45.752H177.342V44.002ZM175.746 44.002H173.996V55.846H175.746H177.496V44.002H175.746ZM175.746 55.846V57.596H185.49V55.846V54.096H175.746V55.846ZM206.268 61.558L204.988 62.7521C205.016 62.7815 205.044 62.8099 205.074 62.8374L206.268 61.558ZM206.268 55.762L207.505 56.9995V56.9995L206.268 55.762ZM212.064 55.762L210.784 56.9561C210.812 56.9855 210.84 57.0139 210.87 57.0414L212.064 55.762ZM212.064 61.558L210.826 60.3206V60.3206L212.064 61.558ZM209.208 62.734V60.984C208.544 60.984 207.987 60.7689 207.462 60.2787L206.268 61.558L205.074 62.8374C206.228 63.9151 207.632 64.484 209.208 64.484V62.734ZM206.268 61.558L207.547 60.364C207.057 59.8387 206.842 59.2822 206.842 58.618H205.092H203.342C203.342 60.1938 203.911 61.5973 204.988 62.7521L206.268 61.558ZM205.092 58.618H206.842C206.842 57.9568 207.053 57.4515 207.505 56.9995L206.268 55.762L205.03 54.5246C203.914 55.6405 203.342 57.0392 203.342 58.618H205.092ZM206.268 55.762L207.505 56.9995C208.039 56.4655 208.582 56.252 209.208 56.252V54.502V52.752C207.593 52.752 206.176 53.3785 205.03 54.5246L206.268 55.762ZM209.208 54.502V56.252C209.829 56.252 210.322 56.4603 210.784 56.9561L212.064 55.762L213.343 54.568C212.238 53.3837 210.827 52.752 209.208 52.752V54.502ZM212.064 55.762L210.87 57.0414C211.365 57.5041 211.574 57.9971 211.574 58.618H213.324H215.074C215.074 56.9989 214.442 55.5879 213.258 54.4827L212.064 55.762ZM213.324 58.618H211.574C211.574 59.2435 211.36 59.7867 210.826 60.3206L212.064 61.558L213.301 62.7954C214.447 61.6494 215.074 60.2325 215.074 58.618H213.324ZM212.064 61.558L210.826 60.3206C210.374 60.7727 209.869 60.984 209.208 60.984V62.734V64.484C210.787 64.484 212.185 63.9114 213.301 62.7954L212.064 61.558ZM232.126 59.29L231.231 60.7938C231.238 60.7979 231.245 60.8021 231.252 60.8061L232.126 59.29ZM220.87 48.034L219.354 48.908C219.358 48.9151 219.362 48.9221 219.366 48.9291L220.87 48.034ZM220.87 17.038L219.366 16.1429C219.364 16.1473 219.361 16.1518 219.358 16.1562L220.87 17.038ZM232.126 5.86601L231.252 4.34987L231.244 4.3544L232.126 5.86601ZM263.038 5.86601L262.156 7.37764L262.164 7.38213L263.038 5.86601ZM274.294 17.038L272.782 17.9198V17.9198L274.294 17.038ZM274.294 48.034L275.806 48.9158L275.81 48.908L274.294 48.034ZM263.038 59.29L263.92 60.8016L263.925 60.7984L263.038 59.29ZM271.774 29.386V31.136C272.276 31.136 272.755 30.92 273.087 30.543C273.419 30.166 273.573 29.6644 273.51 29.1659L271.774 29.386ZM267.658 18.55L266.217 19.5435V19.5435L267.658 18.55ZM259.006 10.906L258.164 12.4404C258.174 12.4458 258.184 12.451 258.194 12.4562L259.006 10.906ZM236.158 10.906L236.98 12.4508C236.987 12.4474 236.993 12.4439 236.999 12.4404L236.158 10.906ZM227.59 18.55L226.149 17.5565C226.145 17.5621 226.142 17.5678 226.138 17.5735L227.59 18.55ZM223.558 29.386L221.822 29.1659C221.759 29.6644 221.913 30.166 222.245 30.543C222.577 30.92 223.055 31.136 223.558 31.136V29.386ZM259.006 54.334L259.828 55.8788L259.837 55.874L259.006 54.334ZM267.658 46.606L266.217 45.6125V45.6125L267.658 46.606ZM271.774 35.686L273.51 35.9031C273.573 35.405 273.418 34.9042 273.086 34.5279C272.754 34.1516 272.276 33.936 271.774 33.936V35.686ZM223.558 35.686V33.936C223.06 33.936 222.586 34.148 222.254 34.5189C221.922 34.8898 221.764 35.3845 221.819 35.8793L223.558 35.686ZM227.59 46.606L229.031 45.6125V45.6125L227.59 46.606ZM236.158 54.334L235.316 55.8684C235.323 55.8719 235.329 55.8754 235.336 55.8788L236.158 54.334ZM247.582 63.406V61.656C242.342 61.656 237.492 60.3632 233 57.7739L232.126 59.29L231.252 60.8061C236.28 63.7048 241.734 65.156 247.582 65.156V63.406ZM232.126 59.29L233.021 57.7862C228.567 55.1353 225.025 51.5925 222.374 47.1389L220.87 48.034L219.366 48.9291C222.315 53.8835 226.276 57.8447 231.231 60.7938L232.126 59.29ZM220.87 48.034L222.386 47.16C219.798 42.6711 218.504 37.7934 218.504 32.494H216.754H215.004C215.004 38.3946 216.454 43.8769 219.354 48.908L220.87 48.034ZM216.754 32.494H218.504C218.504 27.1947 219.798 22.3483 222.382 17.9198L220.87 17.038L219.358 16.1562C216.454 21.1357 215.004 26.5933 215.004 32.494H216.754ZM220.87 17.038L222.374 17.9331C225.023 13.4826 228.561 9.97134 233.008 7.37762L232.126 5.86601L231.244 4.3544C226.283 7.24868 222.317 11.1854 219.366 16.1429L220.87 17.038ZM232.126 5.86601L233 7.38213C237.492 4.7928 242.342 3.50001 247.582 3.50001V1.75001V7.62939e-06C241.734 7.62939e-06 236.28 1.45121 231.252 4.34989L232.126 5.86601ZM247.582 1.75001V3.50001C252.881 3.50001 257.728 4.79431 262.156 7.37762L263.038 5.86601L263.92 4.3544C258.94 1.44971 253.483 7.62939e-06 247.582 7.62939e-06V1.75001ZM263.038 5.86601L262.164 7.38213C266.662 9.97527 270.193 13.4816 272.782 17.9198L274.294 17.038L275.806 16.1562C272.906 11.1864 268.934 7.24475 263.912 4.34989L263.038 5.86601ZM274.294 17.038L272.782 17.9198C275.366 22.3483 276.66 27.1947 276.66 32.494H278.41H280.16C280.16 26.5933 278.71 21.1357 275.806 16.1562L274.294 17.038ZM278.41 32.494H276.66C276.66 37.7934 275.366 42.6711 272.778 47.16L274.294 48.034L275.81 48.908C278.71 43.8769 280.16 38.3946 280.16 32.494H278.41ZM274.294 48.034L272.782 47.1522C270.192 51.5936 266.656 55.1313 262.151 57.7816L263.038 59.29L263.925 60.7984C268.94 57.8487 272.908 53.8825 275.806 48.9158L274.294 48.034ZM263.038 59.29L262.156 57.7784C257.728 60.3617 252.881 61.656 247.582 61.656V63.406V65.156C253.483 65.156 258.94 63.7063 263.92 60.8016L263.038 59.29ZM271.774 29.386L273.51 29.1659C272.971 24.9168 271.5 21.0387 269.099 17.5565L267.658 18.55L266.217 19.5435C268.296 22.5573 269.568 25.9033 270.038 29.6061L271.774 29.386ZM267.658 18.55L269.099 17.5565C266.696 14.0724 263.595 11.3343 259.818 9.3558L259.006 10.906L258.194 12.4562C261.473 14.1737 264.14 16.5317 266.217 19.5435L267.658 18.55ZM259.006 10.906L259.847 9.37159C256.105 7.31948 252.006 6.30001 247.582 6.30001V8.05001V9.80001C251.446 9.80001 254.963 10.6845 258.164 12.4404L259.006 10.906ZM247.582 8.05001V6.30001C243.158 6.30001 239.059 7.31948 235.316 9.37159L236.158 10.906L236.999 12.4404C240.201 10.6845 243.718 9.80001 247.582 9.80001V8.05001ZM236.158 10.906L235.336 9.3612C231.616 11.3412 228.548 14.0786 226.149 17.5565L227.59 18.55L229.031 19.5435C231.112 16.5254 233.756 14.1668 236.98 12.4508L236.158 10.906ZM227.59 18.55L226.138 17.5735C223.798 21.0536 222.359 24.9258 221.822 29.1659L223.558 29.386L225.294 29.6061C225.765 25.8942 227.014 22.5424 229.042 19.5265L227.59 18.55ZM223.558 29.386V31.136H271.774V29.386V27.636H223.558V29.386ZM247.582 57.106V58.856C251.997 58.856 256.089 57.8688 259.828 55.8788L259.006 54.334L258.184 52.7892C254.978 54.4952 251.455 55.356 247.582 55.356V57.106ZM259.006 54.334L259.837 55.874C263.604 53.8408 266.699 51.0791 269.099 47.5995L267.658 46.606L266.217 45.6125C264.137 48.6289 261.463 51.0192 258.175 52.794L259.006 54.334ZM267.658 46.606L269.099 47.5995C271.503 44.1132 272.973 40.2053 273.51 35.9031L271.774 35.686L270.037 35.4689C269.567 39.2308 268.293 42.6029 266.217 45.6125L267.658 46.606ZM271.774 35.686V33.936H223.558V35.686V37.436H271.774V35.686ZM223.558 35.686L221.819 35.8793C222.298 40.1902 223.74 44.1067 226.149 47.5995L227.59 46.606L229.031 45.6125C226.959 42.6094 225.714 39.2458 225.297 35.4928L223.558 35.686ZM227.59 46.606L226.149 47.5995C228.545 51.0729 231.606 53.8338 235.316 55.8684L236.158 54.334L236.999 52.7996C233.766 51.0262 231.115 48.6351 229.031 45.6125L227.59 46.606ZM236.158 54.334L235.336 55.8788C239.074 57.8688 243.167 58.856 247.582 58.856V57.106V55.356C243.709 55.356 240.185 54.4952 236.98 52.7892L236.158 54.334ZM282.967 61.558L281.688 62.7521C281.715 62.7815 281.743 62.8099 281.773 62.8374L282.967 61.558ZM282.967 55.762L284.204 56.9995V56.9995L282.967 55.762ZM288.763 55.762L287.484 56.9561C287.511 56.9855 287.539 57.0139 287.569 57.0414L288.763 55.762ZM288.763 61.558L287.525 60.3206V60.3206L288.763 61.558ZM285.907 62.734V60.984C285.243 60.984 284.686 60.7689 284.161 60.2787L282.967 61.558L281.773 62.8374C282.928 63.9151 284.331 64.484 285.907 64.484V62.734ZM282.967 61.558L284.246 60.364C283.756 59.8387 283.541 59.2822 283.541 58.618H281.791H280.041C280.041 60.1938 280.61 61.5973 281.688 62.7521L282.967 61.558ZM281.791 58.618H283.541C283.541 57.9568 283.752 57.4515 284.204 56.9995L282.967 55.762L281.729 54.5246C280.614 55.6405 280.041 57.0392 280.041 58.618H281.791ZM282.967 55.762L284.204 56.9995C284.738 56.4655 285.281 56.252 285.907 56.252V54.502V52.752C284.292 52.752 282.876 53.3785 281.729 54.5246L282.967 55.762ZM285.907 54.502V56.252C286.528 56.252 287.021 56.4603 287.484 56.9561L288.763 55.762L290.042 54.568C288.937 53.3837 287.526 52.752 285.907 52.752V54.502ZM288.763 55.762L287.569 57.0414C288.065 57.5041 288.273 57.9971 288.273 58.618H290.023H291.773C291.773 56.9989 291.141 55.5879 289.957 54.4827L288.763 55.762ZM290.023 58.618H288.273C288.273 59.2435 288.059 59.7867 287.525 60.3206L288.763 61.558L290 62.7954C291.146 61.6494 291.773 60.2325 291.773 58.618H290.023ZM288.763 61.558L287.525 60.3206C287.073 60.7727 286.568 60.984 285.907 60.984V62.734V64.484C287.486 64.484 288.884 63.9114 290 62.7954L288.763 61.558ZM300.274 2.92601V1.17601C299.308 1.17601 298.524 1.95951 298.524 2.92601H300.274ZM345.886 2.92601H347.636C347.636 1.95951 346.853 1.17601 345.886 1.17601V2.92601ZM345.886 62.062V63.812C346.853 63.812 347.636 63.0285 347.636 62.062H345.886ZM300.274 62.062H298.524C298.524 63.0285 299.308 63.812 300.274 63.812V62.062ZM318.922 55.762V57.512C319.498 57.512 320.036 57.229 320.363 56.7551C320.69 56.2812 320.762 55.6771 320.558 55.1392L318.922 55.762ZM306.574 23.338L308.21 22.7152C307.909 21.9261 307.088 21.4641 306.258 21.6169C305.427 21.7697 304.824 22.4936 304.824 23.338H306.574ZM306.574 55.762H304.824C304.824 56.7285 305.608 57.512 306.574 57.512V55.762ZM338.494 55.762V57.512C339.069 57.512 339.608 57.2295 339.934 56.7562C340.261 56.283 340.334 55.6795 340.131 55.1417L338.494 55.762ZM320.854 9.22601L322.491 8.60572C322.233 7.92574 321.581 7.47601 320.854 7.47601V9.22601ZM308.002 9.22601V7.47601C307.427 7.47601 306.889 7.75854 306.562 8.23178C306.235 8.70502 306.162 9.30857 306.366 9.8463L308.002 9.22601ZM325.642 55.762L324.006 56.3823C324.264 57.0623 324.915 57.512 325.642 57.512V55.762ZM339.586 9.22601H341.336C341.336 8.25951 340.553 7.47601 339.586 7.47601V9.22601ZM327.574 9.22601V7.47601C326.999 7.47601 326.46 7.75914 326.133 8.23321C325.806 8.70728 325.734 9.31165 325.939 9.84955L327.574 9.22601ZM339.586 40.726L337.951 41.3495C338.252 42.1384 339.073 42.6 339.903 42.4471C340.733 42.2941 341.336 41.5702 341.336 40.726H339.586ZM300.274 2.92601V4.67601H345.886V2.92601V1.17601H300.274V2.92601ZM345.886 2.92601H344.136V62.062H345.886H347.636V2.92601H345.886ZM345.886 62.062V60.312H300.274V62.062V63.812H345.886V62.062ZM300.274 62.062H302.024V2.92601H300.274H298.524V62.062H300.274ZM318.922 55.762L320.558 55.1392L308.21 22.7152L306.574 23.338L304.939 23.9608L317.287 56.3848L318.922 55.762ZM306.574 23.338H304.824V55.762H306.574H308.324V23.338H306.574ZM306.574 55.762V57.512H318.922V55.762V54.012H306.574V55.762ZM338.494 55.762L340.131 55.1417L322.491 8.60572L320.854 9.22601L319.218 9.8463L336.858 56.3823L338.494 55.762ZM320.854 9.22601V7.47601H308.002V9.22601V10.976H320.854V9.22601ZM308.002 9.22601L306.366 9.8463L324.006 56.3823L325.642 55.762L327.279 55.1417L309.639 8.60572L308.002 9.22601ZM325.642 55.762V57.512H338.494V55.762V54.012H325.642V55.762ZM339.586 9.22601V7.47601H327.574V9.22601V10.976H339.586V9.22601ZM327.574 9.22601L325.939 9.84955L337.951 41.3495L339.586 40.726L341.221 40.1025L329.209 8.60247L327.574 9.22601ZM339.586 40.726H341.336V9.22601H339.586H337.836V40.726H339.586ZM357.205 61.558L355.926 62.7521C355.953 62.7815 355.982 62.8099 356.011 62.8374L357.205 61.558ZM357.205 55.762L358.443 56.9995V56.9995L357.205 55.762ZM363.001 55.762L361.722 56.9561C361.749 56.9855 361.778 57.0139 361.807 57.0414L363.001 55.762ZM363.001 61.558L361.764 60.3206V60.3206L363.001 61.558ZM360.145 62.734V60.984C359.481 60.984 358.924 60.7689 358.399 60.2787L357.205 61.558L356.011 62.8374C357.166 63.9151 358.569 64.484 360.145 64.484V62.734ZM357.205 61.558L358.485 60.364C357.994 59.8387 357.779 59.2822 357.779 58.618H356.029H354.279C354.279 60.1938 354.848 61.5973 355.926 62.7521L357.205 61.558ZM356.029 58.618H357.779C357.779 57.9568 357.991 57.4515 358.443 56.9995L357.205 55.762L355.968 54.5246C354.852 55.6405 354.279 57.0392 354.279 58.618H356.029ZM357.205 55.762L358.443 56.9995C358.977 56.4655 359.52 56.252 360.145 56.252V54.502V52.752C358.531 52.752 357.114 53.3785 355.968 54.5246L357.205 55.762ZM360.145 54.502V56.252C360.766 56.252 361.259 56.4603 361.722 56.9561L363.001 55.762L364.281 54.568C363.175 53.3837 361.764 52.752 360.145 52.752V54.502ZM363.001 55.762L361.807 57.0414C362.303 57.5041 362.511 57.9971 362.511 58.618H364.261H366.011C366.011 56.9989 365.379 55.5879 364.195 54.4827L363.001 55.762ZM364.261 58.618H362.511C362.511 59.2435 362.298 59.7867 361.764 60.3206L363.001 61.558L364.239 62.7954C365.385 61.6494 366.011 60.2325 366.011 58.618H364.261ZM363.001 61.558L361.764 60.3206C361.312 60.7727 360.806 60.984 360.145 60.984V62.734V64.484C361.724 64.484 363.123 63.9114 364.239 62.7954L363.001 61.558ZM383.063 59.29L382.168 60.7938C382.175 60.7979 382.182 60.8021 382.189 60.8061L383.063 59.29ZM371.807 48.034L370.291 48.908C370.295 48.9151 370.299 48.9221 370.304 48.9291L371.807 48.034ZM371.807 17.038L370.304 16.1429C370.301 16.1473 370.298 16.1518 370.296 16.1562L371.807 17.038ZM383.063 5.86601L382.189 4.34987L382.182 4.3544L383.063 5.86601ZM413.975 5.86601L413.094 7.37764L413.101 7.38213L413.975 5.86601ZM425.231 17.038L423.72 17.9198V17.9198L425.231 17.038ZM425.231 48.034L426.743 48.9158L426.748 48.908L425.231 48.034ZM413.975 59.29L414.857 60.8016L414.863 60.7984L413.975 59.29ZM422.711 29.386V31.136C423.214 31.136 423.692 30.92 424.024 30.543C424.357 30.166 424.511 29.6644 424.448 29.1659L422.711 29.386ZM418.595 18.55L417.155 19.5435V19.5435L418.595 18.55ZM409.943 10.906L409.102 12.4404C409.112 12.4458 409.122 12.451 409.131 12.4562L409.943 10.906ZM387.095 10.906L387.918 12.4508C387.924 12.4474 387.93 12.4439 387.937 12.4404L387.095 10.906ZM378.527 18.55L377.087 17.5565C377.083 17.5621 377.079 17.5678 377.075 17.5735L378.527 18.55ZM374.495 29.386L372.759 29.1659C372.696 29.6644 372.85 30.166 373.182 30.543C373.515 30.92 373.993 31.136 374.495 31.136V29.386ZM409.943 54.334L410.766 55.8788L410.775 55.874L409.943 54.334ZM418.595 46.606L417.155 45.6125V45.6125L418.595 46.606ZM422.711 35.686L424.448 35.9031C424.51 35.405 424.356 34.9042 424.023 34.5279C423.691 34.1516 423.213 33.936 422.711 33.936V35.686ZM374.495 35.686V33.936C373.998 33.936 373.523 34.148 373.191 34.5189C372.859 34.8898 372.701 35.3845 372.756 35.8793L374.495 35.686ZM378.527 46.606L379.968 45.6125V45.6125L378.527 46.606ZM387.095 54.334L386.254 55.8684C386.26 55.8719 386.267 55.8754 386.273 55.8788L387.095 54.334ZM398.519 63.406V61.656C393.279 61.656 388.429 60.3632 383.937 57.7739L383.063 59.29L382.189 60.8061C387.218 63.7048 392.672 65.156 398.519 65.156V63.406ZM383.063 59.29L383.959 57.7862C379.505 55.1353 375.962 51.5925 373.311 47.1389L371.807 48.034L370.304 48.9291C373.253 53.8835 377.214 57.8447 382.168 60.7938L383.063 59.29ZM371.807 48.034L373.324 47.16C370.736 42.6711 369.441 37.7934 369.441 32.494H367.691H365.941C365.941 38.3946 367.391 43.8769 370.291 48.908L371.807 48.034ZM367.691 32.494H369.441C369.441 27.1947 370.736 22.3483 373.319 17.9198L371.807 17.038L370.296 16.1562C367.391 21.1357 365.941 26.5933 365.941 32.494H367.691ZM371.807 17.038L373.311 17.9331C375.96 13.4826 379.499 9.97134 383.945 7.37762L383.063 5.86601L382.182 4.3544C377.22 7.24868 373.255 11.1854 370.304 16.1429L371.807 17.038ZM383.063 5.86601L383.937 7.38213C388.429 4.7928 393.279 3.50001 398.519 3.50001V1.75001V7.62939e-06C392.672 7.62939e-06 387.218 1.45121 382.189 4.34989L383.063 5.86601ZM398.519 1.75001V3.50001C403.819 3.50001 408.665 4.79431 413.094 7.37762L413.975 5.86601L414.857 4.3544C409.878 1.44971 404.42 7.62939e-06 398.519 7.62939e-06V1.75001ZM413.975 5.86601L413.101 7.38213C417.6 9.97527 421.131 13.4816 423.72 17.9198L425.231 17.038L426.743 16.1562C423.844 11.1864 419.871 7.24475 414.849 4.34989L413.975 5.86601ZM425.231 17.038L423.72 17.9198C426.303 22.3483 427.597 27.1947 427.597 32.494H429.347H431.097C431.097 26.5933 429.648 21.1357 426.743 16.1562L425.231 17.038ZM429.347 32.494H427.597C427.597 37.7934 426.303 42.6711 423.715 47.16L425.231 48.034L426.748 48.908C429.648 43.8769 431.097 38.3946 431.097 32.494H429.347ZM425.231 48.034L423.72 47.1522C421.129 51.5936 417.594 55.1313 413.088 57.7816L413.975 59.29L414.863 60.7984C419.877 57.8487 423.846 53.8825 426.743 48.9158L425.231 48.034ZM413.975 59.29L413.094 57.7784C408.665 60.3617 403.819 61.656 398.519 61.656V63.406V65.156C404.42 65.156 409.878 63.7063 414.857 60.8016L413.975 59.29ZM422.711 29.386L424.448 29.1659C423.909 24.9168 422.438 21.0387 420.036 17.5565L418.595 18.55L417.155 19.5435C419.233 22.5573 420.506 25.9033 420.975 29.6061L422.711 29.386ZM418.595 18.55L420.036 17.5565C417.633 14.0724 414.533 11.3343 410.755 9.3558L409.943 10.906L409.131 12.4562C412.41 14.1737 415.078 16.5317 417.155 19.5435L418.595 18.55ZM409.943 10.906L410.785 9.37159C407.043 7.31948 402.943 6.30001 398.519 6.30001V8.05001V9.80001C402.383 9.80001 405.9 10.6845 409.102 12.4404L409.943 10.906ZM398.519 8.05001V6.30001C394.095 6.30001 389.996 7.31948 386.254 9.37159L387.095 10.906L387.937 12.4404C391.139 10.6845 394.655 9.80001 398.519 9.80001V8.05001ZM387.095 10.906L386.273 9.3612C382.553 11.3412 379.485 14.0786 377.087 17.5565L378.527 18.55L379.968 19.5435C382.05 16.5254 384.694 14.1668 387.918 12.4508L387.095 10.906ZM378.527 18.55L377.075 17.5735C374.735 21.0536 373.297 24.9258 372.759 29.1659L374.495 29.386L376.232 29.6061C376.702 25.8942 377.952 22.5424 379.98 19.5265L378.527 18.55ZM374.495 29.386V31.136H422.711V29.386V27.636H374.495V29.386ZM398.519 57.106V58.856C402.934 58.856 407.027 57.8688 410.766 55.8788L409.943 54.334L409.121 52.7892C405.916 54.4952 402.393 55.356 398.519 55.356V57.106ZM409.943 54.334L410.775 55.874C414.542 53.8408 417.636 51.0791 420.036 47.5995L418.595 46.606L417.155 45.6125C415.074 48.6289 412.401 51.0192 409.112 52.794L409.943 54.334ZM418.595 46.606L420.036 47.5995C422.44 44.1132 423.91 40.2053 424.448 35.9031L422.711 35.686L420.975 35.4689C420.505 39.2308 419.23 42.6029 417.155 45.6125L418.595 46.606ZM422.711 35.686V33.936H374.495V35.686V37.436H422.711V35.686ZM374.495 35.686L372.756 35.8793C373.235 40.1902 374.678 44.1067 377.087 47.5995L378.527 46.606L379.968 45.6125C377.897 42.6094 376.652 39.2458 376.235 35.4928L374.495 35.686ZM378.527 46.606L377.087 47.5995C379.482 51.0729 382.544 53.8338 386.254 55.8684L387.095 54.334L387.937 52.7996C384.703 51.0262 382.053 48.6351 379.968 45.6125L378.527 46.606ZM387.095 54.334L386.273 55.8788C390.012 57.8688 394.105 58.856 398.519 58.856V57.106V55.356C394.646 55.356 391.123 54.4952 387.918 52.7892L387.095 54.334ZM433.904 61.558L432.625 62.7521C432.653 62.7815 432.681 62.8099 432.71 62.8374L433.904 61.558ZM433.904 55.762L435.142 56.9995V56.9995L433.904 55.762ZM439.7 55.762L438.421 56.9561C438.449 56.9855 438.477 57.0139 438.506 57.0414L439.7 55.762ZM439.7 61.558L438.463 60.3206V60.3206L439.7 61.558ZM436.844 62.734V60.984C436.18 60.984 435.624 60.7689 435.098 60.2787L433.904 61.558L432.71 62.8374C433.865 63.9151 435.269 64.484 436.844 64.484V62.734ZM433.904 61.558L435.184 60.364C434.694 59.8387 434.478 59.2822 434.478 58.618H432.728H430.978C430.978 60.1938 431.547 61.5973 432.625 62.7521L433.904 61.558ZM432.728 58.618H434.478C434.478 57.9568 434.69 57.4515 435.142 56.9995L433.904 55.762L432.667 54.5246C431.551 55.6405 430.978 57.0392 430.978 58.618H432.728ZM433.904 55.762L435.142 56.9995C435.676 56.4655 436.219 56.252 436.844 56.252V54.502V52.752C435.23 52.752 433.813 53.3785 432.667 54.5246L433.904 55.762ZM436.844 54.502V56.252C437.465 56.252 437.958 56.4603 438.421 56.9561L439.7 55.762L440.98 54.568C439.875 53.3837 438.464 52.752 436.844 52.752V54.502ZM439.7 55.762L438.506 57.0414C439.002 57.5041 439.21 57.9971 439.21 58.618H440.96H442.71C442.71 56.9989 442.079 55.5879 440.894 54.4827L439.7 55.762ZM440.96 58.618H439.21C439.21 59.2435 438.997 59.7867 438.463 60.3206L439.7 61.558L440.938 62.7954C442.084 61.6494 442.71 60.2325 442.71 58.618H440.96ZM439.7 61.558L438.463 60.3206C438.011 60.7727 437.506 60.984 436.844 60.984V62.734V64.484C438.423 64.484 439.822 63.9114 440.938 62.7954L439.7 61.558ZM448.692 39.214V37.464C447.725 37.464 446.942 38.2475 446.942 39.214H448.692ZM465.828 39.214V40.964C466.794 40.964 467.578 40.1805 467.578 39.214H465.828ZM465.828 35.266H467.578C467.578 34.2995 466.794 33.516 465.828 33.516V35.266ZM455.748 33.166L454.842 34.6635C454.856 34.6717 454.869 34.6797 454.883 34.6876L455.748 33.166ZM449.952 27.37L448.43 28.2345C448.438 28.2483 448.446 28.2619 448.454 28.2755L449.952 27.37ZM449.952 10.57L448.445 9.67971L448.439 9.69042L449.952 10.57ZM455.748 4.77401L456.627 6.28693L456.638 6.28063L455.748 4.77401ZM487.836 2.59001H489.586C489.586 1.62351 488.802 0.840012 487.836 0.840012V2.59001ZM487.836 25.438V27.188C488.802 27.188 489.586 26.4045 489.586 25.438H487.836ZM472.548 25.438V23.688C471.581 23.688 470.798 24.4715 470.798 25.438H472.548ZM472.548 29.386H470.798C470.798 30.3525 471.581 31.136 472.548 31.136V29.386ZM482.712 31.57L481.821 33.0766C481.83 33.0817 481.839 33.0867 481.847 33.0916L482.712 31.57ZM488.508 37.366L486.986 38.2305C486.994 38.2443 487.002 38.2579 487.01 38.2715L488.508 37.366ZM488.508 54.166L487.001 53.2757L486.995 53.2864L488.508 54.166ZM482.712 59.962L483.576 61.4836C483.585 61.4787 483.593 61.4737 483.602 61.4686L482.712 59.962ZM448.692 62.062H446.942C446.942 63.0285 447.725 63.812 448.692 63.812V62.062ZM465.828 29.134V30.884C466.794 30.884 467.578 30.1005 467.578 29.134H465.828ZM465.828 8.80601H467.578C467.578 7.83951 466.794 7.05601 465.828 7.05601V8.80601ZM456.924 11.662L455.686 10.4246V10.4246L456.924 11.662ZM456.924 26.278L455.668 27.4974C455.674 27.5034 455.68 27.5095 455.686 27.5154L456.924 26.278ZM481.62 19.222V20.972C482.586 20.972 483.37 20.1885 483.37 19.222H481.62ZM481.62 8.80601H483.37C483.37 7.83951 482.586 7.05601 481.62 7.05601V8.80601ZM472.548 8.80601V7.05601C471.581 7.05601 470.798 7.83951 470.798 8.80601H472.548ZM472.548 19.222H470.798C470.798 20.1885 471.581 20.972 472.548 20.972V19.222ZM472.548 35.602V33.852C471.581 33.852 470.798 34.6355 470.798 35.602H472.548ZM472.548 55.846H470.798C470.798 56.8125 471.581 57.596 472.548 57.596V55.846ZM465.828 55.846V57.596C466.794 57.596 467.578 56.8125 467.578 55.846H465.828ZM465.828 45.43H467.578C467.578 44.4635 466.794 43.68 465.828 43.68V45.43ZM454.908 45.43V43.68C453.941 43.68 453.158 44.4635 453.158 45.43H454.908ZM454.908 55.846H453.158C453.158 56.8125 453.941 57.596 454.908 57.596V55.846ZM448.692 39.214V40.964H465.828V39.214V37.464H448.692V39.214ZM465.828 39.214H467.578V35.266H465.828H464.078V39.214H465.828ZM465.828 35.266V33.516H463.812V35.266V37.016H465.828V35.266ZM463.812 35.266V33.516C461.194 33.516 458.805 32.8905 456.612 31.6445L455.748 33.166L454.883 34.6876C457.618 36.2415 460.605 37.016 463.812 37.016V35.266ZM455.748 33.166L456.653 31.6685C454.488 30.359 452.759 28.6302 451.449 26.4645L449.952 27.37L448.454 28.2755C450.057 30.9258 452.192 33.061 454.842 34.6635L455.748 33.166ZM449.952 27.37L451.473 26.5055C450.227 24.3125 449.602 21.9236 449.602 19.306H447.852H446.102C446.102 22.5124 446.876 25.4995 448.43 28.2345L449.952 27.37ZM447.852 19.306H449.602V18.55H447.852H446.102V19.306H447.852ZM447.852 18.55H449.602C449.602 15.9324 450.227 13.5781 451.465 11.4496L449.952 10.57L448.439 9.69042C446.876 12.3779 446.102 15.3437 446.102 18.55H447.852ZM449.952 10.57L451.458 11.4603C452.766 9.24664 454.485 7.53215 456.627 6.2869L455.748 4.77401L454.868 3.26112C452.194 4.81587 450.049 6.96538 448.445 9.67973L449.952 10.57ZM455.748 4.77401L456.638 6.28063C458.827 4.98686 461.207 4.34001 463.812 4.34001V2.59001V0.840012C460.592 0.840012 457.596 1.64916 454.857 3.26739L455.748 4.77401ZM463.812 2.59001V4.34001H487.836V2.59001V0.840012H463.812V2.59001ZM487.836 2.59001H486.086V25.438H487.836H489.586V2.59001H487.836ZM487.836 25.438V23.688H472.548V25.438V27.188H487.836V25.438ZM472.548 25.438H470.798V29.386H472.548H474.298V25.438H472.548ZM472.548 29.386V31.136H474.648V29.386V27.636H472.548V29.386ZM474.648 29.386V31.136C477.252 31.136 479.632 31.7829 481.821 33.0766L482.712 31.57L483.602 30.0634C480.863 28.4452 477.867 27.636 474.648 27.636V29.386ZM482.712 31.57L481.847 33.0916C484.037 34.3358 485.742 36.0407 486.986 38.2305L488.508 37.366L490.029 36.5015C488.473 33.7633 486.314 31.6043 483.576 30.0485L482.712 31.57ZM488.508 37.366L487.01 38.2715C488.295 40.3965 488.942 42.7416 488.942 45.346H490.692H492.442C492.442 42.1265 491.632 39.1515 490.005 36.4605L488.508 37.366ZM490.692 45.346H488.942V46.102H490.692H492.442V45.346H490.692ZM490.692 46.102H488.942C488.942 48.7066 488.295 51.0863 487.001 53.2757L488.508 54.166L490.014 55.0563C491.633 52.3177 492.442 49.3215 492.442 46.102H490.692ZM488.508 54.166L486.995 53.2864C485.75 55.4283 484.035 57.1473 481.821 58.4554L482.712 59.962L483.602 61.4686C486.316 59.8647 488.466 57.7198 490.021 55.0456L488.508 54.166ZM482.712 59.962L481.847 58.4405C479.654 59.6865 477.265 60.312 474.648 60.312V62.062V63.812C477.854 63.812 480.841 63.0375 483.576 61.4836L482.712 59.962ZM474.648 62.062V60.312H448.692V62.062V63.812H474.648V62.062ZM448.692 62.062H450.442V39.214H448.692H446.942V62.062H448.692ZM465.828 29.134H467.578V8.80601H465.828H464.078V29.134H465.828ZM465.828 8.80601V7.05601H463.812V8.80601V10.556H465.828V8.80601ZM463.812 8.80601V7.05601C460.659 7.05601 457.918 8.19303 455.686 10.4246L456.924 11.662L458.161 12.8994C459.738 11.323 461.589 10.556 463.812 10.556V8.80601ZM456.924 11.662L455.686 10.4246C453.455 12.6561 452.318 15.397 452.318 18.55H454.068H455.818C455.818 16.327 456.585 14.4759 458.161 12.8994L456.924 11.662ZM454.068 18.55H452.318V19.306H454.068H455.818V18.55H454.068ZM454.068 19.306H452.318C452.318 22.4577 453.453 25.2168 455.668 27.4974L456.924 26.278L458.179 25.0586C456.586 23.4192 455.818 21.5303 455.818 19.306H454.068ZM456.924 26.278L455.686 27.5154C457.918 29.747 460.659 30.884 463.812 30.884V29.134V27.384C461.589 27.384 459.738 26.617 458.161 25.0406L456.924 26.278ZM463.812 29.134V30.884H465.828V29.134V27.384H463.812V29.134ZM481.62 19.222H483.37V8.80601H481.62H479.87V19.222H481.62ZM481.62 8.80601V7.05601H472.548V8.80601V10.556H481.62V8.80601ZM472.548 8.80601H470.798V19.222H472.548H474.298V8.80601H472.548ZM472.548 19.222V20.972H481.62V19.222V17.472H472.548V19.222ZM474.648 55.846V57.596C477.846 57.596 480.618 56.4666 482.857 54.2274L481.62 52.99L480.382 51.7526C478.813 53.3214 476.938 54.096 474.648 54.096V55.846ZM481.62 52.99L482.857 54.2274C485.089 51.9959 486.226 49.255 486.226 46.102H484.476H482.726C482.726 48.325 481.959 50.1761 480.382 51.7526L481.62 52.99ZM484.476 46.102H486.226V45.346H484.476H482.726V46.102H484.476ZM484.476 45.346H486.226C486.226 42.193 485.089 39.4521 482.857 37.2206L481.62 38.458L480.382 39.6954C481.959 41.2719 482.726 43.123 482.726 45.346H484.476ZM481.62 38.458L482.857 37.2206C480.618 34.9814 477.846 33.852 474.648 33.852V35.602V37.352C476.938 37.352 478.813 38.1266 480.382 39.6954L481.62 38.458ZM474.648 35.602V33.852H472.548V35.602V37.352H474.648V35.602ZM472.548 35.602H470.798V55.846H472.548H474.298V35.602H472.548ZM472.548 55.846V57.596H474.648V55.846V54.096H472.548V55.846ZM465.828 55.846H467.578V45.43H465.828H464.078V55.846H465.828ZM465.828 45.43V43.68H454.908V45.43V47.18H465.828V45.43ZM454.908 45.43H453.158V55.846H454.908H456.658V45.43H454.908ZM454.908 55.846V57.596H465.828V55.846V54.096H454.908V55.846ZM497.889 61.558L496.609 62.7521C496.637 62.7815 496.665 62.8099 496.695 62.8374L497.889 61.558ZM497.889 55.762L499.126 56.9995V56.9995L497.889 55.762ZM503.685 55.762L502.405 56.9561C502.433 56.9855 502.461 57.0139 502.491 57.0414L503.685 55.762ZM503.685 61.558L502.447 60.3206V60.3206L503.685 61.558ZM500.829 62.734V60.984C500.165 60.984 499.608 60.7689 499.083 60.2787L497.889 61.558L496.695 62.8374C497.849 63.9151 499.253 64.484 500.829 64.484V62.734ZM497.889 61.558L499.168 60.364C498.678 59.8387 498.463 59.2822 498.463 58.618H496.713H494.963C494.963 60.1938 495.532 61.5973 496.609 62.7521L497.889 61.558ZM496.713 58.618H498.463C498.463 57.9568 498.674 57.4515 499.126 56.9995L497.889 55.762L496.651 54.5246C495.535 55.6405 494.963 57.0392 494.963 58.618H496.713ZM497.889 55.762L499.126 56.9995C499.66 56.4655 500.203 56.252 500.829 56.252V54.502V52.752C499.214 52.752 497.797 53.3785 496.651 54.5246L497.889 55.762ZM500.829 54.502V56.252C501.45 56.252 501.943 56.4603 502.405 56.9561L503.685 55.762L504.964 54.568C503.859 53.3837 502.448 52.752 500.829 52.752V54.502ZM503.685 55.762L502.491 57.0414C502.987 57.5041 503.195 57.9971 503.195 58.618H504.945H506.695C506.695 56.9989 506.063 55.5879 504.879 54.4827L503.685 55.762ZM504.945 58.618H503.195C503.195 59.2435 502.981 59.7867 502.447 60.3206L503.685 61.558L504.922 62.7954C506.068 61.6494 506.695 60.2325 506.695 58.618H504.945ZM503.685 61.558L502.447 60.3206C501.995 60.7727 501.49 60.984 500.829 60.984V62.734V64.484C502.408 64.484 503.806 63.9114 504.922 62.7954L503.685 61.558Z" fill="#663333" style="mix-blend-mode:overlay"/>
<path d="M39.97 32.578L38.5361 31.5748C38.1236 32.1645 38.1141 32.9466 38.5122 33.5461L39.97 32.578ZM54.418 54.334L55.6555 55.5714C56.2445 54.9824 56.3367 54.0598 55.8758 53.3659L54.418 54.334ZM44.59 60.97L45.2648 62.5847C45.2716 62.5818 45.2784 62.579 45.2852 62.576L44.59 60.97ZM17.206 59.29L16.332 60.8061C16.3365 60.8087 16.341 60.8113 16.3455 60.8138L17.206 59.29ZM5.86601 48.118L4.3544 48.9998C4.357 49.0042 4.35962 49.0087 4.36225 49.0131L5.86601 48.118ZM5.86601 17.038L4.367 16.135C4.36432 16.1394 4.36167 16.1439 4.35903 16.1483L5.86601 17.038ZM17.206 6.03401L16.3455 4.51019H16.3455L17.206 6.03401ZM44.842 4.52201L44.1356 6.12311C44.1451 6.12726 44.1545 6.13132 44.164 6.13531L44.842 4.52201ZM54.838 11.326L56.2719 12.3292C56.7512 11.6441 56.679 10.7157 56.0995 10.1131L54.838 11.326ZM12.838 18.55L11.4055 17.5448C11.4016 17.5504 11.3976 17.5561 11.3937 17.5618L12.838 18.55ZM8.89001 29.386L7.15072 29.1928C7.09575 29.6875 7.25406 30.1822 7.58604 30.5531C7.91802 30.924 8.39224 31.136 8.89001 31.136V29.386ZM34.678 29.386V31.136C35.2472 31.136 35.7809 30.8592 36.1087 30.3938L34.678 29.386ZM46.69 12.334L48.1207 13.3418C48.3984 12.9475 48.5012 12.4561 48.4046 11.9836C48.308 11.511 48.0207 11.0993 47.6105 10.8456L46.69 12.334ZM34.51 35.602L35.9618 34.6249C35.6366 34.1417 35.0924 33.852 34.51 33.852V35.602ZM8.89001 35.602V33.852C8.39314 33.852 7.9197 34.0632 7.58777 34.433C7.25585 34.8027 7.09675 35.2961 7.15015 35.7901L8.89001 35.602ZM12.838 46.69L11.3858 47.6665C11.3923 47.6762 11.3989 47.6857 11.4055 47.6953L12.838 46.69ZM21.406 54.25L20.5838 55.7948C20.5903 55.7983 20.5968 55.8017 20.6034 55.8051L21.406 54.25ZM46.27 53.074L47.203 54.5546C47.6034 54.3023 47.8845 53.8985 47.9823 53.4355C48.08 52.9724 47.9861 52.4895 47.7218 52.0969L46.27 53.074ZM39.97 32.578L38.5122 33.5461L52.9602 55.3021L54.418 54.334L55.8758 53.3659L41.4278 31.6099L39.97 32.578ZM54.418 54.334L53.1806 53.0966C50.5416 55.7356 47.4512 57.8247 43.8949 59.364L44.59 60.97L45.2852 62.576C49.2328 60.8673 52.6945 58.5325 55.6555 55.5714L54.418 54.334ZM44.59 60.97L43.9152 59.3553C40.3781 60.8335 36.6876 61.572 32.83 61.572V63.322V65.072C37.1484 65.072 41.2979 64.2425 45.2648 62.5847L44.59 60.97ZM32.83 63.322V61.572C27.4647 61.572 22.5546 60.3007 18.0665 57.7662L17.206 59.29L16.3455 60.8138C21.3774 63.6554 26.8834 65.072 32.83 65.072V63.322ZM17.206 59.29L18.08 57.7739C13.5787 55.179 10.0159 51.6684 7.36978 47.2229L5.86601 48.118L4.36225 49.0131C7.31612 53.9756 11.3134 57.913 16.332 60.8061L17.206 59.29ZM5.86601 48.118L7.37763 47.2362C4.79751 42.8132 3.50001 37.9119 3.50001 32.494H1.75001H1.49012e-05C1.49012e-05 38.5001 1.44652 44.0148 4.3544 48.9998L5.86601 48.118ZM1.75001 32.494H3.50001C3.50001 27.1353 4.79586 22.293 7.373 17.9277L5.86601 17.038L4.35903 16.1483C1.44817 21.079 1.49012e-05 26.5407 1.49012e-05 32.494H1.75001ZM5.86601 17.038L7.36503 17.941C10.0081 13.5536 13.5673 10.0986 18.0665 7.55783L17.206 6.03401L16.3455 4.51019C11.3247 7.34544 7.32395 11.2264 4.367 16.135L5.86601 17.038ZM17.206 6.03401L18.0665 7.55783C22.5546 5.02336 27.4647 3.75201 32.83 3.75201V2.00201V0.25201C26.8834 0.25201 21.3774 1.66866 16.3455 4.51019L17.206 6.03401ZM32.83 2.00201V3.75201C36.7891 3.75201 40.5523 4.54221 44.1356 6.12311L44.842 4.52201L45.5484 2.9209C41.5158 1.1418 37.271 0.25201 32.83 0.25201V2.00201ZM44.842 4.52201L44.164 6.13531C47.8167 7.67052 50.948 9.80521 53.5766 12.5389L54.838 11.326L56.0995 10.1131C53.1281 7.02281 49.5953 4.6215 45.5201 2.90871L44.842 4.52201ZM54.838 11.326L53.4041 10.3228L38.5361 31.5748L39.97 32.578L41.4039 33.5812L56.2719 12.3292L54.838 11.326ZM32.83 8.38601V6.63601C28.4242 6.63601 24.3386 7.59109 20.6034 9.51892L21.406 11.074L22.2086 12.6291C25.4175 10.9729 28.9479 10.136 32.83 10.136V8.38601ZM21.406 11.074L20.6034 9.51892C16.8806 11.4404 13.8083 14.1208 11.4055 17.5448L12.838 18.55L14.2705 19.5553C16.3477 16.5952 18.9874 14.2917 22.2086 12.6291L21.406 11.074ZM12.838 18.55L11.3937 17.5618C9.03971 21.0023 7.6288 24.89 7.15072 29.1928L8.89001 29.386L10.6293 29.5793C11.0472 25.818 12.2683 22.4817 14.2823 19.5382L12.838 18.55ZM8.89001 29.386V31.136H34.678V29.386V27.636H8.89001V29.386ZM34.678 29.386L36.1087 30.3938L48.1207 13.3418L46.69 12.334L45.2593 11.3262L33.2473 28.3782L34.678 29.386ZM46.69 12.334L47.6105 10.8456C43.0791 8.04333 38.1406 6.63601 32.83 6.63601V8.38601V10.136C37.4875 10.136 41.7889 11.3607 45.7696 13.8224L46.69 12.334ZM34.51 35.602V33.852H8.89001V35.602V37.352H34.51V35.602ZM8.89001 35.602L7.15015 35.7901C7.62663 40.1975 9.03313 44.1677 11.3858 47.6665L12.838 46.69L14.2902 45.7135C12.2749 42.7163 11.0494 39.2945 10.6299 35.4139L8.89001 35.602ZM12.838 46.69L11.4055 47.6953C13.8051 51.1146 16.8709 53.8186 20.5838 55.7948L21.406 54.25L22.2283 52.7052C18.9971 50.9854 16.3509 48.6494 14.2705 45.6848L12.838 46.69ZM21.406 54.25L20.6034 55.8051C24.3386 57.7329 28.4242 58.688 32.83 58.688V56.938V55.188C28.9479 55.188 25.4175 54.3511 22.2086 52.6949L21.406 54.25ZM32.83 56.938V58.688C38.0293 58.688 42.8332 57.3081 47.203 54.5546L46.27 53.074L45.3371 51.5934C41.5308 53.9919 37.3747 55.188 32.83 55.188V56.938ZM46.27 53.074L47.7218 52.0969L35.9618 34.6249L34.51 35.602L33.0582 36.5792L44.8182 54.0512L46.27 53.074ZM60.4161 61.558L59.1368 62.7521C59.1642 62.7815 59.1927 62.8099 59.2221 62.8374L60.4161 61.558ZM60.4161 55.762L61.6536 56.9995V56.9995L60.4161 55.762ZM66.2121 55.762L64.9328 56.9561C64.9602 56.9855 64.9887 57.0139 65.0181 57.0414L66.2121 55.762ZM66.2121 61.558L64.9747 60.3206V60.3206L66.2121 61.558ZM63.3561 62.734V60.984C62.692 60.984 62.1355 60.7689 61.6102 60.2787L60.4161 61.558L59.2221 62.8374C60.3768 63.9151 61.7803 64.484 63.3561 64.484V62.734ZM60.4161 61.558L61.6955 60.364C61.2052 59.8387 60.9901 59.2822 60.9901 58.618H59.2401H57.4901C57.4901 60.1938 58.059 61.5973 59.1368 62.7521L60.4161 61.558ZM59.2401 58.618H60.9901C60.9901 57.9568 61.2015 57.4515 61.6536 56.9995L60.4161 55.762L59.1787 54.5246C58.0628 55.6405 57.4901 57.0392 57.4901 58.618H59.2401ZM60.4161 55.762L61.6536 56.9995C62.1875 56.4655 62.7306 56.252 63.3561 56.252V54.502V52.752C61.7417 52.752 60.3248 53.3785 59.1787 54.5246L60.4161 55.762ZM63.3561 54.502V56.252C63.977 56.252 64.4701 56.4603 64.9328 56.9561L66.2121 55.762L67.4915 54.568C66.3862 53.3837 64.9753 52.752 63.3561 52.752V54.502ZM66.2121 55.762L65.0181 57.0414C65.5139 57.5041 65.7221 57.9971 65.7221 58.618H67.4721H69.2221C69.2221 56.9989 68.5904 55.5879 67.4062 54.4827L66.2121 55.762ZM67.4721 58.618H65.7221C65.7221 59.2435 65.5086 59.7867 64.9747 60.3206L66.2121 61.558L67.4496 62.7954C68.5957 61.6494 69.2221 60.2325 69.2221 58.618H67.4721ZM66.2121 61.558L64.9747 60.3206C64.5226 60.7727 64.0173 60.984 63.3561 60.984V62.734V64.484C64.935 64.484 66.3337 63.9114 67.4496 62.7954L66.2121 61.558ZM77.7234 2.92601V1.17601C76.7569 1.17601 75.9734 1.95951 75.9734 2.92601H77.7234ZM122.831 2.92601H124.581C124.581 1.95951 123.798 1.17601 122.831 1.17601V2.92601ZM122.831 62.062V63.812C123.798 63.812 124.581 63.0285 124.581 62.062H122.831ZM77.7234 62.062H75.9734C75.9734 63.0285 76.7569 63.812 77.7234 63.812V62.062ZM116.363 29.386V31.136C117.33 31.136 118.113 30.3525 118.113 29.386H116.363ZM116.363 9.14201H118.113C118.113 8.17551 117.33 7.39201 116.363 7.39201V9.14201ZM84.3594 9.14201V7.39201C83.3929 7.39201 82.6094 8.17551 82.6094 9.14201H84.3594ZM84.3594 29.386H82.6094C82.6094 30.3525 83.3929 31.136 84.3594 31.136V29.386ZM116.363 55.846V57.596C117.33 57.596 118.113 56.8125 118.113 55.846H116.363ZM116.363 35.602H118.113C118.113 34.6355 117.33 33.852 116.363 33.852V35.602ZM84.3594 35.602V33.852C83.3929 33.852 82.6094 34.6355 82.6094 35.602H84.3594ZM84.3594 55.846H82.6094C82.6094 56.8125 83.3929 57.596 84.3594 57.596V55.846ZM77.7234 2.92601V4.67601H122.831V2.92601V1.17601H77.7234V2.92601ZM122.831 2.92601H121.081V62.062H122.831H124.581V2.92601H122.831ZM122.831 62.062V60.312H77.7234V62.062V63.812H122.831V62.062ZM77.7234 62.062H79.4734V2.92601H77.7234H75.9734V62.062H77.7234ZM116.363 29.386H118.113V9.14201H116.363H114.613V29.386H116.363ZM116.363 9.14201V7.39201H84.3594V9.14201V10.892H116.363V9.14201ZM84.3594 9.14201H82.6094V29.386H84.3594H86.1094V9.14201H84.3594ZM84.3594 29.386V31.136H116.363V29.386V27.636H84.3594V29.386ZM116.363 55.846H118.113V35.602H116.363H114.613V55.846H116.363ZM116.363 35.602V33.852H84.3594V35.602V37.352H116.363V35.602ZM84.3594 35.602H82.6094V55.846H84.3594H86.1094V35.602H84.3594ZM84.3594 55.846V57.596H116.363V55.846V54.096H84.3594V55.846ZM134.162 61.558L132.883 62.7521C132.91 62.7815 132.939 62.8099 132.968 62.8374L134.162 61.558ZM134.162 55.762L135.4 56.9995V56.9995L134.162 55.762ZM139.958 55.762L138.679 56.9561C138.706 56.9855 138.735 57.0139 138.764 57.0414L139.958 55.762ZM139.958 61.558L138.721 60.3206V60.3206L139.958 61.558ZM137.102 62.734V60.984C136.438 60.984 135.882 60.7689 135.356 60.2787L134.162 61.558L132.968 62.8374C134.123 63.9151 135.526 64.484 137.102 64.484V62.734ZM134.162 61.558L135.442 60.364C134.951 59.8387 134.736 59.2822 134.736 58.618H132.986H131.236C131.236 60.1938 131.805 61.5973 132.883 62.7521L134.162 61.558ZM132.986 58.618H134.736C134.736 57.9568 134.948 57.4515 135.4 56.9995L134.162 55.762L132.925 54.5246C131.809 55.6405 131.236 57.0392 131.236 58.618H132.986ZM134.162 55.762L135.4 56.9995C135.934 56.4655 136.477 56.252 137.102 56.252V54.502V52.752C135.488 52.752 134.071 53.3785 132.925 54.5246L134.162 55.762ZM137.102 54.502V56.252C137.723 56.252 138.216 56.4603 138.679 56.9561L139.958 55.762L141.238 54.568C140.132 53.3837 138.721 52.752 137.102 52.752V54.502ZM139.958 55.762L138.764 57.0414C139.26 57.5041 139.468 57.9971 139.468 58.618H141.218H142.968C142.968 56.9989 142.337 55.5879 141.152 54.4827L139.958 55.762ZM141.218 58.618H139.468C139.468 59.2435 139.255 59.7867 138.721 60.3206L139.958 61.558L141.196 62.7954C142.342 61.6494 142.968 60.2325 142.968 58.618H141.218ZM139.958 61.558L138.721 60.3206C138.269 60.7727 137.763 60.984 137.102 60.984V62.734V64.484C138.681 64.484 140.08 63.9114 141.196 62.7954L139.958 61.558ZM151.47 2.67401V0.924011C150.503 0.924011 149.72 1.70751 149.72 2.67401H151.47ZM188.43 5.44601L187.541 6.9537C187.552 6.95991 187.562 6.966 187.573 6.97198L188.43 5.44601ZM194.646 35.434L196.027 36.5084L196.035 36.4979L194.646 35.434ZM184.146 42.49L183.679 40.8032C183.135 40.9537 182.697 41.3576 182.502 41.888C182.308 42.4183 182.382 43.0099 182.7 43.4764L184.146 42.49ZM197.502 62.062V63.812C198.15 63.812 198.746 63.4531 199.049 62.8794C199.352 62.3057 199.313 61.6115 198.947 61.0756L197.502 62.062ZM151.47 62.062H149.72C149.72 63.0285 150.503 63.812 151.47 63.812V62.062ZM185.07 35.77L184.181 34.2626C184.175 34.266 184.169 34.2694 184.163 34.2729L185.07 35.77ZM190.194 30.562L188.686 29.673C188.68 29.6827 188.675 29.6924 188.669 29.7022L190.194 30.562ZM190.194 15.946L188.66 16.7894C188.669 16.8047 188.677 16.8199 188.686 16.835L190.194 15.946ZM185.07 10.654L184.163 12.1511C184.169 12.1546 184.175 12.158 184.181 12.1614L185.07 10.654ZM175.746 8.72201V6.97201C174.779 6.97201 173.996 7.75551 173.996 8.72201H175.746ZM175.746 37.702H173.996C173.996 38.6685 174.779 39.452 175.746 39.452V37.702ZM169.614 55.846V57.596C170.58 57.596 171.364 56.8125 171.364 55.846H169.614ZM169.614 8.80601H171.364C171.364 7.83951 170.58 7.05601 169.614 7.05601V8.80601ZM157.686 8.80601V7.05601C156.719 7.05601 155.936 7.83951 155.936 8.80601H157.686ZM157.686 55.846H155.936C155.936 56.8125 156.719 57.596 157.686 57.596V55.846ZM185.49 55.846V57.596C186.139 57.596 186.736 57.2358 187.038 56.6605C187.341 56.0852 187.3 55.3896 186.931 54.8541L185.49 55.846ZM177.342 44.002L178.783 43.0102C178.457 42.5355 177.918 42.252 177.342 42.252V44.002ZM175.746 44.002V42.252C174.779 42.252 173.996 43.0355 173.996 44.002H175.746ZM175.746 55.846H173.996C173.996 56.8125 174.779 57.596 175.746 57.596V55.846ZM151.47 2.67401V4.42401H178.014V2.67401V0.924011H151.47V2.67401ZM178.014 2.67401V4.42401C181.524 4.42401 184.687 5.27181 187.541 6.9537L188.43 5.44601L189.318 3.93832C185.9 1.92421 182.119 0.924011 178.014 0.924011V2.67401ZM188.43 5.44601L187.573 6.97198C190.497 8.61359 192.792 10.8583 194.482 13.7265L195.99 12.838L197.497 11.9495C195.491 8.5457 192.746 5.86243 189.286 3.92004L188.43 5.44601ZM195.99 12.838L194.482 13.7265C196.164 16.5806 197.012 19.7434 197.012 23.254H198.762H200.512C200.512 19.1486 199.511 15.3674 197.497 11.9495L195.99 12.838ZM198.762 23.254H197.012C197.012 27.4075 195.765 31.0932 193.256 34.3702L194.646 35.434L196.035 36.4979C199.014 32.6069 200.512 28.1726 200.512 23.254H198.762ZM194.646 35.434L193.264 34.3596C190.748 37.5942 187.568 39.7289 183.679 40.8032L184.146 42.49L184.612 44.1768C189.235 42.8992 193.055 40.3298 196.027 36.5084L194.646 35.434ZM184.146 42.49L182.7 43.4764L196.056 63.0484L197.502 62.062L198.947 61.0756L185.591 41.5036L184.146 42.49ZM197.502 62.062V60.312H151.47V62.062V63.812H197.502V62.062ZM151.47 62.062H153.22V2.67401H151.47H149.72V62.062H151.47ZM178.014 37.702V39.452C180.897 39.452 183.564 38.7266 185.976 37.2671L185.07 35.77L184.163 34.2729C182.319 35.3894 180.282 35.952 178.014 35.952V37.702ZM185.07 35.77L185.958 37.2774C188.404 35.835 190.333 33.8769 191.718 31.4218L190.194 30.562L188.669 29.7022C187.59 31.6151 186.103 33.1291 184.181 34.2626L185.07 35.77ZM190.194 30.562L191.701 31.451C193.157 28.9813 193.876 26.2351 193.876 23.254H192.126H190.376C190.376 25.6489 189.806 27.7747 188.686 29.673L190.194 30.562ZM192.126 23.254H193.876C193.876 20.2729 193.157 17.5267 191.701 15.057L190.194 15.946L188.686 16.835C189.806 18.7333 190.376 20.8591 190.376 23.254H192.126ZM190.194 15.946L191.727 15.1027C190.345 12.5899 188.415 10.5955 185.958 9.14662L185.07 10.654L184.181 12.1614C186.092 13.2885 187.578 14.8221 188.66 16.7894L190.194 15.946ZM185.07 10.654L185.976 9.15688C183.564 7.69739 180.897 6.97201 178.014 6.97201V8.72201V10.472C180.282 10.472 182.319 11.0346 184.163 12.1511L185.07 10.654ZM178.014 8.72201V6.97201H175.746V8.72201V10.472H178.014V8.72201ZM175.746 8.72201H173.996V37.702H175.746H177.496V8.72201H175.746ZM175.746 37.702V39.452H178.014V37.702V35.952H175.746V37.702ZM169.614 55.846H171.364V8.80601H169.614H167.864V55.846H169.614ZM169.614 8.80601V7.05601H157.686V8.80601V10.556H169.614V8.80601ZM157.686 8.80601H155.936V55.846H157.686H159.436V8.80601H157.686ZM157.686 55.846V57.596H169.614V55.846V54.096H157.686V55.846ZM185.49 55.846L186.931 54.8541L178.783 43.0102L177.342 44.002L175.9 44.9939L184.048 56.8379L185.49 55.846ZM177.342 44.002V42.252H175.746V44.002V45.752H177.342V44.002ZM175.746 44.002H173.996V55.846H175.746H177.496V44.002H175.746ZM175.746 55.846V57.596H185.49V55.846V54.096H175.746V55.846ZM206.268 61.558L204.988 62.7521C205.016 62.7815 205.044 62.8099 205.074 62.8374L206.268 61.558ZM206.268 55.762L207.505 56.9995V56.9995L206.268 55.762ZM212.064 55.762L210.784 56.9561C210.812 56.9855 210.84 57.0139 210.87 57.0414L212.064 55.762ZM212.064 61.558L210.826 60.3206V60.3206L212.064 61.558ZM209.208 62.734V60.984C208.544 60.984 207.987 60.7689 207.462 60.2787L206.268 61.558L205.074 62.8374C206.228 63.9151 207.632 64.484 209.208 64.484V62.734ZM206.268 61.558L207.547 60.364C207.057 59.8387 206.842 59.2822 206.842 58.618H205.092H203.342C203.342 60.1938 203.911 61.5973 204.988 62.7521L206.268 61.558ZM205.092 58.618H206.842C206.842 57.9568 207.053 57.4515 207.505 56.9995L206.268 55.762L205.03 54.5246C203.914 55.6405 203.342 57.0392 203.342 58.618H205.092ZM206.268 55.762L207.505 56.9995C208.039 56.4655 208.582 56.252 209.208 56.252V54.502V52.752C207.593 52.752 206.176 53.3785 205.03 54.5246L206.268 55.762ZM209.208 54.502V56.252C209.829 56.252 210.322 56.4603 210.784 56.9561L212.064 55.762L213.343 54.568C212.238 53.3837 210.827 52.752 209.208 52.752V54.502ZM212.064 55.762L210.87 57.0414C211.365 57.5041 211.574 57.9971 211.574 58.618H213.324H215.074C215.074 56.9989 214.442 55.5879 213.258 54.4827L212.064 55.762ZM213.324 58.618H211.574C211.574 59.2435 211.36 59.7867 210.826 60.3206L212.064 61.558L213.301 62.7954C214.447 61.6494 215.074 60.2325 215.074 58.618H213.324ZM212.064 61.558L210.826 60.3206C210.374 60.7727 209.869 60.984 209.208 60.984V62.734V64.484C210.787 64.484 212.185 63.9114 213.301 62.7954L212.064 61.558ZM232.126 59.29L231.231 60.7938C231.238 60.7979 231.245 60.8021 231.252 60.8061L232.126 59.29ZM220.87 48.034L219.354 48.908C219.358 48.9151 219.362 48.9221 219.366 48.9291L220.87 48.034ZM220.87 17.038L219.366 16.1429C219.364 16.1473 219.361 16.1518 219.358 16.1562L220.87 17.038ZM232.126 5.86601L231.252 4.34987L231.244 4.3544L232.126 5.86601ZM263.038 5.86601L262.156 7.37764L262.164 7.38213L263.038 5.86601ZM274.294 17.038L272.782 17.9198V17.9198L274.294 17.038ZM274.294 48.034L275.806 48.9158L275.81 48.908L274.294 48.034ZM263.038 59.29L263.92 60.8016L263.925 60.7984L263.038 59.29ZM271.774 29.386V31.136C272.276 31.136 272.755 30.92 273.087 30.543C273.419 30.166 273.573 29.6644 273.51 29.1659L271.774 29.386ZM267.658 18.55L266.217 19.5435V19.5435L267.658 18.55ZM259.006 10.906L258.164 12.4404C258.174 12.4458 258.184 12.451 258.194 12.4562L259.006 10.906ZM236.158 10.906L236.98 12.4508C236.987 12.4474 236.993 12.4439 236.999 12.4404L236.158 10.906ZM227.59 18.55L226.149 17.5565C226.145 17.5621 226.142 17.5678 226.138 17.5735L227.59 18.55ZM223.558 29.386L221.822 29.1659C221.759 29.6644 221.913 30.166 222.245 30.543C222.577 30.92 223.055 31.136 223.558 31.136V29.386ZM259.006 54.334L259.828 55.8788L259.837 55.874L259.006 54.334ZM267.658 46.606L266.217 45.6125V45.6125L267.658 46.606ZM271.774 35.686L273.51 35.9031C273.573 35.405 273.418 34.9042 273.086 34.5279C272.754 34.1516 272.276 33.936 271.774 33.936V35.686ZM223.558 35.686V33.936C223.06 33.936 222.586 34.148 222.254 34.5189C221.922 34.8898 221.764 35.3845 221.819 35.8793L223.558 35.686ZM227.59 46.606L229.031 45.6125V45.6125L227.59 46.606ZM236.158 54.334L235.316 55.8684C235.323 55.8719 235.329 55.8754 235.336 55.8788L236.158 54.334ZM247.582 63.406V61.656C242.342 61.656 237.492 60.3632 233 57.7739L232.126 59.29L231.252 60.8061C236.28 63.7048 241.734 65.156 247.582 65.156V63.406ZM232.126 59.29L233.021 57.7862C228.567 55.1353 225.025 51.5925 222.374 47.1389L220.87 48.034L219.366 48.9291C222.315 53.8835 226.276 57.8447 231.231 60.7938L232.126 59.29ZM220.87 48.034L222.386 47.16C219.798 42.6711 218.504 37.7934 218.504 32.494H216.754H215.004C215.004 38.3946 216.454 43.8769 219.354 48.908L220.87 48.034ZM216.754 32.494H218.504C218.504 27.1947 219.798 22.3483 222.382 17.9198L220.87 17.038L219.358 16.1562C216.454 21.1357 215.004 26.5933 215.004 32.494H216.754ZM220.87 17.038L222.374 17.9331C225.023 13.4826 228.561 9.97134 233.008 7.37762L232.126 5.86601L231.244 4.3544C226.283 7.24868 222.317 11.1854 219.366 16.1429L220.87 17.038ZM232.126 5.86601L233 7.38213C237.492 4.7928 242.342 3.50001 247.582 3.50001V1.75001V7.62939e-06C241.734 7.62939e-06 236.28 1.45121 231.252 4.34989L232.126 5.86601ZM247.582 1.75001V3.50001C252.881 3.50001 257.728 4.79431 262.156 7.37762L263.038 5.86601L263.92 4.3544C258.94 1.44971 253.483 7.62939e-06 247.582 7.62939e-06V1.75001ZM263.038 5.86601L262.164 7.38213C266.662 9.97527 270.193 13.4816 272.782 17.9198L274.294 17.038L275.806 16.1562C272.906 11.1864 268.934 7.24475 263.912 4.34989L263.038 5.86601ZM274.294 17.038L272.782 17.9198C275.366 22.3483 276.66 27.1947 276.66 32.494H278.41H280.16C280.16 26.5933 278.71 21.1357 275.806 16.1562L274.294 17.038ZM278.41 32.494H276.66C276.66 37.7934 275.366 42.6711 272.778 47.16L274.294 48.034L275.81 48.908C278.71 43.8769 280.16 38.3946 280.16 32.494H278.41ZM274.294 48.034L272.782 47.1522C270.192 51.5936 266.656 55.1313 262.151 57.7816L263.038 59.29L263.925 60.7984C268.94 57.8487 272.908 53.8825 275.806 48.9158L274.294 48.034ZM263.038 59.29L262.156 57.7784C257.728 60.3617 252.881 61.656 247.582 61.656V63.406V65.156C253.483 65.156 258.94 63.7063 263.92 60.8016L263.038 59.29ZM271.774 29.386L273.51 29.1659C272.971 24.9168 271.5 21.0387 269.099 17.5565L267.658 18.55L266.217 19.5435C268.296 22.5573 269.568 25.9033 270.038 29.6061L271.774 29.386ZM267.658 18.55L269.099 17.5565C266.696 14.0724 263.595 11.3343 259.818 9.3558L259.006 10.906L258.194 12.4562C261.473 14.1737 264.14 16.5317 266.217 19.5435L267.658 18.55ZM259.006 10.906L259.847 9.37159C256.105 7.31948 252.006 6.30001 247.582 6.30001V8.05001V9.80001C251.446 9.80001 254.963 10.6845 258.164 12.4404L259.006 10.906ZM247.582 8.05001V6.30001C243.158 6.30001 239.059 7.31948 235.316 9.37159L236.158 10.906L236.999 12.4404C240.201 10.6845 243.718 9.80001 247.582 9.80001V8.05001ZM236.158 10.906L235.336 9.3612C231.616 11.3412 228.548 14.0786 226.149 17.5565L227.59 18.55L229.031 19.5435C231.112 16.5254 233.756 14.1668 236.98 12.4508L236.158 10.906ZM227.59 18.55L226.138 17.5735C223.798 21.0536 222.359 24.9258 221.822 29.1659L223.558 29.386L225.294 29.6061C225.765 25.8942 227.014 22.5424 229.042 19.5265L227.59 18.55ZM223.558 29.386V31.136H271.774V29.386V27.636H223.558V29.386ZM247.582 57.106V58.856C251.997 58.856 256.089 57.8688 259.828 55.8788L259.006 54.334L258.184 52.7892C254.978 54.4952 251.455 55.356 247.582 55.356V57.106ZM259.006 54.334L259.837 55.874C263.604 53.8408 266.699 51.0791 269.099 47.5995L267.658 46.606L266.217 45.6125C264.137 48.6289 261.463 51.0192 258.175 52.794L259.006 54.334ZM267.658 46.606L269.099 47.5995C271.503 44.1132 272.973 40.2053 273.51 35.9031L271.774 35.686L270.037 35.4689C269.567 39.2308 268.293 42.6029 266.217 45.6125L267.658 46.606ZM271.774 35.686V33.936H223.558V35.686V37.436H271.774V35.686ZM223.558 35.686L221.819 35.8793C222.298 40.1902 223.74 44.1067 226.149 47.5995L227.59 46.606L229.031 45.6125C226.959 42.6094 225.714 39.2458 225.297 35.4928L223.558 35.686ZM227.59 46.606L226.149 47.5995C228.545 51.0729 231.606 53.8338 235.316 55.8684L236.158 54.334L236.999 52.7996C233.766 51.0262 231.115 48.6351 229.031 45.6125L227.59 46.606ZM236.158 54.334L235.336 55.8788C239.074 57.8688 243.167 58.856 247.582 58.856V57.106V55.356C243.709 55.356 240.185 54.4952 236.98 52.7892L236.158 54.334ZM282.967 61.558L281.688 62.7521C281.715 62.7815 281.743 62.8099 281.773 62.8374L282.967 61.558ZM282.967 55.762L284.204 56.9995V56.9995L282.967 55.762ZM288.763 55.762L287.484 56.9561C287.511 56.9855 287.539 57.0139 287.569 57.0414L288.763 55.762ZM288.763 61.558L287.525 60.3206V60.3206L288.763 61.558ZM285.907 62.734V60.984C285.243 60.984 284.686 60.7689 284.161 60.2787L282.967 61.558L281.773 62.8374C282.928 63.9151 284.331 64.484 285.907 64.484V62.734ZM282.967 61.558L284.246 60.364C283.756 59.8387 283.541 59.2822 283.541 58.618H281.791H280.041C280.041 60.1938 280.61 61.5973 281.688 62.7521L282.967 61.558ZM281.791 58.618H283.541C283.541 57.9568 283.752 57.4515 284.204 56.9995L282.967 55.762L281.729 54.5246C280.614 55.6405 280.041 57.0392 280.041 58.618H281.791ZM282.967 55.762L284.204 56.9995C284.738 56.4655 285.281 56.252 285.907 56.252V54.502V52.752C284.292 52.752 282.876 53.3785 281.729 54.5246L282.967 55.762ZM285.907 54.502V56.252C286.528 56.252 287.021 56.4603 287.484 56.9561L288.763 55.762L290.042 54.568C288.937 53.3837 287.526 52.752 285.907 52.752V54.502ZM288.763 55.762L287.569 57.0414C288.065 57.5041 288.273 57.9971 288.273 58.618H290.023H291.773C291.773 56.9989 291.141 55.5879 289.957 54.4827L288.763 55.762ZM290.023 58.618H288.273C288.273 59.2435 288.059 59.7867 287.525 60.3206L288.763 61.558L290 62.7954C291.146 61.6494 291.773 60.2325 291.773 58.618H290.023ZM288.763 61.558L287.525 60.3206C287.073 60.7727 286.568 60.984 285.907 60.984V62.734V64.484C287.486 64.484 288.884 63.9114 290 62.7954L288.763 61.558ZM300.274 2.92601V1.17601C299.308 1.17601 298.524 1.95951 298.524 2.92601H300.274ZM345.886 2.92601H347.636C347.636 1.95951 346.853 1.17601 345.886 1.17601V2.92601ZM345.886 62.062V63.812C346.853 63.812 347.636 63.0285 347.636 62.062H345.886ZM300.274 62.062H298.524C298.524 63.0285 299.308 63.812 300.274 63.812V62.062ZM318.922 55.762V57.512C319.498 57.512 320.036 57.229 320.363 56.7551C320.69 56.2812 320.762 55.6771 320.558 55.1392L318.922 55.762ZM306.574 23.338L308.21 22.7152C307.909 21.9261 307.088 21.4641 306.258 21.6169C305.427 21.7697 304.824 22.4936 304.824 23.338H306.574ZM306.574 55.762H304.824C304.824 56.7285 305.608 57.512 306.574 57.512V55.762ZM338.494 55.762V57.512C339.069 57.512 339.608 57.2295 339.934 56.7562C340.261 56.283 340.334 55.6795 340.131 55.1417L338.494 55.762ZM320.854 9.22601L322.491 8.60572C322.233 7.92574 321.581 7.47601 320.854 7.47601V9.22601ZM308.002 9.22601V7.47601C307.427 7.47601 306.889 7.75854 306.562 8.23178C306.235 8.70502 306.162 9.30857 306.366 9.8463L308.002 9.22601ZM325.642 55.762L324.006 56.3823C324.264 57.0623 324.915 57.512 325.642 57.512V55.762ZM339.586 9.22601H341.336C341.336 8.25951 340.553 7.47601 339.586 7.47601V9.22601ZM327.574 9.22601V7.47601C326.999 7.47601 326.46 7.75914 326.133 8.23321C325.806 8.70728 325.734 9.31165 325.939 9.84955L327.574 9.22601ZM339.586 40.726L337.951 41.3495C338.252 42.1384 339.073 42.6 339.903 42.4471C340.733 42.2941 341.336 41.5702 341.336 40.726H339.586ZM300.274 2.92601V4.67601H345.886V2.92601V1.17601H300.274V2.92601ZM345.886 2.92601H344.136V62.062H345.886H347.636V2.92601H345.886ZM345.886 62.062V60.312H300.274V62.062V63.812H345.886V62.062ZM300.274 62.062H302.024V2.92601H300.274H298.524V62.062H300.274ZM318.922 55.762L320.558 55.1392L308.21 22.7152L306.574 23.338L304.939 23.9608L317.287 56.3848L318.922 55.762ZM306.574 23.338H304.824V55.762H306.574H308.324V23.338H306.574ZM306.574 55.762V57.512H318.922V55.762V54.012H306.574V55.762ZM338.494 55.762L340.131 55.1417L322.491 8.60572L320.854 9.22601L319.218 9.8463L336.858 56.3823L338.494 55.762ZM320.854 9.22601V7.47601H308.002V9.22601V10.976H320.854V9.22601ZM308.002 9.22601L306.366 9.8463L324.006 56.3823L325.642 55.762L327.279 55.1417L309.639 8.60572L308.002 9.22601ZM325.642 55.762V57.512H338.494V55.762V54.012H325.642V55.762ZM339.586 9.22601V7.47601H327.574V9.22601V10.976H339.586V9.22601ZM327.574 9.22601L325.939 9.84955L337.951 41.3495L339.586 40.726L341.221 40.1025L329.209 8.60247L327.574 9.22601ZM339.586 40.726H341.336V9.22601H339.586H337.836V40.726H339.586ZM357.205 61.558L355.926 62.7521C355.953 62.7815 355.982 62.8099 356.011 62.8374L357.205 61.558ZM357.205 55.762L358.443 56.9995V56.9995L357.205 55.762ZM363.001 55.762L361.722 56.9561C361.749 56.9855 361.778 57.0139 361.807 57.0414L363.001 55.762ZM363.001 61.558L361.764 60.3206V60.3206L363.001 61.558ZM360.145 62.734V60.984C359.481 60.984 358.924 60.7689 358.399 60.2787L357.205 61.558L356.011 62.8374C357.166 63.9151 358.569 64.484 360.145 64.484V62.734ZM357.205 61.558L358.485 60.364C357.994 59.8387 357.779 59.2822 357.779 58.618H356.029H354.279C354.279 60.1938 354.848 61.5973 355.926 62.7521L357.205 61.558ZM356.029 58.618H357.779C357.779 57.9568 357.991 57.4515 358.443 56.9995L357.205 55.762L355.968 54.5246C354.852 55.6405 354.279 57.0392 354.279 58.618H356.029ZM357.205 55.762L358.443 56.9995C358.977 56.4655 359.52 56.252 360.145 56.252V54.502V52.752C358.531 52.752 357.114 53.3785 355.968 54.5246L357.205 55.762ZM360.145 54.502V56.252C360.766 56.252 361.259 56.4603 361.722 56.9561L363.001 55.762L364.281 54.568C363.175 53.3837 361.764 52.752 360.145 52.752V54.502ZM363.001 55.762L361.807 57.0414C362.303 57.5041 362.511 57.9971 362.511 58.618H364.261H366.011C366.011 56.9989 365.379 55.5879 364.195 54.4827L363.001 55.762ZM364.261 58.618H362.511C362.511 59.2435 362.298 59.7867 361.764 60.3206L363.001 61.558L364.239 62.7954C365.385 61.6494 366.011 60.2325 366.011 58.618H364.261ZM363.001 61.558L361.764 60.3206C361.312 60.7727 360.806 60.984 360.145 60.984V62.734V64.484C361.724 64.484 363.123 63.9114 364.239 62.7954L363.001 61.558ZM383.063 59.29L382.168 60.7938C382.175 60.7979 382.182 60.8021 382.189 60.8061L383.063 59.29ZM371.807 48.034L370.291 48.908C370.295 48.9151 370.299 48.9221 370.304 48.9291L371.807 48.034ZM371.807 17.038L370.304 16.1429C370.301 16.1473 370.298 16.1518 370.296 16.1562L371.807 17.038ZM383.063 5.86601L382.189 4.34987L382.182 4.3544L383.063 5.86601ZM413.975 5.86601L413.094 7.37764L413.101 7.38213L413.975 5.86601ZM425.231 17.038L423.72 17.9198V17.9198L425.231 17.038ZM425.231 48.034L426.743 48.9158L426.748 48.908L425.231 48.034ZM413.975 59.29L414.857 60.8016L414.863 60.7984L413.975 59.29ZM422.711 29.386V31.136C423.214 31.136 423.692 30.92 424.024 30.543C424.357 30.166 424.511 29.6644 424.448 29.1659L422.711 29.386ZM418.595 18.55L417.155 19.5435V19.5435L418.595 18.55ZM409.943 10.906L409.102 12.4404C409.112 12.4458 409.122 12.451 409.131 12.4562L409.943 10.906ZM387.095 10.906L387.918 12.4508C387.924 12.4474 387.93 12.4439 387.937 12.4404L387.095 10.906ZM378.527 18.55L377.087 17.5565C377.083 17.5621 377.079 17.5678 377.075 17.5735L378.527 18.55ZM374.495 29.386L372.759 29.1659C372.696 29.6644 372.85 30.166 373.182 30.543C373.515 30.92 373.993 31.136 374.495 31.136V29.386ZM409.943 54.334L410.766 55.8788L410.775 55.874L409.943 54.334ZM418.595 46.606L417.155 45.6125V45.6125L418.595 46.606ZM422.711 35.686L424.448 35.9031C424.51 35.405 424.356 34.9042 424.023 34.5279C423.691 34.1516 423.213 33.936 422.711 33.936V35.686ZM374.495 35.686V33.936C373.998 33.936 373.523 34.148 373.191 34.5189C372.859 34.8898 372.701 35.3845 372.756 35.8793L374.495 35.686ZM378.527 46.606L379.968 45.6125V45.6125L378.527 46.606ZM387.095 54.334L386.254 55.8684C386.26 55.8719 386.267 55.8754 386.273 55.8788L387.095 54.334ZM398.519 63.406V61.656C393.279 61.656 388.429 60.3632 383.937 57.7739L383.063 59.29L382.189 60.8061C387.218 63.7048 392.672 65.156 398.519 65.156V63.406ZM383.063 59.29L383.959 57.7862C379.505 55.1353 375.962 51.5925 373.311 47.1389L371.807 48.034L370.304 48.9291C373.253 53.8835 377.214 57.8447 382.168 60.7938L383.063 59.29ZM371.807 48.034L373.324 47.16C370.736 42.6711 369.441 37.7934 369.441 32.494H367.691H365.941C365.941 38.3946 367.391 43.8769 370.291 48.908L371.807 48.034ZM367.691 32.494H369.441C369.441 27.1947 370.736 22.3483 373.319 17.9198L371.807 17.038L370.296 16.1562C367.391 21.1357 365.941 26.5933 365.941 32.494H367.691ZM371.807 17.038L373.311 17.9331C375.96 13.4826 379.499 9.97134 383.945 7.37762L383.063 5.86601L382.182 4.3544C377.22 7.24868 373.255 11.1854 370.304 16.1429L371.807 17.038ZM383.063 5.86601L383.937 7.38213C388.429 4.7928 393.279 3.50001 398.519 3.50001V1.75001V7.62939e-06C392.672 7.62939e-06 387.218 1.45121 382.189 4.34989L383.063 5.86601ZM398.519 1.75001V3.50001C403.819 3.50001 408.665 4.79431 413.094 7.37762L413.975 5.86601L414.857 4.3544C409.878 1.44971 404.42 7.62939e-06 398.519 7.62939e-06V1.75001ZM413.975 5.86601L413.101 7.38213C417.6 9.97527 421.131 13.4816 423.72 17.9198L425.231 17.038L426.743 16.1562C423.844 11.1864 419.871 7.24475 414.849 4.34989L413.975 5.86601ZM425.231 17.038L423.72 17.9198C426.303 22.3483 427.597 27.1947 427.597 32.494H429.347H431.097C431.097 26.5933 429.648 21.1357 426.743 16.1562L425.231 17.038ZM429.347 32.494H427.597C427.597 37.7934 426.303 42.6711 423.715 47.16L425.231 48.034L426.748 48.908C429.648 43.8769 431.097 38.3946 431.097 32.494H429.347ZM425.231 48.034L423.72 47.1522C421.129 51.5936 417.594 55.1313 413.088 57.7816L413.975 59.29L414.863 60.7984C419.877 57.8487 423.846 53.8825 426.743 48.9158L425.231 48.034ZM413.975 59.29L413.094 57.7784C408.665 60.3617 403.819 61.656 398.519 61.656V63.406V65.156C404.42 65.156 409.878 63.7063 414.857 60.8016L413.975 59.29ZM422.711 29.386L424.448 29.1659C423.909 24.9168 422.438 21.0387 420.036 17.5565L418.595 18.55L417.155 19.5435C419.233 22.5573 420.506 25.9033 420.975 29.6061L422.711 29.386ZM418.595 18.55L420.036 17.5565C417.633 14.0724 414.533 11.3343 410.755 9.3558L409.943 10.906L409.131 12.4562C412.41 14.1737 415.078 16.5317 417.155 19.5435L418.595 18.55ZM409.943 10.906L410.785 9.37159C407.043 7.31948 402.943 6.30001 398.519 6.30001V8.05001V9.80001C402.383 9.80001 405.9 10.6845 409.102 12.4404L409.943 10.906ZM398.519 8.05001V6.30001C394.095 6.30001 389.996 7.31948 386.254 9.37159L387.095 10.906L387.937 12.4404C391.139 10.6845 394.655 9.80001 398.519 9.80001V8.05001ZM387.095 10.906L386.273 9.3612C382.553 11.3412 379.485 14.0786 377.087 17.5565L378.527 18.55L379.968 19.5435C382.05 16.5254 384.694 14.1668 387.918 12.4508L387.095 10.906ZM378.527 18.55L377.075 17.5735C374.735 21.0536 373.297 24.9258 372.759 29.1659L374.495 29.386L376.232 29.6061C376.702 25.8942 377.952 22.5424 379.98 19.5265L378.527 18.55ZM374.495 29.386V31.136H422.711V29.386V27.636H374.495V29.386ZM398.519 57.106V58.856C402.934 58.856 407.027 57.8688 410.766 55.8788L409.943 54.334L409.121 52.7892C405.916 54.4952 402.393 55.356 398.519 55.356V57.106ZM409.943 54.334L410.775 55.874C414.542 53.8408 417.636 51.0791 420.036 47.5995L418.595 46.606L417.155 45.6125C415.074 48.6289 412.401 51.0192 409.112 52.794L409.943 54.334ZM418.595 46.606L420.036 47.5995C422.44 44.1132 423.91 40.2053 424.448 35.9031L422.711 35.686L420.975 35.4689C420.505 39.2308 419.23 42.6029 417.155 45.6125L418.595 46.606ZM422.711 35.686V33.936H374.495V35.686V37.436H422.711V35.686ZM374.495 35.686L372.756 35.8793C373.235 40.1902 374.678 44.1067 377.087 47.5995L378.527 46.606L379.968 45.6125C377.897 42.6094 376.652 39.2458 376.235 35.4928L374.495 35.686ZM378.527 46.606L377.087 47.5995C379.482 51.0729 382.544 53.8338 386.254 55.8684L387.095 54.334L387.937 52.7996C384.703 51.0262 382.053 48.6351 379.968 45.6125L378.527 46.606ZM387.095 54.334L386.273 55.8788C390.012 57.8688 394.105 58.856 398.519 58.856V57.106V55.356C394.646 55.356 391.123 54.4952 387.918 52.7892L387.095 54.334ZM433.904 61.558L432.625 62.7521C432.653 62.7815 432.681 62.8099 432.71 62.8374L433.904 61.558ZM433.904 55.762L435.142 56.9995V56.9995L433.904 55.762ZM439.7 55.762L438.421 56.9561C438.449 56.9855 438.477 57.0139 438.506 57.0414L439.7 55.762ZM439.7 61.558L438.463 60.3206V60.3206L439.7 61.558ZM436.844 62.734V60.984C436.18 60.984 435.624 60.7689 435.098 60.2787L433.904 61.558L432.71 62.8374C433.865 63.9151 435.269 64.484 436.844 64.484V62.734ZM433.904 61.558L435.184 60.364C434.694 59.8387 434.478 59.2822 434.478 58.618H432.728H430.978C430.978 60.1938 431.547 61.5973 432.625 62.7521L433.904 61.558ZM432.728 58.618H434.478C434.478 57.9568 434.69 57.4515 435.142 56.9995L433.904 55.762L432.667 54.5246C431.551 55.6405 430.978 57.0392 430.978 58.618H432.728ZM433.904 55.762L435.142 56.9995C435.676 56.4655 436.219 56.252 436.844 56.252V54.502V52.752C435.23 52.752 433.813 53.3785 432.667 54.5246L433.904 55.762ZM436.844 54.502V56.252C437.465 56.252 437.958 56.4603 438.421 56.9561L439.7 55.762L440.98 54.568C439.875 53.3837 438.464 52.752 436.844 52.752V54.502ZM439.7 55.762L438.506 57.0414C439.002 57.5041 439.21 57.9971 439.21 58.618H440.96H442.71C442.71 56.9989 442.079 55.5879 440.894 54.4827L439.7 55.762ZM440.96 58.618H439.21C439.21 59.2435 438.997 59.7867 438.463 60.3206L439.7 61.558L440.938 62.7954C442.084 61.6494 442.71 60.2325 442.71 58.618H440.96ZM439.7 61.558L438.463 60.3206C438.011 60.7727 437.506 60.984 436.844 60.984V62.734V64.484C438.423 64.484 439.822 63.9114 440.938 62.7954L439.7 61.558ZM448.692 39.214V37.464C447.725 37.464 446.942 38.2475 446.942 39.214H448.692ZM465.828 39.214V40.964C466.794 40.964 467.578 40.1805 467.578 39.214H465.828ZM465.828 35.266H467.578C467.578 34.2995 466.794 33.516 465.828 33.516V35.266ZM455.748 33.166L454.842 34.6635C454.856 34.6717 454.869 34.6797 454.883 34.6876L455.748 33.166ZM449.952 27.37L448.43 28.2345C448.438 28.2483 448.446 28.2619 448.454 28.2755L449.952 27.37ZM449.952 10.57L448.445 9.67971L448.439 9.69042L449.952 10.57ZM455.748 4.77401L456.627 6.28693L456.638 6.28063L455.748 4.77401ZM487.836 2.59001H489.586C489.586 1.62351 488.802 0.840012 487.836 0.840012V2.59001ZM487.836 25.438V27.188C488.802 27.188 489.586 26.4045 489.586 25.438H487.836ZM472.548 25.438V23.688C471.581 23.688 470.798 24.4715 470.798 25.438H472.548ZM472.548 29.386H470.798C470.798 30.3525 471.581 31.136 472.548 31.136V29.386ZM482.712 31.57L481.821 33.0766C481.83 33.0817 481.839 33.0867 481.847 33.0916L482.712 31.57ZM488.508 37.366L486.986 38.2305C486.994 38.2443 487.002 38.2579 487.01 38.2715L488.508 37.366ZM488.508 54.166L487.001 53.2757L486.995 53.2864L488.508 54.166ZM482.712 59.962L483.576 61.4836C483.585 61.4787 483.593 61.4737 483.602 61.4686L482.712 59.962ZM448.692 62.062H446.942C446.942 63.0285 447.725 63.812 448.692 63.812V62.062ZM465.828 29.134V30.884C466.794 30.884 467.578 30.1005 467.578 29.134H465.828ZM465.828 8.80601H467.578C467.578 7.83951 466.794 7.05601 465.828 7.05601V8.80601ZM456.924 11.662L455.686 10.4246V10.4246L456.924 11.662ZM456.924 26.278L455.668 27.4974C455.674 27.5034 455.68 27.5095 455.686 27.5154L456.924 26.278ZM481.62 19.222V20.972C482.586 20.972 483.37 20.1885 483.37 19.222H481.62ZM481.62 8.80601H483.37C483.37 7.83951 482.586 7.05601 481.62 7.05601V8.80601ZM472.548 8.80601V7.05601C471.581 7.05601 470.798 7.83951 470.798 8.80601H472.548ZM472.548 19.222H470.798C470.798 20.1885 471.581 20.972 472.548 20.972V19.222ZM472.548 35.602V33.852C471.581 33.852 470.798 34.6355 470.798 35.602H472.548ZM472.548 55.846H470.798C470.798 56.8125 471.581 57.596 472.548 57.596V55.846ZM465.828 55.846V57.596C466.794 57.596 467.578 56.8125 467.578 55.846H465.828ZM465.828 45.43H467.578C467.578 44.4635 466.794 43.68 465.828 43.68V45.43ZM454.908 45.43V43.68C453.941 43.68 453.158 44.4635 453.158 45.43H454.908ZM454.908 55.846H453.158C453.158 56.8125 453.941 57.596 454.908 57.596V55.846ZM448.692 39.214V40.964H465.828V39.214V37.464H448.692V39.214ZM465.828 39.214H467.578V35.266H465.828H464.078V39.214H465.828ZM465.828 35.266V33.516H463.812V35.266V37.016H465.828V35.266ZM463.812 35.266V33.516C461.194 33.516 458.805 32.8905 456.612 31.6445L455.748 33.166L454.883 34.6876C457.618 36.2415 460.605 37.016 463.812 37.016V35.266ZM455.748 33.166L456.653 31.6685C454.488 30.359 452.759 28.6302 451.449 26.4645L449.952 27.37L448.454 28.2755C450.057 30.9258 452.192 33.061 454.842 34.6635L455.748 33.166ZM449.952 27.37L451.473 26.5055C450.227 24.3125 449.602 21.9236 449.602 19.306H447.852H446.102C446.102 22.5124 446.876 25.4995 448.43 28.2345L449.952 27.37ZM447.852 19.306H449.602V18.55H447.852H446.102V19.306H447.852ZM447.852 18.55H449.602C449.602 15.9324 450.227 13.5781 451.465 11.4496L449.952 10.57L448.439 9.69042C446.876 12.3779 446.102 15.3437 446.102 18.55H447.852ZM449.952 10.57L451.458 11.4603C452.766 9.24664 454.485 7.53215 456.627 6.2869L455.748 4.77401L454.868 3.26112C452.194 4.81587 450.049 6.96538 448.445 9.67973L449.952 10.57ZM455.748 4.77401L456.638 6.28063C458.827 4.98686 461.207 4.34001 463.812 4.34001V2.59001V0.840012C460.592 0.840012 457.596 1.64916 454.857 3.26739L455.748 4.77401ZM463.812 2.59001V4.34001H487.836V2.59001V0.840012H463.812V2.59001ZM487.836 2.59001H486.086V25.438H487.836H489.586V2.59001H487.836ZM487.836 25.438V23.688H472.548V25.438V27.188H487.836V25.438ZM472.548 25.438H470.798V29.386H472.548H474.298V25.438H472.548ZM472.548 29.386V31.136H474.648V29.386V27.636H472.548V29.386ZM474.648 29.386V31.136C477.252 31.136 479.632 31.7829 481.821 33.0766L482.712 31.57L483.602 30.0634C480.863 28.4452 477.867 27.636 474.648 27.636V29.386ZM482.712 31.57L481.847 33.0916C484.037 34.3358 485.742 36.0407 486.986 38.2305L488.508 37.366L490.029 36.5015C488.473 33.7633 486.314 31.6043 483.576 30.0485L482.712 31.57ZM488.508 37.366L487.01 38.2715C488.295 40.3965 488.942 42.7416 488.942 45.346H490.692H492.442C492.442 42.1265 491.632 39.1515 490.005 36.4605L488.508 37.366ZM490.692 45.346H488.942V46.102H490.692H492.442V45.346H490.692ZM490.692 46.102H488.942C488.942 48.7066 488.295 51.0863 487.001 53.2757L488.508 54.166L490.014 55.0563C491.633 52.3177 492.442 49.3215 492.442 46.102H490.692ZM488.508 54.166L486.995 53.2864C485.75 55.4283 484.035 57.1473 481.821 58.4554L482.712 59.962L483.602 61.4686C486.316 59.8647 488.466 57.7198 490.021 55.0456L488.508 54.166ZM482.712 59.962L481.847 58.4405C479.654 59.6865 477.265 60.312 474.648 60.312V62.062V63.812C477.854 63.812 480.841 63.0375 483.576 61.4836L482.712 59.962ZM474.648 62.062V60.312H448.692V62.062V63.812H474.648V62.062ZM448.692 62.062H450.442V39.214H448.692H446.942V62.062H448.692ZM465.828 29.134H467.578V8.80601H465.828H464.078V29.134H465.828ZM465.828 8.80601V7.05601H463.812V8.80601V10.556H465.828V8.80601ZM463.812 8.80601V7.05601C460.659 7.05601 457.918 8.19303 455.686 10.4246L456.924 11.662L458.161 12.8994C459.738 11.323 461.589 10.556 463.812 10.556V8.80601ZM456.924 11.662L455.686 10.4246C453.455 12.6561 452.318 15.397 452.318 18.55H454.068H455.818C455.818 16.327 456.585 14.4759 458.161 12.8994L456.924 11.662ZM454.068 18.55H452.318V19.306H454.068H455.818V18.55H454.068ZM454.068 19.306H452.318C452.318 22.4577 453.453 25.2168 455.668 27.4974L456.924 26.278L458.179 25.0586C456.586 23.4192 455.818 21.5303 455.818 19.306H454.068ZM456.924 26.278L455.686 27.5154C457.918 29.747 460.659 30.884 463.812 30.884V29.134V27.384C461.589 27.384 459.738 26.617 458.161 25.0406L456.924 26.278ZM463.812 29.134V30.884H465.828V29.134V27.384H463.812V29.134ZM481.62 19.222H483.37V8.80601H481.62H479.87V19.222H481.62ZM481.62 8.80601V7.05601H472.548V8.80601V10.556H481.62V8.80601ZM472.548 8.80601H470.798V19.222H472.548H474.298V8.80601H472.548ZM472.548 19.222V20.972H481.62V19.222V17.472H472.548V19.222ZM474.648 55.846V57.596C477.846 57.596 480.618 56.4666 482.857 54.2274L481.62 52.99L480.382 51.7526C478.813 53.3214 476.938 54.096 474.648 54.096V55.846ZM481.62 52.99L482.857 54.2274C485.089 51.9959 486.226 49.255 486.226 46.102H484.476H482.726C482.726 48.325 481.959 50.1761 480.382 51.7526L481.62 52.99ZM484.476 46.102H486.226V45.346H484.476H482.726V46.102H484.476ZM484.476 45.346H486.226C486.226 42.193 485.089 39.4521 482.857 37.2206L481.62 38.458L480.382 39.6954C481.959 41.2719 482.726 43.123 482.726 45.346H484.476ZM481.62 38.458L482.857 37.2206C480.618 34.9814 477.846 33.852 474.648 33.852V35.602V37.352C476.938 37.352 478.813 38.1266 480.382 39.6954L481.62 38.458ZM474.648 35.602V33.852H472.548V35.602V37.352H474.648V35.602ZM472.548 35.602H470.798V55.846H472.548H474.298V35.602H472.548ZM472.548 55.846V57.596H474.648V55.846V54.096H472.548V55.846ZM465.828 55.846H467.578V45.43H465.828H464.078V55.846H465.828ZM465.828 45.43V43.68H454.908V45.43V47.18H465.828V45.43ZM454.908 45.43H453.158V55.846H454.908H456.658V45.43H454.908ZM454.908 55.846V57.596H465.828V55.846V54.096H454.908V55.846ZM497.889 61.558L496.609 62.7521C496.637 62.7815 496.665 62.8099 496.695 62.8374L497.889 61.558ZM497.889 55.762L499.126 56.9995V56.9995L497.889 55.762ZM503.685 55.762L502.405 56.9561C502.433 56.9855 502.461 57.0139 502.491 57.0414L503.685 55.762ZM503.685 61.558L502.447 60.3206V60.3206L503.685 61.558ZM500.829 62.734V60.984C500.165 60.984 499.608 60.7689 499.083 60.2787L497.889 61.558L496.695 62.8374C497.849 63.9151 499.253 64.484 500.829 64.484V62.734ZM497.889 61.558L499.168 60.364C498.678 59.8387 498.463 59.2822 498.463 58.618H496.713H494.963C494.963 60.1938 495.532 61.5973 496.609 62.7521L497.889 61.558ZM496.713 58.618H498.463C498.463 57.9568 498.674 57.4515 499.126 56.9995L497.889 55.762L496.651 54.5246C495.535 55.6405 494.963 57.0392 494.963 58.618H496.713ZM497.889 55.762L499.126 56.9995C499.66 56.4655 500.203 56.252 500.829 56.252V54.502V52.752C499.214 52.752 497.797 53.3785 496.651 54.5246L497.889 55.762ZM500.829 54.502V56.252C501.45 56.252 501.943 56.4603 502.405 56.9561L503.685 55.762L504.964 54.568C503.859 53.3837 502.448 52.752 500.829 52.752V54.502ZM503.685 55.762L502.491 57.0414C502.987 57.5041 503.195 57.9971 503.195 58.618H504.945H506.695C506.695 56.9989 506.063 55.5879 504.879 54.4827L503.685 55.762ZM504.945 58.618H503.195C503.195 59.2435 502.981 59.7867 502.447 60.3206L503.685 61.558L504.922 62.7954C506.068 61.6494 506.695 60.2325 506.695 58.618H504.945ZM503.685 61.558L502.447 60.3206C501.995 60.7727 501.49 60.984 500.829 60.984V62.734V64.484C502.408 64.484 503.806 63.9114 504.922 62.7954L503.685 61.558Z" fill="#663333" style="mix-blend-mode:lighten"/>
</svg>
