<svg width="268" height="98" viewBox="0 0 268 98" fill="none" xmlns="http://www.w3.org/2000/svg">
<path d="M37.0779 95.574C30.6779 95.574 24.7473 93.9953 19.2859 90.838C13.9099 87.6807 9.64328 83.414 6.48594 78.038C3.32861 72.662 1.74994 66.774 1.74994 60.374C1.74994 59.1793 1.87794 57.0033 2.13394 53.846H32.3419V34.518H9.55794V3.03001H67.6699L55.6379 30.422C60.7579 33.6647 64.8113 37.9313 67.7979 43.222C70.7846 48.4273 72.2779 54.1447 72.2779 60.374C72.2779 66.774 70.6993 72.662 67.5419 78.038C64.3846 83.414 60.0753 87.6807 54.6139 90.838C49.2379 93.9953 43.3926 95.574 37.0779 95.574ZM47.7019 25.046L53.2059 12.502H18.9019V25.046H47.7019ZM42.0699 85.718C48.0433 84.5233 52.9926 81.5793 56.9179 76.886C60.8433 72.1073 62.8059 66.6033 62.8059 60.374C62.8059 56.278 61.9099 52.438 60.1179 48.854C58.3259 45.27 55.8513 42.2833 52.6939 39.894C49.5366 37.4193 45.9953 35.798 42.0699 35.03V85.718ZM32.5979 63.318H11.3499C11.9473 68.95 14.2086 73.8567 18.1339 78.038C22.1446 82.2193 26.9659 84.7793 32.5979 85.718V63.318ZM131.361 3.158C137.078 3.158 142.369 4.566 147.233 7.382C152.097 10.198 155.937 14.038 158.753 18.902C161.569 23.6807 162.977 28.9713 162.977 34.774C162.977 40.406 161.526 45.654 158.625 50.518C155.809 55.2967 151.969 59.1367 147.105 62.038C142.326 64.854 137.078 66.262 131.361 66.262H124.321V93.654H87.3289V3.158H131.361ZM114.849 12.502H96.6729V84.182H114.849V12.502ZM131.361 56.662C135.286 56.662 138.87 55.7233 142.113 53.846C145.441 51.8833 148.044 49.238 149.921 45.91C151.884 42.4967 152.865 38.7847 152.865 34.774C152.865 30.678 151.884 26.9233 149.921 23.51C148.044 20.0967 145.441 17.4087 142.113 15.446C138.87 13.4833 135.286 12.502 131.361 12.502H124.321V56.662H131.361ZM219.161 95.702C210.713 95.702 202.862 93.6113 195.609 89.43C188.441 85.1633 182.724 79.446 178.457 72.278C174.276 65.0247 172.185 57.1313 172.185 48.598C172.185 40.0647 174.276 32.214 178.457 25.046C182.724 17.878 188.441 12.2033 195.609 8.022C202.862 3.84067 210.713 1.75 219.161 1.75C227.694 1.75 235.545 3.84067 242.713 8.022C249.966 12.2033 255.684 17.878 259.865 25.046C264.046 32.214 266.137 40.0647 266.137 48.598C266.137 57.1313 264.046 65.0247 259.865 72.278C255.684 79.446 249.966 85.1633 242.713 89.43C235.545 93.6113 227.694 95.702 219.161 95.702ZM256.025 43.862C255.257 37.8033 253.166 32.2993 249.753 27.35C246.34 22.4007 241.945 18.518 236.569 15.702C231.278 12.8007 225.476 11.35 219.161 11.35C212.846 11.35 207.044 12.8007 201.753 15.702C196.462 18.518 192.11 22.4007 188.697 27.35C185.369 32.2993 183.321 37.8033 182.553 43.862H256.025ZM219.161 86.102C225.476 86.102 231.278 84.694 236.569 81.878C241.945 78.9767 246.34 75.0513 249.753 70.102C253.166 65.1527 255.257 59.606 256.025 53.462H182.553C183.236 59.606 185.284 65.1527 188.697 70.102C192.11 75.0513 196.462 78.9767 201.753 81.878C207.044 84.694 212.846 86.102 219.161 86.102Z" fill="#F1EBDD"/>
<path d="M19.2859 90.838L18.3997 92.347L18.4101 92.353L19.2859 90.838ZM6.48594 78.038L7.99494 77.1518V77.1518L6.48594 78.038ZM2.13394 53.846V52.096C1.22228 52.096 0.463342 52.7959 0.389666 53.7046L2.13394 53.846ZM32.3419 53.846V55.596C33.3084 55.596 34.0919 54.8125 34.0919 53.846H32.3419ZM32.3419 34.518H34.0919C34.0919 33.5515 33.3084 32.768 32.3419 32.768V34.518ZM9.55794 34.518H7.80794C7.80794 35.4845 8.59144 36.268 9.55794 36.268V34.518ZM9.55794 3.03001V1.28001C8.59144 1.28001 7.80794 2.06351 7.80794 3.03001H9.55794ZM67.6699 3.03001L69.2722 3.7338C69.5099 3.19266 69.4584 2.56811 69.1352 2.07322C68.8121 1.57834 68.261 1.28001 67.6699 1.28001V3.03001ZM55.6379 30.422L54.0357 29.7182C53.6878 30.5102 53.9708 31.4376 54.7016 31.9004L55.6379 30.422ZM67.7979 43.222L66.274 44.0823L66.2801 44.0929L67.7979 43.222ZM67.5419 78.038L69.0509 78.9242V78.9242L67.5419 78.038ZM54.6139 90.838L53.738 89.3229L53.7277 89.329L54.6139 90.838ZM47.7019 25.046V26.796C48.3965 26.796 49.0254 26.3852 49.3045 25.7492L47.7019 25.046ZM53.2059 12.502L54.8085 13.2052C55.0459 12.664 54.9942 12.0396 54.671 11.5449C54.3479 11.0502 53.7969 10.752 53.2059 10.752V12.502ZM18.9019 12.502V10.752C17.9354 10.752 17.1519 11.5355 17.1519 12.502H18.9019ZM18.9019 25.046H17.1519C17.1519 26.0125 17.9354 26.796 18.9019 26.796V25.046ZM42.0699 85.718H40.3199C40.3199 86.2423 40.555 86.739 40.9605 87.0714C41.3659 87.4037 41.899 87.5368 42.4131 87.434L42.0699 85.718ZM56.9179 76.886L58.2603 78.0087C58.2636 78.0048 58.2669 78.0008 58.2702 77.9968L56.9179 76.886ZM52.6939 39.894L51.6144 41.2713C51.6222 41.2775 51.63 41.2835 51.6379 41.2895L52.6939 39.894ZM42.0699 35.03L42.406 33.3126C41.8927 33.2121 41.3614 33.3466 40.9576 33.679C40.5539 34.0114 40.3199 34.507 40.3199 35.03H42.0699ZM32.5979 63.318H34.3479C34.3479 62.3515 33.5644 61.568 32.5979 61.568V63.318ZM11.3499 63.318V61.568C10.8537 61.568 10.3808 61.7787 10.0489 62.1476C9.717 62.5166 9.55736 63.0091 9.6097 63.5026L11.3499 63.318ZM18.1339 78.038L16.8581 79.2358C16.8624 79.2403 16.8667 79.2449 16.871 79.2494L18.1339 78.038ZM32.5979 85.718L32.3102 87.4442C32.8177 87.5288 33.3366 87.3858 33.7291 87.0533C34.1216 86.7208 34.3479 86.2324 34.3479 85.718H32.5979ZM37.0779 95.574V93.824C30.9808 93.824 25.3529 92.3241 20.1618 89.323L19.2859 90.838L18.4101 92.353C24.1417 95.6666 30.3751 97.324 37.0779 97.324V95.574ZM19.2859 90.838L20.1722 89.329C15.0535 86.3228 11.0012 82.2705 7.99494 77.1518L6.48594 78.038L4.97694 78.9242C8.28538 84.5575 12.7664 89.0386 18.3997 92.347L19.2859 90.838ZM6.48594 78.038L7.99494 77.1518C4.99974 72.0518 3.49994 66.4711 3.49994 60.374H1.74994H-5.84126e-05C-5.84126e-05 67.0769 1.65748 73.2722 4.97694 78.9242L6.48594 78.038ZM1.74994 60.374H3.49994C3.49994 59.2596 3.6218 57.15 3.87822 53.9874L2.13394 53.846L0.389666 53.7046C0.134086 56.8567 -5.84126e-05 59.0991 -5.84126e-05 60.374H1.74994ZM2.13394 53.846V55.596H32.3419V53.846V52.096H2.13394V53.846ZM32.3419 53.846H34.0919V34.518H32.3419H30.5919V53.846H32.3419ZM32.3419 34.518V32.768H9.55794V34.518V36.268H32.3419V34.518ZM9.55794 34.518H11.3079V3.03001H9.55794H7.80794V34.518H9.55794ZM9.55794 3.03001V4.78001H67.6699V3.03001V1.28001H9.55794V3.03001ZM67.6699 3.03001L66.0677 2.32622L54.0357 29.7182L55.6379 30.422L57.2402 31.1258L69.2722 3.7338L67.6699 3.03001ZM55.6379 30.422L54.7016 31.9004C59.5771 34.9883 63.4289 39.0423 66.274 44.0823L67.7979 43.222L69.3219 42.3617C66.1937 36.8203 61.9388 32.3411 56.5743 28.9436L55.6379 30.422ZM67.7979 43.222L66.2801 44.0929C69.1087 49.0229 70.5279 54.4382 70.5279 60.374H72.2779H74.0279C74.0279 53.8512 72.4605 47.8318 69.3158 42.3511L67.7979 43.222ZM72.2779 60.374H70.5279C70.5279 66.4711 69.0281 72.0518 66.0329 77.1518L67.5419 78.038L69.0509 78.9242C72.3704 73.2722 74.0279 67.0769 74.0279 60.374H72.2779ZM67.5419 78.038L66.0329 77.1518C63.0307 82.2638 58.9408 86.3151 53.7381 89.323L54.6139 90.838L55.4898 92.353C61.2097 89.0462 65.7386 84.5642 69.0509 78.9242L67.5419 78.038ZM54.6139 90.838L53.7277 89.329C48.624 92.3264 43.0852 93.824 37.0779 93.824V95.574V97.324C43.7 97.324 49.8519 95.6643 55.5002 92.347L54.6139 90.838ZM47.7019 25.046L49.3045 25.7492L54.8085 13.2052L53.2059 12.502L51.6034 11.7989L46.0994 24.3429L47.7019 25.046ZM53.2059 12.502V10.752H18.9019V12.502V14.252H53.2059V12.502ZM18.9019 12.502H17.1519V25.046H18.9019H20.6519V12.502H18.9019ZM18.9019 25.046V26.796H47.7019V25.046V23.296H18.9019V25.046ZM42.0699 85.718L42.4131 87.434C48.7793 86.1608 54.0805 83.0064 58.2603 78.0087L56.9179 76.886L55.5756 75.7633C51.9048 80.1523 47.3073 82.8859 41.7267 84.002L42.0699 85.718ZM56.9179 76.886L58.2702 77.9968C62.4548 72.9026 64.5559 67.0052 64.5559 60.374H62.8059H61.0559C61.0559 66.2014 59.2318 71.3121 55.5657 75.7752L56.9179 76.886ZM62.8059 60.374H64.5559C64.5559 56.0126 63.5994 51.9039 61.6832 48.0714L60.1179 48.854L58.5527 49.6366C60.2204 52.9721 61.0559 56.5434 61.0559 60.374H62.8059ZM60.1179 48.854L61.6832 48.0714C59.7723 44.2497 57.1246 41.0523 53.75 38.4985L52.6939 39.894L51.6379 41.2895C54.578 43.5144 56.8796 46.2903 58.5527 49.6366L60.1179 48.854ZM52.6939 39.894L53.7735 38.5167C50.3993 35.872 46.6033 34.1338 42.406 33.3126L42.0699 35.03L41.7339 36.7474C45.3872 37.4622 48.6739 38.9666 51.6144 41.2713L52.6939 39.894ZM42.0699 35.03H40.3199V85.718H42.0699H43.8199V35.03H42.0699ZM32.5979 63.318V61.568H11.3499V63.318V65.068H32.5979V63.318ZM11.3499 63.318L9.6097 63.5026C10.2478 69.519 12.6752 74.7801 16.8581 79.2358L18.1339 78.038L19.4098 76.8402C15.742 72.9332 13.6467 68.381 13.0902 63.1334L11.3499 63.318ZM18.1339 78.038L16.871 79.2494C21.1386 83.6986 26.3003 86.4425 32.3102 87.4442L32.5979 85.718L32.8856 83.9918C27.6316 83.1161 23.1506 80.7401 19.3969 76.8266L18.1339 78.038ZM32.5979 85.718H34.3479V63.318H32.5979H30.8479V85.718H32.5979ZM147.233 7.382L148.11 5.86751V5.86751L147.233 7.382ZM158.753 18.902L157.238 19.7788L157.245 19.7905L158.753 18.902ZM158.625 50.518L157.122 49.6215L157.117 49.6295L158.625 50.518ZM147.105 62.038L147.993 63.5457L148.001 63.5409L147.105 62.038ZM124.321 66.262V64.512C123.354 64.512 122.571 65.2955 122.571 66.262H124.321ZM124.321 93.654V95.404C125.287 95.404 126.071 94.6205 126.071 93.654H124.321ZM87.3289 93.654H85.5789C85.5789 94.6205 86.3624 95.404 87.3289 95.404V93.654ZM87.3289 3.158V1.408C86.3624 1.408 85.5789 2.19151 85.5789 3.158H87.3289ZM114.849 12.502H116.599C116.599 11.5355 115.815 10.752 114.849 10.752V12.502ZM96.6729 12.502V10.752C95.7064 10.752 94.9229 11.5355 94.9229 12.502H96.6729ZM96.6729 84.182H94.9229C94.9229 85.1485 95.7064 85.932 96.6729 85.932V84.182ZM114.849 84.182V85.932C115.815 85.932 116.599 85.1485 116.599 84.182H114.849ZM142.113 53.846L142.99 55.3605L143.002 55.3534L142.113 53.846ZM149.921 45.91L148.404 45.0377C148.401 45.0418 148.399 45.046 148.397 45.0502L149.921 45.91ZM149.921 23.51L148.388 24.3534C148.393 24.3631 148.398 24.3727 148.404 24.3823L149.921 23.51ZM142.113 15.446L141.207 16.9431C141.212 16.9466 141.218 16.95 141.224 16.9534L142.113 15.446ZM124.321 12.502V10.752C123.354 10.752 122.571 11.5355 122.571 12.502H124.321ZM124.321 56.662H122.571C122.571 57.6285 123.354 58.412 124.321 58.412V56.662ZM131.361 3.158V4.908C136.776 4.908 141.763 6.23754 146.356 8.8965L147.233 7.382L148.11 5.86751C142.975 2.89447 137.381 1.408 131.361 1.408V3.158ZM147.233 7.382L146.356 8.8965C150.956 11.5593 154.576 15.1794 157.238 19.7788L158.753 18.902L160.267 18.0252C157.298 12.8966 153.238 8.83671 148.11 5.86751L147.233 7.382ZM158.753 18.902L157.245 19.7905C159.895 24.2872 161.227 29.2688 161.227 34.774H162.977H164.727C164.727 28.6739 163.243 23.0741 160.261 18.0135L158.753 18.902ZM162.977 34.774H161.227C161.227 40.0885 159.863 45.027 157.122 49.6215L158.625 50.518L160.128 51.4145C163.19 46.281 164.727 40.7235 164.727 34.774H162.977ZM158.625 50.518L157.117 49.6295C154.453 54.1499 150.826 57.7808 146.208 60.5351L147.105 62.038L148.001 63.5409C153.112 60.4926 157.164 56.4435 160.133 51.4065L158.625 50.518ZM147.105 62.038L146.216 60.5303C141.716 63.1826 136.776 64.512 131.361 64.512V66.262V68.012C137.381 68.012 142.937 66.5254 147.993 63.5457L147.105 62.038ZM131.361 66.262V64.512H124.321V66.262V68.012H131.361V66.262ZM124.321 66.262H122.571V93.654H124.321H126.071V66.262H124.321ZM124.321 93.654V91.904H87.3289V93.654V95.404H124.321V93.654ZM87.3289 93.654H89.0789V3.158H87.3289H85.5789V93.654H87.3289ZM87.3289 3.158V4.908H131.361V3.158V1.408H87.3289V3.158ZM114.849 12.502V10.752H96.6729V12.502V14.252H114.849V12.502ZM96.6729 12.502H94.9229V84.182H96.6729H98.4229V12.502H96.6729ZM96.6729 84.182V85.932H114.849V84.182V82.432H96.6729V84.182ZM114.849 84.182H116.599V12.502H114.849H113.099V84.182H114.849ZM131.361 56.662V58.412C135.579 58.412 139.468 57.3996 142.99 55.3605L142.113 53.846L141.236 52.3315C138.273 54.0471 134.994 54.912 131.361 54.912V56.662ZM142.113 53.846L143.002 55.3534C146.592 53.2363 149.415 50.3689 151.445 46.7698L149.921 45.91L148.397 45.0502C146.672 48.1071 144.29 50.5304 141.224 52.3386L142.113 53.846ZM149.921 45.91L151.438 46.7823C153.556 43.0985 154.615 39.0848 154.615 34.774H152.865H151.115C151.115 38.4845 150.211 41.8949 148.404 45.0377L149.921 45.91ZM152.865 34.774H154.615C154.615 30.3847 153.56 26.3273 151.438 22.6377L149.921 23.51L148.404 24.3823C150.208 27.5193 151.115 30.9713 151.115 34.774H152.865ZM149.921 23.51L151.454 22.6666C149.427 18.9806 146.603 16.0622 143.002 13.9386L142.113 15.446L141.224 16.9534C144.279 18.7552 146.66 21.2128 148.388 24.3534L149.921 23.51ZM142.113 15.446L143.019 13.9489C139.493 11.8147 135.594 10.752 131.361 10.752V12.502V14.252C134.979 14.252 138.247 15.152 141.207 16.9431L142.113 15.446ZM131.361 12.502V10.752H124.321V12.502V14.252H131.361V12.502ZM124.321 12.502H122.571V56.662H124.321H126.071V12.502H124.321ZM124.321 56.662V58.412H131.361V56.662V54.912H124.321V56.662ZM195.609 89.43L194.714 90.9338C194.721 90.9379 194.728 90.9421 194.735 90.9461L195.609 89.43ZM178.457 72.278L176.941 73.152C176.945 73.1591 176.949 73.1661 176.953 73.1731L178.457 72.278ZM178.457 25.046L176.953 24.1509C176.951 24.1553 176.948 24.1598 176.945 24.1642L178.457 25.046ZM195.609 8.022L194.735 6.50586L194.727 6.51039L195.609 8.022ZM242.713 8.022L241.831 9.53364L241.839 9.53812L242.713 8.022ZM259.865 25.046L258.353 25.9278V25.9278L259.865 25.046ZM259.865 72.278L261.377 73.1598L261.381 73.152L259.865 72.278ZM242.713 89.43L243.595 90.9416L243.6 90.9384L242.713 89.43ZM256.025 43.862V45.612C256.527 45.612 257.006 45.396 257.338 45.019C257.67 44.642 257.824 44.1404 257.761 43.6419L256.025 43.862ZM249.753 27.35L248.312 28.3435V28.3435L249.753 27.35ZM236.569 15.702L235.727 17.2364C235.737 17.2418 235.747 17.247 235.757 17.2522L236.569 15.702ZM201.753 15.702L202.575 17.2468C202.582 17.2434 202.588 17.2399 202.594 17.2364L201.753 15.702ZM188.697 27.35L187.256 26.3565C187.252 26.3621 187.249 26.3678 187.245 26.3735L188.697 27.35ZM182.553 43.862L180.817 43.6419C180.754 44.1404 180.908 44.642 181.24 45.019C181.572 45.396 182.05 45.612 182.553 45.612V43.862ZM236.569 81.878L237.391 83.4228L237.4 83.418L236.569 81.878ZM249.753 70.102L248.312 69.1085V69.1085L249.753 70.102ZM256.025 53.462L257.761 53.6791C257.824 53.181 257.669 52.6802 257.337 52.3038C257.005 51.9276 256.527 51.712 256.025 51.712V53.462ZM182.553 53.462V51.712C182.055 51.712 181.581 51.924 181.249 52.2949C180.917 52.6658 180.759 53.1605 180.814 53.6553L182.553 53.462ZM188.697 70.102L190.138 69.1085V69.1085L188.697 70.102ZM201.753 81.878L200.911 83.4124C200.918 83.4159 200.924 83.4194 200.931 83.4228L201.753 81.878ZM219.161 95.702V93.952C211.017 93.952 203.468 91.9406 196.483 87.9139L195.609 89.43L194.735 90.9461C202.257 95.2821 210.409 97.452 219.161 97.452V95.702ZM195.609 89.43L196.504 87.9262C189.586 83.8086 184.078 78.3005 179.961 71.3829L178.457 72.278L176.953 73.1731C181.369 80.5915 187.295 86.5181 194.714 90.9338L195.609 89.43ZM178.457 72.278L179.973 71.404C175.948 64.4218 173.935 56.8307 173.935 48.598H172.185H170.435C170.435 57.4319 172.603 65.6276 176.941 73.152L178.457 72.278ZM172.185 48.598H173.935C173.935 40.3653 175.948 32.8203 179.969 25.9278L178.457 25.046L176.945 24.1642C172.603 31.6077 170.435 39.764 170.435 48.598H172.185ZM178.457 25.046L179.961 25.9411C184.076 19.0266 189.58 13.5647 196.491 9.53362L195.609 8.022L194.727 6.51039C187.302 10.842 181.371 16.7294 176.953 24.1509L178.457 25.046ZM195.609 8.022L196.483 9.53812C203.468 5.51147 211.017 3.5 219.161 3.5V1.75V0C210.409 0 202.257 2.16987 194.735 6.50588L195.609 8.022ZM219.161 1.75V3.5C227.394 3.5 234.939 5.51297 241.831 9.53362L242.713 8.022L243.595 6.51039C236.151 2.16837 227.995 0 219.161 0V1.75ZM242.713 8.022L241.839 9.53812C248.831 13.5686 254.327 19.0256 258.353 25.9278L259.865 25.046L261.377 24.1642C257.04 16.7304 251.102 10.8381 243.587 6.50588L242.713 8.022ZM259.865 25.046L258.353 25.9278C262.374 32.8203 264.387 40.3653 264.387 48.598H266.137H267.887C267.887 39.764 265.719 31.6077 261.377 24.1642L259.865 25.046ZM266.137 48.598H264.387C264.387 56.8307 262.374 64.4218 258.349 71.404L259.865 72.278L261.381 73.152C265.719 65.6276 267.887 57.4319 267.887 48.598H266.137ZM259.865 72.278L258.353 71.3962C254.325 78.3016 248.824 83.8047 241.826 87.9216L242.713 89.43L243.6 90.9384C251.108 86.522 257.042 80.5905 261.377 73.1598L259.865 72.278ZM242.713 89.43L241.831 87.9184C234.939 91.939 227.394 93.952 219.161 93.952V95.702V97.452C227.995 97.452 236.151 95.2836 243.595 90.9416L242.713 89.43ZM256.025 43.862L257.761 43.6419C256.958 37.3101 254.768 31.54 251.194 26.3565L249.753 27.35L248.312 28.3435C251.564 33.0586 253.555 38.2966 254.289 44.0821L256.025 43.862ZM249.753 27.35L251.194 26.3565C247.617 21.171 243.006 17.0983 237.381 14.1518L236.569 15.702L235.757 17.2522C240.884 19.9377 245.062 23.6303 248.312 28.3435L249.753 27.35ZM236.569 15.702L237.41 14.1676C231.85 11.1181 225.756 9.60001 219.161 9.60001V11.35V13.1C225.196 13.1 230.707 14.4832 235.727 17.2364L236.569 15.702ZM219.161 11.35V9.60001C212.566 9.60001 206.472 11.1181 200.911 14.1676L201.753 15.702L202.594 17.2364C207.615 14.4832 213.126 13.1 219.161 13.1V11.35ZM201.753 15.702L200.931 14.1572C195.392 17.1052 190.828 21.1773 187.256 26.3565L188.697 27.35L190.138 28.3435C193.392 23.6241 197.533 19.9308 202.575 17.2468L201.753 15.702ZM188.697 27.35L187.245 26.3735C183.761 31.5549 181.618 37.3192 180.817 43.6419L182.553 43.862L184.289 44.0821C185.024 38.2875 186.977 33.0437 190.149 28.3265L188.697 27.35ZM182.553 43.862V45.612H256.025V43.862V42.112H182.553V43.862ZM219.161 86.102V87.852C225.746 87.852 231.834 86.3808 237.391 83.4228L236.569 81.878L235.747 80.3332C230.723 83.0072 225.205 84.352 219.161 84.352V86.102ZM236.569 81.878L237.4 83.418C243.016 80.3875 247.621 76.2764 251.194 71.0955L249.753 70.102L248.312 69.1085C245.059 73.8262 240.874 77.5659 235.738 80.338L236.569 81.878ZM249.753 70.102L251.194 71.0955C254.771 65.9078 256.96 60.0933 257.761 53.6791L256.025 53.462L254.288 53.2449C253.554 59.1188 251.561 64.3975 248.312 69.1085L249.753 70.102ZM256.025 53.462V51.712H182.553V53.462V55.212H256.025V53.462ZM182.553 53.462L180.814 53.6553C181.527 60.0782 183.674 65.9013 187.256 71.0955L188.697 70.102L190.138 69.1085C186.893 64.404 184.944 59.1338 184.292 53.2688L182.553 53.462ZM188.697 70.102L187.256 71.0955C190.825 76.2702 195.383 80.3804 200.911 83.4124L201.753 81.878L202.594 80.3436C197.542 77.5729 193.395 73.8324 190.138 69.1085L188.697 70.102ZM201.753 81.878L200.931 83.4228C206.488 86.3808 212.575 87.852 219.161 87.852V86.102V84.352C213.117 84.352 207.599 83.0072 202.575 80.3332L201.753 81.878Z" fill="#008080" fill-opacity="0.45"/>
</svg>
