<svg width="778" height="105" viewBox="0 0 778 105" fill="none" xmlns="http://www.w3.org/2000/svg">
<g filter="url(#filter0_d_2_2)">
<path d="M63.49 48.226L85.506 81.378C81.2393 85.6447 76.2473 89.0153 70.53 91.49C64.8127 93.8793 58.8393 95.074 52.61 95.074C43.9913 95.074 36.0553 93.026 28.802 88.93C21.5487 84.7487 15.7887 79.074 11.522 71.906C7.34067 64.738 5.25001 56.802 5.25001 48.098C5.25001 39.4793 7.34067 31.6287 11.522 24.546C15.7887 17.4633 21.5487 11.874 28.802 7.778C36.0553 3.682 43.9913 1.634 52.61 1.634C59.01 1.634 65.1113 2.914 70.914 5.474C76.802 7.94867 81.8793 11.4047 86.146 15.842L63.49 48.226ZM52.61 11.362C46.2953 11.362 40.4927 12.7273 35.202 15.458C29.9113 18.1887 25.5593 21.986 22.146 26.85C18.818 31.714 16.8127 37.218 16.13 43.362H55.426L73.73 17.378C67.2447 13.3673 60.2047 11.362 52.61 11.362ZM55.17 52.834H16.13C16.8127 59.1487 18.818 64.7807 22.146 69.73C25.5593 74.594 29.9113 78.434 35.202 81.25C40.4927 83.9807 46.2953 85.346 52.61 85.346C60.034 85.346 66.8607 83.3833 73.09 79.458L55.17 52.834ZM99.126 94.178C97.4193 94.178 95.926 93.5807 94.646 92.386C93.4513 91.106 92.854 89.6127 92.854 87.906C92.854 86.1993 93.4513 84.7487 94.646 83.554C95.926 82.274 97.4193 81.634 99.126 81.634C100.833 81.634 102.283 82.274 103.478 83.554C104.758 84.7487 105.398 86.1993 105.398 87.906C105.398 89.6127 104.758 91.106 103.478 92.386C102.283 93.5807 100.833 94.178 99.126 94.178ZM121.019 3.042H189.755V93.154H121.019V3.042ZM179.899 43.362V12.514H131.131V43.362H179.899ZM179.899 83.682V52.834H131.131V83.682H179.899ZM211.501 94.178C209.794 94.178 208.301 93.5807 207.021 92.386C205.826 91.106 205.229 89.6127 205.229 87.906C205.229 86.1993 205.826 84.7487 207.021 83.554C208.301 82.274 209.794 81.634 211.501 81.634C213.208 81.634 214.658 82.274 215.853 83.554C217.133 84.7487 217.773 86.1993 217.773 87.906C217.773 89.6127 217.133 91.106 215.853 92.386C214.658 93.5807 213.208 94.178 211.501 94.178ZM233.394 2.658H273.842C279.645 2.658 284.935 4.066 289.714 6.882C294.578 9.61267 298.418 13.3673 301.234 18.146C304.05 22.9247 305.458 28.2153 305.458 34.018C305.458 40.93 303.367 47.1167 299.186 52.578C295.005 57.954 289.671 61.538 283.186 63.33L303.538 93.154H233.394V2.658ZM273.842 56.034C277.767 56.034 281.351 55.0527 284.594 53.09C287.922 51.1273 290.525 48.482 292.402 45.154C294.365 41.826 295.346 38.114 295.346 34.018C295.346 29.922 294.365 26.21 292.402 22.882C290.525 19.4687 287.922 16.7807 284.594 14.818C281.351 12.8553 277.767 11.874 273.842 11.874H270.386V56.034H273.842ZM261.042 83.682V12.002H242.866V83.682H261.042ZM285.234 83.682L272.818 65.634H270.386V83.682H285.234ZM321.376 94.178C319.669 94.178 318.176 93.5807 316.896 92.386C315.701 91.106 315.104 89.6127 315.104 87.906C315.104 86.1993 315.701 84.7487 316.896 83.554C318.176 82.274 319.669 81.634 321.376 81.634C323.083 81.634 324.533 82.274 325.728 83.554C327.008 84.7487 327.648 86.1993 327.648 87.906C327.648 89.6127 327.008 91.106 325.728 92.386C324.533 93.5807 323.083 94.178 321.376 94.178ZM379.851 95.202C371.403 95.202 363.552 93.1113 356.299 88.93C349.131 84.6633 343.414 78.946 339.147 71.778C334.966 64.5247 332.875 56.6313 332.875 48.098C332.875 39.5647 334.966 31.714 339.147 24.546C343.414 17.378 349.131 11.7033 356.299 7.522C363.552 3.34067 371.403 1.25 379.851 1.25C388.384 1.25 396.235 3.34067 403.403 7.522C410.656 11.7033 416.374 17.378 420.555 24.546C424.736 31.714 426.827 39.5647 426.827 48.098C426.827 56.6313 424.736 64.5247 420.555 71.778C416.374 78.946 410.656 84.6633 403.403 88.93C396.235 93.1113 388.384 95.202 379.851 95.202ZM416.715 43.362C415.947 37.3033 413.856 31.7993 410.443 26.85C407.03 21.9007 402.635 18.018 397.259 15.202C391.968 12.3007 386.166 10.85 379.851 10.85C373.536 10.85 367.734 12.3007 362.443 15.202C357.152 18.018 352.8 21.9007 349.387 26.85C346.059 31.7993 344.011 37.3033 343.243 43.362H416.715ZM379.851 85.602C386.166 85.602 391.968 84.194 397.259 81.378C402.635 78.4767 407.03 74.5513 410.443 69.602C413.856 64.6527 415.947 59.106 416.715 52.962H343.243C343.926 59.106 345.974 64.6527 349.387 69.602C352.8 74.5513 357.152 78.4767 362.443 81.378C367.734 84.194 373.536 85.602 379.851 85.602ZM438.251 94.178C436.544 94.178 435.051 93.5807 433.771 92.386C432.576 91.106 431.979 89.6127 431.979 87.906C431.979 86.1993 432.576 84.7487 433.771 83.554C435.051 82.274 436.544 81.634 438.251 81.634C439.958 81.634 441.408 82.274 442.603 83.554C443.883 84.7487 444.523 86.1993 444.523 87.906C444.523 89.6127 443.883 91.106 442.603 92.386C441.408 93.5807 439.958 94.178 438.251 94.178ZM460.144 3.042H529.648V93.154H460.144V3.042ZM518.384 83.554L491.504 12.642H471.92L498.8 83.554H518.384ZM520.048 12.642H501.744L520.048 60.642V12.642ZM488.56 83.554L469.744 34.146V83.554H488.56ZM551.376 94.178C549.669 94.178 548.176 93.5807 546.896 92.386C545.701 91.106 545.104 89.6127 545.104 87.906C545.104 86.1993 545.701 84.7487 546.896 83.554C548.176 82.274 549.669 81.634 551.376 81.634C553.083 81.634 554.533 82.274 555.728 83.554C557.008 84.7487 557.648 86.1993 557.648 87.906C557.648 89.6127 557.008 91.106 555.728 92.386C554.533 93.5807 553.083 94.178 551.376 94.178ZM609.851 95.202C601.403 95.202 593.552 93.1113 586.299 88.93C579.131 84.6633 573.414 78.946 569.147 71.778C564.966 64.5247 562.875 56.6313 562.875 48.098C562.875 39.5647 564.966 31.714 569.147 24.546C573.414 17.378 579.131 11.7033 586.299 7.522C593.552 3.34067 601.403 1.25 609.851 1.25C618.384 1.25 626.235 3.34067 633.403 7.522C640.656 11.7033 646.374 17.378 650.555 24.546C654.736 31.714 656.827 39.5647 656.827 48.098C656.827 56.6313 654.736 64.5247 650.555 71.778C646.374 78.946 640.656 84.6633 633.403 88.93C626.235 93.1113 618.384 95.202 609.851 95.202ZM646.715 43.362C645.947 37.3033 643.856 31.7993 640.443 26.85C637.03 21.9007 632.635 18.018 627.259 15.202C621.968 12.3007 616.166 10.85 609.851 10.85C603.536 10.85 597.734 12.3007 592.443 15.202C587.152 18.018 582.8 21.9007 579.387 26.85C576.059 31.7993 574.011 37.3033 573.243 43.362H646.715ZM609.851 85.602C616.166 85.602 621.968 84.194 627.259 81.378C632.635 78.4767 637.03 74.5513 640.443 69.602C643.856 64.6527 645.947 59.106 646.715 52.962H573.243C573.926 59.106 575.974 64.6527 579.387 69.602C582.8 74.5513 587.152 78.4767 592.443 81.378C597.734 84.194 603.536 85.602 609.851 85.602ZM668.251 94.178C666.544 94.178 665.051 93.5807 663.771 92.386C662.576 91.106 661.979 89.6127 661.979 87.906C661.979 86.1993 662.576 84.7487 663.771 83.554C665.051 82.274 666.544 81.634 668.251 81.634C669.958 81.634 671.408 82.274 672.603 83.554C673.883 84.7487 674.523 86.1993 674.523 87.906C674.523 89.6127 673.883 91.106 672.603 92.386C671.408 93.5807 669.958 94.178 668.251 94.178ZM686.304 58.338H712.416V52.322H709.344C704.907 52.322 700.811 51.2553 697.056 49.122C693.387 46.9033 690.443 43.9593 688.224 40.29C686.091 36.5353 685.024 32.4393 685.024 28.002V26.85C685.024 22.4127 686.091 18.3593 688.224 14.69C690.443 10.9353 693.387 7.99134 697.056 5.858C700.811 3.63934 704.907 2.53001 709.344 2.53001H745.952V37.346H722.656V43.362H725.856C730.293 43.362 734.389 44.4713 738.144 46.69C741.899 48.8233 744.843 51.7673 746.976 55.522C749.195 59.1913 750.304 63.2447 750.304 67.682V68.834C750.304 73.2713 749.195 77.3673 746.976 81.122C744.843 84.7913 741.899 87.7353 738.144 89.954C734.389 92.0873 730.293 93.154 725.856 93.154H686.304V58.338ZM712.416 42.978V12.002H709.344C705.248 12.002 701.749 13.4527 698.848 16.354C695.947 19.2553 694.496 22.754 694.496 26.85V28.002C694.496 32.098 695.947 35.6393 698.848 38.626C701.749 41.5273 705.248 42.978 709.344 42.978H712.416ZM736.48 27.874V12.002H722.656V27.874H736.48ZM725.856 83.682C730.037 83.682 733.579 82.2313 736.48 79.33C739.381 76.4287 740.832 72.93 740.832 68.834V67.682C740.832 63.586 739.381 60.0873 736.48 57.186C733.579 54.2847 730.037 52.834 725.856 52.834H722.656V83.682H725.856ZM712.416 83.682V67.81H695.776V83.682H712.416ZM765.751 94.178C764.044 94.178 762.551 93.5807 761.271 92.386C760.076 91.106 759.479 89.6127 759.479 87.906C759.479 86.1993 760.076 84.7487 761.271 83.554C762.551 82.274 764.044 81.634 765.751 81.634C767.458 81.634 768.908 82.274 770.103 83.554C771.383 84.7487 772.023 86.1993 772.023 87.906C772.023 89.6127 771.383 91.106 770.103 92.386C768.908 93.5807 767.458 94.178 765.751 94.178Z" fill="#F1EBDD" shape-rendering="crispEdges"/>
<path d="M63.49 48.226L62.4658 47.5094C62.1711 47.9306 62.1643 48.4893 62.4487 48.9175L63.49 48.226ZM85.506 81.378L86.3899 82.2619C86.8106 81.8412 86.8765 81.1822 86.5473 80.6865L85.506 81.378ZM70.53 91.49L71.012 92.6433C71.0169 92.6413 71.0217 92.6393 71.0265 92.6372L70.53 91.49ZM28.802 88.93L28.1777 90.013L28.1874 90.0184L28.802 88.93ZM11.522 71.906L10.4422 72.5359L10.4479 72.5454L11.522 71.906ZM11.522 24.546L10.4512 23.901L10.4456 23.9105L11.522 24.546ZM28.802 7.778L28.1874 6.68956H28.1874L28.802 7.778ZM70.914 5.474L70.4095 6.61765C70.4162 6.62061 70.4229 6.62351 70.4297 6.62636L70.914 5.474ZM86.146 15.842L87.1702 16.5586C87.5126 16.0692 87.461 15.4061 87.0471 14.9756L86.146 15.842ZM22.146 26.85L21.1228 26.132C21.12 26.136 21.1172 26.1401 21.1144 26.1441L22.146 26.85ZM16.13 43.362L14.8877 43.224C14.8484 43.5773 14.9615 43.9307 15.1986 44.1957C15.4357 44.4606 15.7745 44.612 16.13 44.612V43.362ZM55.426 43.362V44.612C55.8326 44.612 56.2138 44.4143 56.4479 44.0819L55.426 43.362ZM73.73 17.378L74.7519 18.0979C74.9503 17.8162 75.0237 17.4652 74.9547 17.1277C74.8857 16.7902 74.6805 16.4961 74.3875 16.3149L73.73 17.378ZM55.17 52.834L56.207 52.136C55.9747 51.7909 55.586 51.584 55.17 51.584V52.834ZM16.13 52.834V51.584C15.7751 51.584 15.4369 51.7349 15.1998 51.999C14.9627 52.2631 14.8491 52.6155 14.8872 52.9684L16.13 52.834ZM22.146 69.73L21.1087 70.4275C21.1133 70.4344 21.118 70.4412 21.1228 70.448L22.146 69.73ZM35.202 81.25L34.6147 82.3534C34.6194 82.3559 34.624 82.3584 34.6287 82.3608L35.202 81.25ZM73.09 79.458L73.7564 80.5156C74.0424 80.3353 74.2432 80.047 74.3131 79.7162C74.3829 79.3854 74.3158 79.0405 74.127 78.76L73.09 79.458ZM63.49 48.226L62.4487 48.9175L84.4647 82.0695L85.506 81.378L86.5473 80.6865L64.5313 47.5345L63.49 48.226ZM85.506 81.378L84.6221 80.4941C80.4705 84.6458 75.611 87.9287 70.0335 90.3428L70.53 91.49L71.0265 92.6372C76.8836 90.102 82.0082 86.6436 86.3899 82.2619L85.506 81.378ZM70.53 91.49L70.048 90.3367C64.4842 92.6618 58.6748 93.824 52.61 93.824V95.074V96.324C59.0039 96.324 65.1412 95.0968 71.012 92.6433L70.53 91.49ZM52.61 95.074V93.824C44.1989 93.824 36.4758 91.8279 29.4167 87.8416L28.802 88.93L28.1874 90.0184C35.6349 94.2241 43.7837 96.324 52.61 96.324V95.074ZM28.802 88.93L29.4263 87.8471C22.3577 83.7722 16.7529 78.25 12.5961 71.2666L11.522 71.906L10.4479 72.5454C14.8245 79.898 20.7396 85.7251 28.1777 90.013L28.802 88.93ZM11.522 71.906L12.6017 71.2762C8.53745 64.3088 6.50001 56.5919 6.50001 48.098H5.25001H4.00001C4.00001 57.0121 6.14389 65.1672 10.4423 72.5358L11.522 71.906ZM5.25001 48.098H6.50001C6.50001 39.6917 8.53627 32.0623 12.5984 25.1815L11.522 24.546L10.4456 23.9105C6.14507 31.1951 4.00001 39.267 4.00001 48.098H5.25001ZM11.522 24.546L12.5927 25.191C16.7473 18.2945 22.3496 12.8573 29.4167 8.86644L28.802 7.778L28.1874 6.68956C20.7478 10.8907 14.8301 16.6322 10.4513 23.901L11.522 24.546ZM28.802 7.778L29.4167 8.86644C36.4758 4.88011 44.1989 2.884 52.61 2.884V1.634V0.384003C43.7837 0.384003 35.6349 2.48389 28.1874 6.68956L28.802 7.778ZM52.61 1.634V2.884C58.8379 2.884 64.7672 4.12843 70.4095 6.61765L70.914 5.474L71.4186 4.33035C65.4554 1.69957 59.1821 0.384003 52.61 0.384003V1.634ZM70.914 5.474L70.4297 6.62636C76.1668 9.03761 81.1007 12.3984 85.245 16.7084L86.146 15.842L87.0471 14.9756C82.658 10.411 77.4372 6.85973 71.3983 4.32164L70.914 5.474ZM86.146 15.842L85.1218 15.1255L62.4658 47.5094L63.49 48.226L64.5142 48.9426L87.1702 16.5586L86.146 15.842ZM52.61 11.362V10.112C46.1083 10.112 40.1074 11.5195 34.6287 14.3472L35.202 15.458L35.7753 16.5688C40.878 13.9351 46.4824 12.612 52.61 12.612V11.362ZM35.202 15.458L34.6287 14.3472C29.1589 17.1703 24.6524 21.1023 21.1228 26.132L22.146 26.85L23.1692 27.568C26.4663 22.8697 30.6638 19.207 35.7753 16.5688L35.202 15.458ZM22.146 26.85L21.1144 26.1441C17.6649 31.1856 15.5918 36.8866 14.8877 43.224L16.13 43.362L17.3724 43.5C18.0335 37.5494 19.9711 32.2424 23.1776 27.5559L22.146 26.85ZM16.13 43.362V44.612H55.426V43.362V42.112H16.13V43.362ZM55.426 43.362L56.4479 44.0819L74.7519 18.0979L73.73 17.378L72.7081 16.6581L54.4041 42.6421L55.426 43.362ZM73.73 17.378L74.3875 16.3149C67.7054 12.1826 60.4379 10.112 52.61 10.112V11.362V12.612C59.9714 12.612 66.7839 14.5521 73.0725 18.4411L73.73 17.378ZM55.17 52.834V51.584H16.13V52.834V54.084H55.17V52.834ZM16.13 52.834L14.8872 52.9684C15.5903 59.4712 17.6602 65.299 21.1087 70.4275L22.146 69.73L23.1833 69.0325C19.9758 64.2623 18.0351 58.8262 17.3728 52.6996L16.13 52.834ZM22.146 69.73L21.1228 70.448C24.6501 75.4744 29.152 79.4459 34.6147 82.3534L35.202 81.25L35.7893 80.1466C30.6707 77.4221 26.4686 73.7136 23.1692 69.012L22.146 69.73ZM35.202 81.25L34.6287 82.3608C40.1074 85.1885 46.1083 86.596 52.61 86.596V85.346V84.096C46.4824 84.096 40.878 82.7729 35.7753 80.1392L35.202 81.25ZM52.61 85.346V86.596C60.2678 86.596 67.3258 84.5677 73.7564 80.5156L73.09 79.458L72.4236 78.4005C66.3956 82.199 59.8002 84.096 52.61 84.096V85.346ZM73.09 79.458L74.127 78.76L56.207 52.136L55.17 52.834L54.133 53.532L72.053 80.156L73.09 79.458ZM94.646 92.386L93.7322 93.2389C93.7518 93.2599 93.7721 93.2802 93.7931 93.2998L94.646 92.386ZM94.646 83.554L95.5299 84.4379V84.4379L94.646 83.554ZM103.478 83.554L102.564 84.4069C102.584 84.4279 102.604 84.4482 102.625 84.4678L103.478 83.554ZM103.478 92.386L102.594 91.5021V91.5021L103.478 92.386ZM99.126 94.178V92.928C97.7449 92.928 96.5541 92.457 95.4989 91.4722L94.646 92.386L93.7931 93.2998C95.2979 94.7043 97.0938 95.428 99.126 95.428V94.178ZM94.646 92.386L95.5598 91.5331C94.575 90.4779 94.104 89.2871 94.104 87.906H92.854H91.604C91.604 89.9383 92.3277 91.7341 93.7322 93.2389L94.646 92.386ZM92.854 87.906H94.104C94.104 86.5271 94.5723 85.3955 95.5299 84.4379L94.646 83.554L93.7621 82.6701C92.3304 84.1019 91.604 85.8716 91.604 87.906H92.854ZM94.646 83.554L95.5299 84.4379C96.5912 83.3765 97.7725 82.884 99.126 82.884V81.634V80.384C97.0661 80.384 95.2608 81.1715 93.7621 82.6701L94.646 83.554ZM99.126 81.634V82.884C100.476 82.884 101.599 83.3728 102.564 84.4069L103.478 83.554L104.392 82.7011C102.968 81.1752 101.189 80.384 99.126 80.384V81.634ZM103.478 83.554L102.625 84.4678C103.659 85.433 104.148 86.5559 104.148 87.906H105.398H106.648C106.648 85.8428 105.857 84.0643 104.331 82.6402L103.478 83.554ZM105.398 87.906H104.148C104.148 89.2595 103.655 90.4408 102.594 91.5021L103.478 92.386L104.362 93.2699C105.861 91.7713 106.648 89.9659 106.648 87.906H105.398ZM103.478 92.386L102.594 91.5021C101.637 92.4597 100.505 92.928 99.126 92.928V94.178V95.428C101.16 95.428 102.93 94.7016 104.362 93.2699L103.478 92.386ZM121.019 3.042V1.792C120.329 1.792 119.769 2.35165 119.769 3.042H121.019ZM189.755 3.042H191.005C191.005 2.35165 190.445 1.792 189.755 1.792V3.042ZM189.755 93.154V94.404C190.445 94.404 191.005 93.8444 191.005 93.154H189.755ZM121.019 93.154H119.769C119.769 93.8444 120.329 94.404 121.019 94.404V93.154ZM179.899 43.362V44.612C180.589 44.612 181.149 44.0524 181.149 43.362H179.899ZM179.899 12.514H181.149C181.149 11.8236 180.589 11.264 179.899 11.264V12.514ZM131.131 12.514V11.264C130.441 11.264 129.881 11.8236 129.881 12.514H131.131ZM131.131 43.362H129.881C129.881 44.0524 130.441 44.612 131.131 44.612V43.362ZM179.899 83.682V84.932C180.589 84.932 181.149 84.3724 181.149 83.682H179.899ZM179.899 52.834H181.149C181.149 52.1436 180.589 51.584 179.899 51.584V52.834ZM131.131 52.834V51.584C130.441 51.584 129.881 52.1436 129.881 52.834H131.131ZM131.131 83.682H129.881C129.881 84.3724 130.441 84.932 131.131 84.932V83.682ZM121.019 3.042V4.292H189.755V3.042V1.792H121.019V3.042ZM189.755 3.042H188.505V93.154H189.755H191.005V3.042H189.755ZM189.755 93.154V91.904H121.019V93.154V94.404H189.755V93.154ZM121.019 93.154H122.269V3.042H121.019H119.769V93.154H121.019ZM179.899 43.362H181.149V12.514H179.899H178.649V43.362H179.899ZM179.899 12.514V11.264H131.131V12.514V13.764H179.899V12.514ZM131.131 12.514H129.881V43.362H131.131H132.381V12.514H131.131ZM131.131 43.362V44.612H179.899V43.362V42.112H131.131V43.362ZM179.899 83.682H181.149V52.834H179.899H178.649V83.682H179.899ZM179.899 52.834V51.584H131.131V52.834V54.084H179.899V52.834ZM131.131 52.834H129.881V83.682H131.131H132.381V52.834H131.131ZM131.131 83.682V84.932H179.899V83.682V82.432H131.131V83.682ZM207.021 92.386L206.107 93.2389C206.127 93.2599 206.147 93.2802 206.168 93.2998L207.021 92.386ZM207.021 83.554L207.905 84.4379V84.4379L207.021 83.554ZM215.853 83.554L214.939 84.4069C214.959 84.4279 214.979 84.4482 215 84.4678L215.853 83.554ZM215.853 92.386L214.969 91.5021V91.5021L215.853 92.386ZM211.501 94.178V92.928C210.12 92.928 208.929 92.457 207.874 91.4722L207.021 92.386L206.168 93.2998C207.673 94.7043 209.469 95.428 211.501 95.428V94.178ZM207.021 92.386L207.935 91.5331C206.95 90.4779 206.479 89.2871 206.479 87.906H205.229H203.979C203.979 89.9383 204.703 91.7341 206.107 93.2389L207.021 92.386ZM205.229 87.906H206.479C206.479 86.5271 206.947 85.3955 207.905 84.4379L207.021 83.554L206.137 82.6701C204.705 84.1019 203.979 85.8716 203.979 87.906H205.229ZM207.021 83.554L207.905 84.4379C208.966 83.3765 210.148 82.884 211.501 82.884V81.634V80.384C209.441 80.384 207.636 81.1715 206.137 82.6701L207.021 83.554ZM211.501 81.634V82.884C212.851 82.884 213.974 83.3728 214.939 84.4069L215.853 83.554L216.767 82.7011C215.343 81.1752 213.564 80.384 211.501 80.384V81.634ZM215.853 83.554L215 84.4678C216.034 85.433 216.523 86.5559 216.523 87.906H217.773H219.023C219.023 85.8428 218.232 84.0643 216.706 82.6402L215.853 83.554ZM217.773 87.906H216.523C216.523 89.2595 216.03 90.4408 214.969 91.5021L215.853 92.386L216.737 93.2699C218.236 91.7713 219.023 89.9659 219.023 87.906H217.773ZM215.853 92.386L214.969 91.5021C214.012 92.4597 212.88 92.928 211.501 92.928V94.178V95.428C213.535 95.428 215.305 94.7016 216.737 93.2699L215.853 92.386ZM233.394 2.658V1.408C232.704 1.408 232.144 1.96765 232.144 2.658H233.394ZM289.714 6.882L289.079 7.95892C289.087 7.96336 289.094 7.96771 289.102 7.97198L289.714 6.882ZM299.186 52.578L300.173 53.3455L300.179 53.3379L299.186 52.578ZM283.186 63.33L282.853 62.1252C282.464 62.2326 282.151 62.5212 282.012 62.9C281.874 63.2788 281.926 63.7013 282.154 64.0346L283.186 63.33ZM303.538 93.154V94.404C304.001 94.404 304.427 94.1476 304.643 93.7379C304.86 93.3281 304.832 92.8322 304.57 92.4494L303.538 93.154ZM233.394 93.154H232.144C232.144 93.8444 232.704 94.404 233.394 94.404V93.154ZM284.594 53.09L283.959 52.0133C283.955 52.0157 283.951 52.0182 283.947 52.0206L284.594 53.09ZM292.402 45.154L291.325 44.519C291.321 44.5259 291.317 44.5329 291.313 44.5399L292.402 45.154ZM292.402 22.882L291.307 23.4844C291.313 23.4954 291.319 23.5062 291.325 23.517L292.402 22.882ZM284.594 14.818L283.947 15.8874C283.951 15.8898 283.955 15.8923 283.959 15.8947L284.594 14.818ZM270.386 11.874V10.624C269.696 10.624 269.136 11.1836 269.136 11.874H270.386ZM270.386 56.034H269.136C269.136 56.7244 269.696 57.284 270.386 57.284V56.034ZM261.042 83.682V84.932C261.732 84.932 262.292 84.3724 262.292 83.682H261.042ZM261.042 12.002H262.292C262.292 11.3117 261.732 10.752 261.042 10.752V12.002ZM242.866 12.002V10.752C242.176 10.752 241.616 11.3117 241.616 12.002H242.866ZM242.866 83.682H241.616C241.616 84.3724 242.176 84.932 242.866 84.932V83.682ZM285.234 83.682V84.932C285.698 84.932 286.124 84.6747 286.34 84.2638C286.556 83.8529 286.527 83.356 286.264 82.9735L285.234 83.682ZM272.818 65.634L273.848 64.9255C273.615 64.5865 273.229 64.384 272.818 64.384V65.634ZM270.386 65.634V64.384C269.696 64.384 269.136 64.9436 269.136 65.634H270.386ZM270.386 83.682H269.136C269.136 84.3724 269.696 84.932 270.386 84.932V83.682ZM233.394 2.658V3.908H273.842V2.658V1.408H233.394V2.658ZM273.842 2.658V3.908C279.432 3.908 284.502 5.26157 289.079 7.95892L289.714 6.882L290.349 5.80508C285.369 2.87043 279.857 1.408 273.842 1.408V2.658ZM289.714 6.882L289.102 7.97198C293.775 10.5952 297.454 14.1933 300.157 18.7806L301.234 18.146L302.311 17.5114C299.382 12.5414 295.381 8.63011 290.326 5.79202L289.714 6.882ZM301.234 18.146L300.157 18.7806C302.854 23.3579 304.208 28.4278 304.208 34.018H305.458H306.708C306.708 28.0029 305.246 22.4914 302.311 17.5114L301.234 18.146ZM305.458 34.018H304.208C304.208 40.6568 302.207 46.5761 298.194 51.8181L299.186 52.578L300.179 53.3379C304.528 47.6573 306.708 41.2032 306.708 34.018H305.458ZM299.186 52.578L298.199 51.8106C294.181 56.977 289.076 60.4057 282.853 62.1252L283.186 63.33L283.519 64.5349C290.267 62.6703 295.828 58.931 300.173 53.3454L299.186 52.578ZM283.186 63.33L282.154 64.0346L302.505 93.8586L303.538 93.154L304.57 92.4494L284.219 62.6254L283.186 63.33ZM303.538 93.154V91.904H233.394V93.154V94.404H303.538V93.154ZM233.394 93.154H234.644V2.658H233.394H232.144V93.154H233.394ZM273.842 56.034V57.284C277.987 57.284 281.796 56.2445 285.241 54.1594L284.594 53.09L283.947 52.0206C280.906 53.8608 277.548 54.784 273.842 54.784V56.034ZM284.594 53.09L285.229 54.1667C288.744 52.0937 291.504 49.2898 293.491 45.7682L292.402 45.154L291.313 44.5399C289.545 47.6742 287.1 50.1609 283.959 52.0133L284.594 53.09ZM292.402 45.154L293.479 45.789C295.562 42.2569 296.596 38.3234 296.596 34.018H295.346H294.096C294.096 37.9046 293.168 41.3951 291.325 44.519L292.402 45.154ZM295.346 34.018H296.596C296.596 29.7126 295.562 25.7791 293.479 22.247L292.402 22.882L291.325 23.517C293.168 26.6409 294.096 30.1314 294.096 34.018H295.346ZM292.402 22.882L293.497 22.2796C291.513 18.6714 288.752 15.8189 285.229 13.7413L284.594 14.818L283.959 15.8947C287.092 17.7424 289.537 20.2659 291.307 23.4844L292.402 22.882ZM284.594 14.818L285.241 13.7486C281.796 11.6635 277.987 10.624 273.842 10.624V11.874V13.124C277.548 13.124 280.906 14.0472 283.947 15.8874L284.594 14.818ZM273.842 11.874V10.624H270.386V11.874V13.124H273.842V11.874ZM270.386 11.874H269.136V56.034H270.386H271.636V11.874H270.386ZM270.386 56.034V57.284H273.842V56.034V54.784H270.386V56.034ZM261.042 83.682H262.292V12.002H261.042H259.792V83.682H261.042ZM261.042 12.002V10.752H242.866V12.002V13.252H261.042V12.002ZM242.866 12.002H241.616V83.682H242.866H244.116V12.002H242.866ZM242.866 83.682V84.932H261.042V83.682V82.432H242.866V83.682ZM285.234 83.682L286.264 82.9735L273.848 64.9255L272.818 65.634L271.788 66.3425L284.204 84.3905L285.234 83.682ZM272.818 65.634V64.384H270.386V65.634V66.884H272.818V65.634ZM270.386 65.634H269.136V83.682H270.386H271.636V65.634H270.386ZM270.386 83.682V84.932H285.234V83.682V82.432H270.386V83.682ZM316.896 92.386L315.982 93.2389C316.002 93.2599 316.022 93.2802 316.043 93.2998L316.896 92.386ZM316.896 83.554L317.78 84.4379V84.4379L316.896 83.554ZM325.728 83.554L324.814 84.4069C324.834 84.4279 324.854 84.4482 324.875 84.4678L325.728 83.554ZM325.728 92.386L324.844 91.5021V91.5021L325.728 92.386ZM321.376 94.178V92.928C319.995 92.928 318.804 92.457 317.749 91.4722L316.896 92.386L316.043 93.2998C317.548 94.7043 319.344 95.428 321.376 95.428V94.178ZM316.896 92.386L317.81 91.5331C316.825 90.4779 316.354 89.2871 316.354 87.906H315.104H313.854C313.854 89.9383 314.578 91.7341 315.982 93.2389L316.896 92.386ZM315.104 87.906H316.354C316.354 86.5271 316.822 85.3955 317.78 84.4379L316.896 83.554L316.012 82.6701C314.58 84.1019 313.854 85.8716 313.854 87.906H315.104ZM316.896 83.554L317.78 84.4379C318.841 83.3765 320.023 82.884 321.376 82.884V81.634V80.384C319.316 80.384 317.511 81.1715 316.012 82.6701L316.896 83.554ZM321.376 81.634V82.884C322.726 82.884 323.849 83.3728 324.814 84.4069L325.728 83.554L326.642 82.7011C325.218 81.1752 323.439 80.384 321.376 80.384V81.634ZM325.728 83.554L324.875 84.4678C325.909 85.433 326.398 86.5559 326.398 87.906H327.648H328.898C328.898 85.8428 328.107 84.0643 326.581 82.6402L325.728 83.554ZM327.648 87.906H326.398C326.398 89.2595 325.905 90.4408 324.844 91.5021L325.728 92.386L326.612 93.2699C328.111 91.7713 328.898 89.9659 328.898 87.906H327.648ZM325.728 92.386L324.844 91.5021C323.887 92.4597 322.755 92.928 321.376 92.928V94.178V95.428C323.41 95.428 325.18 94.7016 326.612 93.2699L325.728 92.386ZM356.299 88.93L355.66 90.0041C355.665 90.0071 355.67 90.01 355.675 90.013L356.299 88.93ZM339.147 71.778L338.064 72.4023C338.067 72.4073 338.07 72.4124 338.073 72.4174L339.147 71.778ZM339.147 24.546L338.073 23.9066L338.067 23.9162L339.147 24.546ZM356.299 7.522L355.675 6.43904L355.669 6.44228L356.299 7.522ZM403.403 7.522L402.773 8.60174L402.779 8.60495L403.403 7.522ZM420.555 24.546L419.475 25.1758V25.1758L420.555 24.546ZM420.555 71.778L421.635 72.4079L421.638 72.4023L420.555 71.778ZM403.403 88.93L404.033 90.0097L404.037 90.0074L403.403 88.93ZM416.715 43.362V44.612C417.074 44.612 417.416 44.4577 417.653 44.1884C417.89 43.9192 418 43.5609 417.955 43.2048L416.715 43.362ZM410.443 26.85L409.414 27.5597V27.5597L410.443 26.85ZM397.259 15.202L396.658 16.298C396.665 16.3018 396.672 16.3056 396.679 16.3093L397.259 15.202ZM362.443 15.202L363.03 16.3054C363.035 16.303 363.039 16.3005 363.044 16.298L362.443 15.202ZM349.387 26.85L348.358 26.1403C348.355 26.1444 348.352 26.1484 348.35 26.1525L349.387 26.85ZM343.243 43.362L342.003 43.2048C341.958 43.5609 342.068 43.9192 342.305 44.1884C342.542 44.4577 342.884 44.612 343.243 44.612V43.362ZM397.259 81.378L397.846 82.4815L397.853 82.478L397.259 81.378ZM410.443 69.602L409.414 68.8923V68.8923L410.443 69.602ZM416.715 52.962L417.955 53.1171C418 52.7613 417.889 52.4035 417.652 52.1348C417.415 51.866 417.074 51.712 416.715 51.712V52.962ZM343.243 52.962V51.712C342.887 51.712 342.549 51.8634 342.312 52.1284C342.074 52.3933 341.961 52.7467 342.001 53.1L343.243 52.962ZM349.387 69.602L350.416 68.8923V68.8923L349.387 69.602ZM362.443 81.378L361.842 82.474C361.847 82.4765 361.851 82.479 361.856 82.4814L362.443 81.378ZM379.851 95.202V93.952C371.62 93.952 363.985 91.9179 356.923 87.8471L356.299 88.93L355.675 90.013C363.12 94.3048 371.186 96.452 379.851 96.452V95.202ZM356.299 88.93L356.938 87.8559C349.949 83.6957 344.381 78.1278 340.221 71.1386L339.147 71.778L338.073 72.4174C342.446 79.7642 348.313 85.631 355.66 90.0041L356.299 88.93ZM339.147 71.778L340.23 71.1537C336.16 64.094 334.125 56.4166 334.125 48.098H332.875H331.625C331.625 56.8461 333.771 64.9553 338.064 72.4023L339.147 71.778ZM332.875 48.098H334.125C334.125 39.7794 336.16 32.1471 340.227 25.1758L339.147 24.546L338.067 23.9162C333.771 31.2809 331.625 39.3499 331.625 48.098H332.875ZM339.147 24.546L340.221 25.1854C344.38 18.1984 349.945 12.6757 356.929 8.60173L356.299 7.522L355.669 6.44228C348.317 10.731 342.447 16.5576 338.073 23.9066L339.147 24.546ZM356.299 7.522L356.923 8.60495C363.985 4.5341 371.62 2.5 379.851 2.5V1.25V0C371.186 0 363.12 2.14724 355.675 6.43906L356.299 7.522ZM379.851 1.25V2.5C388.17 2.5 395.802 4.53516 402.773 8.60173L403.403 7.522L404.033 6.44228C396.668 2.14617 388.599 0 379.851 0V1.25ZM403.403 7.522L402.779 8.60495C409.845 12.6785 415.405 18.1977 419.475 25.1758L420.555 24.546L421.635 23.9162C417.343 16.5583 411.468 10.7282 404.027 6.43906L403.403 7.522ZM420.555 24.546L419.475 25.1758C423.542 32.1471 425.577 39.7794 425.577 48.098H426.827H428.077C428.077 39.3499 425.931 31.2809 421.635 23.9162L420.555 24.546ZM426.827 48.098H425.577C425.577 56.4166 423.542 64.094 419.472 71.1537L420.555 71.778L421.638 72.4023C425.931 64.9553 428.077 56.8461 428.077 48.098H426.827ZM420.555 71.778L419.475 71.1482C415.403 78.1285 409.841 83.6929 402.769 87.8526L403.403 88.93L404.037 90.0074C411.472 85.6338 417.344 79.7635 421.635 72.4078L420.555 71.778ZM403.403 88.93L402.773 87.8503C395.802 91.9168 388.17 93.952 379.851 93.952V95.202V96.452C388.599 96.452 396.668 94.3058 404.033 90.0097L403.403 88.93ZM416.715 43.362L417.955 43.2048C417.162 36.951 415.001 31.257 411.472 26.1403L410.443 26.85L409.414 27.5597C412.712 32.3417 414.732 37.6557 415.475 43.5192L416.715 43.362ZM410.443 26.85L411.472 26.1403C407.942 21.0224 403.393 17.0039 397.839 14.0947L397.259 15.202L396.679 16.3093C401.877 19.0321 406.117 22.779 409.414 27.5597L410.443 26.85ZM397.259 15.202L397.86 14.106C392.376 11.0989 386.366 9.60001 379.851 9.60001V10.85V12.1C385.966 12.1 391.56 13.5025 396.658 16.298L397.259 15.202ZM379.851 10.85V9.60001C373.336 9.60001 367.326 11.0989 361.842 14.106L362.443 15.202L363.044 16.298C368.142 13.5025 373.736 12.1 379.851 12.1V10.85ZM362.443 15.202L361.856 14.0986C356.388 17.0089 351.885 21.0268 348.358 26.1403L349.387 26.85L350.416 27.5597C353.716 22.7745 357.917 19.0271 363.03 16.3054L362.443 15.202ZM349.387 26.85L348.35 26.1525C344.91 31.2676 342.795 36.9575 342.003 43.2048L343.243 43.362L344.483 43.5192C345.227 37.6492 347.208 32.331 350.424 27.5475L349.387 26.85ZM343.243 43.362V44.612H416.715V43.362V42.112H343.243V43.362ZM379.851 85.602V86.852C386.359 86.852 392.365 85.3989 397.846 82.4814L397.259 81.378L396.672 80.2746C391.572 82.9892 385.972 84.352 379.851 84.352V85.602ZM397.259 81.378L397.853 82.478C403.4 79.4844 407.945 75.4264 411.472 70.3117L410.443 69.602L409.414 68.8923C406.115 73.6763 401.87 77.4689 396.665 80.278L397.259 81.378ZM410.443 69.602L411.472 70.3117C415.003 65.1921 417.163 59.454 417.955 53.1171L416.715 52.962L415.475 52.807C414.731 58.758 412.71 64.1133 409.414 68.8923L410.443 69.602ZM416.715 52.962V51.712H343.243V52.962V54.212H416.715V52.962ZM343.243 52.962L342.001 53.1C342.705 59.4433 344.824 65.1874 348.358 70.3117L349.387 69.602L350.416 68.8923C347.123 64.1179 345.146 58.7687 344.485 52.824L343.243 52.962ZM349.387 69.602L348.358 70.3117C351.882 75.422 356.381 79.4794 361.842 82.474L362.443 81.378L363.044 80.282C357.924 77.474 353.718 73.6807 350.416 68.8923L349.387 69.602ZM362.443 81.378L361.856 82.4814C367.337 85.3989 373.343 86.852 379.851 86.852V85.602V84.352C373.73 84.352 368.13 82.9892 363.03 80.2746L362.443 81.378ZM433.771 92.386L432.857 93.2389C432.877 93.2599 432.897 93.2802 432.918 93.2998L433.771 92.386ZM433.771 83.554L434.655 84.4379V84.4379L433.771 83.554ZM442.603 83.554L441.689 84.4069C441.709 84.4279 441.729 84.4482 441.75 84.4678L442.603 83.554ZM442.603 92.386L441.719 91.5021V91.5021L442.603 92.386ZM438.251 94.178V92.928C436.87 92.928 435.679 92.457 434.624 91.4722L433.771 92.386L432.918 93.2998C434.423 94.7043 436.219 95.428 438.251 95.428V94.178ZM433.771 92.386L434.685 91.5331C433.7 90.4779 433.229 89.2871 433.229 87.906H431.979H430.729C430.729 89.9383 431.453 91.7341 432.857 93.2389L433.771 92.386ZM431.979 87.906H433.229C433.229 86.5271 433.697 85.3955 434.655 84.4379L433.771 83.554L432.887 82.6701C431.455 84.1019 430.729 85.8716 430.729 87.906H431.979ZM433.771 83.554L434.655 84.4379C435.716 83.3765 436.898 82.884 438.251 82.884V81.634V80.384C436.191 80.384 434.386 81.1715 432.887 82.6701L433.771 83.554ZM438.251 81.634V82.884C439.601 82.884 440.724 83.3728 441.689 84.4069L442.603 83.554L443.517 82.7011C442.093 81.1752 440.314 80.384 438.251 80.384V81.634ZM442.603 83.554L441.75 84.4678C442.784 85.433 443.273 86.5559 443.273 87.906H444.523H445.773C445.773 85.8428 444.982 84.0643 443.456 82.6402L442.603 83.554ZM444.523 87.906H443.273C443.273 89.2595 442.78 90.4408 441.719 91.5021L442.603 92.386L443.487 93.2699C444.986 91.7713 445.773 89.9659 445.773 87.906H444.523ZM442.603 92.386L441.719 91.5021C440.762 92.4597 439.63 92.928 438.251 92.928V94.178V95.428C440.285 95.428 442.055 94.7016 443.487 93.2699L442.603 92.386ZM460.144 3.042V1.792C459.454 1.792 458.894 2.35165 458.894 3.042H460.144ZM529.648 3.042H530.898C530.898 2.35165 530.338 1.792 529.648 1.792V3.042ZM529.648 93.154V94.404C530.338 94.404 530.898 93.8444 530.898 93.154H529.648ZM460.144 93.154H458.894C458.894 93.8444 459.454 94.404 460.144 94.404V93.154ZM518.384 83.554V84.804C518.795 84.804 519.179 84.6022 519.413 84.2642C519.646 83.9261 519.698 83.495 519.553 83.1109L518.384 83.554ZM491.504 12.642L492.673 12.1989C492.489 11.7132 492.023 11.392 491.504 11.392V12.642ZM471.92 12.642V11.392C471.509 11.392 471.125 11.5938 470.891 11.9318C470.658 12.2699 470.606 12.701 470.751 13.0851L471.92 12.642ZM498.8 83.554L497.631 83.9971C497.815 84.4828 498.281 84.804 498.8 84.804V83.554ZM520.048 12.642H521.298C521.298 11.9517 520.738 11.392 520.048 11.392V12.642ZM501.744 12.642V11.392C501.333 11.392 500.948 11.5942 500.715 11.9329C500.481 12.2715 500.43 12.7032 500.576 13.0874L501.744 12.642ZM520.048 60.642L518.88 61.0874C519.095 61.6508 519.681 61.9806 520.274 61.8713C520.867 61.7621 521.298 61.245 521.298 60.642H520.048ZM488.56 83.554V84.804C488.971 84.804 489.356 84.6019 489.589 84.2634C489.823 83.9249 489.874 83.4933 489.728 83.1091L488.56 83.554ZM469.744 34.146L470.912 33.7011C470.698 33.1375 470.111 32.8075 469.518 32.9166C468.925 33.0258 468.494 33.5429 468.494 34.146H469.744ZM469.744 83.554H468.494C468.494 84.2444 469.054 84.804 469.744 84.804V83.554ZM460.144 3.042V4.292H529.648V3.042V1.792H460.144V3.042ZM529.648 3.042H528.398V93.154H529.648H530.898V3.042H529.648ZM529.648 93.154V91.904H460.144V93.154V94.404H529.648V93.154ZM460.144 93.154H461.394V3.042H460.144H458.894V93.154H460.144ZM518.384 83.554L519.553 83.1109L492.673 12.1989L491.504 12.642L490.335 13.0851L517.215 83.9971L518.384 83.554ZM491.504 12.642V11.392H471.92V12.642V13.892H491.504V12.642ZM471.92 12.642L470.751 13.0851L497.631 83.9971L498.8 83.554L499.969 83.1109L473.089 12.1989L471.92 12.642ZM498.8 83.554V84.804H518.384V83.554V82.304H498.8V83.554ZM520.048 12.642V11.392H501.744V12.642V13.892H520.048V12.642ZM501.744 12.642L500.576 13.0874L518.88 61.0874L520.048 60.642L521.216 60.1966L502.912 12.1966L501.744 12.642ZM520.048 60.642H521.298V12.642H520.048H518.798V60.642H520.048ZM488.56 83.554L489.728 83.1091L470.912 33.7011L469.744 34.146L468.576 34.5909L487.392 83.9989L488.56 83.554ZM469.744 34.146H468.494V83.554H469.744H470.994V34.146H469.744ZM469.744 83.554V84.804H488.56V83.554V82.304H469.744V83.554ZM546.896 92.386L545.982 93.2389C546.002 93.2599 546.022 93.2802 546.043 93.2998L546.896 92.386ZM546.896 83.554L547.78 84.4379V84.4379L546.896 83.554ZM555.728 83.554L554.814 84.4069C554.834 84.4279 554.854 84.4482 554.875 84.4678L555.728 83.554ZM555.728 92.386L554.844 91.5021V91.5021L555.728 92.386ZM551.376 94.178V92.928C549.995 92.928 548.804 92.457 547.749 91.4722L546.896 92.386L546.043 93.2998C547.548 94.7043 549.344 95.428 551.376 95.428V94.178ZM546.896 92.386L547.81 91.5331C546.825 90.4779 546.354 89.2871 546.354 87.906H545.104H543.854C543.854 89.9383 544.578 91.7341 545.982 93.2389L546.896 92.386ZM545.104 87.906H546.354C546.354 86.5271 546.822 85.3955 547.78 84.4379L546.896 83.554L546.012 82.6701C544.58 84.1019 543.854 85.8716 543.854 87.906H545.104ZM546.896 83.554L547.78 84.4379C548.841 83.3765 550.023 82.884 551.376 82.884V81.634V80.384C549.316 80.384 547.511 81.1715 546.012 82.6701L546.896 83.554ZM551.376 81.634V82.884C552.726 82.884 553.849 83.3728 554.814 84.4069L555.728 83.554L556.642 82.7011C555.218 81.1752 553.439 80.384 551.376 80.384V81.634ZM555.728 83.554L554.875 84.4678C555.909 85.433 556.398 86.5559 556.398 87.906H557.648H558.898C558.898 85.8428 558.107 84.0643 556.581 82.6402L555.728 83.554ZM557.648 87.906H556.398C556.398 89.2595 555.905 90.4408 554.844 91.5021L555.728 92.386L556.612 93.2699C558.111 91.7713 558.898 89.9659 558.898 87.906H557.648ZM555.728 92.386L554.844 91.5021C553.887 92.4597 552.755 92.928 551.376 92.928V94.178V95.428C553.41 95.428 555.18 94.7016 556.612 93.2699L555.728 92.386ZM586.299 88.93L585.66 90.0041C585.665 90.0071 585.67 90.01 585.675 90.013L586.299 88.93ZM569.147 71.778L568.064 72.4023C568.067 72.4073 568.07 72.4124 568.073 72.4174L569.147 71.778ZM569.147 24.546L568.073 23.9066L568.067 23.9162L569.147 24.546ZM586.299 7.522L585.675 6.43904L585.669 6.44228L586.299 7.522ZM633.403 7.522L632.773 8.60174L632.779 8.60495L633.403 7.522ZM650.555 24.546L649.475 25.1758V25.1758L650.555 24.546ZM650.555 71.778L651.635 72.4079L651.638 72.4023L650.555 71.778ZM633.403 88.93L634.033 90.0097L634.037 90.0074L633.403 88.93ZM646.715 43.362V44.612C647.074 44.612 647.416 44.4577 647.653 44.1884C647.89 43.9192 648 43.5609 647.955 43.2048L646.715 43.362ZM640.443 26.85L639.414 27.5597V27.5597L640.443 26.85ZM627.259 15.202L626.658 16.298C626.665 16.3018 626.672 16.3056 626.679 16.3093L627.259 15.202ZM592.443 15.202L593.03 16.3054C593.035 16.303 593.039 16.3005 593.044 16.298L592.443 15.202ZM579.387 26.85L578.358 26.1403C578.355 26.1444 578.352 26.1484 578.35 26.1525L579.387 26.85ZM573.243 43.362L572.003 43.2048C571.958 43.5609 572.068 43.9192 572.305 44.1884C572.542 44.4577 572.884 44.612 573.243 44.612V43.362ZM627.259 81.378L627.846 82.4815L627.853 82.478L627.259 81.378ZM640.443 69.602L639.414 68.8923V68.8923L640.443 69.602ZM646.715 52.962L647.955 53.1171C648 52.7613 647.889 52.4035 647.652 52.1348C647.415 51.866 647.074 51.712 646.715 51.712V52.962ZM573.243 52.962V51.712C572.887 51.712 572.549 51.8634 572.312 52.1284C572.074 52.3933 571.961 52.7467 572.001 53.1L573.243 52.962ZM579.387 69.602L580.416 68.8923V68.8923L579.387 69.602ZM592.443 81.378L591.842 82.474C591.847 82.4765 591.851 82.479 591.856 82.4814L592.443 81.378ZM609.851 95.202V93.952C601.62 93.952 593.985 91.9179 586.923 87.8471L586.299 88.93L585.675 90.013C593.12 94.3048 601.186 96.452 609.851 96.452V95.202ZM586.299 88.93L586.938 87.8559C579.949 83.6957 574.381 78.1278 570.221 71.1386L569.147 71.778L568.073 72.4174C572.446 79.7642 578.313 85.631 585.66 90.0041L586.299 88.93ZM569.147 71.778L570.23 71.1537C566.16 64.094 564.125 56.4166 564.125 48.098H562.875H561.625C561.625 56.8461 563.771 64.9553 568.064 72.4023L569.147 71.778ZM562.875 48.098H564.125C564.125 39.7794 566.16 32.1471 570.227 25.1758L569.147 24.546L568.067 23.9162C563.771 31.2809 561.625 39.3499 561.625 48.098H562.875ZM569.147 24.546L570.221 25.1854C574.38 18.1984 579.945 12.6757 586.929 8.60173L586.299 7.522L585.669 6.44228C578.317 10.731 572.447 16.5576 568.073 23.9066L569.147 24.546ZM586.299 7.522L586.923 8.60495C593.985 4.5341 601.62 2.5 609.851 2.5V1.25V0C601.186 0 593.12 2.14724 585.675 6.43906L586.299 7.522ZM609.851 1.25V2.5C618.17 2.5 625.802 4.53516 632.773 8.60173L633.403 7.522L634.033 6.44228C626.668 2.14617 618.599 0 609.851 0V1.25ZM633.403 7.522L632.779 8.60495C639.845 12.6785 645.405 18.1977 649.475 25.1758L650.555 24.546L651.635 23.9162C647.343 16.5583 641.468 10.7282 634.027 6.43906L633.403 7.522ZM650.555 24.546L649.475 25.1758C653.542 32.1471 655.577 39.7794 655.577 48.098H656.827H658.077C658.077 39.3499 655.931 31.2809 651.635 23.9162L650.555 24.546ZM656.827 48.098H655.577C655.577 56.4166 653.542 64.094 649.472 71.1537L650.555 71.778L651.638 72.4023C655.931 64.9553 658.077 56.8461 658.077 48.098H656.827ZM650.555 71.778L649.475 71.1482C645.403 78.1285 639.841 83.6929 632.769 87.8526L633.403 88.93L634.037 90.0074C641.472 85.6338 647.344 79.7635 651.635 72.4078L650.555 71.778ZM633.403 88.93L632.773 87.8503C625.802 91.9168 618.17 93.952 609.851 93.952V95.202V96.452C618.599 96.452 626.668 94.3058 634.033 90.0097L633.403 88.93ZM646.715 43.362L647.955 43.2048C647.162 36.951 645.001 31.257 641.472 26.1403L640.443 26.85L639.414 27.5597C642.712 32.3417 644.732 37.6557 645.475 43.5192L646.715 43.362ZM640.443 26.85L641.472 26.1403C637.942 21.0224 633.393 17.0039 627.839 14.0947L627.259 15.202L626.679 16.3093C631.877 19.0321 636.117 22.779 639.414 27.5597L640.443 26.85ZM627.259 15.202L627.86 14.106C622.376 11.0989 616.366 9.60001 609.851 9.60001V10.85V12.1C615.966 12.1 621.56 13.5025 626.658 16.298L627.259 15.202ZM609.851 10.85V9.60001C603.336 9.60001 597.326 11.0989 591.842 14.106L592.443 15.202L593.044 16.298C598.142 13.5025 603.736 12.1 609.851 12.1V10.85ZM592.443 15.202L591.856 14.0986C586.388 17.0089 581.885 21.0268 578.358 26.1403L579.387 26.85L580.416 27.5597C583.716 22.7745 587.917 19.0271 593.03 16.3054L592.443 15.202ZM579.387 26.85L578.35 26.1525C574.91 31.2676 572.795 36.9575 572.003 43.2048L573.243 43.362L574.483 43.5192C575.227 37.6492 577.208 32.331 580.424 27.5475L579.387 26.85ZM573.243 43.362V44.612H646.715V43.362V42.112H573.243V43.362ZM609.851 85.602V86.852C616.359 86.852 622.365 85.3989 627.846 82.4814L627.259 81.378L626.672 80.2746C621.572 82.9892 615.972 84.352 609.851 84.352V85.602ZM627.259 81.378L627.853 82.478C633.4 79.4844 637.945 75.4264 641.472 70.3117L640.443 69.602L639.414 68.8923C636.115 73.6763 631.87 77.4689 626.665 80.278L627.259 81.378ZM640.443 69.602L641.472 70.3117C645.003 65.1921 647.163 59.454 647.955 53.1171L646.715 52.962L645.475 52.807C644.731 58.758 642.71 64.1133 639.414 68.8923L640.443 69.602ZM646.715 52.962V51.712H573.243V52.962V54.212H646.715V52.962ZM573.243 52.962L572.001 53.1C572.705 59.4433 574.824 65.1874 578.358 70.3117L579.387 69.602L580.416 68.8923C577.123 64.1179 575.146 58.7687 574.485 52.824L573.243 52.962ZM579.387 69.602L578.358 70.3117C581.882 75.422 586.381 79.4794 591.842 82.474L592.443 81.378L593.044 80.282C587.924 77.474 583.718 73.6807 580.416 68.8923L579.387 69.602ZM592.443 81.378L591.856 82.4814C597.337 85.3989 603.343 86.852 609.851 86.852V85.602V84.352C603.73 84.352 598.13 82.9892 593.03 80.2746L592.443 81.378ZM663.771 92.386L662.857 93.2389C662.877 93.2599 662.897 93.2802 662.918 93.2998L663.771 92.386ZM663.771 83.554L664.655 84.4379V84.4379L663.771 83.554ZM672.603 83.554L671.689 84.4069C671.709 84.4279 671.729 84.4482 671.75 84.4678L672.603 83.554ZM672.603 92.386L671.719 91.5021V91.5021L672.603 92.386ZM668.251 94.178V92.928C666.87 92.928 665.679 92.457 664.624 91.4722L663.771 92.386L662.918 93.2998C664.423 94.7043 666.219 95.428 668.251 95.428V94.178ZM663.771 92.386L664.685 91.5331C663.7 90.4779 663.229 89.2871 663.229 87.906H661.979H660.729C660.729 89.9383 661.453 91.7341 662.857 93.2389L663.771 92.386ZM661.979 87.906H663.229C663.229 86.5271 663.697 85.3955 664.655 84.4379L663.771 83.554L662.887 82.6701C661.455 84.1019 660.729 85.8716 660.729 87.906H661.979ZM663.771 83.554L664.655 84.4379C665.716 83.3765 666.898 82.884 668.251 82.884V81.634V80.384C666.191 80.384 664.386 81.1715 662.887 82.6701L663.771 83.554ZM668.251 81.634V82.884C669.601 82.884 670.724 83.3728 671.689 84.4069L672.603 83.554L673.517 82.7011C672.093 81.1752 670.314 80.384 668.251 80.384V81.634ZM672.603 83.554L671.75 84.4678C672.784 85.433 673.273 86.5559 673.273 87.906H674.523H675.773C675.773 85.8428 674.982 84.0643 673.456 82.6402L672.603 83.554ZM674.523 87.906H673.273C673.273 89.2595 672.78 90.4408 671.719 91.5021L672.603 92.386L673.487 93.2699C674.986 91.7713 675.773 89.9659 675.773 87.906H674.523ZM672.603 92.386L671.719 91.5021C670.762 92.4597 669.63 92.928 668.251 92.928V94.178V95.428C670.285 95.428 672.055 94.7016 673.487 93.2699L672.603 92.386ZM686.304 58.338V57.088C685.614 57.088 685.054 57.6476 685.054 58.338H686.304ZM712.416 58.338V59.588C713.106 59.588 713.666 59.0284 713.666 58.338H712.416ZM712.416 52.322H713.666C713.666 51.6317 713.106 51.072 712.416 51.072V52.322ZM697.056 49.122L696.409 50.1917C696.419 50.1975 696.429 50.2032 696.438 50.2088L697.056 49.122ZM688.224 40.29L687.137 40.9075C687.143 40.9173 687.148 40.9271 687.154 40.9368L688.224 40.29ZM688.224 14.69L687.148 14.0541L687.143 14.0617L688.224 14.69ZM697.056 5.858L697.684 6.93866L697.692 6.93416L697.056 5.858ZM745.952 2.53001H747.202C747.202 1.83965 746.642 1.28001 745.952 1.28001V2.53001ZM745.952 37.346V38.596C746.642 38.596 747.202 38.0364 747.202 37.346H745.952ZM722.656 37.346V36.096C721.966 36.096 721.406 36.6556 721.406 37.346H722.656ZM722.656 43.362H721.406C721.406 44.0524 721.966 44.612 722.656 44.612V43.362ZM738.144 46.69L737.508 47.7662C737.514 47.7698 737.52 47.7733 737.526 47.7768L738.144 46.69ZM746.976 55.522L745.889 56.1395C745.895 56.1494 745.901 56.1591 745.906 56.1688L746.976 55.522ZM746.976 81.122L745.9 80.4861L745.895 80.4937L746.976 81.122ZM738.144 89.954L738.762 91.0408C738.768 91.0373 738.774 91.0338 738.78 91.0302L738.144 89.954ZM686.304 93.154H685.054C685.054 93.8444 685.614 94.404 686.304 94.404V93.154ZM712.416 42.978V44.228C713.106 44.228 713.666 43.6684 713.666 42.978H712.416ZM712.416 12.002H713.666C713.666 11.3117 713.106 10.752 712.416 10.752V12.002ZM698.848 16.354L697.964 15.4701V15.4701L698.848 16.354ZM698.848 38.626L697.951 39.497C697.956 39.5013 697.96 39.5056 697.964 39.5099L698.848 38.626ZM736.48 27.874V29.124C737.17 29.124 737.73 28.5644 737.73 27.874H736.48ZM736.48 12.002H737.73C737.73 11.3117 737.17 10.752 736.48 10.752V12.002ZM722.656 12.002V10.752C721.966 10.752 721.406 11.3117 721.406 12.002H722.656ZM722.656 27.874H721.406C721.406 28.5644 721.966 29.124 722.656 29.124V27.874ZM722.656 52.834V51.584C721.966 51.584 721.406 52.1436 721.406 52.834H722.656ZM722.656 83.682H721.406C721.406 84.3724 721.966 84.932 722.656 84.932V83.682ZM712.416 83.682V84.932C713.106 84.932 713.666 84.3724 713.666 83.682H712.416ZM712.416 67.81H713.666C713.666 67.1197 713.106 66.56 712.416 66.56V67.81ZM695.776 67.81V66.56C695.086 66.56 694.526 67.1197 694.526 67.81H695.776ZM695.776 83.682H694.526C694.526 84.3724 695.086 84.932 695.776 84.932V83.682ZM686.304 58.338V59.588H712.416V58.338V57.088H686.304V58.338ZM712.416 58.338H713.666V52.322H712.416H711.166V58.338H712.416ZM712.416 52.322V51.072H709.344V52.322V53.572H712.416V52.322ZM709.344 52.322V51.072C705.117 51.072 701.235 50.0585 697.674 48.0352L697.056 49.122L696.438 50.2088C700.387 52.4521 704.696 53.572 709.344 53.572V52.322ZM697.056 49.122L697.703 48.0523C694.207 45.9383 691.408 43.1395 689.294 39.6432L688.224 40.29L687.154 40.9368C689.478 44.7792 692.567 47.8683 696.409 50.1917L697.056 49.122ZM688.224 40.29L689.311 39.6725C687.287 36.1114 686.274 32.2291 686.274 28.002H685.024H683.774C683.774 32.6496 684.894 36.9593 687.137 40.9075L688.224 40.29ZM685.024 28.002H686.274V26.85H685.024H683.774V28.002H685.024ZM685.024 26.85H686.274C686.274 22.6229 687.287 18.788 689.305 15.3183L688.224 14.69L687.143 14.0617C684.894 17.9307 683.774 22.2024 683.774 26.85H685.024ZM688.224 14.69L689.3 15.3259C691.413 11.7501 694.205 8.96144 697.684 6.93864L697.056 5.858L696.428 4.77737C692.568 7.02123 689.472 10.1206 687.148 14.0541L688.224 14.69ZM697.056 5.858L697.692 6.93416C701.25 4.83138 705.126 3.78001 709.344 3.78001V2.53001V1.28001C704.687 1.28001 700.371 2.4473 696.42 4.78185L697.056 5.858ZM709.344 2.53001V3.78001H745.952V2.53001V1.28001H709.344V2.53001ZM745.952 2.53001H744.702V37.346H745.952H747.202V2.53001H745.952ZM745.952 37.346V36.096H722.656V37.346V38.596H745.952V37.346ZM722.656 37.346H721.406V43.362H722.656H723.906V37.346H722.656ZM722.656 43.362V44.612H725.856V43.362V42.112H722.656V43.362ZM725.856 43.362V44.612C730.074 44.612 733.95 45.6634 737.508 47.7662L738.144 46.69L738.78 45.6138C734.829 43.2793 730.513 42.112 725.856 42.112V43.362ZM738.144 46.69L737.526 47.7768C741.085 49.7989 743.867 52.5807 745.889 56.1395L746.976 55.522L748.063 54.9045C745.818 50.954 742.712 47.8478 738.762 45.6032L738.144 46.69ZM746.976 55.522L745.906 56.1688C748.003 59.636 749.054 63.4643 749.054 67.682H750.304H751.554C751.554 63.025 750.387 58.7467 748.046 54.8752L746.976 55.522ZM750.304 67.682H749.054V68.834H750.304H751.554V67.682H750.304ZM750.304 68.834H749.054C749.054 73.0517 748.003 76.9275 745.9 80.4861L746.976 81.122L748.052 81.7579C750.387 77.8072 751.554 73.4909 751.554 68.834H750.304ZM746.976 81.122L745.895 80.4937C743.873 83.9729 741.084 86.7649 737.508 88.8779L738.144 89.954L738.78 91.0302C742.713 88.7058 745.813 85.6097 748.057 81.7503L746.976 81.122ZM738.144 89.954L737.526 88.8672C733.965 90.8905 730.083 91.904 725.856 91.904V93.154V94.404C730.504 94.404 734.813 93.2841 738.762 91.0408L738.144 89.954ZM725.856 93.154V91.904H686.304V93.154V94.404H725.856V93.154ZM686.304 93.154H687.554V58.338H686.304H685.054V93.154H686.304ZM712.416 42.978H713.666V12.002H712.416H711.166V42.978H712.416ZM712.416 12.002V10.752H709.344V12.002V13.252H712.416V12.002ZM709.344 12.002V10.752C704.916 10.752 701.099 12.3348 697.964 15.4701L698.848 16.354L699.732 17.2379C702.399 14.5705 705.58 13.252 709.344 13.252V12.002ZM698.848 16.354L697.964 15.4701C694.829 18.6054 693.246 22.4218 693.246 26.85H694.496H695.746C695.746 23.0862 697.065 19.9053 699.732 17.2379L698.848 16.354ZM694.496 26.85H693.246V28.002H694.496H695.746V26.85H694.496ZM694.496 28.002H693.246C693.246 32.4292 694.828 36.2813 697.951 39.497L698.848 38.626L699.745 37.755C697.066 34.9973 695.746 31.7668 695.746 28.002H694.496ZM698.848 38.626L697.964 39.5099C701.099 42.6452 704.916 44.228 709.344 44.228V42.978V41.728C705.58 41.728 702.399 40.4095 699.732 37.7421L698.848 38.626ZM709.344 42.978V44.228H712.416V42.978V41.728H709.344V42.978ZM736.48 27.874H737.73V12.002H736.48H735.23V27.874H736.48ZM736.48 12.002V10.752H722.656V12.002V13.252H736.48V12.002ZM722.656 12.002H721.406V27.874H722.656H723.906V12.002H722.656ZM722.656 27.874V29.124H736.48V27.874V26.624H722.656V27.874ZM725.856 83.682V84.932C730.362 84.932 734.223 83.3546 737.364 80.2139L736.48 79.33L735.596 78.4461C732.934 81.1081 729.713 82.432 725.856 82.432V83.682ZM736.48 79.33L737.364 80.2139C740.499 77.0786 742.082 73.2622 742.082 68.834H740.832H739.582C739.582 72.5978 738.263 75.7787 735.596 78.4461L736.48 79.33ZM740.832 68.834H742.082V67.682H740.832H739.582V68.834H740.832ZM740.832 67.682H742.082C742.082 63.2538 740.499 59.4374 737.364 56.3021L736.48 57.186L735.596 58.0699C738.263 60.7373 739.582 63.9182 739.582 67.682H740.832ZM736.48 57.186L737.364 56.3021C734.223 53.1614 730.362 51.584 725.856 51.584V52.834V54.084C729.713 54.084 732.934 55.4079 735.596 58.0699L736.48 57.186ZM725.856 52.834V51.584H722.656V52.834V54.084H725.856V52.834ZM722.656 52.834H721.406V83.682H722.656H723.906V52.834H722.656ZM722.656 83.682V84.932H725.856V83.682V82.432H722.656V83.682ZM712.416 83.682H713.666V67.81H712.416H711.166V83.682H712.416ZM712.416 67.81V66.56H695.776V67.81V69.06H712.416V67.81ZM695.776 67.81H694.526V83.682H695.776H697.026V67.81H695.776ZM695.776 83.682V84.932H712.416V83.682V82.432H695.776V83.682ZM761.271 92.386L760.357 93.2389C760.377 93.2599 760.397 93.2802 760.418 93.2998L761.271 92.386ZM761.271 83.554L762.155 84.4379V84.4379L761.271 83.554ZM770.103 83.554L769.189 84.4069C769.209 84.4279 769.229 84.4482 769.25 84.4678L770.103 83.554ZM770.103 92.386L769.219 91.5021V91.5021L770.103 92.386ZM765.751 94.178V92.928C764.37 92.928 763.179 92.457 762.124 91.4722L761.271 92.386L760.418 93.2998C761.923 94.7043 763.719 95.428 765.751 95.428V94.178ZM761.271 92.386L762.185 91.5331C761.2 90.4779 760.729 89.2871 760.729 87.906H759.479H758.229C758.229 89.9383 758.953 91.7341 760.357 93.2389L761.271 92.386ZM759.479 87.906H760.729C760.729 86.5271 761.197 85.3955 762.155 84.4379L761.271 83.554L760.387 82.6701C758.955 84.1019 758.229 85.8716 758.229 87.906H759.479ZM761.271 83.554L762.155 84.4379C763.216 83.3765 764.398 82.884 765.751 82.884V81.634V80.384C763.691 80.384 761.886 81.1715 760.387 82.6701L761.271 83.554ZM765.751 81.634V82.884C767.101 82.884 768.224 83.3728 769.189 84.4069L770.103 83.554L771.017 82.7011C769.593 81.1752 767.814 80.384 765.751 80.384V81.634ZM770.103 83.554L769.25 84.4678C770.284 85.433 770.773 86.5559 770.773 87.906H772.023H773.273C773.273 85.8428 772.482 84.0643 770.956 82.6402L770.103 83.554ZM772.023 87.906H770.773C770.773 89.2595 770.28 90.4408 769.219 91.5021L770.103 92.386L770.987 93.2699C772.486 91.7713 773.273 89.9659 773.273 87.906H772.023ZM770.103 92.386L769.219 91.5021C768.262 92.4597 767.13 92.928 765.751 92.928V94.178V95.428C767.785 95.428 769.555 94.7016 770.987 93.2699L770.103 92.386Z" fill="#FAAF00" fill-opacity="0.57"/>
</g>
<defs>
<filter id="filter0_d_2_2" x="0" y="0" width="777.273" height="104.452" filterUnits="userSpaceOnUse" color-interpolation-filters="sRGB">
<feFlood flood-opacity="0" result="BackgroundImageFix"/>
<feColorMatrix in="SourceAlpha" type="matrix" values="0 0 0 0 0 0 0 0 0 0 0 0 0 0 0 0 0 0 127 0" result="hardAlpha"/>
<feOffset dy="4"/>
<feGaussianBlur stdDeviation="2"/>
<feComposite in2="hardAlpha" operator="out"/>
<feColorMatrix type="matrix" values="0 0 0 0 0 0 0 0 0 0 0 0 0 0 0 0 0 0 0.25 0"/>
<feBlend mode="normal" in2="BackgroundImageFix" result="effect1_dropShadow_2_2"/>
<feBlend mode="normal" in="SourceGraphic" in2="effect1_dropShadow_2_2" result="shape"/>
</filter>
</defs>
</svg>
