<?xml version="1.0" encoding="UTF-8"?>
<svg id="a" data-name="Layer 2" xmlns="http://www.w3.org/2000/svg" viewBox="0 0 211 186">
  <defs>
    <style>
      .b, .c {
        fill: none;
      }

      .d, .e {
        stroke: #713a23;
      }

      .d, .e, .f, .c {
        stroke-miterlimit: 10;
      }

      .d, .f {
        fill: #633;
      }

      .e {
        fill: #633;
      }

      .f {
        stroke: #f5efe6;
      }

      .c {
        stroke: #713a23;
      }
    </style>
  </defs>
  <path class="e" d="M209.45,74.01c-1.06-7.47-9.59-7.1-9.59-7.1v-6.46c-1.03-6.47-6.73-7.51-6.73-7.51l-8.24.08c-.65.01-1.17-.51-1.17-1.16v-18.43L149.62.98l-88.92.68L27.37,33.69v17.76c0,.73-.59,1.32-1.32,1.32h-6.33c-1.14,0-2.28.16-3.35.54-2.9,1.03-4.43,2.88-5.22,4.34-.54,1.01-.78,2.15-.8,3.28l-.07,5.14c-8.48,1.25-9.06,7.76-9.06,7.76v22.71c1.79,6.48,9.32,6.73,9.32,6.73v6.17c0,.77.19,1.55.61,2.2,2.68,4.15,6.95,4.16,6.99,4.16h8.01c.67,0,1.22.54,1.22,1.22v14.83l56.37,53.17h44.12l55.68-53.17v-14.77c0-.56.94-1.53,1.52-1.53l7.35.06c.74.01,1.49-.08,2.18-.35,3.12-1.24,4.53-4.43,5.06-6.03.18-.55.26-1.13.25-1.71l-.03-5.51c5.4-.16,8.28-3.66,9.39-5.85.35-.7.52-1.47.51-2.26l-.32-19.89ZM10.88,97.86c0,.46-.37.84-.84.84h-2.09s-1.68-.25-2.8-2.72c-.1-.19-.14-.41-.14-.62v-21.09s-.31-2.04,2.51-3.73c.28-.16.6-.24.91-.24h1.33c.62,0,1.12.5,1.12,1.12v26.44ZM27.12,111.25c0,.64-.53,1.18-1.19,1.18h-7.69c-.51,0-1.02-.13-1.47-.41-.94-.56-2.4-1.66-2.26-3.13v-48.35s.09-3.02,3.79-3.37h8.02c.44,0,.8.36.8.8v53.28ZM65.45,5.03h80.2v3.36l-12.78,36.36h-54.04l-13.38-36.44v-3.28ZM63.53,157.88h-3.89l-27.78-25.99v-24.77h4.13l27.54,21.24v29.52ZM125.74,181.02h-39.88l-7.21-8,8.38-11.57c2.24-.16,36.5-.06,36.5-.06l8.72,11.82-6.51,7.81ZM179.74,130.95l-28.5,26.93h-3.47v-29.52l28.23-21.24h3.74v23.83ZM179.74,99.82l-36.16,27.63v37.73l-5.7,5.77h-2.95l-10.18-13.72-38.15-.09-9.59,12.69h-4.05l-5.44-5.44v-36.85l-35.66-26.68V34.39l26.94-25.9h2.85l15.01,40.57c4.08.01,7.76,1.66,10.44,4.34,2.68,2.67,4.34,6.36,4.35,10.43l.27,69.43c0,2.11,1.71,3.81,3.81,3.81l-.07-88.33,4.19.24c2.3.02,4.16,1.9,4.15,4.21l-.15,82.06c0,.96.79,1.73,1.74,1.71l.78-.02c.81-.02,1.45-.68,1.45-1.48V53.27c0-2.34,1.91-4.23,4.24-4.2l3.78-.16.09,88.08c1.1,0,2.09-.45,2.81-1.17.72-.72,1.16-1.71,1.16-2.81l-.2-68.15c-.03-8.76,7.02-15.9,15.78-15.97l14.17-40.4h3.09l27.2,25.9v65.43ZM194.7,110.7c-.57.85-1.55,1.3-2.56,1.3h-7.18c-.68,0-1.24-.56-1.24-1.24v-52.41c0-.65.53-1.18,1.18-1.18h6.93s2.9-.3,3.63,2.76v48.01s.15,1.41-.76,2.76ZM206.42,94.82c-.51,2.07-2.93,3.88-2.93,3.88h-2.9c-.41,0-.72-.32-.72-.71.05-3.87,0-22.28.06-26.19.02-.41.31-.72.71-.72h2.5c3.2.69,3.28,3.45,3.28,3.45v20.29Z"/>
  <path class="b" d="M179.74,34.39v65.43l-36.16,27.63v37.73l-5.7,5.77h-2.95l-10.18-13.72-38.15-.09-9.59,12.69h-4.05l-5.44-5.44v-36.85l-35.66-26.68V34.39l26.94-25.9h2.85l15.01,40.57c4.08.01,7.76,1.66,10.44,4.34,2.68,2.67,4.34,6.36,4.35,10.43l.27,69.43c0,2.11,1.71,3.81,3.81,3.81l-.07-88.33,4.19.24c2.3.02,4.16,1.9,4.15,4.21l-.15,82.06c0,.96.79,1.73,1.74,1.71l.78-.02c.81-.02,1.45-.68,1.45-1.48V53.27c0-2.34,1.91-4.23,4.24-4.2l3.78-.16.09,88.08c1.1,0,2.09-.45,2.81-1.17.72-.72,1.16-1.71,1.16-2.81l-.2-68.15c-.03-8.76,7.02-15.9,15.78-15.97l14.17-40.4h3.09l27.2,25.9Z"/>
  <path class="f" d="M27.12,57.97v53.28c0,.64-.53,1.18-1.19,1.18h-7.69c-.51,0-1.02-.13-1.47-.41-.94-.56-2.4-1.66-2.26-3.13v-48.35s.09-3.02,3.79-3.37h8.02c.44,0,.8.36.8.8Z"/>
  <path class="f" d="M194.7,110.7c-.57.85-1.55,1.3-2.56,1.3h-7.18c-.68,0-1.24-.56-1.24-1.24v-52.41c0-.65.53-1.18,1.18-1.18h6.93s2.9-.3,3.63,2.76v48.01s.15,1.41-.76,2.76Z"/>
  <path class="b" d="M10.88,71.42v26.44c0,.46-.37.84-.84.84h-2.09s-1.68-.25-2.8-2.72c-.1-.19-.14-.41-.14-.62v-21.09s-.31-2.04,2.51-3.73c.28-.16.6-.24.91-.24h1.33c.62,0,1.12.5,1.12,1.12Z"/>
  <polygon class="f" points="63.53 128.36 63.53 157.88 59.64 157.88 31.86 131.89 31.86 107.12 35.99 107.12 63.53 128.36"/>
  <path class="f" d="M132.25,173.21l-6.51,7.81h-39.88l-7.21-8,8.38-11.57c2.24-.16,36.5-.06,36.5-.06l8.72,11.82Z"/>
  <polygon class="f" points="179.74 107.12 179.74 130.95 151.24 157.88 147.77 157.88 147.77 128.36 176 107.12 179.74 107.12"/>
  <path class="b" d="M206.42,74.53v20.29c-.51,2.07-2.93,3.88-2.93,3.88h-2.9c-.41,0-.72-.32-.72-.71.05-3.87,0-22.28.06-26.19.02-.41.31-.72.71-.72h2.5c3.2.69,3.28,3.45,3.28,3.45Z"/>
  <polygon class="f" points="145.65 5.03 145.65 8.39 132.87 44.75 78.83 44.75 65.45 8.31 65.45 5.03 145.65 5.03"/>
  <path class="c" d="M146.24,72.63c-8.38,0-15.19,6.79-15.19,15.19s6.81,15.2,15.19,15.2,15.21-6.81,15.21-15.2-6.81-15.19-15.21-15.19ZM146.24,98.44c-5.98,0-10.82-4.86-10.82-10.83s4.84-10.84,10.82-10.84,10.85,4.85,10.85,10.84-4.85,10.83-10.85,10.83Z"/>
  <path class="c" d="M146.24,72.63c-8.38,0-15.19,6.79-15.19,15.19s6.81,15.2,15.19,15.2,15.21-6.81,15.21-15.2-6.81-15.19-15.21-15.19ZM146.24,98.44c-5.98,0-10.82-4.86-10.82-10.83s4.84-10.84,10.82-10.84,10.85,4.85,10.85,10.84-4.85,10.83-10.85,10.83Z"/>
  <path class="d" d="M64.84,72.63c-8.39,0-15.19,6.79-15.19,15.19s6.8,15.2,15.19,15.2,15.2-6.81,15.2-15.2-6.81-15.19-15.2-15.19ZM64.54,98.44c-5.99,0-10.83-4.86-10.83-10.83s4.84-10.84,10.83-10.84,10.83,4.85,10.83,10.84-4.85,10.83-10.83,10.83Z"/>
  <path class="f" d="M75.37,87.61c0,5.97-4.85,10.83-10.83,10.83s-10.83-4.86-10.83-10.83,4.84-10.84,10.83-10.84,10.83,4.85,10.83,10.84Z"/>
  <path class="d" d="M146.24,72.63c-8.38,0-15.19,6.79-15.19,15.19s6.81,15.2,15.19,15.2,15.21-6.81,15.21-15.2-6.81-15.19-15.21-15.19ZM146.24,98.44c-5.98,0-10.82-4.86-10.82-10.83s4.84-10.84,10.82-10.84,10.85,4.85,10.85,10.84-4.85,10.83-10.85,10.83Z"/>
  <path class="f" d="M157.09,87.61c0,5.97-4.85,10.83-10.85,10.83s-10.82-4.86-10.82-10.83,4.84-10.84,10.82-10.84,10.85,4.85,10.85,10.84Z"/>
</svg>