<svg width="723" height="637" viewBox="0 0 723 637" fill="none" xmlns="http://www.w3.org/2000/svg">
<path d="M717.689 253.464C714.057 227.882 684.828 229.149 684.828 229.149V207.025C681.299 184.867 661.768 181.305 661.768 181.305L633.533 181.579C631.306 181.613 629.524 179.833 629.524 177.607V114.489L512.679 3.35623L207.991 5.68505L93.7844 115.379V176.202C93.7844 178.702 91.7627 180.723 89.2614 180.723H67.5714C63.6651 180.723 59.7589 181.271 56.0925 182.572C46.1555 186.1 40.9129 192.436 38.2059 197.436C36.3556 200.895 35.5332 204.799 35.4647 208.669L35.2248 226.272C6.16778 230.553 4.18038 252.848 4.18038 252.848V330.624C10.3139 352.816 36.1157 353.672 36.1157 353.672V374.803C36.1157 377.44 36.7668 380.111 38.2059 382.337C47.3891 396.55 62.0204 396.584 62.1574 396.584H89.604C91.8998 396.584 93.7844 398.433 93.7844 400.762V451.551L286.938 633.644H438.117L628.907 451.551V400.967C628.907 399.05 632.128 395.728 634.116 395.728L659.301 395.933C661.836 395.967 664.406 395.659 666.77 394.734C677.461 390.488 682.293 379.563 684.109 374.083C684.726 372.2 685 370.213 684.965 368.227L684.863 349.357C703.366 348.809 713.234 336.822 717.038 329.322C718.237 326.925 718.82 324.288 718.785 321.582L717.689 253.464ZM37.2808 335.144C37.2808 336.72 36.0129 338.021 34.4025 338.021H27.241C27.241 338.021 21.4844 337.165 17.6467 328.706C17.304 328.055 17.167 327.302 17.167 326.582V254.355C17.167 254.355 16.1047 247.368 25.7676 241.581C26.727 241.033 27.8235 240.759 28.8857 240.759H33.443C35.5675 240.759 37.2808 242.471 37.2808 244.594V335.144ZM92.9278 381.001C92.9278 383.193 91.1117 385.042 88.8502 385.042H62.5001C60.7526 385.042 59.005 384.597 57.4631 383.638C54.2421 381.72 49.2394 377.953 49.7191 372.919V207.333C49.7191 207.333 50.0275 196.991 62.7057 195.792H90.1865C91.6942 195.792 92.9278 197.025 92.9278 198.532V381.001ZM224.267 17.2264H499.076V28.7335L455.284 153.257H270.114L224.267 28.4595V17.2264ZM217.688 540.697H204.359L109.17 451.688V366.857H123.321L217.688 439.598V540.697ZM430.853 619.945H294.203L269.497 592.547L298.212 552.923C305.887 552.375 423.281 552.717 423.281 552.717L453.16 593.198L430.853 619.945ZM615.886 448.469L518.23 540.697H506.34V439.598L603.071 366.857H615.886V448.469ZM615.886 341.857L491.983 436.482V565.697L472.451 585.458H462.343L427.461 538.47L296.738 538.162L263.878 581.622H250L231.36 562.992V436.79L109.17 345.418V117.776L201.481 29.076H211.246L262.679 168.017C276.659 168.052 289.269 173.702 298.452 182.881C307.635 192.025 313.323 204.662 313.357 218.601L314.282 456.38C314.282 463.606 320.142 469.428 327.337 469.428L327.098 166.921L341.455 167.743C349.336 167.812 355.709 174.25 355.675 182.161L355.161 463.195C355.161 466.483 357.868 469.12 361.123 469.051L363.796 468.983C366.571 468.914 368.764 466.654 368.764 463.914V182.435C368.764 174.422 375.309 167.949 383.293 168.052L396.245 167.504L396.553 469.154C400.323 469.154 403.715 467.613 406.182 465.147C408.649 462.681 410.157 459.291 410.157 455.523L409.472 222.128C409.369 192.127 433.526 167.675 463.542 167.435L512.096 29.076H522.684L615.886 117.776V341.857ZM667.147 379.118C665.194 382.029 661.836 383.57 658.375 383.57H633.773C631.443 383.57 629.524 381.652 629.524 379.323V199.833C629.524 197.607 631.34 195.792 633.567 195.792H657.313C657.313 195.792 667.25 194.764 669.752 205.244V369.665C669.752 369.665 670.266 374.494 667.147 379.118ZM707.306 324.733C705.559 331.822 697.267 338.021 697.267 338.021H687.33C685.925 338.021 684.863 336.925 684.863 335.589C685.034 322.336 684.863 259.286 685.068 245.896C685.137 244.492 686.13 243.43 687.501 243.43H696.067C707.032 245.793 707.306 255.245 707.306 255.245V324.733Z" fill="#663333"/>
<path fill-rule="evenodd" clip-rule="evenodd" d="M491.983 436.482L615.886 341.857V117.776L522.684 29.076H512.096L463.542 167.435C433.526 167.675 409.369 192.127 409.472 222.128L410.157 455.523C410.157 459.291 408.649 462.681 406.182 465.147C403.715 467.613 400.323 469.154 396.553 469.154L396.245 167.504L383.293 168.052C375.309 167.949 368.764 174.422 368.764 182.435V463.914C368.764 466.654 366.571 468.914 363.796 468.983L361.123 469.051C357.868 469.12 355.161 466.483 355.161 463.195L355.675 182.161C355.709 174.25 349.336 167.812 341.455 167.743L327.098 166.921L327.337 469.428C320.142 469.428 314.282 463.606 314.282 456.38L313.357 218.601C313.323 204.662 307.635 192.025 298.452 182.881C289.269 173.702 276.659 168.052 262.679 168.017L211.246 29.076H201.481L109.17 117.776V345.418L231.36 436.79V562.992L250 581.622H263.878L296.738 538.162L427.461 538.47L462.343 585.458H472.451L491.983 565.697V436.482Z" fill="#F5EFE6"/>
<path fill-rule="evenodd" clip-rule="evenodd" d="M697.267 338.021C697.267 338.021 705.559 331.822 707.306 324.733V255.245C707.306 255.245 707.032 245.793 696.067 243.43H687.501C686.13 243.43 685.137 244.492 685.068 245.896C684.961 252.9 684.956 273.493 684.952 293.438C684.948 311.622 684.944 329.269 684.863 335.589C684.863 336.925 685.925 338.021 687.33 338.021H697.267Z" fill="#F5EFE6"/>
<path fill-rule="evenodd" clip-rule="evenodd" d="M34.4025 338.021C36.0129 338.021 37.2808 336.72 37.2808 335.144V244.594C37.2808 242.471 35.5675 240.759 33.443 240.759H28.8857C27.8235 240.759 26.727 241.033 25.7676 241.581C16.1047 247.368 17.167 254.355 17.167 254.355V326.582C17.167 327.302 17.304 328.055 17.6467 328.706C21.4844 337.165 27.241 338.021 27.241 338.021H34.4025Z" fill="#F5EFE6"/>
<path d="M684.863 335.589C684.863 336.925 685.925 338.021 687.33 338.021H697.267C697.267 338.021 705.559 331.822 707.306 324.733V255.245C707.306 255.245 707.032 245.793 696.067 243.43H687.501C686.13 243.43 685.137 244.492 685.068 245.896M684.863 335.589C685.034 322.336 684.863 259.286 685.068 245.896M684.863 335.589C684.944 329.269 684.948 311.622 684.952 293.438C684.956 273.493 684.961 252.9 685.068 245.896M717.689 253.464C714.057 227.882 684.828 229.149 684.828 229.149V207.025C681.299 184.867 661.768 181.305 661.768 181.305L633.533 181.579C631.306 181.613 629.524 179.833 629.524 177.607V114.489L512.679 3.35623L207.991 5.68505L93.7844 115.379V176.202C93.7844 178.702 91.7627 180.723 89.2614 180.723H67.5714C63.6651 180.723 59.7589 181.271 56.0925 182.572C46.1555 186.1 40.9129 192.436 38.2059 197.436C36.3556 200.895 35.5332 204.799 35.4647 208.669L35.2248 226.272C6.16778 230.553 4.18038 252.848 4.18038 252.848V330.624C10.3139 352.816 36.1157 353.672 36.1157 353.672V374.803C36.1157 377.44 36.7668 380.111 38.2059 382.337C47.3891 396.55 62.0204 396.584 62.1574 396.584H89.604C91.8998 396.584 93.7844 398.433 93.7844 400.762V451.551L286.938 633.644H438.117L628.907 451.551V400.967C628.907 399.05 632.128 395.728 634.116 395.728L659.301 395.933C661.836 395.967 664.406 395.659 666.77 394.734C677.461 390.488 682.293 379.563 684.109 374.083C684.726 372.2 685 370.213 684.965 368.227L684.863 349.357C703.366 348.809 713.234 336.822 717.038 329.322C718.237 326.925 718.82 324.288 718.785 321.582L717.689 253.464ZM37.2808 335.144C37.2808 336.72 36.0129 338.021 34.4025 338.021H27.241C27.241 338.021 21.4844 337.165 17.6467 328.706C17.304 328.055 17.167 327.302 17.167 326.582V254.355C17.167 254.355 16.1047 247.368 25.7676 241.581C26.727 241.033 27.8235 240.759 28.8857 240.759H33.443C35.5675 240.759 37.2808 242.471 37.2808 244.594V335.144ZM92.9278 381.001C92.9278 383.193 91.1117 385.042 88.8502 385.042H62.5001C60.7526 385.042 59.005 384.597 57.4631 383.638C54.2421 381.72 49.2394 377.953 49.7191 372.919V207.333C49.7191 207.333 50.0275 196.991 62.7057 195.792H90.1865C91.6942 195.792 92.9278 197.025 92.9278 198.532V381.001ZM224.267 17.2264H499.076V28.7335L455.284 153.257H270.114L224.267 28.4595V17.2264ZM217.688 540.697H204.359L109.17 451.688V366.857H123.321L217.688 439.598V540.697ZM430.853 619.945H294.203L269.497 592.547L298.212 552.923C305.887 552.375 423.281 552.717 423.281 552.717L453.16 593.198L430.853 619.945ZM615.886 448.469L518.23 540.697H506.34V439.598L603.071 366.857H615.886V448.469ZM615.886 341.857L491.983 436.482V565.697L472.451 585.458H462.343L427.461 538.47L296.738 538.162L263.878 581.622H250L231.36 562.992V436.79L109.17 345.418V117.776L201.481 29.076H211.246L262.679 168.017C276.659 168.052 289.269 173.702 298.452 182.881C307.635 192.025 313.323 204.662 313.357 218.601L314.282 456.38C314.282 463.606 320.142 469.428 327.337 469.428L327.098 166.921L341.455 167.743C349.336 167.812 355.709 174.25 355.675 182.161L355.161 463.195C355.161 466.483 357.868 469.12 361.123 469.051L363.796 468.983C366.571 468.914 368.764 466.654 368.764 463.914V182.435C368.764 174.422 375.309 167.949 383.293 168.052L396.245 167.504L396.553 469.154C400.323 469.154 403.715 467.613 406.182 465.147C408.649 462.681 410.157 459.291 410.157 455.523L409.472 222.128C409.369 192.127 433.526 167.675 463.542 167.435L512.096 29.076H522.684L615.886 117.776V341.857ZM667.147 379.118C665.194 382.029 661.836 383.57 658.375 383.57H633.773C631.443 383.57 629.524 381.652 629.524 379.323V199.833C629.524 197.607 631.34 195.792 633.567 195.792H657.313C657.313 195.792 667.25 194.764 669.752 205.244V369.665C669.752 369.665 670.266 374.494 667.147 379.118Z" stroke="#713A23" stroke-miterlimit="10"/>
<path d="M92.9278 198.532V381.001C92.9278 383.193 91.1117 385.043 88.8502 385.043H62.5001C60.7526 385.043 59.005 384.597 57.4631 383.638C54.2421 381.721 49.2394 377.953 49.7191 372.919V207.333C49.7191 207.333 50.0275 196.991 62.7057 195.792H90.1865C91.6942 195.792 92.9278 197.025 92.9278 198.532Z" fill="#663333" stroke="#F5EFE6" stroke-miterlimit="10"/>
<path d="M667.147 379.118C665.194 382.029 661.836 383.57 658.375 383.57H633.773C631.443 383.57 629.524 381.652 629.524 379.323V199.833C629.524 197.607 631.34 195.792 633.567 195.792H657.313C657.313 195.792 667.25 194.764 669.752 205.244V369.665C669.752 369.665 670.266 374.494 667.147 379.118Z" fill="#663333" stroke="#F5EFE6" stroke-miterlimit="10"/>
<path d="M217.688 439.598V540.697H204.359L109.17 451.688V366.857H123.321L217.688 439.598Z" fill="#663333" stroke="#F5EFE6" stroke-miterlimit="10"/>
<path d="M453.16 593.198L430.853 619.945H294.203L269.497 592.547L298.212 552.923C305.887 552.375 423.281 552.717 423.281 552.717L453.16 593.198Z" fill="#663333" stroke="#F5EFE6" stroke-miterlimit="10"/>
<path d="M615.886 366.857V448.469L518.23 540.697H506.34V439.598L603.071 366.857H615.886Z" fill="#663333" stroke="#F5EFE6" stroke-miterlimit="10"/>
<path d="M499.076 17.2264V28.7335L455.284 153.257H270.114L224.267 28.4595V17.2264H499.076Z" fill="#663333" stroke="#F5EFE6" stroke-miterlimit="10"/>
<path d="M501.097 248.738C472.383 248.738 449.048 271.992 449.048 300.76C449.048 329.528 472.383 352.816 501.097 352.816C529.812 352.816 553.215 329.493 553.215 300.76C553.215 272.026 529.88 248.738 501.097 248.738ZM501.097 337.131C480.607 337.131 464.022 320.486 464.022 300.041C464.022 279.595 480.607 262.917 501.097 262.917C521.588 262.917 538.275 279.527 538.275 300.041C538.275 320.555 521.657 337.131 501.097 337.131Z" stroke="#713A23" stroke-miterlimit="10"/>
<path d="M501.097 248.738C472.383 248.738 449.048 271.992 449.048 300.76C449.048 329.528 472.383 352.816 501.097 352.816C529.812 352.816 553.215 329.493 553.215 300.76C553.215 272.026 529.88 248.738 501.097 248.738ZM501.097 337.131C480.607 337.131 464.022 320.486 464.022 300.041C464.022 279.595 480.607 262.917 501.097 262.917C521.588 262.917 538.275 279.527 538.275 300.041C538.275 320.555 521.657 337.131 501.097 337.131Z" stroke="#713A23" stroke-miterlimit="10"/>
<path d="M222.177 248.738C193.428 248.738 170.128 271.992 170.128 300.76C170.128 329.528 193.428 352.816 222.177 352.816C250.926 352.816 274.26 329.493 274.26 300.76C274.26 272.026 250.926 248.738 222.177 248.738ZM221.149 337.131C200.624 337.131 184.039 320.486 184.039 300.041C184.039 279.595 200.624 262.917 221.149 262.917C241.674 262.917 258.258 279.527 258.258 300.041C258.258 320.555 241.64 337.131 221.149 337.131Z" fill="#663333" stroke="#713A23" stroke-miterlimit="10"/>
<path d="M258.258 300.041C258.258 320.486 241.64 337.131 221.149 337.131C200.658 337.131 184.039 320.486 184.039 300.041C184.039 279.595 200.624 262.917 221.149 262.917C241.674 262.917 258.258 279.527 258.258 300.041Z" fill="#663333" stroke="#F5EFE6" stroke-miterlimit="10"/>
<path d="M501.097 248.738C472.383 248.738 449.048 271.992 449.048 300.76C449.048 329.528 472.383 352.816 501.097 352.816C529.812 352.816 553.215 329.493 553.215 300.76C553.215 272.026 529.88 248.738 501.097 248.738ZM501.097 337.131C480.607 337.131 464.022 320.486 464.022 300.041C464.022 279.595 480.607 262.917 501.097 262.917C521.588 262.917 538.275 279.527 538.275 300.041C538.275 320.555 521.657 337.131 501.097 337.131Z" fill="#663333" stroke="#713A23" stroke-miterlimit="10"/>
<path d="M538.275 300.041C538.275 320.486 521.656 337.131 501.097 337.131C480.538 337.131 464.022 320.486 464.022 300.041C464.022 279.595 480.607 262.917 501.097 262.917C521.588 262.917 538.275 279.527 538.275 300.041Z" fill="#663333" stroke="#F5EFE6" stroke-miterlimit="10"/>
</svg>
