<svg width="624" height="550" viewBox="0 0 624 550" fill="none" xmlns="http://www.w3.org/2000/svg">
<path d="M619.416 218.847C616.281 196.758 591.055 197.852 591.055 197.852V178.75C588.009 159.618 571.152 156.543 571.152 156.543L546.784 156.78C544.861 156.809 543.324 155.272 543.324 153.349V98.8522L442.478 2.89786L179.511 4.90861L80.9426 99.621V152.137C80.9426 154.296 79.1977 156.04 77.0389 156.04H58.3189C54.9475 156.04 51.5761 156.513 48.4118 157.637C39.8355 160.683 35.3107 166.153 32.9744 170.47C31.3774 173.457 30.6677 176.828 30.6085 180.169L30.4015 195.368C5.32323 199.065 3.60797 218.315 3.60797 218.315V285.468C8.90162 304.629 31.1704 305.368 31.1704 305.368V323.613C31.1704 325.89 31.7323 328.196 32.9744 330.118C40.9001 342.39 53.528 342.419 53.6463 342.419H77.3346C79.316 342.419 80.9426 344.016 80.9426 346.027V389.879L247.648 547.102H378.126L542.791 389.879V346.204C542.791 344.548 545.571 341.68 547.286 341.68L569.023 341.858C571.211 341.887 573.429 341.621 575.47 340.823C584.697 337.156 588.867 327.723 590.434 322.992C590.966 321.366 591.203 319.651 591.173 317.935L591.085 301.642C607.054 301.169 615.572 290.82 618.854 284.344C619.889 282.274 620.392 279.997 620.362 277.661L619.416 218.847ZM32.1759 289.371C32.1759 290.731 31.0817 291.855 29.6918 291.855H23.5109C23.5109 291.855 18.5426 291.116 15.2303 283.812C14.9346 283.25 14.8163 282.599 14.8163 281.978V219.616C14.8163 219.616 13.8995 213.583 22.2393 208.586C23.0673 208.113 24.0137 207.876 24.9304 207.876H28.8637C30.6973 207.876 32.1759 209.355 32.1759 211.188V289.371ZM80.2032 328.965C80.2032 330.858 78.6358 332.454 76.684 332.454H53.942C52.4338 332.454 50.9255 332.07 49.5947 331.242C46.8148 329.586 42.4971 326.333 42.9111 321.987V179.016C42.9111 179.016 43.1773 170.086 54.1194 169.051H77.8374C79.1386 169.051 80.2032 170.116 80.2032 171.417V328.965ZM193.558 14.8737H430.737V24.8091L392.943 132.325H233.128L193.558 24.5726V14.8737ZM187.88 466.85H176.376L94.2211 389.997V316.753H106.435L187.88 379.559V466.85ZM371.857 535.274H253.918L232.595 511.618L257.378 477.406C264.002 476.933 365.321 477.229 365.321 477.229L391.109 512.18L371.857 535.274ZM531.553 387.218L447.269 466.85H437.007V379.559L520.493 316.753H531.553V387.218ZM531.553 295.167L424.616 376.868V488.435L407.759 505.497H399.035L368.929 464.927L256.106 464.661L227.745 502.186H215.768L199.68 486.099V377.134L94.2211 298.242V101.691L173.892 25.1048H182.32L226.71 145.07C238.776 145.099 249.659 149.979 257.585 157.903C265.511 165.798 270.42 176.71 270.449 188.745L271.248 394.048C271.248 400.288 276.305 405.315 282.515 405.315L282.308 144.124L294.7 144.833C301.501 144.892 307.002 150.452 306.973 157.282L306.529 399.933C306.529 402.772 308.865 405.048 311.675 404.989L313.981 404.93C316.377 404.871 318.27 402.919 318.27 400.554V157.519C318.27 150.599 323.918 145.011 330.809 145.099L341.987 144.626L342.254 405.078C345.507 405.078 348.435 403.747 350.564 401.618C352.693 399.489 353.994 396.562 353.994 393.309L353.403 191.79C353.314 165.887 374.163 144.774 400.07 144.567L441.975 25.1048H451.114L531.553 101.691V295.167ZM575.795 327.339C574.11 329.852 571.211 331.183 568.224 331.183H546.991C544.98 331.183 543.324 329.527 543.324 327.516V172.54C543.324 170.618 544.891 169.051 546.813 169.051H567.308C567.308 169.051 575.884 168.164 578.043 177.212V319.177C578.043 319.177 578.486 323.347 575.795 327.339ZM610.455 280.382C608.947 286.503 601.79 291.855 601.79 291.855H593.214C592.002 291.855 591.085 290.909 591.085 289.755C591.233 278.312 591.085 223.874 591.262 212.312C591.321 211.099 592.179 210.183 593.362 210.183H600.755C610.219 212.223 610.455 220.384 610.455 220.384V280.382Z" fill="#663333"/>
<path fill-rule="evenodd" clip-rule="evenodd" d="M76.684 332.454C78.6358 332.454 80.2032 330.858 80.2032 328.965V171.417C80.2032 170.116 79.1386 169.051 77.8374 169.051H54.1194C43.1773 170.086 42.9111 179.016 42.9111 179.016V321.987C42.4971 326.333 46.8148 329.586 49.5947 331.242C50.9255 332.07 52.4338 332.454 53.942 332.454H76.684Z" fill="#F1EBDD" fill-opacity="0.01"/>
<path d="M619.416 218.847C616.281 196.758 591.055 197.852 591.055 197.852V178.75C588.009 159.618 571.152 156.543 571.152 156.543L546.784 156.78C544.861 156.809 543.324 155.272 543.324 153.349V98.8522L442.478 2.89786L179.511 4.90861L80.9426 99.621V152.137C80.9426 154.296 79.1977 156.04 77.0389 156.04H58.3189C54.9475 156.04 51.5761 156.513 48.4118 157.637C39.8355 160.683 35.3107 166.153 32.9744 170.47C31.3774 173.457 30.6677 176.828 30.6085 180.169L30.4015 195.368C5.32323 199.065 3.60797 218.315 3.60797 218.315V285.468C8.90162 304.629 31.1704 305.368 31.1704 305.368V323.613C31.1704 325.89 31.7323 328.196 32.9744 330.118C40.9001 342.39 53.528 342.419 53.6463 342.419H77.3346C79.316 342.419 80.9426 344.016 80.9426 346.027V389.879L247.648 547.102H378.126L542.791 389.879V346.204C542.791 344.548 545.571 341.68 547.286 341.68L569.023 341.858C571.211 341.887 573.429 341.621 575.47 340.823C584.697 337.156 588.867 327.723 590.434 322.992C590.966 321.366 591.203 319.651 591.173 317.935L591.085 301.642C607.054 301.169 615.572 290.82 618.854 284.344C619.889 282.274 620.392 279.997 620.362 277.661L619.416 218.847ZM32.1759 289.371C32.1759 290.731 31.0817 291.855 29.6918 291.855H23.5109C23.5109 291.855 18.5426 291.116 15.2303 283.812C14.9346 283.25 14.8163 282.599 14.8163 281.978V219.616C14.8163 219.616 13.8995 213.583 22.2393 208.586C23.0673 208.113 24.0137 207.876 24.9304 207.876H28.8637C30.6973 207.876 32.1759 209.355 32.1759 211.188V289.371ZM80.2032 328.965C80.2032 330.858 78.6358 332.454 76.684 332.454H53.942C52.4338 332.454 50.9255 332.07 49.5947 331.242C46.8148 329.586 42.4971 326.333 42.9111 321.987V179.016C42.9111 179.016 43.1773 170.086 54.1194 169.051H77.8374C79.1386 169.051 80.2032 170.116 80.2032 171.417V328.965ZM193.558 14.8737H430.737V24.8091L392.943 132.325H233.128L193.558 24.5726V14.8737ZM187.88 466.85H176.376L94.2211 389.997V316.753H106.435L187.88 379.559V466.85ZM371.857 535.274H253.918L232.595 511.618L257.378 477.406C264.002 476.933 365.321 477.229 365.321 477.229L391.109 512.18L371.857 535.274ZM531.553 387.218L447.269 466.85H437.007V379.559L520.493 316.753H531.553V387.218ZM531.553 295.167L424.616 376.868V488.435L407.759 505.497H399.035L368.929 464.927L256.106 464.661L227.745 502.186H215.768L199.68 486.099V377.134L94.2211 298.242V101.691L173.892 25.1048H182.32L226.71 145.07C238.776 145.099 249.659 149.979 257.585 157.903C265.511 165.798 270.42 176.71 270.449 188.745L271.248 394.048C271.248 400.288 276.305 405.315 282.515 405.315L282.308 144.124L294.7 144.833C301.501 144.892 307.002 150.452 306.973 157.282L306.529 399.933C306.529 402.772 308.865 405.048 311.675 404.989L313.981 404.93C316.377 404.871 318.27 402.919 318.27 400.554V157.519C318.27 150.599 323.918 145.011 330.809 145.099L341.987 144.626L342.254 405.078C345.507 405.078 348.435 403.747 350.564 401.618C352.693 399.489 353.994 396.562 353.994 393.309L353.403 191.79C353.314 165.887 374.163 144.774 400.07 144.567L441.975 25.1048H451.114L531.553 101.691V295.167ZM575.795 327.339C574.11 329.852 571.211 331.183 568.224 331.183H546.991C544.98 331.183 543.324 329.527 543.324 327.516V172.54C543.324 170.618 544.891 169.051 546.813 169.051H567.308C567.308 169.051 575.884 168.164 578.043 177.212V319.177C578.043 319.177 578.486 323.347 575.795 327.339ZM610.455 280.382C608.947 286.503 601.79 291.855 601.79 291.855H593.214C592.002 291.855 591.085 290.909 591.085 289.755C591.233 278.312 591.085 223.874 591.262 212.312C591.321 211.099 592.179 210.183 593.362 210.183H600.755C610.219 212.223 610.455 220.384 610.455 220.384V280.382Z" stroke="#713A23" stroke-miterlimit="10"/>
<path fill-rule="evenodd" clip-rule="evenodd" d="M424.616 376.868L531.553 295.167V101.691L451.114 25.1048H441.975L400.07 144.567C374.163 144.774 353.314 165.887 353.403 191.79L353.994 393.309C353.994 396.562 352.693 399.489 350.564 401.618C348.435 403.747 345.507 405.078 342.254 405.078L341.987 144.626L330.809 145.099C323.918 145.011 318.27 150.599 318.27 157.519V400.554C318.27 402.919 316.377 404.871 313.981 404.93L311.675 404.989C308.865 405.048 306.529 402.772 306.529 399.933L306.973 157.282C307.002 150.452 301.501 144.892 294.7 144.833L282.308 144.124L282.515 405.315C276.305 405.315 271.248 400.288 271.248 394.048L270.449 188.745C270.42 176.71 265.511 165.798 257.585 157.903C249.659 149.979 238.776 145.099 226.71 145.07L182.32 25.1048H173.892L94.2211 101.691V298.242L199.68 377.134V486.099L215.768 502.186H227.745L256.106 464.661L368.929 464.927L399.035 505.497H407.759L424.616 488.435V376.868Z" stroke="#713A23" stroke-miterlimit="10"/>
<path fill-rule="evenodd" clip-rule="evenodd" d="M76.684 332.454C78.6358 332.454 80.2032 330.858 80.2032 328.965V171.417C80.2032 170.116 79.1386 169.051 77.8374 169.051H54.1194C43.1773 170.086 42.9111 179.016 42.9111 179.016V321.987C42.4971 326.333 46.8148 329.586 49.5947 331.242C50.9255 332.07 52.4338 332.454 53.942 332.454H76.684Z" stroke="#713A23" stroke-miterlimit="10"/>
<path fill-rule="evenodd" clip-rule="evenodd" d="M568.224 331.183C571.211 331.183 574.11 329.852 575.795 327.339C578.486 323.347 578.043 319.177 578.043 319.177V177.212C575.884 168.164 567.308 169.051 567.308 169.051H546.813C544.891 169.051 543.324 170.618 543.324 172.54V327.516C543.324 329.527 544.98 331.183 546.991 331.183H568.224Z" stroke="#713A23" stroke-miterlimit="10"/>
<path d="M32.1759 211.188V289.371C32.1759 290.731 31.0817 291.855 29.6918 291.855H23.5109C23.5109 291.855 18.5426 291.116 15.2303 283.812C14.9346 283.25 14.8163 282.599 14.8163 281.979V219.616C14.8163 219.616 13.8995 213.583 22.2392 208.586C23.0673 208.113 24.0137 207.876 24.9304 207.876H28.8637C30.6973 207.876 32.1759 209.355 32.1759 211.188Z" fill="#DDAA33" stroke="#713A23" stroke-miterlimit="10"/>
<path d="M187.88 379.559V466.849H176.376L94.221 389.997V316.753H106.435L187.88 379.559Z" fill="#DDAA33" stroke="#713A23" stroke-miterlimit="10"/>
<path d="M391.109 512.18L371.857 535.274H253.918L232.595 511.618L257.378 477.406C264.002 476.933 365.321 477.228 365.321 477.228L391.109 512.18Z" fill="#DDAA33" stroke="#713A23" stroke-miterlimit="10"/>
<path d="M531.553 316.753V387.218L447.269 466.849H437.007V379.559L520.493 316.753H531.553Z" fill="#DDAA33" stroke="#713A23" stroke-miterlimit="10"/>
<path d="M610.455 220.384V280.382C608.947 286.503 601.79 291.855 601.79 291.855H593.214C592.001 291.855 591.085 290.909 591.085 289.755C591.233 278.312 591.085 223.874 591.262 212.312C591.321 211.099 592.179 210.183 593.362 210.183H600.755C610.219 212.223 610.455 220.384 610.455 220.384Z" fill="#DDAA33" stroke="#713A23" stroke-miterlimit="10"/>
<path d="M430.737 14.8737V24.8091L392.943 132.325H233.128L193.558 24.5726V14.8737H430.737Z" fill="#DDAA33" stroke="#663333" stroke-miterlimit="10"/>
<path d="M432.482 214.766C407.7 214.766 387.56 234.844 387.56 259.683C387.56 284.521 407.7 304.629 432.482 304.629C457.265 304.629 477.464 284.492 477.464 259.683C477.464 234.874 457.324 214.766 432.482 214.766ZM432.482 291.086C414.797 291.086 400.484 276.715 400.484 259.062C400.484 241.409 414.797 227.008 432.482 227.008C450.167 227.008 464.569 241.349 464.569 259.062C464.569 276.774 450.226 291.086 432.482 291.086Z" stroke="#713A23" stroke-miterlimit="10"/>
<path d="M432.482 214.766C407.7 214.766 387.56 234.844 387.56 259.683C387.56 284.521 407.7 304.629 432.482 304.629C457.265 304.629 477.464 284.492 477.464 259.683C477.464 234.874 457.324 214.766 432.482 214.766ZM432.482 291.086C414.797 291.086 400.484 276.715 400.484 259.062C400.484 241.409 414.797 227.008 432.482 227.008C450.167 227.008 464.569 241.349 464.569 259.062C464.569 276.774 450.226 291.086 432.482 291.086Z" stroke="#713A23" stroke-miterlimit="10"/>
<path d="M191.754 214.766C166.942 214.766 146.832 234.844 146.832 259.683C146.832 284.521 166.942 304.629 191.754 304.629C216.566 304.629 236.706 284.492 236.706 259.683C236.706 234.874 216.566 214.766 191.754 214.766ZM190.867 291.086C173.153 291.086 158.839 276.715 158.839 259.062C158.839 241.409 173.153 227.008 190.867 227.008C208.582 227.008 222.895 241.349 222.895 259.062C222.895 276.774 208.552 291.086 190.867 291.086Z" fill="#663333" stroke="#713A23" stroke-miterlimit="10"/>
<path d="M222.895 259.062C222.895 276.715 208.552 291.086 190.867 291.086C173.182 291.086 158.839 276.715 158.839 259.062C158.839 241.409 173.153 227.008 190.867 227.008C208.582 227.008 222.895 241.349 222.895 259.062Z" fill="#DDAA33" stroke="#713A23" stroke-miterlimit="10"/>
<path d="M432.482 214.766C407.7 214.766 387.56 234.844 387.56 259.683C387.56 284.521 407.7 304.629 432.482 304.629C457.265 304.629 477.464 284.492 477.464 259.683C477.464 234.874 457.324 214.766 432.482 214.766ZM432.482 291.086C414.797 291.086 400.484 276.715 400.484 259.062C400.484 241.409 414.797 227.008 432.482 227.008C450.167 227.008 464.569 241.349 464.569 259.062C464.569 276.774 450.226 291.086 432.482 291.086Z" fill="#663333" stroke="#713A23" stroke-miterlimit="10"/>
<path d="M464.569 259.062C464.569 276.715 450.226 291.086 432.482 291.086C414.738 291.086 400.484 276.715 400.484 259.062C400.484 241.409 414.797 227.008 432.482 227.008C450.167 227.008 464.569 241.349 464.569 259.062Z" fill="#DDAA33" stroke="#713A23" stroke-miterlimit="10"/>
</svg>
