<svg width="811" height="715" viewBox="0 0 811 715" fill="none" xmlns="http://www.w3.org/2000/svg">
<path d="M805.042 284.501C800.968 255.786 768.182 257.208 768.182 257.208V232.375C764.223 207.504 742.315 203.506 742.315 203.506L710.644 203.813C708.145 203.852 706.147 201.853 706.147 199.354V128.508L575.08 3.76721L233.307 6.38119L105.199 129.507V197.778C105.199 200.584 102.932 202.852 100.126 202.852H75.7958C71.4141 202.852 67.0324 203.468 62.9198 204.928C51.7733 208.888 45.8926 215.999 42.8562 221.612C40.7806 225.494 39.8582 229.876 39.7813 234.22L39.5122 253.979C6.9185 258.784 4.68921 283.809 4.68921 283.809V371.108C11.5693 396.018 40.5116 396.979 40.5116 396.979V420.697C40.5116 423.657 41.2419 426.655 42.8562 429.154C53.157 445.107 69.5692 445.145 69.723 445.145H100.51C103.085 445.145 105.199 447.221 105.199 449.835V506.843L321.863 711.233H491.443L705.455 506.843V450.066C705.455 447.913 709.068 444.184 711.297 444.184L739.547 444.415C742.392 444.453 745.274 444.107 747.927 443.069C759.919 438.303 765.338 426.04 767.375 419.89C768.067 417.775 768.374 415.546 768.336 413.316L768.221 392.135C788.976 391.52 800.046 378.066 804.312 369.647C805.657 366.956 806.311 363.997 806.272 360.96L805.042 284.501ZM41.8184 376.182C41.8184 377.951 40.3963 379.411 38.5898 379.411H30.5566C30.5566 379.411 24.0994 378.45 19.7946 368.955C19.4102 368.225 19.2565 367.379 19.2565 366.572V285.5C19.2565 285.5 18.0649 277.658 28.9039 271.162C29.9801 270.547 31.2101 270.239 32.4016 270.239H37.5136C39.8966 270.239 41.8184 272.161 41.8184 274.545V376.182ZM104.239 427.655C104.239 430.115 102.201 432.191 99.6646 432.191H70.1073C68.1471 432.191 66.1868 431.691 64.4572 430.615C60.8442 428.462 55.2326 424.233 55.7707 418.583V232.721C55.7707 232.721 56.1166 221.112 70.3379 219.766H101.164C102.855 219.766 104.239 221.15 104.239 222.842V325.248V427.655ZM251.564 19.3358H559.821V32.2519L510.699 172.023H302.991L251.564 31.9444V19.3358ZM244.184 606.904H229.232L122.457 506.997V411.779H138.331L244.184 493.427V606.904ZM483.295 695.857H330.012L302.299 665.104L334.509 620.628C343.118 620.013 474.8 620.397 474.8 620.397L508.316 665.834L483.295 695.857ZM690.849 503.383L581.306 606.904H567.969V493.427L676.474 411.779H690.849V503.383ZM690.849 383.717L551.864 489.929V634.966L529.956 657.147H518.617L479.489 604.406L332.856 604.06L295.996 652.841H280.429L259.52 631.929V490.275L122.457 387.715V132.198L226.004 32.6363H236.958L294.651 188.591C294.651 188.591 324.477 194.972 334.778 205.274C345.079 215.538 351.459 229.723 351.497 245.368L352.535 512.263C352.535 520.374 359.108 526.909 367.179 526.909L366.91 187.361L383.015 188.283C391.855 188.36 399.004 195.587 398.966 204.467L398.389 519.913C398.389 523.603 401.426 526.563 405.077 526.486L408.075 526.409C411.189 526.332 413.648 523.795 413.648 520.72V204.774C413.648 195.779 420.99 188.514 429.945 188.629L444.474 188.014L444.82 526.601C449.048 526.601 452.853 524.872 455.621 522.104C458.388 519.336 460.079 515.53 460.079 511.302L459.31 249.327C459.195 215.653 486.293 188.206 519.962 187.937L574.426 32.6363H586.303L690.849 132.198V383.717ZM748.349 425.54C746.158 428.808 742.392 430.538 738.51 430.538H710.913C708.299 430.538 706.147 428.385 706.147 425.771V224.302C706.147 221.804 708.184 219.766 710.682 219.766H737.318C737.318 219.766 748.465 218.613 751.27 230.376V414.931C751.27 414.931 751.847 420.351 748.349 425.54ZM793.396 364.496C791.436 372.454 782.135 379.411 782.135 379.411H770.988C769.412 379.411 768.221 378.181 768.221 376.682C768.413 361.805 768.221 291.036 768.451 276.005C768.528 274.429 769.643 273.238 771.18 273.238H780.789C793.089 275.89 793.396 286.5 793.396 286.5V364.496Z" fill="#663333"/>
<path d="M805.042 284.501C800.968 255.786 768.182 257.208 768.182 257.208V232.375C764.223 207.504 742.315 203.506 742.315 203.506L710.644 203.813C708.145 203.852 706.147 201.853 706.147 199.354V128.508L575.08 3.76721L233.307 6.38119L105.199 129.507V197.778C105.199 200.584 102.932 202.852 100.126 202.852H75.7958C71.4141 202.852 67.0324 203.468 62.9198 204.928C51.7733 208.888 45.8926 215.999 42.8562 221.612C40.7806 225.494 39.8582 229.876 39.7813 234.22L39.5122 253.979C6.9185 258.784 4.68921 283.809 4.68921 283.809V371.108C11.5693 396.018 40.5116 396.979 40.5116 396.979V420.697C40.5116 423.657 41.2419 426.655 42.8562 429.154C53.157 445.107 69.5692 445.145 69.723 445.145H100.51C103.085 445.145 105.199 447.221 105.199 449.835V506.843L321.863 711.233H491.443L705.455 506.843V450.066C705.455 447.913 709.068 444.184 711.297 444.184L739.547 444.415C742.392 444.453 745.274 444.107 747.927 443.069C759.919 438.303 765.338 426.04 767.375 419.89C768.067 417.775 768.374 415.546 768.336 413.316L768.221 392.135C788.976 391.52 800.046 378.066 804.312 369.647C805.657 366.956 806.311 363.997 806.272 360.96L805.042 284.501ZM41.8184 376.182C41.8184 377.951 40.3963 379.411 38.5898 379.411H30.5566C30.5566 379.411 24.0994 378.45 19.7946 368.955C19.4102 368.225 19.2565 367.379 19.2565 366.572V285.5C19.2565 285.5 18.0649 277.658 28.9039 271.162C29.9801 270.547 31.2101 270.239 32.4016 270.239H37.5136C39.8966 270.239 41.8184 272.161 41.8184 274.545V376.182ZM104.239 427.655C104.239 430.115 102.201 432.191 99.6646 432.191H70.1073C68.1471 432.191 66.1868 431.691 64.4572 430.615C60.8442 428.462 55.2326 424.233 55.7707 418.583V232.721C55.7707 232.721 56.1166 221.112 70.3379 219.766H101.164C102.855 219.766 104.239 221.15 104.239 222.842V325.248V427.655ZM251.564 19.3358H559.821V32.2519L510.699 172.023H302.991L251.564 31.9444V19.3358ZM244.184 606.904H229.232L122.457 506.997V411.779H138.331L244.184 493.427V606.904ZM483.295 695.857H330.012L302.299 665.104L334.509 620.628C343.118 620.013 474.8 620.397 474.8 620.397L508.316 665.834L483.295 695.857ZM690.849 503.383L581.306 606.904H567.969V493.427L676.474 411.779H690.849V503.383ZM690.849 383.717L551.864 489.929V634.966L529.956 657.147H518.617L479.489 604.406L332.856 604.06L295.996 652.841H280.429L259.52 631.929V490.275L122.457 387.715V132.198L226.004 32.6363H236.958L294.651 188.591C294.651 188.591 324.477 194.972 334.778 205.274C345.079 215.538 351.459 229.723 351.497 245.368L352.535 512.263C352.535 520.374 359.108 526.909 367.179 526.909L366.91 187.361L383.015 188.283C391.855 188.36 399.004 195.587 398.966 204.467L398.389 519.913C398.389 523.603 401.426 526.563 405.077 526.486L408.075 526.409C411.189 526.332 413.648 523.795 413.648 520.72V204.774C413.648 195.779 420.99 188.514 429.945 188.629L444.474 188.014L444.82 526.601C449.048 526.601 452.853 524.872 455.621 522.104C458.388 519.336 460.079 515.53 460.079 511.302L459.31 249.327C459.195 215.653 486.293 188.206 519.962 187.937L574.426 32.6363H586.303L690.849 132.198V383.717ZM748.349 425.54C746.158 428.808 742.392 430.538 738.51 430.538H710.913C708.299 430.538 706.147 428.385 706.147 425.771V224.302C706.147 221.804 708.184 219.766 710.682 219.766H737.318C737.318 219.766 748.465 218.613 751.27 230.376V414.931C751.27 414.931 751.847 420.351 748.349 425.54ZM793.396 364.496C791.436 372.454 782.135 379.411 782.135 379.411H770.988C769.412 379.411 768.221 378.181 768.221 376.682C768.413 361.805 768.221 291.036 768.451 276.005C768.528 274.429 769.643 273.238 771.18 273.238H780.789C793.089 275.89 793.396 286.5 793.396 286.5V364.496Z" stroke="#713A23" stroke-miterlimit="10"/>
<path fill-rule="evenodd" clip-rule="evenodd" d="M551.864 489.929L690.849 383.717V132.198L586.303 32.6363H574.426L519.962 187.937C486.293 188.206 459.195 215.653 459.31 249.327L460.079 511.302C460.079 515.53 458.388 519.336 455.621 522.104C452.853 524.872 449.048 526.601 444.82 526.601L444.474 188.014L429.945 188.629C420.99 188.514 413.648 195.779 413.648 204.774V520.72C413.648 523.795 411.189 526.332 408.075 526.409L405.077 526.486C401.426 526.563 398.389 523.603 398.389 519.913L398.966 204.467C399.004 195.587 391.855 188.36 383.015 188.283L366.91 187.361L367.179 526.909C359.108 526.909 352.535 520.374 352.535 512.263L351.497 245.368C351.459 229.723 345.079 215.538 334.778 205.274C324.477 194.972 294.651 188.591 294.651 188.591L236.958 32.6363H226.004L122.457 132.198V387.715L259.52 490.275V631.929L280.429 652.841H295.996L332.856 604.06L479.489 604.406L518.617 657.147H529.956L551.864 634.966V489.929Z" stroke="#713A23" stroke-miterlimit="10"/>
<path fill-rule="evenodd" clip-rule="evenodd" d="M99.6646 432.191C102.201 432.191 104.239 430.115 104.239 427.655V325.248V222.842C104.239 221.15 102.855 219.766 101.164 219.766H70.3379C56.1166 221.112 55.7707 232.721 55.7707 232.721V418.583C55.2326 424.233 60.8442 428.462 64.4572 430.615C66.1868 431.691 68.1471 432.191 70.1073 432.191H99.6646Z" stroke="#713A23" stroke-miterlimit="10"/>
<path fill-rule="evenodd" clip-rule="evenodd" d="M738.51 430.538C742.392 430.538 746.158 428.808 748.349 425.54C751.847 420.351 751.27 414.931 751.27 414.931V230.376C748.465 218.613 737.318 219.766 737.318 219.766H710.682C708.184 219.766 706.147 221.804 706.147 224.302V425.771C706.147 428.385 708.299 430.538 710.913 430.538H738.51Z" stroke="#713A23" stroke-miterlimit="10"/>
<path d="M41.8184 274.545V376.182C41.8184 377.951 40.3962 379.411 38.5897 379.411H30.5566C30.5566 379.411 24.0994 378.45 19.7945 368.955C19.4102 368.225 19.2564 367.379 19.2564 366.572V285.5C19.2564 285.5 18.0649 277.658 28.9039 271.162C29.9801 270.547 31.21 270.239 32.4015 270.239H37.5135C39.8966 270.239 41.8184 272.161 41.8184 274.545Z" fill="#008080" stroke="#713A23" stroke-miterlimit="10"/>
<path d="M244.184 493.427V606.904H229.232L122.457 506.996V411.779H138.331L244.184 493.427Z" fill="#008080" stroke="#713A23" stroke-miterlimit="10"/>
<path d="M508.316 665.834L483.294 695.856H330.012L302.299 665.104L334.509 620.628C343.118 620.013 474.8 620.397 474.8 620.397L508.316 665.834Z" fill="#008080" stroke="#713A23" stroke-miterlimit="10"/>
<path d="M690.849 411.779V503.383L581.306 606.904H567.969V493.427L676.474 411.779H690.849Z" fill="#008080" stroke="#713A23" stroke-miterlimit="10"/>
<path d="M793.396 286.5V364.496C791.436 372.453 782.135 379.411 782.135 379.411H770.988C769.412 379.411 768.221 378.181 768.221 376.682C768.413 361.805 768.221 291.036 768.451 276.005C768.528 274.429 769.643 273.238 771.18 273.238H780.789C793.089 275.89 793.396 286.5 793.396 286.5Z" fill="#008080" stroke="#713A23" stroke-miterlimit="10"/>
<path d="M559.821 19.3358V32.2519L510.699 172.023H302.991L251.564 31.9444V19.3358H559.821Z" fill="#008080" stroke="#663333" stroke-miterlimit="10"/>
<path d="M562.088 279.196C529.879 279.196 503.704 305.297 503.704 337.588C503.704 369.878 529.879 396.018 562.088 396.018C594.298 396.018 620.55 369.84 620.55 337.588C620.55 305.336 594.375 279.196 562.088 279.196ZM562.088 378.412C539.104 378.412 520.501 359.73 520.501 336.78C520.501 313.831 539.104 295.11 562.088 295.11C585.073 295.11 603.791 313.754 603.791 336.78C603.791 359.806 585.15 378.412 562.088 378.412Z" stroke="#713A23" stroke-miterlimit="10"/>
<path d="M562.088 280.196C529.879 280.196 503.704 306.297 503.704 338.588C503.704 370.878 529.879 397.018 562.088 397.018C594.298 397.018 620.55 370.84 620.55 338.588C620.55 306.336 594.375 280.196 562.088 280.196ZM562.088 379.412C539.104 379.412 520.501 360.73 520.501 337.78C520.501 314.831 539.104 296.11 562.088 296.11C585.073 296.11 603.791 314.754 603.791 337.78C603.791 360.806 585.15 379.412 562.088 379.412Z" stroke="#713A23" stroke-miterlimit="10"/>
<path d="M249.219 280.196C216.971 280.196 190.835 306.297 190.835 338.588C190.835 370.878 216.971 397.018 249.219 397.018C281.467 397.018 307.642 370.84 307.642 338.588C307.642 306.336 281.467 280.196 249.219 280.196ZM248.066 379.412C225.043 379.412 206.44 360.73 206.44 337.78C206.44 314.831 225.043 296.11 248.066 296.11C271.089 296.11 289.692 314.754 289.692 337.78C289.692 360.806 271.051 379.412 248.066 379.412Z" fill="#663333" stroke="#713A23" stroke-miterlimit="10"/>
<path d="M289.692 336.78C289.692 359.73 271.051 378.412 248.066 378.412C225.081 378.412 206.44 359.73 206.44 336.78C206.44 313.831 225.043 295.11 248.066 295.11C271.089 295.11 289.692 313.754 289.692 336.78Z" fill="#008080" stroke="#713A23" stroke-miterlimit="10"/>
<path d="M562.088 279.196C529.879 279.196 503.704 305.297 503.704 337.588C503.704 369.878 529.879 396.018 562.088 396.018C594.298 396.018 620.55 369.84 620.55 337.588C620.55 305.336 594.375 279.196 562.088 279.196ZM562.088 378.412C539.104 378.412 520.501 359.73 520.501 336.78C520.501 313.831 539.104 295.11 562.088 295.11C585.073 295.11 603.791 313.754 603.791 336.78C603.791 359.806 585.15 378.412 562.088 378.412Z" fill="#663333" stroke="#713A23" stroke-miterlimit="10"/>
<path d="M603.791 336.78C603.791 359.73 585.15 378.412 562.088 378.412C539.027 378.412 520.501 359.73 520.501 336.78C520.501 313.831 539.104 295.11 562.088 295.11C585.073 295.11 603.791 313.754 603.791 336.78Z" fill="#008080" stroke="#713A23" stroke-miterlimit="10"/>
</svg>
