<svg width="725" height="939" viewBox="0 0 725 939" fill="none" xmlns="http://www.w3.org/2000/svg">
<path d="M546.267 701.902C573.958 669.037 578.993 652.605 587.975 608.815C596.957 565.025 602.128 585.072 638.358 572.429C674.592 559.757 679.688 538.672 679.688 528.127C679.688 517.586 680.251 493.844 641.756 475.913C603.261 457.983 603.824 435.82 602.692 419.467C601.564 403.115 599.298 375.693 623.072 353.004C646.851 330.341 695.537 264.93 627.603 198.467C643.83 230.463 657.832 298.372 584.013 313.989C553.442 320.325 550.044 287.093 559.67 267.033C569.291 246.999 646.282 83.4969 420.967 117.254C447.008 115.835 500.111 124.116 504.187 168.416C507.586 198.467 475.882 207.432 455.502 193.208C435.122 178.959 370.017 120.935 317.933 173.675C265.849 226.44 263.585 241.189 187.156 202.174C110.73 163.132 33.1723 244.37 73.3681 321.376C86.0103 294.113 127.941 247.42 194.519 278.653C229.618 298.161 216.597 342.987 189.99 349.849C163.382 356.711 85.821 369.357 58.0812 437.923C30.3418 506.492 54.1193 547.634 69.9701 567.142C72.9895 540.958 91.1432 484.773 139.604 469.575C186.025 453.751 161.116 539.197 161.116 539.197C161.116 539.197 135.938 645.562 168.663 683.122C201.389 720.682 334.809 723.03 375.087 727.725C415.365 732.42 518.576 734.767 546.267 701.902Z" fill="#FDB100" stroke="#0D0D0D" stroke-width="2" stroke-linejoin="round"/>
<path d="M340.861 515.582C350.397 515.582 358.128 508.379 358.128 499.496C358.128 490.614 350.397 483.411 340.861 483.411C331.325 483.411 323.594 490.614 323.594 499.496C323.594 508.379 331.325 515.582 340.861 515.582Z" fill="#0D0D0D"/>
<path d="M431.722 515.582C441.258 515.582 448.989 508.379 448.989 499.496C448.989 490.614 441.258 483.411 431.722 483.411C422.186 483.411 414.455 490.614 414.455 499.496C414.455 508.379 422.186 515.582 431.722 515.582Z" fill="#0D0D0D"/>
<path d="M340.857 544.531H431.723" stroke="#0D0D0D" stroke-width="2" stroke-linecap="round"/>
</svg>
