<svg width="725" height="939" viewBox="0 0 725 939" fill="none" xmlns="http://www.w3.org/2000/svg">
<path d="M448.178 116.495C489.554 112.845 518.345 117.063 538.025 125.88C561.533 136.412 572.252 153.595 575.967 172.455C579.712 191.47 576.342 212.285 571.338 229.742C566.346 247.157 559.802 260.983 557.416 265.95V265.951C552.38 276.446 550.679 290.457 554.404 301.227C556.287 306.669 559.609 311.414 564.724 314.32C569.844 317.228 576.441 318.111 584.521 316.437L584.53 316.435C603.364 312.45 616.811 305.08 626.04 295.592C635.272 286.1 640.127 274.648 642.043 262.768C644.925 244.899 641.186 225.954 635.628 210.746C660.051 239.71 663.049 267.812 657.3 291.573C650.805 318.416 633.058 340.034 621.348 351.195L621.346 351.196C596.65 374.764 599.072 403.325 600.197 419.639V419.64C600.752 427.654 600.894 437.84 605.968 448.198C611.092 458.662 621.074 469.039 640.7 478.18C659.542 486.956 668.544 497.012 672.914 505.895C677.305 514.82 677.188 522.863 677.188 528.126C677.188 532.993 676.016 540.365 670.572 548.032C665.13 555.698 655.27 563.866 637.532 570.069C628.706 573.149 621.791 574.234 616.211 574.803C613.26 575.104 611.062 575.231 608.626 575.463C606.362 575.679 604.217 575.963 602.243 576.543C600.23 577.135 598.374 578.04 596.681 579.497C595.001 580.943 593.585 582.841 592.321 585.285C589.834 590.098 587.773 597.36 585.526 608.313C581.032 630.223 577.569 645.046 571.838 658.474C566.128 671.851 558.114 683.962 544.355 700.291C537.895 707.959 526.804 713.794 512.773 718.071C498.804 722.329 482.237 724.948 465.184 726.407C431.077 729.325 395.375 727.573 375.376 725.241C365.244 724.06 349.253 723.026 330.639 721.565C311.97 720.099 290.551 718.196 269.385 715.272C248.206 712.346 227.357 708.407 209.809 702.892C192.172 697.349 178.257 690.328 170.548 681.48C162.825 672.616 158.364 659.482 156.151 644.425C153.946 629.417 154.016 612.797 155.111 597.25C156.205 581.718 158.316 567.337 160.155 556.835C161.074 551.586 161.925 547.312 162.545 544.354C162.855 542.875 163.106 541.725 163.28 540.948C163.367 540.559 163.435 540.262 163.48 540.065C163.503 539.966 163.521 539.892 163.532 539.843C163.534 539.837 163.535 539.831 163.536 539.825C163.549 539.782 163.567 539.718 163.591 539.635C163.638 539.468 163.708 539.222 163.795 538.905C163.97 538.269 164.218 537.345 164.518 536.177C165.116 533.841 165.916 530.527 166.73 526.601C168.354 518.77 170.05 508.416 170.268 498.507C170.482 488.739 169.281 478.807 164.573 472.311C162.149 468.966 158.803 466.546 154.39 465.581C150.055 464.634 144.902 465.136 138.855 467.19C113.829 475.038 96.7433 493.439 85.5752 512.999C75.9438 529.868 70.6165 547.761 68.3447 560.949C61.389 551.472 53.8303 538.112 50.126 520.418C45.7789 499.654 46.6964 472.731 60.3984 438.861C73.9598 405.34 99.7089 385.422 125.543 373C151.439 360.548 177.127 355.748 190.614 352.27C205.094 348.536 215.557 334.633 217.866 319.367C220.204 303.911 214.262 286.766 195.733 276.468C195.683 276.44 195.632 276.414 195.58 276.39C161.572 260.436 133.604 264.324 112.516 275.886C93.7646 286.167 80.6068 302.425 73.3945 315.765C39.4063 242.125 113.41 167.308 186.019 204.4L186.02 204.401C205.151 214.167 219.809 220.658 231.839 224.009C243.924 227.375 253.526 227.62 262.446 224.72C271.295 221.843 279.177 215.963 287.984 207.698C296.206 199.982 305.543 189.877 317.323 177.86L319.712 175.431C332.36 162.624 345.687 156.633 358.852 154.953C372.065 153.267 385.294 155.903 397.713 160.656C422.667 170.205 443.625 187.954 454.069 195.257L454.071 195.258C464.924 202.832 478.846 204.29 489.729 199.72C495.2 197.423 499.927 193.587 503.042 188.223C506.062 183.021 507.483 176.526 506.749 168.879L506.672 168.135C504.506 144.819 489.371 131.055 471.813 123.399C464.183 120.072 456.039 117.866 448.178 116.495Z" fill="#FDB100" stroke="#0D0D0D" stroke-width="5" stroke-linejoin="round"/>
<path d="M340.861 515.582C350.397 515.582 358.128 508.379 358.128 499.496C358.128 490.614 350.397 483.411 340.861 483.411C331.325 483.411 323.594 490.614 323.594 499.496C323.594 508.379 331.325 515.582 340.861 515.582Z" fill="#0D0D0D"/>
<path d="M431.722 515.582C441.258 515.582 448.989 508.379 448.989 499.496C448.989 490.614 441.258 483.411 431.722 483.411C422.186 483.411 414.455 490.614 414.455 499.496C414.455 508.379 422.186 515.582 431.722 515.582Z" fill="#0D0D0D"/>
<path d="M340.857 544.531H431.723" stroke="#0D0D0D" stroke-width="10" stroke-linecap="round"/>
</svg>
