<svg width="241" height="154" viewBox="0 0 241 154" fill="none" xmlns="http://www.w3.org/2000/svg">
<path d="M220.917 21.3333H150.625V1.25H220.917V21.3333ZM238.249 121.75C233.81 134.774 217.874 151.875 187.026 151.875C156.158 151.875 131.154 134.513 131.154 94.8885C131.154 55.6256 154.501 35.4419 186.042 35.4419C216.99 35.4419 235.889 53.3361 240.016 79.8863C240.799 84.9674 241.11 91.8158 240.97 101.375H160.365C161.671 133.619 195.341 134.633 206.437 121.75H238.249ZM161.068 81.5833H210.925C209.871 66.0489 199.518 59.3009 186.052 59.3009C171.331 59.3009 163.187 67.0129 161.068 81.5833ZM64.9294 151.755H0V1.46087H69.8197C124.808 2.27425 125.852 56.1277 97.133 70.8086C131.887 83.4611 133.052 151.755 64.9294 151.755ZM30.125 61.5H66.1143C91.2988 61.5 95.2954 31.375 62.9813 31.375H30.125V61.5ZM64.1763 91.625H30.125V121.911H63.6742C94.3515 121.911 92.4737 91.625 64.1763 91.625Z" fill="#F1EBDD" stroke="black" stroke-width="2.5"/>
</svg>
