<svg width="54" height="78" viewBox="0 0 54 78" fill="none" xmlns="http://www.w3.org/2000/svg">
<path d="M12.4466 41.3333H36.554ZM12.0579 36.1111H36.943ZM14.8444 20.4444H34.1554ZM14.8444 20.4444C13.4724 20.4444 12.7863 20.4444 12.2805 20.7602C11.8361 21.0376 11.485 21.4792 11.2828 22.0127C11.0528 22.6196 11.1113 23.4056 11.2284 24.9782L13.0436 49.3573C13.2443 52.0527 13.3448 53.4032 13.8653 54.4234C14.3237 55.3216 15.0056 56.0409 15.8223 56.4901C16.7497 57 17.9248 57 20.2756 57H28.7248C31.0755 57 32.2509 57 33.1783 56.4901C33.9951 56.0409 34.6767 55.3216 35.1351 54.4234C35.6556 53.4032 35.7561 52.0535 35.9568 49.3573L37.7723 24.974C37.8893 23.4031 37.9476 22.6192 37.7176 22.0127C37.5155 21.4792 37.1646 21.0376 36.7201 20.7602C36.2143 20.4444 35.5275 20.4444 34.1554 20.4444M14.8444 20.4444H12.5915C10.5511 20.4444 9.53021 20.4444 8.93695 19.9523C8.41325 19.5179 8.07543 18.8469 8.00761 18.1079C7.93072 17.2701 8.43804 16.2481 9.45185 14.2057L9.45305 14.2033C10.211 12.6763 10.59 11.9128 11.1219 11.3566C11.5974 10.8593 12.1591 10.4842 12.77 10.2557C13.4534 10 14.217 10 15.7448 10H33.2557C34.7833 10 35.5472 10 36.2306 10.2557C36.8414 10.4842 37.4028 10.8593 37.8782 11.3566C38.4101 11.9128 38.7891 12.6763 39.5471 14.2033C40.5612 16.2464 41.0693 17.27 40.9924 18.1079C40.9246 18.8469 40.5866 19.5179 40.0629 19.9523C39.4698 20.4444 38.4482 20.4444 36.4077 20.4444H34.1554" fill="#F1EBDD"/>
<path d="M12.4466 41.3333H36.554M12.0579 36.1111H36.943M14.8444 20.4444H34.1554M14.8444 20.4444C13.4724 20.4444 12.7863 20.4444 12.2805 20.7602C11.8361 21.0376 11.485 21.4792 11.2828 22.0127C11.0528 22.6196 11.1113 23.4056 11.2284 24.9782L13.0436 49.3573C13.2443 52.0527 13.3448 53.4032 13.8653 54.4234C14.3237 55.3216 15.0056 56.0409 15.8223 56.4901C16.7497 57 17.9248 57 20.2756 57H28.7248C31.0755 57 32.2509 57 33.1783 56.4901C33.9951 56.0409 34.6767 55.3216 35.1351 54.4234C35.6556 53.4032 35.7561 52.0535 35.9568 49.3573L37.7723 24.974C37.8893 23.4031 37.9476 22.6192 37.7176 22.0127C37.5155 21.4792 37.1646 21.0376 36.7201 20.7602C36.2143 20.4444 35.5275 20.4444 34.1554 20.4444M14.8444 20.4444H12.5915C10.5511 20.4444 9.53021 20.4444 8.93695 19.9523C8.41325 19.5179 8.07543 18.8469 8.00761 18.1079C7.93072 17.2701 8.43804 16.2481 9.45185 14.2057L9.45305 14.2033C10.211 12.6763 10.59 11.9128 11.1219 11.3566C11.5974 10.8593 12.1591 10.4842 12.77 10.2557C13.4534 10 14.217 10 15.7448 10H33.2557C34.7833 10 35.5472 10 36.2306 10.2557C36.8414 10.4842 37.4028 10.8593 37.8782 11.3566C38.4101 11.9128 38.7891 12.6763 39.5471 14.2033C40.5612 16.2464 41.0693 17.27 40.9924 18.1079C40.9246 18.8469 40.5866 19.5179 40.0629 19.9523C39.4698 20.4444 38.4482 20.4444 36.4077 20.4444H34.1554" stroke="black" stroke-width="2.5" stroke-linecap="round" stroke-linejoin="round"/>
</svg>
