<svg width="144" height="200" viewBox="0 0 144 200" fill="none" xmlns="http://www.w3.org/2000/svg">
<path d="M108.5 149.5C114 142.5 115 139 116.784 129.673C118.568 120.346 119.595 124.616 126.791 121.923C133.988 119.224 135 114.733 135 112.487C135 110.242 135.112 105.185 127.466 101.366C119.82 97.547 119.932 92.8265 119.707 89.3434C119.483 85.8604 119.033 80.0198 123.755 75.1872C128.478 70.3602 138.148 56.428 124.655 42.2719C127.878 49.0868 130.659 63.551 115.997 66.8772C109.925 68.2268 109.25 61.1486 111.162 56.876C113.073 52.609 128.365 17.7842 83.6128 24.9742C88.785 24.6719 99.3324 26.4358 100.142 35.8714C100.817 42.2719 94.52 44.1814 90.4721 41.1519C86.4242 38.1169 73.4931 25.7583 63.148 36.9914C52.803 48.2301 52.3535 51.3715 37.1731 43.0615C21.9933 34.7458 6.58871 52.049 14.5724 68.4507C17.0834 62.6438 25.4117 52.6986 38.6354 59.3511C45.6068 63.5061 43.0207 73.0537 37.7359 74.5152C32.451 75.9767 17.0458 78.6702 11.5361 93.2744C6.02652 107.879 10.7492 116.642 13.8975 120.797C14.4972 115.22 18.1029 103.253 27.7282 100.016C36.9484 96.6455 32.0009 114.845 32.0009 114.845C32.0009 114.845 27 137.5 33.5 145.5C40 153.5 66.5 154 74.5 155C82.5 156 103 156.5 108.5 149.5Z" fill="#FDB100" stroke="#0D0D0D" stroke-width="2" stroke-linejoin="round"/>
<path d="M67.702 109.815C69.5961 109.815 71.1316 108.281 71.1316 106.389C71.1316 104.497 69.5961 102.963 67.702 102.963C65.8079 102.963 64.2725 104.497 64.2725 106.389C64.2725 108.281 65.8079 109.815 67.702 109.815Z" fill="#0D0D0D"/>
<path d="M85.7489 109.815C87.643 109.815 89.1785 108.281 89.1785 106.389C89.1785 104.497 87.643 102.963 85.7489 102.963C83.8548 102.963 82.3193 104.497 82.3193 106.389C82.3193 108.281 83.8548 109.815 85.7489 109.815Z" fill="#0D0D0D"/>
<path d="M67.7012 115.981H85.7491" stroke="#0D0D0D" stroke-width="2" stroke-linecap="round"/>
</svg>
