<svg width="144" height="200" viewBox="0 0 144 200" fill="none" xmlns="http://www.w3.org/2000/svg">
<path d="M143 1V199H1V1H143Z" fill="#FFC900" stroke="#0D0D0D" stroke-width="2"/>
<path d="M108.365 156.964C114.313 163.362 125.249 180.128 124.277 199H14.9512C15.5422 191.134 21.2603 173.069 40.7959 156.964H108.365Z" fill="#98282A" stroke="#0D0D0D" stroke-width="2"/>
<path d="M122.294 136.079C127.601 139.584 129.237 143.851 129.392 145.548V156.188H13.8975C10.0744 129.337 23.0055 122.483 32.0009 114.845C40.9968 107.207 36.9484 96.6454 27.7282 100.016C18.1029 103.253 14.4972 115.22 13.8975 120.797C10.7492 116.642 6.0265 107.879 11.5361 93.2744C17.0458 78.6702 32.451 75.9767 37.7359 74.5152C43.0207 73.0537 45.6068 63.5061 38.6354 59.3511C25.4117 52.6986 17.0834 62.6438 14.5724 68.4507C6.58869 52.049 21.9933 34.7458 37.1731 43.0615C52.3535 51.3715 52.803 48.23 63.1481 36.9914C73.4931 25.7583 86.4242 38.1169 90.4721 41.1519C94.52 44.1814 100.817 42.2719 100.142 35.8714C99.3324 26.4358 88.785 24.6719 83.6128 24.9742C128.365 17.7842 113.073 52.609 111.162 56.876C109.25 61.1486 109.925 68.2267 115.997 66.8772C130.659 63.551 127.878 49.0868 124.655 42.2719C138.148 56.428 128.478 70.3602 123.755 75.1872C119.098 79.9526 119.471 85.698 119.698 89.1978L119.707 89.3434C119.932 92.8264 119.82 97.547 127.466 101.366C135.112 105.185 135 110.242 135 112.487C135 114.733 133.988 119.224 126.792 121.923C119.595 124.616 116.784 127.651 116.784 129.673C116.784 130.91 115.66 131.694 122.294 136.079Z" fill="#FDB100"/>
<path d="M129.392 156.496C129.392 156.395 129.392 156.294 129.392 156.188V156.496ZM129.392 156.188C129.392 152.447 129.392 145.548 129.392 145.548C129.237 143.851 127.601 139.584 122.294 136.079C115.66 131.694 116.784 130.91 116.784 129.673C116.784 127.651 119.595 124.616 126.791 121.923C133.988 119.224 135 114.733 135 112.487C135 110.242 135.112 105.185 127.466 101.366C119.82 97.547 119.932 92.8265 119.707 89.3434C119.483 85.8604 119.033 80.0198 123.755 75.1872C128.478 70.3602 138.148 56.428 124.655 42.2719C127.878 49.0868 130.659 63.551 115.997 66.8772C109.925 68.2268 109.25 61.1486 111.162 56.876C113.073 52.609 128.365 17.7842 83.6128 24.9742C88.785 24.6719 99.3324 26.4358 100.142 35.8714C100.817 42.2719 94.52 44.1814 90.4721 41.1519C86.4242 38.1169 73.4931 25.7583 63.148 36.9914C52.803 48.2301 52.3535 51.3715 37.1731 43.0615C21.9933 34.7458 6.58869 52.049 14.5724 68.4507C17.0834 62.6438 25.4117 52.6986 38.6354 59.3511C45.6068 63.5061 43.0207 73.0537 37.7359 74.5152C32.451 75.9767 17.0458 78.6702 11.5361 93.2744C6.0265 107.879 10.7492 116.642 13.8975 120.797C14.4972 115.22 18.1029 103.253 27.7282 100.016C36.9484 96.6455 40.9968 107.207 32.0009 114.845C23.0055 122.483 10.0744 129.337 13.8975 156.188H129.392Z" stroke="#0D0D0D" stroke-width="2" stroke-linejoin="round"/>
<path d="M71.7048 189.797L84.9953 151.578C85.2722 150.783 85.4874 149.949 85.4134 149.114C85.2413 147.155 84.2038 144.943 80.9143 146.107C81.4389 144.013 82.4658 139.595 82.3761 138.693C82.2634 137.573 80.1274 135.44 78.3282 138.693C77.9157 137.237 76.4842 134.986 74.055 137.685C73.3056 136.448 71.3562 134.718 69.5576 137.685C68.8077 135.961 66.8364 133.754 64.947 138.693C63.5883 142.249 55.8261 162.296 49.0088 179.885L71.7048 189.797Z" fill="#FDB100" stroke="#0D0D0D" stroke-width="2"/>
<path d="M71.7048 189.797L68.77 198.235H41.8955C43.8315 193.24 46.3481 186.75 49.0082 179.885L71.7048 189.797Z" fill="#98282A" stroke="#0D0D0D" stroke-width="2"/>
<path d="M67.702 109.815C69.5961 109.815 71.1316 108.281 71.1316 106.389C71.1316 104.497 69.5961 102.963 67.702 102.963C65.8079 102.963 64.2725 104.497 64.2725 106.389C64.2725 108.281 65.8079 109.815 67.702 109.815Z" fill="#0D0D0D"/>
<path d="M85.7489 109.815C87.643 109.815 89.1785 108.281 89.1785 106.389C89.1785 104.497 87.643 102.963 85.7489 102.963C83.8548 102.963 82.3193 104.497 82.3193 106.389C82.3193 108.281 83.8548 109.815 85.7489 109.815Z" fill="#0D0D0D"/>
<path d="M67.7012 115.981H85.7491" stroke="#0D0D0D" stroke-width="2" stroke-linecap="round"/>
<path d="M69.6692 137.405L65.0586 154.647" stroke="#0D0D0D" stroke-width="2"/>
<path d="M74.0552 137.629L69.333 155.543" stroke="#0D0D0D" stroke-width="2"/>
<path d="M78.6091 138.189L73.3242 156.332" stroke="#0D0D0D" stroke-width="2"/>
<path d="M81.0828 146.051C79.4523 150.923 76.0675 160.868 75.5726 161.725C74.9543 162.795 74.4482 164.648 72.8177 164.872C71.1873 165.096 66.2398 166.894 63.541 171.833" stroke="#0D0D0D" stroke-width="2"/>
<path d="M34.3623 198.235L39.3098 177.791" stroke="#0D0D0D" stroke-width="2" stroke-linecap="round"/>
<path d="M111.161 198.011L107.563 179.476" stroke="#0D0D0D" stroke-width="2" stroke-linecap="round"/>
</svg>
