<svg width="280" height="280" viewBox="0 0 280 280" fill="none" xmlns="http://www.w3.org/2000/svg">
<g clip-path="url(#clip0_1_285)">
<path d="M176.659 41.5283C180.509 40.7202 184.497 40.8408 188.295 41.8818C192.093 42.9229 195.597 44.8546 198.519 47.5205C201.44 50.1868 203.699 53.5117 205.105 57.2246V57.2256C206.425 60.7064 206.961 64.435 206.681 68.1426L206.613 68.8838C206.196 72.8339 204.858 76.6254 202.71 79.9492C200.561 83.2731 197.665 86.034 194.255 88.0088L193.906 88.2109L193.626 88.373L193.493 88.6689L193.33 89.0361C192.269 91.4149 190.847 93.6111 189.118 95.5479V95.5488L189.041 95.6348C187.212 97.6758 185.062 99.3984 182.677 100.734L182.308 100.941L182.011 101.107L181.877 101.421L181.711 101.809C180.37 104.939 178.412 107.76 175.954 110.099C173.498 112.437 170.593 114.245 167.421 115.414L165.364 116.172L163.711 116.78L165.081 117.888L166.788 119.268C168.52 120.669 170.158 122.188 171.688 123.812L171.74 123.867C174.677 126.988 177.059 129.906 179.196 132.535L179.197 132.536C183.852 138.252 186.104 140.906 189.886 142.017L189.892 142.02L189.935 142.032V142.031L189.937 142.032C192.99 142.912 196.706 143.266 200.1 143.37L201.531 143.399C205.301 143.443 208.656 143.208 210.27 143.021L210.271 143.022H210.275L210.293 143.021C212.01 142.816 213.75 142.957 215.412 143.437L215.743 143.537C217.476 144.087 219.078 144.997 220.447 146.208L220.512 146.266C221.895 147.507 223.004 149.03 223.766 150.736C224.526 152.443 224.919 154.291 224.918 156.162V156.165L225 225.8C225.004 229.31 223.624 232.671 221.171 235.145C218.717 237.617 215.391 239.001 211.926 238.999L177.626 238.978C162.699 238.967 154.761 232.322 150.709 226.884C149.929 225.829 149.22 224.724 148.587 223.575L148.358 223.161L148.175 222.829L147.817 222.702L147.372 222.544H147.373C140.621 220.132 131.692 216.06 125.948 210.183L125.402 209.607L124.977 209.132H124.976L124.514 208.613L124.143 208.198L123.595 208.295L122.91 208.415C121.728 208.622 120.531 208.727 119.332 208.729C114.171 208.704 109.197 206.739 105.386 203.213H105.387L105.11 202.956L104.889 202.751L104.591 202.702L104.22 202.641H104.219C99.5831 201.884 95.3258 199.601 92.1104 196.149L91.8027 195.812L91.5762 195.558L91.3936 195.354L91.1338 195.271L90.8086 195.167H90.8096L90.0732 194.932L90.0723 194.931L89.5762 194.772L89.1787 194.646L88.8086 194.839L88.3477 195.08L74.1426 202.489L74.1299 202.496C71.7288 203.75 69.0009 204.224 66.3213 203.849H66.3203C63.8049 203.498 61.4451 202.416 59.5273 200.738L59.1504 200.395C57.1691 198.522 55.8101 196.072 55.2656 193.386C54.7212 190.699 55.018 187.909 56.1143 185.404L64.0059 167.378L64.0068 167.379C64.5911 166.05 65.3872 164.826 66.3633 163.758L66.3623 163.757L75.1289 154.221L75.7217 153.575L76.1982 153.056L75.8701 152.433L75.4619 151.656C74.7157 150.238 74.1648 148.725 73.8242 147.159L73.6914 146.485L73.5957 145.886C72.7216 139.681 75.3046 133.1 82.0244 126.273L82.0254 126.271L82.0264 126.272C83.2593 125.018 84.6573 123.743 86.1621 122.473L86.165 122.471L86.1797 122.458L86.1973 122.442L86.2119 122.43L86.2158 122.427C86.4289 122.235 86.6079 122.08 86.7822 121.944H86.7832L86.7871 121.941L86.8008 121.931L86.8076 121.925L86.8213 121.914L86.8301 121.906C89.9791 119.325 93.3096 116.978 96.7949 114.881C103.172 111.124 110.171 108.56 117.456 107.312L117.876 107.24L118.213 107.183L118.444 106.931L118.731 106.616L133.387 90.625L133.388 90.626L133.67 90.3184L133.897 90.0703L133.929 89.7354L133.968 89.3203C134.351 85.2615 135.707 81.3605 137.918 77.9531C140.129 74.5455 143.13 71.7335 146.658 69.7588L146.657 69.7578L147.026 69.5527L147.323 69.3867L147.457 69.0742L147.624 68.6855C149.761 63.7018 153.435 59.5508 158.097 56.8457L158.444 56.6445L158.725 56.4814L158.855 56.1865L159.02 55.8193V55.8184C160.531 52.4244 162.772 49.4166 165.572 47.0078L166.14 46.5342C169.205 44.0514 172.811 42.3365 176.659 41.5283ZM174.699 209.213L172.236 209.479L171.344 209.576V210.49C171.344 210.655 171.342 211.052 171.463 211.525L171.677 212.364L172.538 212.272L174.992 212.01L175.854 211.918L175.885 211.052C175.899 210.66 175.854 210.305 175.783 209.989L175.588 209.117L174.699 209.213Z" fill="#FDB100" stroke="black" stroke-width="2"/>
<path d="M179.336 87.4698C180.389 86.3037 181.201 84.9386 181.725 83.4532C182.25 81.9678 182.478 80.3917 182.394 78.8162C184.742 78.708 187.004 77.8993 188.894 76.4928C190.783 75.0862 192.215 73.1453 193.007 70.9159C193.799 68.6864 193.916 66.2691 193.342 63.9701C192.768 61.6712 191.532 59.5942 189.787 58.0028C188.043 56.4112 185.869 55.3768 183.542 55.0304C181.216 54.6842 178.841 55.0417 176.72 56.0576C174.597 57.0736 172.823 58.7023 171.623 60.7372C170.423 62.7721 169.849 65.1215 169.975 67.4877C168.37 67.5565 166.796 67.9537 165.35 68.6552C163.903 69.3567 162.614 70.3478 161.561 71.5679C160.507 72.7882 159.712 74.2122 159.222 75.7532C158.733 77.2942 158.561 78.92 158.714 80.5317C156.321 80.5419 153.989 81.2806 152.023 82.6509C150.056 84.0212 148.548 85.9591 147.695 88.2105C146.842 90.462 146.684 92.9218 147.243 95.2675C147.802 97.6132 149.051 99.7354 150.826 101.355C152.601 102.976 154.82 104.018 157.191 104.347C159.562 104.675 161.975 104.274 164.113 103.196C166.251 102.118 168.015 100.413 169.175 98.3052C170.332 96.1973 170.83 93.7848 170.603 91.3839C172.25 91.3794 173.879 91.0287 175.381 90.3549C176.885 89.6811 178.232 88.6984 179.336 87.4698Z" fill="black" stroke="black" stroke-width="2" stroke-linecap="round" stroke-linejoin="round"/>
<path d="M141.114 122.253C149.185 123.699 156.593 127.699 162.262 133.674C171.623 143.628 175.443 152.304 186.36 155.452C197.279 158.6 211.829 156.866 211.829 156.866L211.91 226.52L177.609 226.496C159.425 226.484 158.366 212.882 158.366 212.882C158.366 212.882 141.736 208.685 134.966 201.349C128.197 194.012 125.075 184.062 112.596 178.291C100.117 172.522 93.8797 169.376 93.8755 165.709C93.8671 158.433 103.735 155.244 115.176 159.962C126.617 164.68 138.615 173.128 144.806 168.884C153.462 162.954 153.987 150.342 143.549 142.756C138.329 138.956 132.114 138.674 125.182 139.368" stroke="black" stroke-width="2" stroke-linecap="round" stroke-linejoin="round"/>
<path d="M156.338 104.456L107.553 157.495" stroke="black" stroke-width="2" stroke-linecap="round" stroke-linejoin="round"/>
<path d="M96.4815 170.436L85.5443 182.373L68.0947 191.511L75.9879 173.482L147.315 95.6158" stroke="black" stroke-width="2" stroke-linecap="round" stroke-linejoin="round"/>
<path d="M124.306 120.498C116.99 121.032 109.893 123.237 103.553 126.945C94.3565 132.466 85.7768 140.424 86.598 144.913C87.37 149.297 94.5813 151.552 99.7667 147.394" stroke="black" stroke-width="2" stroke-linecap="round" stroke-linejoin="round"/>
<path d="M120.511 162.339C122.37 160.045 124.406 157.904 126.602 155.938C134.214 149.655 140.451 147.909 148.421 148.267" stroke="black" stroke-width="2" stroke-linecap="round" stroke-linejoin="round"/>
<path d="M89.208 178.257C89.208 178.257 92.5114 185.939 100.299 182.802C102.697 181.84 105.443 179.498 108.267 176.551" stroke="black" stroke-width="2" stroke-linecap="round" stroke-linejoin="round"/>
<path d="M132.504 167.713C139.044 162.327 144.563 160.302 151.035 160.035" stroke="black" stroke-width="2" stroke-linecap="round" stroke-linejoin="round"/>
<path d="M99.7876 185.071C99.7876 185.071 103.085 192.752 110.879 189.616C113.418 188.598 116.347 186.028 119.374 182.821" stroke="black" stroke-width="2" stroke-linecap="round" stroke-linejoin="round"/>
<path d="M111.831 190.928C111.831 190.928 115.128 198.609 122.922 195.474C124.721 194.654 126.376 193.548 127.827 192.2" stroke="black" stroke-width="2" stroke-linecap="round" stroke-linejoin="round"/>
<path d="M94.2163 164.467C94.2163 164.467 96.4617 159.059 102.705 162.205C107.069 164.408 109.117 168.143 108.776 170.412C108.435 172.681 106.529 174.43 103.583 173.728" stroke="black" stroke-width="2" stroke-linecap="round" stroke-linejoin="round"/>
<path d="M87.0869 142.99C87.0869 142.99 90.727 144.742 94.3611 141.251C97.995 137.761 94.8728 133.048 94.8728 133.048" stroke="black" stroke-width="2" stroke-linecap="round" stroke-linejoin="round"/>
<path d="M76.2153 173.482C76.2153 173.482 76.5082 177.488 79.7441 179.822C81.5117 181.163 83.5839 182.041 85.7717 182.372" stroke="black" stroke-width="2" stroke-linecap="round" stroke-linejoin="round"/>
<path d="M187.292 61.4387C186.229 60.4681 184.943 59.7785 183.55 59.4323C182.158 59.086 180.702 59.0938 179.314 59.4551" stroke="#FDB100" stroke-width="2" stroke-linecap="round" stroke-linejoin="round"/>
</g>
<defs>
<clipPath id="clip0_1_285">
<rect width="172" height="200" fill="white" transform="translate(54 40)"/>
</clipPath>
</defs>
</svg>
