<svg width="24" height="24" viewBox="0 0 24 24" fill="none" xmlns="http://www.w3.org/2000/svg">
<g clip-path="url(#clip0_1_3571)">
<path d="M6.92774 5.60158C5.30054 5.60158 4.02694 6.01278 3.80214 7.57678C3.73014 8.07758 3.88854 8.57038 4.25254 8.92638C4.43334 9.10238 4.62454 9.31358 4.87654 9.52638C5.51174 10.0616 6.32054 10.6624 7.07654 11.2016C9.15974 12.6816 10.8037 13.6016 11.7773 13.6016C12.7509 13.6016 14.3949 12.6816 16.4773 11.2016C17.2349 10.6632 18.0437 10.0608 18.6773 9.52638C18.9301 9.31358 19.1213 9.10398 19.3013 8.92638C19.4785 8.75355 19.6119 8.54094 19.6904 8.30621C19.7688 8.07148 19.7902 7.8214 19.7525 7.57678C19.5277 6.01278 18.2533 5.59998 16.6269 5.59998H6.92774V5.60158ZM3.77734 10.5264V15.2016C3.77734 16.0503 4.11449 16.8642 4.7146 17.4643C5.31472 18.0644 6.12865 18.4016 6.97734 18.4016H16.5773C17.426 18.4016 18.24 18.0644 18.8401 17.4643C19.4402 16.8642 19.7773 16.0503 19.7773 15.2016V10.5264C19.0204 11.253 18.2099 11.9215 17.3525 12.5264C15.0837 14.1328 13.0461 15.2016 11.7765 15.2016C10.5085 15.2016 8.47094 14.1328 6.20214 12.5264C5.34466 11.9217 4.53408 11.2532 3.77734 10.5264Z" fill="#663333"/>
</g>
<defs>
<clipPath id="clip0_1_3571">
<rect width="16" height="24" fill="white" transform="translate(3.76562)"/>
</clipPath>
</defs>
</svg>
