<svg width="48" height="48" viewBox="0 0 48 48" fill="none" xmlns="http://www.w3.org/2000/svg">
<g clip-path="url(#clip0_10_122)">
<mask id="mask0_10_122" style="mask-type:luminance" maskUnits="userSpaceOnUse" x="-6" y="-3" width="59" height="54">
<path d="M52.5 -2.5V50.5H-5.5V-2.5H52.5Z" fill="white"/>
<path d="M52.5 -2.5V50.5H-5.5V-2.5H52.5Z" stroke="white"/>
</mask>
<g mask="url(#mask0_10_122)">
<circle cx="24" cy="24" r="24" fill="#0D0D0D" fill-opacity="0.5"/>
<path fill-rule="evenodd" clip-rule="evenodd" d="M24.0191 0.959961C11.268 0.959961 0.959961 11.344 0.959961 24.1903C0.959961 34.4592 7.56465 43.1515 16.7271 46.228C17.8727 46.4593 18.2923 45.7281 18.2923 45.1131C18.2923 44.5746 18.2545 42.7286 18.2545 40.8052C11.84 42.19 10.5043 38.036 10.5043 38.036C9.47341 35.3437 7.94603 34.6517 7.94603 34.6517C5.84657 33.2286 8.09895 33.2286 8.09895 33.2286C10.4278 33.3825 11.6498 35.6132 11.6498 35.6132C13.7111 39.1513 17.0325 38.1516 18.3687 37.5362C18.5594 36.0362 19.1707 34.9977 19.8196 34.421C14.7036 33.8824 9.32096 31.8825 9.32096 22.9594C9.32096 20.421 10.2366 18.3442 11.6876 16.729C11.4586 16.1522 10.6567 13.7672 11.9169 10.575C11.9169 10.575 13.864 9.95958 18.254 12.9596C20.1336 12.4511 22.0719 12.1924 24.0191 12.1902C25.966 12.1902 27.9507 12.4598 29.7836 12.9596C34.1741 9.95958 36.1211 10.575 36.1211 10.575C37.3813 13.7672 36.5789 16.1522 36.35 16.729C37.8391 18.3442 38.717 20.421 38.717 22.9594C38.717 31.8825 33.3344 33.8437 28.1802 34.421C29.0204 35.1516 29.7454 36.5359 29.7454 38.7284C29.7454 41.8436 29.7075 44.3438 29.7075 45.1127C29.7075 45.7281 30.1276 46.4593 31.2727 46.2285C40.4352 43.1511 47.0399 34.4592 47.0399 24.1903C47.0776 11.344 36.7319 0.959961 24.0191 0.959961Z" fill="#F1EBDD" stroke="black" stroke-width="1.5"/>
</g>
</g>
<defs>
<clipPath id="clip0_10_122">
<rect width="48" height="48" fill="white"/>
</clipPath>
</defs>
</svg>
