<svg width="40" height="20" viewBox="0 0 40 20" fill="none" xmlns="http://www.w3.org/2000/svg">
<path d="M30 0.400024H10C4.69809 0.400024 0.400024 4.69809 0.400024 10C0.400024 15.302 4.69809 19.6 10 19.6H30C35.302 19.6 39.6 15.302 39.6 10C39.6 4.69809 35.302 0.400024 30 0.400024Z" fill="#FDB100"/>
<path d="M30 0.400024H10C4.69809 0.400024 0.400024 4.69809 0.400024 10C0.400024 15.302 4.69809 19.6 10 19.6H30C35.302 19.6 39.6 15.302 39.6 10C39.6 4.69809 35.302 0.400024 30 0.400024Z" stroke="black" stroke-width="0.8"/>
<path d="M30 18C34.4183 18 38 14.4183 38 10C38 5.58172 34.4183 2 30 2C25.5817 2 22 5.58172 22 10C22 14.4183 25.5817 18 30 18Z" fill="black"/>
</svg>
