<svg width="280" height="280" viewBox="0 0 280 280" fill="none" xmlns="http://www.w3.org/2000/svg">
<path d="M152 238C199.496 238 238 199.496 238 152C238 104.504 199.496 66 152 66C104.504 66 66 104.504 66 152C66 199.496 104.504 238 152 238Z" fill="black"/>
<path d="M134 43.7812C183.668 43.7813 224.219 84.0122 224.219 134C224.219 183.988 183.668 224.219 134 224.219C84.3326 224.219 43.7813 183.988 43.7812 134C43.7812 84.0121 84.3326 43.7812 134 43.7812Z" fill="#FF90E7" stroke="black" stroke-width="1.5625"/>
<path d="M126.74 183C101.089 183 86 161.628 86 135.043C86 107.415 102.598 85 134.284 85C166.977 85 178.042 107.936 178.545 120.968H154.906C154.403 113.67 148.367 102.723 133.781 102.723C118.19 102.723 108.13 116.798 108.13 134C108.13 151.202 118.19 165.277 133.781 165.277C147.864 165.277 153.9 153.809 156.415 142.341H133.781V132.957H181.273V180.915H160.438V150.681C158.929 161.628 152.391 183 126.74 183Z" fill="black"/>
</svg>
