<svg width="82" height="82" viewBox="0 0 82 82" fill="none" xmlns="http://www.w3.org/2000/svg">
<path d="M44.5143 69.7C58.4238 69.7 69.7 58.4239 69.7 44.5143C69.7 30.6048 58.4238 19.3286 44.5143 19.3286C30.6047 19.3286 19.3286 30.6048 19.3286 44.5143C19.3286 58.4239 30.6047 69.7 44.5143 69.7Z" fill="black" fill-opacity="0.75"/>
<path d="M39.2429 12.8217C53.7885 12.8217 65.6642 24.6036 65.6642 39.2429C65.6642 53.8822 53.7885 65.6642 39.2429 65.6642C24.6974 65.6642 12.8217 53.8822 12.8217 39.2429C12.8217 24.6036 24.6974 12.8217 39.2429 12.8217Z" fill="#F1EBDD" stroke="#0D0D0D" stroke-width="1.5625"/>
<path d="M37.1167 53.5928C29.6047 53.5928 25.1857 47.3339 25.1857 39.5483C25.1857 31.4572 30.0466 24.8928 39.326 24.8928C48.9004 24.8928 52.1409 31.6098 52.2882 35.4263H45.3653C45.218 33.289 43.4504 30.0831 39.1787 30.0831C34.6128 30.0831 31.6667 34.2051 31.6667 39.2428C31.6667 44.2806 34.6128 48.4025 39.1787 48.4025C43.303 48.4025 45.0707 45.044 45.8073 41.6855H39.1787V38.9374H53.0871V52.9822H46.9854V44.128C46.5435 47.3339 44.6288 53.5928 37.1167 53.5928Z" fill="black"/>
</svg>
