<svg width="65" height="65" viewBox="0 0 65 65" fill="none" xmlns="http://www.w3.org/2000/svg">
<path d="M36.5414 64.9596C52.2362 64.9596 64.9596 52.2362 64.9596 36.5414C64.9596 20.8467 52.2362 8.12329 36.5414 8.12329C20.8467 8.12329 8.12329 20.8467 8.12329 36.5414C8.12329 52.2362 20.8467 64.9596 36.5414 64.9596Z" fill="black" fill-opacity="0.75"/>
<path d="M30.5935 0.78125C47.0059 0.781283 60.4057 14.0753 60.4057 30.5935C60.4057 47.1117 47.0059 60.4057 30.5935 60.4057C14.1812 60.4057 0.781283 47.1117 0.78125 30.5935C0.78125 14.0753 14.1812 0.78125 30.5935 0.78125Z" fill="#F1EBDD" stroke="#0D0D0D" stroke-width="1.5625"/>
<path d="M28.1944 46.7851C19.7182 46.7851 14.7322 39.7228 14.7322 30.938C14.7322 21.8085 20.2169 14.4016 30.6873 14.4016C41.4905 14.4016 45.1468 21.9807 45.3131 26.287H37.5017C37.3355 23.8754 35.3409 20.2581 30.5211 20.2581C25.3692 20.2581 22.0449 24.9091 22.0449 30.5933C22.0449 36.2776 25.3692 40.9286 30.5211 40.9286C35.1747 40.9286 37.1693 37.1391 38.0003 33.3496H30.5211V30.2487H46.2145V46.0961H39.3297V36.1055C38.8311 39.7228 36.6706 46.7851 28.1944 46.7851Z" fill="black"/>
</svg>
