<svg width="280" height="280" viewBox="0 0 280 280" fill="none" xmlns="http://www.w3.org/2000/svg">
<path d="M200.67 76.8038C235.267 76.771 263.388 104.922 263.471 139.689C263.554 174.455 235.568 202.657 200.973 202.689L80.1382 202.804C45.5417 202.837 17.4199 174.685 17.3374 139.918C17.2549 105.152 45.2409 76.9509 79.8364 76.9181L200.67 76.8038Z" stroke="black" stroke-width="2"/>
<path d="M67.903 100.194L67.8454 108.584C65.5386 108.531 63.7233 108.511 62.2115 108.498C61.9826 108.496 61.7609 108.493 61.5456 108.492C60.1897 108.481 59.0909 108.471 58.0761 108.441L57.3416 108.419L57.3366 109.155C57.3202 111.525 57.2766 113.972 57.2319 116.49L57.2283 116.692C57.1822 119.278 57.1357 121.937 57.1169 124.651L57.1118 125.409L57.8676 125.377C59.5857 125.304 61.4271 125.248 63.0887 125.199C64.7778 125.149 66.2811 125.103 67.2804 125.051L67.2208 133.718C65.1524 133.656 61.2188 133.633 57.6438 133.689L56.9471 133.701L56.9371 134.398C56.7233 149.331 56.611 165.419 56.7247 180.18L47.3374 180.327C47.6847 161.15 47.9209 126.63 47.8834 100.507L67.903 100.194ZM116.289 99.439C115.874 113.529 115.766 145.549 115.702 170.758L115.701 171.492L116.434 171.481C118.723 171.445 121.295 171.314 124.06 171.089L124.004 179.117C119.001 179.095 112.782 179.105 106.144 179.387C106.688 161.282 106.799 114.712 106.684 99.589L116.289 99.439ZM137.359 99.1101C136.945 113.2 136.837 145.22 136.774 170.429L136.773 171.164L137.506 171.152C139.794 171.116 142.366 170.985 145.13 170.76L145.076 178.787C140.072 178.766 133.853 178.776 127.215 179.059C127.76 160.953 127.87 114.383 127.755 99.2601L137.359 99.1101ZM233.337 99.3098C229.954 123.307 225.863 160.897 223.924 179.268L211.334 179.464C210.714 172.267 209.919 160.617 209.126 148.55V148.544C208.092 134.699 207.281 121.174 206.78 112.085L206.741 111.392L206.048 111.402L205.597 111.41L204.905 111.421L204.89 112.114C204.724 119.894 204.089 130.397 202.982 143.625V143.63C202.018 156.25 200.285 172.557 199.42 179.651L186.043 179.86C184.893 162.903 181.831 119.175 179.837 100.144L188.729 100.006C188.865 104.702 189.687 114.619 190.836 128.479C191.111 131.814 191.408 135.378 191.717 139.151C192.289 146.675 192.783 155.484 193.214 163.179C193.329 165.215 193.438 167.173 193.544 169.009L193.584 169.699L194.275 169.689L194.839 169.679L195.503 169.669L195.544 169.005C196.053 160.76 196.809 149.283 197.767 140.949L197.768 140.943L197.769 140.936C198.621 132.138 199.182 124.511 199.681 117.677L199.714 117.228C200.18 110.83 200.597 105.135 201.152 99.8118L211.033 99.6576C211.691 106.672 212.235 112.166 213.011 119.99C213.439 124.295 213.935 129.305 214.559 135.664C215.292 143.874 216.207 158.687 216.816 168.647L216.858 169.336L217.546 169.326L217.998 169.318L218.652 169.308L218.702 168.655C218.956 165.4 219.183 162.115 219.411 158.827C219.851 152.443 220.293 146.044 220.933 139.819V139.811C221.365 135.041 221.652 130.895 221.965 126.388C222.446 119.462 222.986 111.679 224.201 99.4519L233.337 99.3098ZM71.848 139.947C71.9368 127.022 73.1373 116.783 75.6437 109.778C78.1503 102.771 81.8656 99.2181 86.9017 99.1393C89.427 99.0999 91.5659 99.9359 93.3784 101.603C95.2077 103.286 96.7323 105.844 97.9419 109.281C100.364 116.164 101.454 126.364 101.363 139.452C101.272 152.646 100.015 163.022 97.4794 170.097C94.9424 177.178 91.2243 180.725 86.3063 180.803C83.8149 180.841 81.6921 179.989 79.8833 178.289C78.0568 176.571 76.5272 173.965 75.3098 170.473C72.8729 163.48 71.7572 153.143 71.848 139.947ZM81.7066 139.759C81.6298 150.937 82.1102 159.147 82.871 164.574C83.2506 167.282 83.7045 169.33 84.2073 170.716C84.4578 171.405 84.7363 171.974 85.0529 172.384C85.3613 172.782 85.8064 173.151 86.3929 173.142C86.9718 173.133 87.4103 172.758 87.7174 172.359C88.0355 171.946 88.3198 171.372 88.5786 170.676C89.1003 169.277 89.5818 167.217 89.9993 164.496C90.8342 159.045 91.4284 150.819 91.5044 139.641C91.581 128.518 91.0991 120.549 90.3362 115.349C89.955 112.755 89.4997 110.814 88.9922 109.507C88.7397 108.856 88.4586 108.319 88.1349 107.932C87.8146 107.549 87.3727 107.224 86.8116 107.233C86.2573 107.241 85.8216 107.574 85.5036 107.958C85.1797 108.349 84.893 108.889 84.632 109.547C84.1073 110.868 83.6256 112.82 83.2088 115.427C82.3751 120.651 81.7832 128.636 81.7066 139.759ZM147.639 139.614C147.728 126.688 148.928 116.449 151.434 109.443C153.941 102.438 157.656 98.8836 162.692 98.8052C165.218 98.7655 167.357 99.6015 169.168 101.269C170.997 102.952 172.523 105.51 173.734 108.947C176.156 115.829 177.244 126.029 177.155 139.118C177.064 152.313 175.806 162.688 173.271 169.763C170.733 176.844 167.016 180.391 162.097 180.467C159.606 180.507 157.484 179.655 155.674 177.955C153.848 176.237 152.318 173.631 151.1 170.137C148.664 163.146 147.548 152.808 147.639 139.614ZM157.497 139.425C157.421 150.602 157.901 158.813 158.662 164.24C159.041 166.947 159.495 168.996 159.999 170.382C160.25 171.071 160.527 171.641 160.844 172.049C161.152 172.447 161.597 172.817 162.184 172.807C162.763 172.799 163.201 172.425 163.508 172.025C163.826 171.612 164.111 171.039 164.369 170.342C164.891 168.943 165.373 166.882 165.79 164.162C166.625 158.711 167.219 150.484 167.295 139.306C167.371 128.184 166.89 120.215 166.127 115.015C165.746 112.421 165.291 110.48 164.783 109.172C164.531 108.521 164.248 107.984 163.926 107.598C163.606 107.216 163.163 106.891 162.602 106.899C162.048 106.908 161.613 107.24 161.295 107.623C160.971 108.014 160.683 108.555 160.423 109.213C159.899 110.533 159.416 112.487 159 115.093C158.166 120.316 157.574 128.302 157.497 139.425Z" stroke="black" stroke-width="2"/>
</svg>
